<svg id="svg" version="1.1" xmlns="http://www.w3.org/2000/svg" xmlns:xlink="http://www.w3.org/1999/xlink" width="400" height="400" viewBox="0, 0, 400,400"><g id="svgg"><path id="path0" d="M96.191 13.500 C 95.620 16.997,95.518 17.251,94.537 17.624 C 93.993 17.831,92.750 18.000,91.774 18.000 C 90.798 18.000,90.000 18.096,90.000 18.214 C 90.000 18.630,91.385 20.615,92.486 21.776 C 93.739 23.098,93.799 23.587,93.120 26.876 C 92.447 30.133,93.069 30.730,95.001 28.682 C 96.734 26.844,97.198 26.837,98.764 28.620 C 100.533 30.635,100.917 30.138,100.593 26.248 L 100.321 22.983 101.960 20.999 C 104.090 18.422,104.063 18.000,101.774 18.000 C 98.736 18.000,98.468 17.698,97.432 13.100 C 97.082 11.543,96.479 11.737,96.191 13.500 M61.981 14.700 C 60.737 17.838,60.620 17.944,58.267 18.080 C 55.758 18.226,55.663 18.970,57.861 21.246 C 59.198 22.631,59.255 22.809,59.198 25.446 C 59.120 29.108,59.131 29.200,59.642 29.200 C 59.885 29.200,60.619 28.750,61.273 28.200 C 62.872 26.855,63.224 26.922,64.947 28.900 C 66.686 30.896,67.336 30.509,66.696 27.860 C 65.629 23.440,65.618 23.549,67.374 21.538 C 70.453 18.013,70.454 18.003,67.833 17.995 C 64.479 17.983,64.285 17.805,63.809 14.300 C 63.472 11.820,63.090 11.903,61.981 14.700 M27.617 14.154 C 27.388 14.758,27.200 15.654,27.200 16.146 C 27.200 17.556,26.415 18.000,23.920 18.000 C 22.644 18.000,21.600 18.069,21.600 18.154 C 21.600 18.735,22.864 20.514,24.115 21.694 C 25.800 23.283,25.925 24.101,24.947 27.129 C 23.949 30.221,24.437 30.775,26.387 28.765 C 28.145 26.954,29.558 26.827,30.403 28.405 C 30.637 28.842,31.167 29.200,31.581 29.200 C 31.995 29.200,32.409 29.335,32.501 29.500 C 32.593 29.665,32.604 29.548,32.524 29.241 C 32.445 28.934,32.282 27.404,32.162 25.841 L 31.945 23.000 33.572 21.283 C 35.925 18.800,35.782 18.070,32.911 17.920 C 30.641 17.801,30.619 17.787,30.204 16.304 C 29.974 15.482,29.392 14.414,28.910 13.933 L 28.035 13.057 27.617 14.154 M130.012 14.168 C 129.786 14.764,129.600 15.654,129.600 16.146 C 129.600 17.556,128.815 18.000,126.320 18.000 C 125.044 18.000,124.000 18.069,124.000 18.154 C 124.000 18.684,125.221 20.426,126.535 21.770 C 128.122 23.394,128.342 25.466,127.161 27.674 C 126.779 28.387,126.661 30.400,127.000 30.400 C 127.111 30.400,127.900 29.680,128.754 28.800 C 130.532 26.968,131.238 26.836,132.495 28.100 C 134.066 29.680,135.346 30.185,135.036 29.101 C 134.050 25.655,134.301 23.041,135.767 21.481 C 138.220 18.870,138.143 18.000,135.457 18.000 C 133.116 18.000,132.400 17.460,132.400 15.696 C 132.400 15.280,131.956 14.522,131.412 14.011 L 130.424 13.084 130.012 14.168 M0.000 18.833 C 0.000 19.808,0.935 19.670,1.129 18.667 C 1.206 18.272,1.002 18.000,0.629 18.000 C 0.258 18.000,0.000 18.342,0.000 18.833 M149.289 32.071 C 148.458 32.902,148.597 61.836,149.433 62.157 C 149.781 62.291,201.070 62.400,263.409 62.400 C 378.797 62.400,378.933 62.402,376.627 63.775 C 375.901 64.208,368.215 70.106,366.400 71.624 C 365.850 72.084,364.050 73.475,362.400 74.714 C 360.750 75.954,356.762 79.045,353.538 81.584 C 350.314 84.123,345.749 87.699,343.393 89.532 L 339.109 92.864 244.442 92.955 C 192.375 93.004,149.555 93.181,149.287 93.346 C 148.542 93.806,148.589 122.527,149.335 123.146 C 149.723 123.468,170.217 123.584,223.973 123.567 C 264.730 123.553,298.164 123.630,298.270 123.737 C 298.478 123.945,296.858 125.570,294.816 127.200 C 294.127 127.750,293.257 128.486,292.882 128.836 C 292.507 129.186,291.120 130.256,289.800 131.212 C 288.480 132.169,285.960 134.093,284.200 135.489 C 282.440 136.884,280.588 138.334,280.084 138.713 C 279.581 139.091,278.861 139.686,278.484 140.036 C 278.108 140.386,276.720 141.458,275.400 142.419 C 274.080 143.379,270.343 146.284,267.096 148.874 C 263.849 151.465,260.662 153.857,260.016 154.192 C 258.980 154.727,252.292 154.800,204.027 154.800 L 149.215 154.800 148.996 155.700 C 148.876 156.195,148.827 162.990,148.888 170.800 L 149.000 185.000 184.600 185.092 L 220.200 185.184 221.639 183.892 C 222.430 183.181,223.680 182.150,224.416 181.600 C 225.151 181.050,227.024 179.610,228.577 178.400 C 230.129 177.189,232.390 175.456,233.600 174.548 C 234.810 173.641,236.194 172.550,236.675 172.124 C 237.156 171.698,238.032 171.001,238.622 170.575 C 239.212 170.149,241.068 168.709,242.747 167.376 C 244.426 166.043,246.827 164.198,248.083 163.276 L 250.366 161.600 325.183 161.600 L 400.000 161.600 400.000 148.803 L 400.000 136.005 370.700 135.903 C 348.456 135.825,341.400 135.686,341.400 135.326 C 341.400 134.901,346.149 131.055,355.491 123.915 C 357.301 122.532,359.370 120.895,360.088 120.278 C 360.805 119.661,362.525 118.311,363.910 117.278 C 365.294 116.245,367.828 114.320,369.541 113.000 C 371.254 111.680,373.244 110.156,373.963 109.613 C 374.682 109.070,375.679 108.260,376.178 107.813 C 376.678 107.366,377.495 106.730,377.995 106.400 C 378.496 106.070,380.276 104.709,381.952 103.376 C 383.629 102.043,386.080 100.169,387.400 99.212 C 388.720 98.256,390.099 97.166,390.465 96.791 C 390.830 96.416,392.876 94.780,395.010 93.155 C 397.144 91.530,399.140 90.000,399.445 89.756 C 399.909 89.385,400.000 84.613,400.000 60.656 L 400.000 32.000 275.433 32.000 C 206.921 32.000,150.621 31.906,150.321 31.791 C 150.022 31.676,149.558 31.802,149.289 32.071 M45.061 34.300 C 44.954 34.685,44.751 35.853,44.610 36.895 C 44.271 39.391,43.601 40.000,41.195 40.000 C 38.784 40.000,38.410 40.521,39.816 41.919 C 42.631 44.719,42.913 45.360,42.226 47.385 C 41.146 50.566,41.712 52.688,43.180 50.964 C 45.166 48.632,45.462 48.555,47.179 49.935 C 49.599 51.880,50.336 50.760,49.213 46.846 C 48.767 45.290,49.093 44.477,50.965 42.487 C 52.698 40.645,52.553 40.235,50.077 39.987 C 47.889 39.767,47.376 39.374,46.956 37.600 C 45.969 33.428,45.518 32.643,45.061 34.300 M10.815 36.300 C 9.470 39.823,9.503 39.788,7.359 39.924 C 4.514 40.104,4.366 40.527,6.418 42.619 C 8.230 44.465,8.707 47.118,7.766 50.102 C 7.424 51.186,8.769 51.492,9.551 50.509 C 11.035 48.644,11.886 48.616,13.580 50.380 C 15.801 52.691,16.296 51.722,15.028 47.543 C 14.387 45.432,14.547 45.037,17.157 42.284 C 18.819 40.530,18.517 40.021,15.800 40.000 C 13.450 39.982,12.433 38.277,12.402 34.300 C 12.395 33.290,11.565 34.335,10.815 36.300 M112.922 36.900 L 111.751 39.800 109.776 39.924 C 106.952 40.101,106.769 40.524,108.662 42.502 C 110.691 44.623,110.792 44.928,110.444 47.879 C 110.082 50.952,111.027 52.758,111.861 50.585 C 112.530 48.842,114.149 48.781,115.936 50.432 C 116.870 51.294,117.717 52.000,117.817 52.000 C 118.211 52.000,117.961 49.299,117.395 47.433 C 116.729 45.240,116.640 45.449,119.584 42.284 C 121.152 40.598,120.904 40.023,118.600 40.001 C 115.719 39.973,115.612 39.846,114.986 35.700 C 114.631 33.346,114.274 33.553,112.922 36.900 M79.033 35.146 C 78.921 35.328,78.708 36.269,78.560 37.238 C 78.192 39.644,77.808 40.000,75.575 40.000 C 72.932 40.000,72.848 40.461,75.027 43.011 L 76.908 45.213 76.404 47.506 C 75.210 52.943,75.293 53.195,77.496 50.800 C 79.214 48.932,80.146 48.807,81.646 50.244 C 83.277 51.807,83.655 51.236,83.357 47.657 L 83.099 44.570 84.771 42.830 C 86.861 40.655,86.683 40.000,84.000 40.000 C 82.736 40.000,81.912 39.812,81.807 39.500 C 81.715 39.225,81.455 38.280,81.230 37.400 C 80.838 35.868,79.460 34.455,79.033 35.146 M96.245 56.300 C 96.126 56.905,95.910 58.080,95.767 58.911 C 95.460 60.694,94.693 61.200,92.293 61.200 C 89.624 61.200,89.665 61.999,92.486 64.976 C 93.739 66.298,93.799 66.787,93.120 70.076 C 92.451 73.316,93.029 73.846,95.071 71.863 C 96.923 70.064,97.113 70.060,98.785 71.784 C 100.627 73.684,100.946 73.287,100.616 69.503 C 100.344 66.389,100.366 66.276,101.504 64.856 C 102.651 63.424,103.600 61.871,103.600 61.426 C 103.600 61.302,102.778 61.200,101.774 61.200 C 98.736 61.200,98.468 60.898,97.432 56.300 C 97.296 55.695,97.022 55.200,96.824 55.200 C 96.626 55.200,96.365 55.695,96.245 56.300 M62.036 57.700 C 60.682 60.995,60.695 60.984,58.359 61.200 C 57.172 61.310,56.245 61.535,56.300 61.700 C 56.355 61.865,56.402 62.225,56.405 62.500 C 56.408 62.775,57.112 63.756,57.970 64.679 C 59.574 66.406,59.698 67.119,58.997 70.565 C 58.612 72.453,59.542 72.933,61.039 71.620 C 62.843 70.036,63.215 70.076,64.998 72.051 C 66.726 73.963,67.284 73.644,66.709 71.072 C 65.773 66.887,65.813 66.431,67.255 64.863 C 68.504 63.506,69.600 61.889,69.600 61.405 C 69.600 61.292,68.623 61.200,67.429 61.200 C 65.026 61.200,64.000 60.548,64.000 59.021 C 64.000 55.412,63.198 54.872,62.036 57.700 M27.885 56.663 C 27.768 56.852,27.543 57.725,27.384 58.603 C 26.973 60.878,26.580 61.200,24.218 61.200 C 21.124 61.200,21.138 61.589,24.365 65.172 C 25.775 66.738,25.861 67.501,24.947 70.329 C 23.949 73.421,24.437 73.975,26.387 71.965 C 28.145 70.154,29.558 70.027,30.403 71.605 C 30.637 72.042,31.167 72.400,31.581 72.400 C 31.995 72.400,32.440 72.625,32.571 72.900 C 32.702 73.175,32.712 72.950,32.594 72.400 C 31.692 68.212,31.892 66.251,33.381 64.666 C 35.628 62.273,35.492 61.445,32.811 61.200 C 30.679 61.005,30.610 60.961,30.204 59.504 C 29.766 57.934,28.248 56.075,27.885 56.663 M130.279 56.673 C 130.165 56.856,129.943 57.725,129.784 58.603 C 129.373 60.878,128.980 61.200,126.618 61.200 C 123.548 61.200,123.562 61.881,126.700 65.125 C 128.172 66.646,128.238 67.089,127.404 69.836 C 126.217 73.752,126.544 74.277,128.754 72.000 C 130.532 70.168,131.238 70.036,132.495 71.300 C 134.066 72.880,135.346 73.385,135.036 72.301 C 134.047 68.842,134.300 66.242,135.781 64.666 C 137.983 62.321,137.883 61.428,135.400 61.283 C 133.266 61.157,132.400 60.496,132.400 58.993 C 132.400 58.072,130.618 56.124,130.279 56.673 M0.000 62.033 C 0.000 63.008,0.935 62.870,1.129 61.867 C 1.206 61.472,1.002 61.200,0.629 61.200 C 0.258 61.200,0.000 61.542,0.000 62.033 M45.054 77.497 C 44.938 78.103,44.727 79.366,44.586 80.302 C 44.272 82.383,43.243 83.200,40.935 83.200 C 38.778 83.200,38.451 83.761,39.816 85.119 C 42.631 87.919,42.913 88.560,42.226 90.585 C 40.929 94.403,41.667 95.666,43.893 93.440 C 45.634 91.700,45.630 91.700,47.339 93.200 C 49.586 95.173,50.154 94.272,49.216 90.226 C 48.793 88.404,49.079 87.697,51.065 85.652 C 52.795 83.870,52.621 83.449,50.046 83.187 C 47.892 82.967,47.374 82.567,46.956 80.800 C 45.909 76.371,45.429 75.538,45.054 77.497 M10.522 80.100 L 9.351 83.000 7.376 83.124 C 4.628 83.296,4.419 83.706,6.172 85.483 C 8.160 87.498,8.385 88.201,8.016 91.232 C 7.844 92.645,7.781 93.935,7.875 94.100 C 8.178 94.628,9.217 94.421,9.461 93.785 C 10.176 91.921,12.072 91.816,13.690 93.551 C 15.895 95.914,16.400 95.166,15.202 91.310 C 14.380 88.662,14.467 88.377,16.922 85.714 C 18.710 83.774,18.552 83.223,16.200 83.201 C 13.319 83.173,13.212 83.046,12.586 78.900 C 12.231 76.546,11.874 76.753,10.522 80.100 M112.922 80.100 L 111.751 83.000 109.776 83.124 C 107.028 83.296,106.819 83.706,108.572 85.483 C 110.573 87.511,110.814 88.271,110.396 91.232 C 110.200 92.613,110.132 93.890,110.244 94.071 C 110.584 94.621,111.610 94.439,111.861 93.785 C 112.576 91.921,114.472 91.816,116.090 93.551 C 116.937 94.458,117.712 95.200,117.814 95.200 C 118.237 95.200,117.955 92.411,117.356 90.652 C 116.635 88.536,116.540 88.757,119.584 85.484 C 121.152 83.798,120.904 83.223,118.600 83.201 C 115.719 83.173,115.612 83.046,114.986 78.900 C 114.631 76.546,114.274 76.753,112.922 80.100 M79.033 78.346 C 78.921 78.528,78.708 79.469,78.560 80.438 C 78.192 82.844,77.808 83.200,75.575 83.200 C 72.932 83.200,72.848 83.661,75.025 86.209 L 76.904 88.408 76.424 90.504 C 75.230 95.717,75.267 95.832,77.478 93.802 C 79.282 92.145,80.325 92.043,81.600 93.400 C 82.117 93.950,82.763 94.400,83.036 94.400 C 83.310 94.400,83.638 94.625,83.766 94.900 C 83.894 95.175,83.909 94.770,83.799 94.000 C 83.689 93.230,83.488 91.512,83.352 90.183 L 83.104 87.765 84.774 86.028 C 86.861 83.855,86.682 83.200,84.000 83.200 C 82.736 83.200,81.912 83.012,81.807 82.700 C 81.715 82.425,81.455 81.480,81.230 80.600 C 80.838 79.068,79.460 77.655,79.033 78.346 M96.245 99.500 C 96.126 100.105,95.910 101.281,95.767 102.114 C 95.464 103.869,94.100 104.800,91.830 104.800 C 90.116 104.800,90.354 106.072,92.479 108.276 C 93.796 109.640,93.775 109.380,92.958 114.453 C 92.618 116.557,93.399 116.780,95.035 115.046 C 96.722 113.256,97.104 113.250,98.785 114.984 C 100.611 116.868,100.909 116.488,100.612 112.656 L 100.360 109.400 101.780 107.644 C 103.626 105.360,103.608 104.800,101.689 104.800 C 99.059 104.800,98.457 104.051,97.432 99.500 C 97.296 98.895,97.022 98.400,96.824 98.400 C 96.626 98.400,96.365 98.895,96.245 99.500 M61.982 101.100 C 60.710 104.314,60.205 104.800,58.138 104.800 C 55.883 104.800,55.845 105.592,57.990 107.901 C 59.567 109.599,59.569 109.606,59.330 112.169 C 58.979 115.923,59.266 116.376,61.016 114.839 C 62.848 113.231,63.178 113.270,64.947 115.300 C 66.680 117.288,67.302 116.925,66.709 114.272 C 65.773 110.087,65.813 109.631,67.255 108.063 C 69.548 105.570,69.831 104.800,68.453 104.800 C 64.925 104.800,64.260 104.214,63.800 100.700 C 63.475 98.219,63.090 98.303,61.982 101.100 M27.863 99.898 C 27.735 100.106,27.514 100.999,27.372 101.883 C 27.009 104.156,26.812 104.345,24.587 104.550 C 23.494 104.650,22.482 104.748,22.337 104.766 C 21.699 104.848,22.674 106.729,24.072 108.115 C 25.789 109.818,25.908 110.555,24.947 113.529 C 23.953 116.607,24.436 117.176,26.359 115.194 C 28.078 113.423,29.594 113.293,30.425 114.846 C 30.647 115.261,31.167 115.600,31.581 115.600 C 31.995 115.600,32.440 115.825,32.571 116.100 C 32.702 116.375,32.712 116.150,32.594 115.600 C 31.677 111.339,31.868 109.449,33.359 108.022 C 35.490 105.983,35.312 105.037,32.708 104.573 C 30.740 104.222,30.592 104.112,30.201 102.704 C 29.754 101.091,28.245 99.280,27.863 99.898 M130.257 99.908 C 130.132 100.111,129.914 100.999,129.772 101.883 C 129.361 104.454,129.508 104.367,124.937 104.760 C 124.163 104.827,124.761 106.121,126.422 107.975 C 128.152 109.906,128.316 110.825,127.388 113.400 C 126.137 116.875,126.585 117.434,128.797 115.156 C 130.545 113.354,131.960 113.230,132.803 114.805 C 133.037 115.242,133.567 115.600,133.981 115.600 C 134.395 115.600,134.809 115.735,134.901 115.900 C 134.993 116.065,135.004 115.948,134.924 115.641 C 134.845 115.334,134.677 113.804,134.550 112.241 L 134.321 109.400 135.748 108.000 C 137.835 105.953,137.718 104.800,135.423 104.800 C 133.498 104.800,132.400 103.848,132.400 102.181 C 132.400 101.236,130.610 99.337,130.257 99.908 M45.061 120.700 C 44.954 121.085,44.752 122.252,44.610 123.294 C 44.309 125.507,43.338 126.397,41.211 126.406 C 38.924 126.416,38.558 126.899,39.815 128.244 C 42.746 131.379,42.913 131.762,42.226 133.785 C 40.883 137.739,41.654 138.842,44.030 136.369 L 45.648 134.685 47.141 136.142 C 49.498 138.444,50.359 137.240,49.213 133.246 C 48.760 131.664,49.086 130.890,51.065 128.852 C 52.768 127.098,52.614 126.631,50.281 126.479 C 48.176 126.341,47.114 125.273,46.620 122.800 C 46.173 120.560,45.969 120.000,45.600 120.000 C 45.410 120.000,45.167 120.315,45.061 120.700 M10.522 123.300 L 9.351 126.200 7.376 126.324 C 4.653 126.495,4.456 126.887,6.195 128.669 C 8.147 130.671,8.385 131.390,8.045 134.273 C 7.606 137.991,8.027 138.435,10.062 136.400 C 11.622 134.840,12.021 134.883,13.752 136.800 C 15.869 139.143,16.427 138.254,15.218 134.468 C 14.386 131.864,14.478 131.566,16.922 128.914 C 18.764 126.916,18.560 126.417,15.900 126.406 C 14.152 126.399,12.800 125.285,12.800 123.850 C 12.800 119.847,11.995 119.652,10.522 123.300 M113.477 121.900 C 113.122 122.725,112.564 124.075,112.237 124.900 C 111.659 126.353,111.579 126.400,109.644 126.400 C 107.041 126.400,106.815 126.902,108.602 128.714 C 110.558 130.696,110.784 131.409,110.416 134.432 C 110.244 135.845,110.181 137.135,110.275 137.300 C 110.578 137.828,111.617 137.621,111.861 136.985 C 112.576 135.121,114.472 135.016,116.090 136.751 C 116.937 137.658,117.712 138.400,117.814 138.400 C 118.201 138.400,117.969 135.726,117.428 133.943 C 116.787 131.832,116.947 131.437,119.557 128.684 C 121.205 126.945,120.913 126.417,118.300 126.406 C 116.552 126.399,115.200 125.285,115.200 123.850 C 115.200 120.558,114.429 119.685,113.477 121.900 M79.033 121.546 C 78.921 121.728,78.708 122.669,78.560 123.638 C 78.192 126.044,77.808 126.400,75.575 126.400 C 72.932 126.400,72.848 126.861,75.025 129.409 L 76.904 131.608 76.424 133.704 C 75.218 138.971,75.251 139.059,77.628 136.864 C 79.514 135.123,80.753 135.058,81.792 136.643 C 82.136 137.169,82.669 137.600,82.976 137.600 C 83.282 137.600,83.639 137.825,83.769 138.100 C 83.898 138.375,83.914 138.060,83.804 137.400 C 83.694 136.740,83.494 135.030,83.360 133.600 L 83.116 131.000 84.752 129.200 C 86.773 126.976,86.684 126.632,84.048 126.478 C 82.881 126.410,81.888 126.145,81.799 125.878 C 81.711 125.615,81.455 124.680,81.230 123.800 C 80.838 122.268,79.460 120.855,79.033 121.546 M96.245 142.700 C 96.126 143.305,95.912 144.469,95.772 145.286 C 95.456 147.124,94.799 147.693,92.665 147.978 C 90.432 148.276,90.273 149.333,92.184 151.185 C 93.747 152.699,93.818 153.098,93.120 156.476 C 92.447 159.732,93.092 160.373,94.945 158.290 C 96.592 156.439,97.190 156.428,98.764 158.220 C 100.535 160.237,100.949 159.729,100.620 155.948 L 100.345 152.802 101.821 151.000 C 103.526 148.920,103.268 148.000,100.980 148.000 C 99.380 148.000,98.215 146.710,97.824 144.503 C 97.264 141.346,96.653 140.647,96.245 142.700 M62.277 143.500 C 61.922 144.325,61.364 145.675,61.037 146.500 C 60.526 147.785,60.262 148.000,59.194 148.000 C 57.041 148.000,55.392 149.527,56.914 150.112 C 58.451 150.702,59.589 153.365,59.242 155.561 C 58.656 159.264,59.038 159.776,61.061 158.000 C 62.845 156.434,63.185 156.478,64.947 158.500 C 66.680 160.489,67.303 160.124,66.705 157.472 C 65.766 153.307,65.830 152.708,67.371 151.222 C 69.399 149.265,69.332 148.000,67.200 148.000 C 65.349 148.000,64.000 146.925,64.000 145.450 C 64.000 142.158,63.229 141.285,62.277 143.500 M27.857 143.108 C 27.732 143.311,27.514 144.199,27.372 145.083 C 27.002 147.400,26.677 147.732,24.532 147.979 C 22.024 148.267,21.910 148.981,24.016 151.217 C 25.724 153.031,25.968 155.017,24.761 157.274 C 24.361 158.020,24.267 160.000,24.631 160.000 C 24.759 160.000,25.572 159.261,26.440 158.359 C 28.167 156.561,29.563 156.436,30.403 158.005 C 30.637 158.442,31.167 158.800,31.581 158.800 C 31.995 158.800,32.409 158.935,32.501 159.100 C 32.593 159.265,32.608 159.160,32.534 158.866 C 32.460 158.573,32.283 157.078,32.140 155.544 L 31.881 152.756 33.378 151.222 C 35.408 149.143,35.210 148.240,32.689 148.078 C 30.802 147.957,30.781 147.940,30.307 146.167 C 29.823 144.360,28.277 142.429,27.857 143.108 M130.279 143.073 C 130.165 143.256,129.943 144.125,129.784 145.003 C 129.314 147.601,128.993 147.944,126.901 148.078 C 124.373 148.241,124.229 149.097,126.370 151.217 C 128.173 153.002,128.349 153.934,127.388 156.600 C 126.140 160.067,126.703 160.785,128.800 158.400 C 130.381 156.602,131.218 156.423,132.352 157.641 C 133.520 158.894,135.363 159.801,135.042 158.965 C 134.908 158.617,134.683 157.078,134.540 155.544 L 134.281 152.756 135.778 151.222 C 137.790 149.162,137.606 148.240,135.152 148.080 C 133.250 147.957,132.400 147.083,132.400 145.251 C 132.400 144.433,130.588 142.572,130.279 143.073 M45.061 163.900 C 44.954 164.285,44.752 165.452,44.610 166.494 C 44.309 168.707,43.338 169.597,41.211 169.606 C 38.924 169.616,38.558 170.099,39.815 171.444 C 42.746 174.579,42.913 174.962,42.226 176.985 C 40.909 180.864,41.681 182.013,43.990 179.611 L 45.648 177.885 47.188 179.388 C 49.404 181.553,50.303 180.247,49.213 176.446 C 48.760 174.864,49.086 174.090,51.065 172.052 C 52.768 170.298,52.614 169.831,50.281 169.679 C 48.350 169.552,46.803 168.294,46.798 166.846 C 46.790 164.555,45.489 162.349,45.061 163.900 M10.522 166.500 L 9.351 169.400 7.376 169.524 C 4.628 169.696,4.419 170.106,6.172 171.883 C 8.161 173.899,8.386 174.602,8.012 177.632 C 7.615 180.854,7.971 181.259,9.793 179.659 C 11.639 178.039,12.010 178.071,13.752 180.000 C 15.869 182.343,16.427 181.454,15.218 177.668 C 14.386 175.064,14.478 174.766,16.922 172.114 C 18.710 170.174,18.552 169.623,16.200 169.601 C 13.319 169.573,13.212 169.446,12.586 165.300 C 12.231 162.946,11.874 163.153,10.522 166.500 M113.477 165.100 C 113.122 165.925,112.564 167.275,112.237 168.100 C 111.659 169.553,111.579 169.600,109.644 169.600 C 107.041 169.600,106.815 170.102,108.602 171.914 C 110.544 173.882,110.782 174.609,110.438 177.526 C 110.068 180.668,110.497 181.149,112.279 179.585 C 114.038 178.040,114.422 178.084,116.185 180.036 C 116.997 180.935,117.756 181.577,117.871 181.462 C 118.263 181.071,118.032 178.604,117.453 177.003 C 116.767 175.102,116.985 174.536,119.345 172.084 C 121.159 170.201,120.986 169.624,118.600 169.601 C 115.719 169.573,115.612 169.446,114.986 165.300 C 114.670 163.207,114.311 163.159,113.477 165.100 M79.033 164.746 C 78.921 164.928,78.708 165.869,78.560 166.838 C 78.192 169.244,77.808 169.600,75.575 169.600 C 72.927 169.600,72.848 170.060,75.053 172.641 L 76.959 174.872 76.276 177.536 C 75.121 182.043,75.242 182.268,77.628 180.064 C 79.514 178.323,80.753 178.258,81.792 179.843 C 82.136 180.369,82.684 180.800,83.009 180.800 C 83.334 180.800,83.600 180.980,83.600 181.200 C 83.600 181.420,83.754 181.600,83.941 181.600 C 84.129 181.600,84.039 180.661,83.741 179.513 C 82.763 175.740,82.980 174.323,84.831 172.416 C 86.900 170.284,86.698 169.600,84.000 169.600 C 82.736 169.600,81.912 169.412,81.807 169.100 C 81.715 168.825,81.455 167.880,81.230 167.000 C 80.838 165.468,79.460 164.055,79.033 164.746 M96.245 185.900 C 96.126 186.505,95.908 187.694,95.761 188.542 C 95.468 190.240,93.978 191.200,91.634 191.200 C 90.138 191.200,90.501 192.781,92.420 194.619 C 93.740 195.883,93.805 196.358,93.120 199.676 C 92.443 202.954,93.049 203.501,95.117 201.481 C 96.981 199.661,97.093 199.659,98.709 201.420 C 100.544 203.419,100.950 202.938,100.620 199.157 C 100.354 196.099,100.377 195.981,101.533 194.510 C 103.513 191.989,103.557 191.200,101.716 191.200 C 99.057 191.200,98.459 190.460,97.432 185.900 C 97.296 185.295,97.022 184.800,96.824 184.800 C 96.626 184.800,96.365 185.295,96.245 185.900 M62.049 187.174 C 61.582 188.260,61.200 189.312,61.200 189.512 C 61.200 190.284,59.731 191.147,58.203 191.270 C 56.096 191.441,56.013 192.194,57.879 194.200 L 59.368 195.800 59.263 199.100 C 59.149 202.672,59.485 203.163,60.853 201.424 C 62.220 199.686,63.078 199.735,64.849 201.654 C 66.697 203.655,67.304 203.334,66.709 200.672 C 65.773 196.487,65.813 196.031,67.255 194.463 C 69.288 192.253,70.119 190.626,68.995 191.057 C 66.293 192.094,64.250 190.538,63.800 187.100 C 63.484 184.691,63.111 184.707,62.049 187.174 M27.889 186.270 C 27.782 186.451,27.569 187.230,27.417 188.000 C 26.868 190.778,26.896 190.749,24.428 191.029 C 21.635 191.345,21.565 192.030,24.072 194.515 C 25.802 196.231,25.867 196.667,24.920 200.221 C 24.062 203.441,24.326 203.685,26.455 201.639 C 28.282 199.884,29.286 199.785,30.323 201.257 C 30.610 201.666,31.180 202.000,31.589 202.000 C 31.999 202.000,32.409 202.135,32.501 202.300 C 32.593 202.465,32.616 202.381,32.552 202.114 C 32.488 201.847,32.321 200.317,32.180 198.714 L 31.923 195.800 33.362 194.422 C 35.461 192.410,35.343 191.200,33.049 191.200 C 31.110 191.200,30.527 190.734,30.158 188.890 C 29.903 187.614,28.234 185.687,27.889 186.270 M130.012 186.968 C 129.786 187.564,129.597 188.445,129.594 188.926 C 129.583 190.424,129.037 190.787,126.379 191.065 C 124.963 191.213,124.028 191.409,124.302 191.501 C 124.576 191.592,124.800 191.936,124.800 192.265 C 124.800 192.594,125.520 193.576,126.400 194.447 C 128.171 196.200,128.345 197.144,127.388 199.800 C 126.123 203.313,126.660 203.913,128.988 201.588 C 130.603 199.975,131.780 199.787,132.505 201.026 C 133.029 201.921,135.335 202.930,135.028 202.129 C 134.892 201.773,134.676 200.204,134.549 198.641 L 134.318 195.800 135.759 194.422 C 137.871 192.401,137.746 191.200,135.423 191.200 C 133.498 191.200,132.400 190.248,132.400 188.581 C 132.400 188.118,131.956 187.322,131.412 186.811 L 130.424 185.884 130.012 186.968 M0.000 231.397 L 0.000 246.800 69.800 246.800 C 108.190 246.800,139.594 246.935,139.587 247.100 C 139.565 247.583,138.305 248.919,136.799 250.055 C 136.029 250.635,135.010 251.445,134.534 251.855 C 133.021 253.156,132.307 253.712,126.795 257.878 C 123.828 260.121,120.823 262.488,120.119 263.138 C 119.414 263.789,118.604 264.404,118.319 264.506 C 116.456 265.169,120.491 265.424,135.700 265.600 C 146.726 265.728,152.982 265.945,153.068 266.202 C 153.141 266.424,150.665 268.584,147.564 271.002 C 144.463 273.421,140.125 276.811,137.922 278.536 C 135.720 280.261,131.964 283.178,129.577 285.018 C 127.189 286.858,124.913 288.649,124.518 288.998 C 124.123 289.347,121.460 291.438,118.600 293.645 C 112.384 298.442,111.660 299.016,109.708 300.700 C 108.878 301.415,108.088 302.000,107.950 302.000 C 107.813 302.000,106.153 303.215,104.262 304.700 C 102.371 306.185,100.220 307.850,99.482 308.400 C 98.744 308.950,97.434 309.972,96.570 310.672 C 93.794 312.921,89.111 316.566,84.800 319.832 C 80.598 323.016,78.301 324.808,65.200 335.123 C 61.350 338.155,57.120 341.424,55.800 342.389 C 54.480 343.355,53.040 344.461,52.600 344.847 C 51.192 346.085,41.809 353.443,41.147 353.828 C 40.796 354.033,39.900 354.698,39.155 355.307 C 37.471 356.684,23.560 367.482,10.064 377.888 C 7.719 379.696,5.530 381.416,5.200 381.711 C 3.343 383.370,0.857 385.200,0.459 385.200 C 0.130 385.200,0.000 387.301,0.000 392.600 C 0.000 399.733,0.029 400.000,0.800 400.000 C 1.240 400.000,1.600 399.773,1.600 399.495 C 1.600 399.025,4.846 396.258,7.182 394.737 C 7.742 394.372,8.740 393.585,9.400 392.989 C 10.060 392.393,11.590 391.169,12.800 390.270 C 14.010 389.371,17.636 386.557,20.857 384.018 C 24.078 381.478,28.716 377.870,31.162 376.000 C 36.543 371.888,37.176 371.390,38.200 370.466 C 38.640 370.069,40.080 368.958,41.400 367.996 C 42.720 367.035,45.174 365.157,46.853 363.824 C 48.532 362.491,50.382 361.056,50.964 360.636 C 51.546 360.216,52.441 359.496,52.954 359.036 C 53.466 358.576,54.295 357.930,54.795 357.600 C 55.296 357.270,57.076 355.909,58.752 354.576 C 60.429 353.243,62.880 351.369,64.200 350.412 C 65.520 349.456,66.908 348.386,67.284 348.036 C 67.661 347.686,68.381 347.089,68.884 346.708 C 69.388 346.328,71.847 344.393,74.350 342.408 C 76.852 340.424,79.012 338.796,79.150 338.791 C 79.287 338.786,80.120 338.130,81.000 337.335 C 81.880 336.539,83.590 335.158,84.800 334.267 C 87.133 332.547,94.989 326.375,96.000 325.468 C 96.330 325.172,97.680 324.144,99.000 323.184 C 100.320 322.224,102.671 320.440,104.223 319.219 C 105.776 317.999,107.645 316.550,108.377 316.000 C 109.108 315.450,110.019 314.730,110.400 314.400 C 110.781 314.070,111.692 313.350,112.423 312.800 C 113.155 312.250,115.024 310.805,116.577 309.590 C 118.129 308.374,120.557 306.506,121.971 305.439 C 123.385 304.372,124.735 303.342,124.971 303.150 C 127.320 301.241,134.264 295.811,136.000 294.526 C 137.210 293.630,138.594 292.549,139.075 292.123 C 139.556 291.698,140.430 291.001,141.017 290.575 C 141.604 290.149,144.027 288.270,146.400 286.400 C 148.773 284.530,151.216 282.640,151.828 282.200 C 152.439 281.760,153.251 281.070,153.630 280.667 C 154.025 280.248,154.724 279.991,155.260 280.067 L 156.200 280.200 156.301 340.100 L 156.403 400.000 165.001 400.000 L 173.600 400.000 173.600 320.449 C 173.600 254.672,173.508 240.821,173.067 240.456 C 172.714 240.163,168.893 239.977,161.767 239.907 C 153.985 239.830,151.000 239.673,151.000 239.340 C 151.000 238.953,159.414 231.999,163.028 229.400 C 163.639 228.960,164.423 228.314,164.770 227.964 C 165.116 227.614,166.480 226.544,167.800 225.588 C 173.936 221.140,179.000 216.867,178.605 216.471 C 178.455 216.322,138.208 216.153,89.167 216.097 L 0.000 215.993 0.000 231.397 M227.300 240.265 C 226.902 240.425,226.800 256.794,226.800 320.233 L 226.800 400.000 235.399 400.000 L 243.997 400.000 244.099 340.344 C 244.214 272.359,243.827 278.512,247.784 281.735 C 249.043 282.761,250.192 283.604,250.337 283.609 C 250.482 283.614,251.320 284.270,252.200 285.066 C 253.080 285.862,254.790 287.250,256.000 288.151 C 257.210 289.052,260.360 291.512,263.000 293.618 C 265.640 295.724,268.880 298.246,270.200 299.223 C 273.102 301.372,280.289 306.973,281.400 307.951 C 281.840 308.339,283.280 309.445,284.600 310.409 C 285.920 311.373,288.271 313.160,289.823 314.381 C 291.376 315.601,293.245 317.050,293.977 317.600 C 294.708 318.150,295.778 319.019,296.353 319.530 C 296.929 320.042,297.850 320.757,298.400 321.119 C 298.950 321.480,301.110 323.134,303.200 324.794 C 305.290 326.454,307.720 328.298,308.600 328.893 C 309.480 329.488,310.755 330.475,311.433 331.087 C 312.665 332.200,314.815 333.887,321.200 338.754 C 323.070 340.179,324.780 341.558,325.000 341.819 C 325.220 342.079,326.480 343.072,327.800 344.024 C 329.879 345.523,337.477 351.447,339.187 352.901 C 339.745 353.375,341.765 354.910,349.666 360.862 C 351.573 362.298,353.913 364.122,354.866 364.914 C 357.386 367.007,362.235 370.773,365.000 372.784 C 366.320 373.744,367.670 374.772,368.000 375.068 C 369.148 376.098,377.019 382.256,380.000 384.455 C 381.650 385.673,383.450 387.056,384.000 387.529 C 386.483 389.664,394.129 395.600,394.395 395.600 C 394.558 395.600,395.738 396.590,397.018 397.800 C 398.297 399.010,399.492 400.000,399.672 400.000 C 399.852 400.000,399.993 390.055,399.985 377.900 L 399.971 355.800 398.085 354.618 C 397.048 353.968,394.040 351.708,391.400 349.595 C 388.760 347.482,385.521 344.954,384.201 343.977 C 382.882 343.000,378.715 339.770,374.941 336.800 C 371.168 333.830,364.719 328.790,360.610 325.600 C 356.501 322.410,350.010 317.370,346.185 314.400 C 342.361 311.430,337.237 307.470,334.799 305.600 C 332.361 303.730,329.969 301.863,329.484 301.452 C 328.998 301.040,327.610 299.968,326.400 299.069 C 325.190 298.170,321.110 294.996,317.333 292.017 C 310.659 286.752,299.955 278.407,291.785 272.099 C 285.603 267.325,284.686 266.508,284.977 266.037 C 285.166 265.731,290.703 265.600,303.382 265.600 L 321.517 265.600 325.523 268.700 C 327.726 270.405,331.720 273.510,334.399 275.600 C 337.078 277.690,341.384 281.020,343.967 283.000 C 346.550 284.980,348.919 286.824,349.232 287.098 C 350.455 288.171,356.325 292.738,358.600 294.388 C 359.920 295.344,361.285 296.414,361.633 296.764 C 361.981 297.114,362.867 297.850,363.602 298.400 C 365.245 299.629,370.961 304.026,379.333 310.502 C 392.776 320.900,395.852 323.292,397.364 324.525 C 400.070 326.731,400.000 326.882,400.000 318.829 C 400.000 313.766,399.866 311.600,399.553 311.600 C 399.307 311.600,396.431 309.485,393.162 306.900 C 389.893 304.315,386.173 301.429,384.896 300.488 C 383.619 299.546,381.906 298.196,381.090 297.488 C 380.274 296.779,378.962 295.750,378.174 295.200 C 377.386 294.650,376.439 293.909,376.071 293.553 C 375.702 293.196,373.780 291.676,371.800 290.174 C 369.820 288.672,368.020 287.299,367.800 287.123 C 363.430 283.629,359.975 280.935,357.334 278.964 C 355.537 277.624,353.287 275.876,352.334 275.080 C 349.958 273.098,342.665 267.497,341.780 266.975 C 339.588 265.683,341.348 265.600,370.824 265.600 L 400.000 265.600 400.000 252.800 L 400.000 240.000 313.900 240.032 C 266.545 240.049,227.575 240.154,227.300 240.265 M0.000 293.200 L 0.000 308.400 30.817 308.400 C 50.730 308.400,61.805 308.259,62.117 308.001 C 63.846 306.572,71.501 300.590,74.000 298.715 C 75.650 297.477,77.360 296.129,77.800 295.720 C 78.240 295.311,79.486 294.352,80.569 293.588 C 81.652 292.825,83.002 291.776,83.569 291.257 C 84.136 290.738,86.220 289.091,88.200 287.598 C 90.180 286.104,92.194 284.537,92.675 284.116 C 93.156 283.695,94.027 283.001,94.610 282.575 C 98.645 279.627,99.202 279.085,98.754 278.544 C 98.377 278.091,90.119 278.000,49.151 278.000 L 0.000 278.000 0.000 293.200 M0.000 347.400 C 0.000 351.910,0.140 355.600,0.311 355.600 C 0.605 355.600,5.196 352.373,6.427 351.301 C 8.198 349.758,17.690 342.382,20.583 340.300 C 21.728 339.476,19.151 339.212,9.900 339.206 L 0.000 339.200 0.000 347.400 " stroke="none" fill="#f9f9f9" fill-rule="evenodd"></path><path id="path1" d="M0.000 9.000 C 0.000 16.733,0.084 18.000,0.600 18.000 C 0.930 18.000,1.200 18.276,1.200 18.613 C 1.200 18.949,0.930 19.329,0.600 19.455 C -0.309 19.804,-0.309 61.200,0.600 61.200 C 1.372 61.200,1.372 62.171,0.600 62.943 C -0.368 63.911,-0.299 104.684,0.671 104.871 C 1.300 104.992,1.300 105.043,0.671 105.671 C -0.124 106.467,-0.393 191.200,0.400 191.200 C 0.620 191.200,0.800 191.470,0.800 191.800 C 0.800 192.130,0.620 192.400,0.400 192.400 C 0.142 192.400,0.000 196.600,0.000 204.200 L 0.000 216.000 74.176 216.000 C 117.540 216.000,148.445 215.851,148.575 215.641 C 149.253 214.544,148.801 2.326,148.118 1.170 L 147.428 -0.000 73.714 -0.000 L 0.000 0.000 0.000 9.000 M97.579 13.500 C 97.808 14.325,97.997 15.315,97.998 15.700 C 98.002 17.069,99.461 18.000,101.600 18.000 C 104.101 18.000,104.150 18.433,101.962 21.201 L 100.323 23.274 100.599 26.390 C 100.930 30.131,100.524 30.625,98.764 28.620 C 97.210 26.851,96.933 26.854,95.071 28.663 C 93.029 30.646,92.451 30.116,93.120 26.876 C 93.780 23.678,93.730 23.040,92.748 22.162 C 91.938 21.437,90.000 18.649,90.000 18.208 C 90.000 18.094,90.860 18.000,91.911 18.000 C 94.610 18.000,95.397 17.305,95.965 14.416 C 96.512 11.637,96.987 11.367,97.579 13.500 M63.809 14.300 C 64.285 17.805,64.479 17.983,67.833 17.995 C 70.452 18.003,70.449 18.040,67.573 21.302 C 65.761 23.355,65.772 23.274,66.733 27.872 C 67.289 30.531,66.676 30.884,64.947 28.900 C 63.173 26.864,62.851 26.829,60.981 28.470 C 59.141 30.086,58.864 29.681,59.116 25.749 C 59.309 22.747,59.308 22.744,57.886 21.273 C 55.646 18.953,55.749 18.242,58.359 18.000 C 60.695 17.784,60.682 17.795,62.036 14.500 C 63.102 11.905,63.478 11.862,63.809 14.300 M30.104 15.955 L 30.623 17.800 32.912 17.920 C 35.781 18.070,35.925 18.799,33.575 21.283 C 31.869 23.085,31.666 24.732,32.637 28.901 C 32.936 30.183,31.814 29.830,30.095 28.100 C 28.842 26.840,28.259 26.962,26.428 28.867 C 24.450 30.926,23.918 30.266,24.941 27.022 C 25.879 24.046,25.785 23.458,24.100 21.734 C 22.815 20.420,21.600 18.680,21.600 18.154 C 21.600 18.069,22.658 18.000,23.951 18.000 C 26.644 18.000,26.980 17.728,27.360 15.238 C 27.837 12.119,29.118 12.454,30.104 15.955 M132.504 15.955 L 133.023 17.800 135.350 17.921 C 138.124 18.066,138.222 18.843,135.799 21.481 C 134.215 23.206,133.967 25.286,135.000 28.185 C 135.800 30.432,134.650 30.411,132.519 28.139 C 131.281 26.819,130.409 26.977,128.824 28.809 C 126.997 30.921,125.844 30.134,127.161 27.674 C 128.311 25.525,128.086 23.454,126.524 21.800 C 125.219 20.419,124.000 18.658,124.000 18.154 C 124.000 18.069,125.058 18.000,126.351 18.000 C 129.044 18.000,129.380 17.728,129.760 15.238 C 130.237 12.119,131.518 12.454,132.504 15.955 M46.344 35.100 C 46.551 35.925,46.826 37.050,46.956 37.600 C 47.374 39.367,47.892 39.767,50.046 39.987 C 52.621 40.249,52.795 40.670,51.065 42.452 C 49.086 44.490,48.760 45.264,49.213 46.846 C 50.336 50.760,49.599 51.880,47.179 49.935 C 45.462 48.555,45.166 48.632,43.180 50.964 C 41.725 52.672,41.182 50.717,42.184 47.386 L 42.769 45.444 41.293 43.622 C 40.482 42.620,39.562 41.602,39.248 41.361 C 38.321 40.647,39.123 40.000,40.935 40.000 C 43.332 40.000,44.299 39.183,44.610 36.894 C 45.118 33.154,45.706 32.547,46.344 35.100 M12.586 35.700 C 13.212 39.846,13.319 39.973,16.200 40.001 C 18.612 40.024,18.827 41.240,16.698 42.825 C 15.050 44.052,14.467 45.695,15.026 47.537 C 15.577 49.354,15.800 52.000,15.400 52.000 C 15.291 52.000,14.463 51.284,13.562 50.410 C 11.837 48.736,10.143 48.808,9.461 50.585 C 9.199 51.267,8.178 51.412,7.812 50.819 C 7.682 50.610,7.755 49.326,7.974 47.967 C 8.429 45.146,8.236 44.565,6.107 42.336 C 4.391 40.540,4.654 40.000,7.244 40.000 C 9.179 40.000,9.259 39.953,9.837 38.500 C 11.866 33.390,12.188 33.062,12.586 35.700 M114.950 35.250 C 115.088 35.938,115.200 36.928,115.200 37.450 C 115.200 38.885,116.552 39.999,118.300 40.006 C 120.575 40.015,121.072 40.482,120.152 41.743 C 119.738 42.311,119.271 42.781,119.114 42.787 C 117.912 42.840,116.882 45.745,117.428 47.545 C 117.967 49.320,118.201 52.000,117.817 52.000 C 117.717 52.000,116.870 51.294,115.936 50.432 C 114.149 48.781,112.530 48.842,111.861 50.585 C 111.599 51.267,110.578 51.412,110.212 50.819 C 110.082 50.610,110.155 49.326,110.374 47.967 C 110.829 45.146,110.636 44.565,108.507 42.336 C 106.791 40.540,107.054 40.000,109.644 40.000 C 111.579 40.000,111.659 39.953,112.237 38.500 C 114.196 33.565,114.532 33.162,114.950 35.250 M81.230 37.400 C 81.455 38.280,81.715 39.225,81.807 39.500 C 81.912 39.812,82.736 40.000,84.000 40.000 C 86.764 40.000,86.949 40.715,84.792 43.055 L 83.093 44.898 83.352 47.349 C 83.495 48.697,83.699 50.340,83.807 51.000 C 83.915 51.660,83.898 51.975,83.769 51.700 C 83.639 51.425,83.310 51.200,83.036 51.200 C 82.763 51.200,82.117 50.750,81.600 50.200 C 80.275 48.789,79.200 48.946,77.496 50.800 C 75.372 53.110,74.969 52.309,76.204 48.236 C 77.023 45.536,77.027 45.552,74.977 43.036 C 72.860 40.436,72.946 40.000,75.575 40.000 C 77.808 40.000,78.192 39.644,78.560 37.238 C 79.015 34.260,80.449 34.347,81.230 37.400 M97.432 56.300 C 98.468 60.898,98.736 61.200,101.774 61.200 C 104.083 61.200,104.113 61.679,101.974 64.385 L 100.349 66.441 100.621 69.568 C 100.949 73.328,100.532 73.834,98.764 71.820 C 97.210 70.051,96.933 70.054,95.071 71.863 C 93.029 73.846,92.451 73.316,93.120 70.076 C 93.794 66.814,93.757 66.584,92.300 64.901 C 89.589 61.771,89.588 61.200,92.293 61.200 C 94.693 61.200,95.460 60.694,95.767 58.911 C 96.304 55.793,96.473 55.200,96.824 55.200 C 97.022 55.200,97.296 55.695,97.432 56.300 M63.750 56.850 C 63.888 57.538,64.000 58.515,64.000 59.021 C 64.000 60.548,65.026 61.200,67.429 61.200 C 68.623 61.200,69.600 61.302,69.600 61.426 C 69.600 62.004,68.579 63.532,67.297 64.874 C 65.782 66.460,65.778 66.503,66.733 71.072 C 67.290 73.739,66.693 74.051,64.849 72.054 C 63.067 70.123,62.221 70.084,60.817 71.869 C 59.380 73.696,58.843 72.877,59.092 69.237 L 59.313 66.022 57.856 64.523 C 57.055 63.698,56.400 62.793,56.400 62.512 C 56.400 62.230,56.355 61.865,56.300 61.700 C 56.245 61.535,57.172 61.310,58.359 61.200 C 60.695 60.984,60.682 60.995,62.036 57.700 C 63.029 55.282,63.400 55.098,63.750 56.850 M30.116 59.199 L 30.623 61.000 32.811 61.200 C 35.507 61.446,35.654 62.492,33.328 64.874 C 31.832 66.406,31.625 68.691,32.650 72.340 C 32.969 73.476,31.177 72.752,29.904 71.232 C 28.883 70.012,27.972 70.212,26.400 72.000 C 24.172 74.534,24.022 74.146,25.218 68.935 L 25.692 66.869 23.666 64.365 C 21.300 61.441,21.339 61.200,24.175 61.200 C 26.584 61.200,26.972 60.886,27.384 58.603 C 27.893 55.787,29.239 56.081,30.116 59.199 M132.489 59.102 L 133.023 61.000 135.208 61.200 C 138.032 61.458,138.192 62.175,135.968 64.588 L 134.286 66.414 134.536 68.907 C 134.673 70.278,134.905 71.823,135.050 72.340 C 135.354 73.423,132.985 72.546,132.550 71.415 C 132.032 70.065,130.381 70.319,128.859 71.984 C 126.633 74.420,126.205 73.789,127.404 69.836 C 128.238 67.090,128.184 66.801,126.504 65.000 C 123.521 61.800,123.539 61.200,126.618 61.200 C 128.980 61.200,129.373 60.878,129.784 58.603 C 130.304 55.724,131.606 55.964,132.489 59.102 M46.591 79.166 C 47.454 82.438,48.077 83.135,50.263 83.278 C 52.614 83.431,52.771 83.896,51.065 85.652 C 49.079 87.697,48.793 88.404,49.216 90.226 C 50.154 94.272,49.586 95.173,47.339 93.200 C 45.627 91.697,45.637 91.696,43.860 93.473 C 41.557 95.776,40.876 93.466,42.587 89.156 C 42.760 88.721,42.175 87.780,40.791 86.266 C 38.500 83.760,38.511 83.200,40.850 83.200 C 43.686 83.200,44.293 82.420,45.012 77.848 C 45.318 75.903,45.847 76.345,46.591 79.166 M12.674 79.594 C 12.984 82.217,13.861 83.198,15.900 83.206 C 16.725 83.209,17.663 83.379,17.984 83.582 C 18.610 83.978,18.632 83.944,15.900 86.896 C 14.656 88.241,14.522 89.511,15.371 91.918 C 16.492 95.095,15.759 95.795,13.652 93.558 C 11.966 91.769,11.069 91.802,9.551 93.709 C 8.769 94.692,7.424 94.386,7.766 93.302 C 8.707 90.318,8.230 87.665,6.418 85.819 C 4.362 83.723,4.512 83.303,7.386 83.124 L 9.373 83.000 10.584 79.918 C 11.926 76.502,12.301 76.444,12.674 79.594 M114.950 78.450 C 115.088 79.138,115.200 80.127,115.200 80.650 C 115.200 82.085,116.552 83.199,118.300 83.206 C 120.913 83.217,121.205 83.745,119.557 85.484 C 116.947 88.237,116.787 88.632,117.428 90.743 C 117.979 92.558,118.199 95.200,117.799 95.200 C 117.689 95.200,116.902 94.461,116.052 93.558 C 114.366 91.769,113.469 91.802,111.951 93.709 C 110.744 95.226,109.923 94.344,110.274 91.907 C 110.797 88.281,110.652 87.687,108.774 85.774 C 106.771 83.733,106.926 83.304,109.730 83.124 L 111.660 83.000 112.869 80.100 C 114.205 76.893,114.579 76.596,114.950 78.450 M81.241 80.564 C 81.852 82.851,82.252 83.200,84.262 83.200 C 86.672 83.200,86.810 83.931,84.800 86.055 C 83.023 87.934,82.981 88.261,83.799 94.000 C 83.909 94.770,83.894 95.175,83.766 94.900 C 83.638 94.625,83.310 94.400,83.036 94.400 C 82.763 94.400,82.117 93.950,81.600 93.400 C 80.316 92.033,79.204 92.145,77.600 93.800 C 75.500 95.967,74.907 94.958,76.188 91.400 C 77.053 89.001,76.957 88.604,74.979 86.376 C 72.794 83.916,72.858 83.464,75.432 83.193 C 77.832 82.940,78.399 82.613,78.402 81.476 C 78.412 77.507,80.265 76.912,81.241 80.564 M395.400 92.834 C 393.420 94.359,391.350 96.022,390.800 96.529 C 390.250 97.036,388.720 98.238,387.400 99.201 C 386.080 100.164,383.629 102.043,381.952 103.376 C 380.276 104.709,378.496 106.070,377.995 106.400 C 377.495 106.730,376.678 107.366,376.178 107.813 C 375.679 108.260,374.682 109.070,373.963 109.613 C 373.244 110.156,371.254 111.680,369.541 113.000 C 367.828 114.320,365.296 116.247,363.913 117.281 C 362.531 118.316,360.860 119.618,360.200 120.173 C 359.540 120.729,357.423 122.402,355.495 123.892 C 345.578 131.556,341.215 135.025,341.208 135.253 C 341.188 135.900,344.827 135.989,371.500 135.995 L 400.000 136.000 400.000 113.000 C 400.000 94.851,399.895 90.006,399.500 90.030 C 399.225 90.047,397.380 91.308,395.400 92.834 M97.432 99.500 C 98.457 104.051,99.059 104.800,101.689 104.800 C 103.646 104.800,103.665 105.534,101.764 107.736 L 100.328 109.400 100.591 112.494 C 100.928 116.462,100.706 116.769,98.765 115.016 C 96.839 113.276,96.911 113.275,95.071 115.063 C 92.954 117.118,92.524 116.552,93.200 112.599 L 93.720 109.557 92.313 108.079 C 90.239 105.900,90.087 104.800,91.857 104.800 C 94.101 104.800,95.465 103.863,95.767 102.114 C 96.304 98.992,96.473 98.400,96.824 98.400 C 97.022 98.400,97.296 98.895,97.432 99.500 M63.800 100.700 C 64.214 103.866,64.573 104.399,66.291 104.405 C 69.931 104.419,70.081 104.990,67.255 108.063 C 65.813 109.631,65.773 110.087,66.709 114.272 C 67.302 116.925,66.680 117.288,64.947 115.300 C 63.173 113.264,62.851 113.229,60.981 114.870 C 59.384 116.273,58.633 115.946,58.979 114.000 C 59.743 109.705,59.759 109.806,58.032 107.947 C 55.813 105.557,55.890 104.943,58.457 104.531 C 60.653 104.178,60.716 104.114,62.036 100.900 C 63.102 98.305,63.481 98.262,63.800 100.700 M29.164 100.156 C 29.418 100.462,29.852 101.497,30.128 102.456 L 30.631 104.200 32.815 104.400 C 35.492 104.645,35.629 105.672,33.307 108.078 C 31.827 109.612,31.674 111.232,32.597 115.600 C 32.714 116.150,32.702 116.375,32.571 116.100 C 32.440 115.825,32.010 115.600,31.615 115.600 C 31.221 115.600,30.651 115.257,30.349 114.837 C 29.319 113.406,28.324 113.501,26.486 115.205 C 24.387 117.150,23.998 116.657,24.951 113.259 C 25.834 110.112,25.812 109.982,24.070 108.169 C 22.474 106.508,21.728 104.841,22.537 104.746 C 22.792 104.716,23.694 104.632,24.541 104.560 C 26.552 104.390,27.045 103.931,27.365 101.931 C 27.755 99.487,28.224 99.024,29.164 100.156 M132.232 101.600 C 132.716 103.990,133.323 104.600,135.216 104.600 C 137.667 104.600,137.877 105.808,135.793 107.916 L 134.326 109.400 134.553 112.241 C 134.678 113.804,134.845 115.334,134.924 115.641 C 135.004 115.948,134.993 116.065,134.901 115.900 C 134.809 115.735,134.410 115.600,134.015 115.600 C 133.621 115.600,133.051 115.257,132.749 114.837 C 131.705 113.387,130.698 113.481,128.988 115.188 C 126.607 117.565,126.199 117.010,127.404 113.036 C 128.234 110.302,128.182 110.002,126.567 108.243 C 124.919 106.449,124.152 104.830,124.910 104.746 C 125.179 104.716,126.094 104.632,126.941 104.560 C 128.952 104.390,129.445 103.931,129.765 101.931 C 129.910 101.021,130.121 100.128,130.233 99.946 C 130.588 99.372,132.021 100.558,132.232 101.600 M46.225 121.100 C 47.177 125.450,47.927 126.400,50.409 126.400 C 52.822 126.400,52.955 126.906,51.055 128.862 C 49.086 130.889,48.760 131.666,49.213 133.246 C 50.310 137.070,49.553 138.344,47.339 136.400 C 45.622 134.893,45.528 134.899,43.807 136.620 C 41.649 138.778,41.003 137.712,42.153 133.891 C 42.775 131.824,42.484 131.079,40.037 128.470 C 38.510 126.842,38.721 126.400,41.024 126.400 C 43.188 126.400,44.252 125.485,44.601 123.322 C 45.049 120.542,45.212 120.000,45.600 120.000 C 45.812 120.000,46.093 120.495,46.225 121.100 M12.550 121.650 C 12.688 122.338,12.800 123.328,12.800 123.850 C 12.800 125.386,14.143 126.400,16.176 126.400 C 18.598 126.400,18.745 126.936,16.880 128.960 C 14.482 131.561,14.388 131.871,15.218 134.468 C 16.440 138.295,15.892 139.111,13.687 136.747 C 12.006 134.945,11.085 134.981,9.551 136.909 C 8.344 138.426,7.523 137.544,7.874 135.107 C 8.396 131.493,8.249 130.884,6.409 129.010 C 4.387 126.949,4.563 126.400,7.244 126.400 C 9.179 126.400,9.259 126.353,9.837 124.900 C 11.796 119.965,12.132 119.562,12.550 121.650 M115.009 122.300 C 115.482 125.780,116.035 126.391,118.726 126.406 C 120.908 126.419,121.129 127.025,119.557 128.684 C 116.947 131.437,116.787 131.832,117.428 133.943 C 117.978 135.757,118.199 138.400,117.800 138.400 C 117.689 138.400,116.889 137.668,116.021 136.774 C 114.304 135.005,113.443 135.033,111.951 136.909 C 110.744 138.426,109.923 137.544,110.274 135.107 C 110.796 131.493,110.649 130.884,108.809 129.010 C 106.848 127.012,106.968 126.402,109.324 126.394 C 111.507 126.386,111.626 126.278,112.958 123.100 C 114.300 119.900,114.664 119.758,115.009 122.300 M81.249 123.800 C 81.851 126.043,82.259 126.400,84.225 126.400 C 86.618 126.400,86.739 126.947,84.840 129.198 C 82.989 131.394,82.799 132.656,83.769 136.300 C 84.076 137.455,84.164 138.400,83.964 138.400 C 83.764 138.400,83.600 138.220,83.600 138.000 C 83.600 137.780,83.340 137.600,83.023 137.600 C 82.705 137.600,82.199 137.248,81.898 136.819 C 80.717 135.133,79.484 135.132,77.770 136.817 C 75.625 138.926,74.878 138.397,75.944 135.526 C 77.041 132.573,76.917 131.775,74.997 129.417 C 72.861 126.795,72.907 126.568,75.634 126.306 C 77.911 126.088,78.200 125.809,78.572 123.483 C 79.024 120.661,80.453 120.831,81.249 123.800 M97.428 142.700 C 98.407 147.120,99.077 148.000,101.462 148.000 C 103.684 148.000,103.763 148.798,101.772 151.124 L 100.344 152.792 100.619 155.943 C 100.949 159.722,100.604 160.124,98.679 158.199 C 96.950 156.470,96.916 156.470,95.071 158.263 C 93.029 160.246,92.451 159.716,93.120 156.476 C 93.798 153.191,93.761 152.981,92.200 151.253 C 90.273 149.119,90.311 148.000,92.311 148.000 C 94.347 148.000,95.452 147.140,95.767 145.310 C 96.304 142.193,96.473 141.600,96.824 141.600 C 97.022 141.600,97.294 142.095,97.428 142.700 M63.750 143.250 C 63.888 143.938,64.000 144.928,64.000 145.450 C 64.000 146.925,65.349 148.000,67.200 148.000 C 69.312 148.000,69.369 149.176,67.362 151.362 C 65.826 153.035,65.790 153.364,66.709 157.472 C 67.303 160.131,66.697 160.455,64.856 158.461 L 63.270 156.743 62.015 157.392 C 61.324 157.750,60.659 158.302,60.537 158.621 C 60.225 159.433,59.209 159.344,59.156 158.500 C 59.131 158.115,59.144 156.630,59.183 155.200 C 59.251 152.727,59.184 152.523,57.811 151.032 C 55.894 148.950,56.069 148.234,58.534 148.077 C 60.340 147.961,60.497 147.862,61.046 146.477 C 62.993 141.571,63.333 141.165,63.750 143.250 M30.211 145.896 L 30.822 148.000 32.811 148.000 C 35.356 148.000,35.548 149.127,33.359 151.222 C 31.868 152.649,31.677 154.539,32.594 158.800 C 32.712 159.350,32.702 159.575,32.571 159.300 C 32.440 159.025,31.999 158.800,31.589 158.800 C 31.180 158.800,30.610 158.471,30.323 158.068 C 29.335 156.685,28.238 156.793,26.441 158.453 C 24.107 160.608,23.815 160.158,25.004 156.236 C 25.840 153.482,25.786 153.219,23.981 151.217 C 21.927 148.939,22.042 148.265,24.532 147.979 C 26.677 147.732,27.002 147.400,27.372 145.083 C 27.853 142.078,29.214 142.468,30.211 145.896 M132.247 144.800 C 132.851 147.575,133.185 147.953,135.137 148.080 C 137.607 148.240,137.795 149.157,135.778 151.223 C 134.234 152.804,134.011 155.053,135.037 158.692 C 135.323 159.703,133.155 158.950,132.505 157.813 C 131.872 156.704,130.476 156.967,128.857 158.500 C 126.582 160.652,126.130 160.000,127.400 156.400 C 128.300 153.850,128.154 153.121,126.373 151.268 C 124.255 149.064,124.391 148.240,126.901 148.078 C 128.993 147.944,129.314 147.601,129.784 145.003 C 129.943 144.125,130.155 143.273,130.255 143.111 C 130.590 142.569,132.027 143.787,132.247 144.800 M46.379 164.700 C 46.608 165.525,46.797 166.491,46.798 166.846 C 46.803 168.294,48.350 169.552,50.281 169.679 C 52.630 169.832,52.769 170.297,51.006 172.113 C 49.324 173.844,48.826 175.044,49.226 176.400 C 50.356 180.240,49.436 181.583,47.182 179.382 L 45.730 177.964 44.079 179.615 C 41.680 182.014,40.956 181.067,42.153 177.091 C 42.776 175.020,42.486 174.282,40.012 171.642 C 38.549 170.081,38.843 169.616,41.300 169.606 C 43.170 169.598,44.271 168.571,44.601 166.522 C 45.225 162.648,45.680 162.182,46.379 164.700 M12.609 165.500 C 13.082 168.980,13.635 169.591,16.326 169.606 C 18.597 169.619,18.666 170.187,16.668 172.409 C 14.624 174.682,14.438 175.528,15.384 178.241 C 16.489 181.413,15.750 182.211,13.752 180.000 C 12.013 178.074,11.473 178.023,9.960 179.643 C 8.469 181.239,7.454 180.983,7.808 179.099 C 8.526 175.269,8.303 174.139,6.453 172.254 C 4.434 170.197,4.556 169.600,6.995 169.600 C 8.669 169.600,10.000 168.867,10.000 167.946 C 10.000 167.229,11.691 163.600,12.025 163.600 C 12.204 163.600,12.467 164.455,12.609 165.500 M115.009 165.500 C 115.482 168.980,116.035 169.591,118.726 169.606 C 120.997 169.619,121.066 170.187,119.068 172.409 C 117.117 174.579,116.736 175.985,117.640 177.675 C 118.090 178.516,118.247 181.086,117.871 181.462 C 117.756 181.577,116.997 180.935,116.185 180.036 C 114.412 178.073,113.878 178.018,112.360 179.643 C 110.869 181.239,109.854 180.983,110.208 179.099 C 110.926 175.269,110.703 174.139,108.853 172.254 C 106.878 170.241,106.960 169.600,109.191 169.600 C 110.993 169.600,112.000 169.280,112.000 168.707 C 112.000 168.001,114.094 163.600,114.430 163.600 C 114.607 163.600,114.867 164.455,115.009 165.500 M81.241 166.964 C 81.852 169.251,82.252 169.600,84.262 169.600 C 86.662 169.600,86.807 170.327,84.831 172.455 C 82.990 174.437,82.784 175.802,83.769 179.500 C 84.076 180.655,84.164 181.600,83.964 181.600 C 83.764 181.600,83.600 181.420,83.600 181.200 C 83.600 180.980,83.334 180.800,83.009 180.800 C 82.684 180.800,82.136 180.369,81.792 179.843 C 80.753 178.258,79.514 178.323,77.628 180.064 C 75.302 182.213,75.014 181.750,76.219 177.800 C 76.982 175.300,76.807 174.637,74.797 172.423 C 72.808 170.232,72.907 169.869,75.586 169.537 C 77.983 169.240,78.220 168.997,78.603 166.434 C 79.059 163.387,80.354 163.647,81.241 166.964 M97.432 185.900 C 98.457 190.451,99.059 191.200,101.689 191.200 C 103.668 191.200,103.692 192.081,101.772 194.324 L 100.344 195.992 100.619 199.143 C 100.950 202.934,100.607 203.323,98.629 201.401 C 96.856 199.680,96.964 199.677,95.117 201.481 C 93.049 203.501,92.443 202.954,93.120 199.676 C 93.796 196.404,93.759 196.180,92.262 194.501 C 90.341 192.345,90.128 191.200,91.650 191.200 C 93.978 191.200,95.469 190.236,95.761 188.542 C 96.306 185.385,96.472 184.800,96.824 184.800 C 97.022 184.800,97.296 185.295,97.432 185.900 M63.800 187.100 C 64.250 190.538,66.293 192.094,68.995 191.057 C 70.119 190.626,69.288 192.253,67.255 194.463 C 65.813 196.031,65.773 196.487,66.709 200.672 C 67.304 203.334,66.697 203.655,64.849 201.654 C 63.067 199.723,62.221 199.684,60.817 201.469 C 59.529 203.107,58.681 202.454,59.044 200.103 C 59.564 196.725,59.387 195.849,57.843 194.168 C 55.862 192.010,55.923 191.200,58.069 191.200 C 59.651 191.200,61.200 190.365,61.200 189.512 C 61.200 188.820,62.900 185.200,63.225 185.200 C 63.404 185.200,63.663 186.055,63.800 187.100 M30.015 188.507 C 30.558 190.586,31.302 191.200,33.276 191.200 C 35.334 191.200,35.368 192.499,33.360 194.422 C 31.881 195.838,31.652 198.233,32.647 201.892 C 32.919 202.893,30.770 202.161,30.105 201.026 C 29.380 199.787,28.203 199.975,26.588 201.588 C 24.207 203.965,23.799 203.410,25.004 199.436 C 25.845 196.666,25.785 196.354,24.070 194.569 C 21.575 191.973,21.639 191.344,24.428 191.029 C 26.896 190.749,26.868 190.778,27.417 188.000 C 27.795 186.092,27.932 185.935,28.811 186.406 C 29.230 186.630,29.772 187.576,30.015 188.507 M131.777 186.889 C 132.120 187.378,132.400 188.148,132.400 188.600 C 132.400 190.249,133.506 191.200,135.423 191.200 C 137.746 191.200,137.871 192.401,135.759 194.422 C 134.272 195.844,134.032 198.380,135.046 201.940 C 135.350 203.007,133.207 202.243,132.520 201.039 C 131.873 199.905,130.490 200.155,128.857 201.700 C 126.574 203.859,126.102 203.039,127.430 199.224 C 128.204 197.002,127.986 196.120,126.210 194.292 C 125.435 193.493,124.800 192.576,124.800 192.253 C 124.800 191.931,124.576 191.592,124.302 191.501 C 124.028 191.409,124.963 191.213,126.379 191.065 C 129.037 190.787,129.583 190.424,129.594 188.926 C 129.611 186.441,130.731 185.396,131.777 186.889 M341.600 266.037 C 341.185 266.330,341.143 266.520,341.465 266.652 C 341.940 266.847,349.194 272.476,352.334 275.086 C 353.287 275.878,355.537 277.624,357.334 278.964 C 359.944 280.912,364.932 284.803,367.829 287.151 C 368.065 287.342,369.415 288.370,370.829 289.434 C 373.757 291.639,379.216 295.933,381.000 297.435 C 381.660 297.991,383.327 299.290,384.705 300.323 C 386.083 301.355,389.887 304.315,393.158 306.900 C 396.429 309.485,399.307 311.600,399.553 311.600 C 399.877 311.600,400.000 305.290,400.000 288.600 L 400.000 265.600 371.100 265.606 C 351.382 265.610,342.009 265.747,341.600 266.037 M153.567 280.700 C 153.230 281.085,152.451 281.760,151.835 282.200 C 151.219 282.640,148.773 284.530,146.400 286.400 C 144.027 288.270,141.604 290.149,141.017 290.575 C 140.430 291.001,139.556 291.698,139.075 292.123 C 138.594 292.549,137.210 293.630,136.000 294.526 C 134.264 295.811,127.320 301.241,124.971 303.150 C 124.735 303.342,123.385 304.372,121.971 305.439 C 120.557 306.506,118.129 308.374,116.577 309.590 C 115.024 310.805,113.155 312.250,112.423 312.800 C 111.692 313.350,110.781 314.070,110.400 314.400 C 110.019 314.730,109.108 315.450,108.377 316.000 C 107.645 316.550,105.776 317.999,104.223 319.219 C 102.671 320.440,100.320 322.224,99.000 323.184 C 97.680 324.144,96.330 325.172,96.000 325.468 C 94.989 326.375,87.133 332.547,84.800 334.267 C 83.590 335.158,81.880 336.539,81.000 337.335 C 80.120 338.130,79.287 338.786,79.150 338.791 C 79.012 338.796,76.852 340.424,74.350 342.408 C 71.847 344.393,69.388 346.328,68.884 346.708 C 68.381 347.089,67.661 347.686,67.284 348.036 C 66.908 348.386,65.520 349.456,64.200 350.412 C 62.880 351.369,60.429 353.243,58.752 354.576 C 57.076 355.909,55.296 357.270,54.795 357.600 C 54.295 357.930,53.466 358.576,52.954 359.036 C 52.441 359.496,51.546 360.216,50.964 360.636 C 50.382 361.056,48.532 362.491,46.853 363.824 C 45.174 365.157,42.720 367.035,41.400 367.996 C 40.080 368.958,38.640 370.069,38.200 370.466 C 37.176 371.390,36.543 371.888,31.162 376.000 C 28.716 377.870,24.078 381.478,20.857 384.018 C 17.636 386.557,14.010 389.371,12.800 390.270 C 11.590 391.169,10.060 392.393,9.400 392.989 C 8.740 393.585,7.742 394.372,7.182 394.737 C 4.846 396.258,1.600 399.025,1.600 399.495 C 1.600 399.900,16.916 400.000,79.000 400.000 L 156.400 400.000 156.400 340.480 C 156.400 294.720,156.289 280.849,155.920 280.480 C 155.237 279.797,154.277 279.886,153.567 280.700 M244.480 280.480 C 244.111 280.849,244.000 294.720,244.000 340.480 L 244.000 400.000 321.400 400.000 C 363.970 400.000,398.800 399.850,398.800 399.666 C 398.800 399.266,395.855 396.577,394.417 395.664 C 393.415 395.027,385.947 389.193,384.000 387.526 C 383.450 387.055,381.650 385.673,380.000 384.455 C 377.019 382.256,369.148 376.098,368.000 375.068 C 367.670 374.772,366.320 373.744,365.000 372.784 C 362.235 370.773,357.386 367.007,354.866 364.914 C 353.913 364.122,351.618 362.332,349.766 360.937 C 341.435 354.659,339.737 353.368,339.187 352.897 C 338.203 352.055,329.755 345.491,327.737 344.000 C 326.694 343.230,325.443 342.234,324.956 341.787 C 324.469 341.340,323.484 340.530,322.766 339.987 C 319.439 337.470,313.230 332.603,311.651 331.273 C 310.690 330.463,309.250 329.350,308.451 328.800 C 307.653 328.250,305.290 326.445,303.200 324.788 C 301.110 323.132,298.950 321.480,298.400 321.119 C 297.850 320.757,296.929 320.042,296.353 319.530 C 295.778 319.019,294.708 318.150,293.977 317.600 C 293.245 317.050,291.376 315.601,289.823 314.381 C 288.271 313.160,285.920 311.373,284.600 310.409 C 283.280 309.445,281.840 308.339,281.400 307.951 C 280.289 306.973,273.102 301.372,270.200 299.223 C 268.880 298.246,265.640 295.724,263.000 293.618 C 260.360 291.512,257.210 289.052,256.000 288.151 C 254.790 287.250,253.080 285.862,252.200 285.066 C 251.320 284.270,250.482 283.614,250.337 283.609 C 250.192 283.604,249.079 282.790,247.864 281.800 C 245.478 279.856,245.209 279.751,244.480 280.480 " stroke="none" fill="#07266f" fill-rule="evenodd"></path><path id="path2" d="M147.600 0.214 C 147.600 0.332,147.863 0.829,148.184 1.319 C 148.667 2.056,148.776 4.811,148.819 17.307 C 148.847 25.610,149.020 32.311,149.203 32.198 C 149.386 32.085,205.890 31.995,274.768 31.998 L 400.000 32.004 400.000 16.002 L 400.000 0.000 273.800 0.000 C 204.390 0.000,147.600 0.096,147.600 0.214 M148.800 77.924 C 148.800 90.179,148.907 93.581,149.287 93.346 C 149.555 93.181,192.375 93.004,244.442 92.955 L 339.109 92.864 343.393 89.532 C 345.749 87.699,350.314 84.123,353.538 81.584 C 356.762 79.045,360.750 75.954,362.400 74.714 C 364.050 73.475,365.850 72.084,366.400 71.624 C 368.134 70.174,375.881 64.221,376.657 63.741 C 378.793 62.423,377.392 62.405,262.682 62.302 L 148.800 62.200 148.800 77.924 M32.400 104.556 C 32.400 104.642,33.017 104.785,33.772 104.873 C 34.527 104.961,35.056 104.890,34.948 104.716 C 34.755 104.403,32.400 104.255,32.400 104.556 M134.900 104.676 C 135.285 104.776,135.915 104.776,136.300 104.676 C 136.685 104.575,136.370 104.493,135.600 104.493 C 134.830 104.493,134.515 104.575,134.900 104.676 M148.832 139.251 C 148.849 148.353,148.954 155.575,149.065 155.300 C 149.225 154.903,160.598 154.800,204.053 154.800 C 252.295 154.800,258.980 154.727,260.016 154.192 C 260.662 153.857,263.849 151.465,267.096 148.874 C 270.343 146.284,274.080 143.379,275.400 142.419 C 276.720 141.458,278.108 140.386,278.484 140.036 C 278.861 139.686,279.581 139.091,280.084 138.713 C 280.588 138.334,282.440 136.884,284.200 135.489 C 285.960 134.093,288.480 132.169,289.800 131.212 C 291.120 130.256,292.507 129.186,292.882 128.836 C 293.257 128.486,294.127 127.750,294.816 127.200 C 296.858 125.570,298.478 123.945,298.270 123.737 C 298.164 123.630,264.730 123.553,223.973 123.567 C 170.217 123.584,149.723 123.468,149.335 123.146 C 148.890 122.776,148.805 125.475,148.832 139.251 M249.035 162.522 C 248.394 163.005,246.025 164.840,243.771 166.600 C 241.517 168.360,239.195 170.149,238.611 170.575 C 238.027 171.001,237.156 171.698,236.675 172.124 C 236.194 172.550,234.810 173.641,233.600 174.548 C 232.390 175.456,230.129 177.189,228.577 178.400 C 227.024 179.610,225.151 181.050,224.416 181.600 C 223.680 182.150,222.430 183.182,221.639 183.893 L 220.200 185.187 184.509 185.093 L 148.818 185.000 148.709 200.482 L 148.600 215.965 163.467 216.082 C 171.644 216.147,178.456 216.322,178.605 216.471 C 179.000 216.867,173.935 221.141,167.800 225.588 C 166.480 226.544,165.116 227.614,164.770 227.964 C 164.423 228.314,163.639 228.960,163.028 229.400 C 159.414 231.999,151.000 238.953,151.000 239.340 C 151.000 239.673,153.985 239.830,161.767 239.907 C 168.893 239.977,172.714 240.163,173.067 240.456 C 173.508 240.821,173.600 254.672,173.600 320.449 L 173.600 400.000 200.200 400.000 L 226.800 400.000 226.800 320.243 C 226.800 247.884,226.859 240.463,227.433 240.243 C 227.781 240.109,266.751 240.000,314.033 240.000 L 400.000 240.000 400.000 200.800 L 400.000 161.600 325.100 161.622 L 250.200 161.644 249.035 162.522 M0.000 262.400 L 0.000 278.000 49.151 278.000 C 90.119 278.000,98.377 278.091,98.754 278.544 C 99.202 279.085,98.645 279.627,94.610 282.575 C 94.027 283.001,93.156 283.695,92.675 284.116 C 92.194 284.537,90.180 286.104,88.200 287.598 C 86.220 289.091,84.136 290.738,83.569 291.257 C 83.002 291.776,81.652 292.825,80.569 293.588 C 79.486 294.352,78.240 295.311,77.800 295.720 C 77.360 296.129,75.650 297.477,74.000 298.715 C 71.501 300.590,63.846 306.572,62.117 308.001 C 61.805 308.259,50.730 308.400,30.817 308.400 L 0.000 308.400 0.000 323.800 L 0.000 339.200 9.900 339.206 C 19.151 339.212,21.728 339.476,20.583 340.300 C 17.511 342.510,9.071 349.091,5.800 351.827 C 5.140 352.378,3.573 353.498,2.317 354.315 L 0.035 355.800 0.017 370.500 C 0.005 381.299,0.122 385.200,0.459 385.200 C 0.857 385.200,3.343 383.370,5.200 381.711 C 5.530 381.416,7.719 379.696,10.064 377.888 C 23.560 367.482,37.471 356.684,39.155 355.307 C 39.900 354.698,40.796 354.033,41.147 353.828 C 41.809 353.443,51.192 346.085,52.600 344.847 C 53.040 344.461,54.480 343.355,55.800 342.389 C 57.120 341.424,61.350 338.155,65.200 335.123 C 78.301 324.808,80.598 323.016,84.800 319.832 C 89.111 316.566,93.794 312.921,96.570 310.672 C 97.434 309.972,98.744 308.950,99.482 308.400 C 100.220 307.850,102.371 306.185,104.262 304.700 C 106.153 303.215,107.813 302.000,107.950 302.000 C 108.088 302.000,108.878 301.415,109.708 300.700 C 111.660 299.016,112.384 298.442,118.600 293.645 C 121.460 291.438,124.123 289.347,124.518 288.998 C 124.913 288.649,127.189 286.858,129.577 285.018 C 131.964 283.178,135.720 280.261,137.922 278.536 C 140.125 276.811,144.463 273.421,147.564 271.002 C 150.665 268.584,153.141 266.424,153.068 266.202 C 152.982 265.945,146.726 265.728,135.700 265.600 C 120.491 265.424,116.456 265.169,118.319 264.506 C 118.604 264.404,119.414 263.789,120.119 263.138 C 120.823 262.488,123.828 260.121,126.795 257.878 C 132.307 253.712,133.021 253.156,134.534 251.855 C 135.010 251.445,136.029 250.635,136.799 250.055 C 138.305 248.919,139.565 247.583,139.587 247.100 C 139.594 246.935,108.190 246.800,69.800 246.800 L 0.000 246.800 0.000 262.400 M284.977 266.037 C 284.686 266.508,285.603 267.325,291.785 272.099 C 299.955 278.407,310.659 286.752,317.333 292.017 C 321.110 294.996,325.190 298.170,326.400 299.069 C 327.610 299.968,328.998 301.040,329.484 301.452 C 329.969 301.863,332.361 303.730,334.799 305.600 C 337.237 307.470,342.361 311.430,346.185 314.400 C 350.010 317.370,356.501 322.410,360.610 325.600 C 364.719 328.790,371.168 333.830,374.941 336.800 C 378.715 339.770,382.882 343.000,384.201 343.977 C 385.521 344.954,388.760 347.476,391.400 349.581 C 396.288 353.478,399.221 355.600,399.722 355.600 C 400.300 355.600,400.043 326.069,399.464 325.929 C 399.169 325.858,398.224 325.226,397.364 324.525 C 395.852 323.292,392.776 320.900,379.333 310.502 C 370.961 304.026,365.245 299.629,363.602 298.400 C 362.867 297.850,361.981 297.114,361.633 296.764 C 361.285 296.414,359.920 295.344,358.600 294.388 C 356.325 292.738,350.455 288.171,349.232 287.098 C 348.919 286.824,346.550 284.980,343.967 283.000 C 341.384 281.020,337.078 277.690,334.399 275.600 C 331.720 273.510,327.726 270.405,325.523 268.700 L 321.517 265.600 303.382 265.600 C 290.703 265.600,285.166 265.731,284.977 266.037 " stroke="none" fill="#cc112f" fill-rule="evenodd"></path></g></svg>