<svg id="svg" version="1.1" xmlns="http://www.w3.org/2000/svg" xmlns:xlink="http://www.w3.org/1999/xlink" width="400" height="400" viewBox="0, 0, 400,400"><g id="svgg"><path id="path0" d="M147.600 0.214 C 147.600 0.332,147.864 0.832,148.188 1.325 C 148.676 2.071,148.782 4.762,148.814 17.318 C 148.836 25.621,149.006 32.320,149.193 32.205 C 149.379 32.089,205.887 31.997,274.766 31.999 L 400.000 32.003 400.000 16.001 L 400.000 0.000 273.800 0.000 C 204.390 0.000,147.600 0.096,147.600 0.214 M58.934 28.396 C 58.979 29.072,59.257 29.418,59.800 29.473 C 60.376 29.531,60.411 29.498,59.925 29.352 C 59.553 29.242,59.164 28.757,59.059 28.275 C 58.900 27.542,58.880 27.561,58.934 28.396 M32.302 28.730 C 32.177 29.209,32.238 29.500,32.437 29.377 C 32.637 29.254,32.800 29.373,32.800 29.643 C 32.800 29.913,32.894 30.039,33.009 29.925 C 33.123 29.810,33.063 29.298,32.874 28.788 L 32.530 27.859 32.302 28.730 M134.825 28.500 C 134.811 28.885,134.598 29.200,134.351 29.200 C 134.046 29.200,134.067 29.398,134.414 29.817 C 135.135 30.685,135.711 29.951,135.238 28.768 C 134.959 28.072,134.844 27.996,134.825 28.500 M148.800 77.569 C 148.800 90.392,148.902 93.626,149.300 93.349 C 149.582 93.152,174.976 93.087,207.600 93.200 L 265.400 93.400 274.979 84.000 C 289.068 70.175,296.000 63.172,296.000 62.762 C 296.000 62.547,266.316 62.400,222.880 62.400 C 166.542 62.400,149.650 62.290,149.280 61.920 C 148.907 61.547,148.800 65.024,148.800 77.569 M353.600 62.653 C 353.600 63.144,363.999 73.267,364.367 73.134 C 364.573 73.060,365.339 72.508,366.071 71.906 C 368.487 69.918,375.902 64.208,376.627 63.775 C 377.037 63.531,377.215 63.148,377.047 62.875 C 376.733 62.368,353.600 62.149,353.600 62.653 M32.400 71.980 C 32.400 72.296,32.093 72.413,31.599 72.284 C 31.159 72.169,30.900 72.238,31.023 72.437 C 31.146 72.637,31.496 72.800,31.800 72.800 C 32.433 72.800,32.998 72.065,32.640 71.707 C 32.508 71.575,32.400 71.698,32.400 71.980 M28.000 99.312 C 28.000 99.450,28.450 100.014,29.000 100.564 C 29.550 101.114,30.000 101.423,30.000 101.252 C 30.000 101.080,29.550 100.517,29.000 100.000 C 28.450 99.483,28.000 99.174,28.000 99.312 M0.400 104.763 C 0.807 105.051,0.839 105.190,0.500 105.194 C 0.225 105.197,0.000 105.470,0.000 105.800 C 0.000 106.130,0.180 106.400,0.400 106.400 C 0.620 106.400,0.800 106.130,0.800 105.800 C 0.800 105.470,0.814 105.070,0.830 104.910 C 0.847 104.751,0.622 104.557,0.330 104.480 C -0.021 104.387,0.003 104.482,0.400 104.763 M23.300 104.676 C 23.685 104.776,24.315 104.776,24.700 104.676 C 25.085 104.575,24.770 104.493,24.000 104.493 C 23.230 104.493,22.915 104.575,23.300 104.676 M32.875 104.680 C 34.063 104.783,34.817 105.057,34.934 105.429 C 35.053 105.806,35.096 105.763,35.056 105.308 C 35.005 104.740,34.598 104.592,32.996 104.559 L 31.000 104.518 32.875 104.680 M179.639 124.073 C 180.364 125.428,205.752 150.391,206.409 150.396 C 207.056 150.400,233.200 124.704,233.200 124.063 C 233.200 123.262,230.346 123.175,205.179 123.214 L 179.201 123.255 179.639 124.073 M307.642 168.288 C 303.618 172.200,299.757 175.710,299.062 176.090 C 298.368 176.469,290.600 183.983,281.800 192.787 L 265.800 208.794 280.800 223.697 C 297.378 240.168,298.102 240.835,298.873 240.346 C 299.163 240.163,322.035 240.009,349.700 240.006 L 400.000 240.000 400.000 200.800 L 400.000 161.600 358.033 161.600 C 334.951 161.600,315.817 161.505,315.513 161.388 C 315.173 161.257,312.143 163.914,307.642 168.288 M113.834 178.257 C 113.634 178.778,113.695 178.819,114.132 178.456 C 114.569 178.094,115.026 178.387,116.341 179.876 C 117.254 180.908,118.000 181.552,118.000 181.306 C 118.000 180.848,114.804 177.612,114.343 177.604 C 114.201 177.602,113.972 177.895,113.834 178.257 M56.667 191.067 C 56.520 191.213,56.403 191.528,56.406 191.767 C 56.410 192.051,56.514 192.041,56.707 191.736 C 56.870 191.481,57.542 191.193,58.201 191.096 L 59.400 190.920 58.167 190.860 C 57.488 190.827,56.813 190.920,56.667 191.067 M0.500 191.465 C -0.066 191.693,-0.188 192.800,0.353 192.800 C 0.548 192.800,0.801 192.440,0.916 192.000 C 1.031 191.560,1.097 191.214,1.063 191.232 C 1.028 191.249,0.775 191.354,0.500 191.465 M58.800 201.400 C 58.800 201.950,58.955 202.400,59.145 202.400 C 59.334 202.400,59.403 201.950,59.298 201.400 C 59.193 200.850,59.038 200.400,58.953 200.400 C 58.869 200.400,58.800 200.850,58.800 201.400 M53.700 246.700 L -0.000 246.803 -0.000 262.401 L 0.000 278.000 37.167 278.000 C 57.609 278.000,74.580 278.094,74.880 278.209 C 75.640 278.501,77.550 276.743,91.929 262.518 C 98.869 255.653,105.048 249.829,105.660 249.575 C 106.272 249.322,106.876 248.790,107.002 248.394 C 107.128 247.998,107.494 247.573,107.815 247.450 C 108.527 247.176,108.600 246.361,107.900 246.499 C 107.625 246.553,83.235 246.643,53.700 246.700 M189.254 283.629 C 177.080 295.724,172.825 300.185,173.154 300.514 C 173.477 300.837,173.600 314.578,173.600 350.480 L 173.600 400.000 200.200 400.000 L 226.800 400.000 226.805 344.500 C 226.808 313.975,226.915 288.614,227.041 288.142 C 227.294 287.200,207.877 267.508,206.485 267.295 C 206.044 267.228,199.913 273.039,189.254 283.629 M338.000 278.838 C 338.000 279.516,369.634 311.154,371.079 311.921 C 373.563 313.239,383.600 323.548,383.600 324.780 C 383.600 325.663,382.664 326.816,379.003 330.444 C 376.474 332.950,374.404 335.295,374.403 335.656 C 374.400 336.282,379.056 340.245,384.200 343.995 C 385.520 344.957,386.960 346.061,387.400 346.449 C 390.472 349.155,399.150 355.600,399.722 355.600 C 400.300 355.600,400.043 326.069,399.464 325.929 C 399.169 325.858,398.224 325.226,397.364 324.525 C 395.825 323.270,391.993 320.291,379.197 310.400 C 375.639 307.650,370.809 303.914,368.464 302.097 C 366.119 300.280,363.788 298.480,363.284 298.097 C 362.781 297.714,362.061 297.119,361.684 296.776 C 361.308 296.433,359.470 295.004,357.600 293.601 C 355.730 292.198,352.040 289.327,349.400 287.221 C 346.760 285.115,343.880 282.902,343.000 282.304 C 342.120 281.705,340.692 280.582,339.827 279.808 C 338.092 278.254,338.000 278.206,338.000 278.838 M45.200 308.000 C 44.831 308.238,36.007 308.390,22.300 308.394 L 0.000 308.400 0.000 323.800 L 0.000 339.200 9.900 339.206 C 19.520 339.212,21.825 339.470,20.408 340.381 C 20.082 340.590,19.362 341.121,18.808 341.561 C 18.253 342.000,15.460 344.179,12.600 346.403 C 9.740 348.626,6.770 350.972,6.000 351.616 C 5.230 352.261,3.573 353.465,2.317 354.294 L 0.035 355.800 0.017 370.500 C 0.005 381.054,0.126 385.200,0.446 385.200 C 0.691 385.200,3.346 383.243,6.346 380.852 C 9.346 378.461,13.435 375.266,15.433 373.752 C 20.704 369.758,36.380 357.568,39.155 355.305 C 39.900 354.697,40.798 354.032,41.151 353.826 C 41.504 353.620,43.559 352.045,45.717 350.326 C 47.875 348.607,49.902 347.200,50.221 347.200 C 50.539 347.200,50.800 347.018,50.800 346.797 C 50.800 346.209,39.641 335.129,38.052 334.138 C 35.457 332.521,29.200 325.936,29.202 324.824 C 29.204 323.687,36.018 316.425,38.086 315.356 C 38.706 315.035,40.336 313.581,41.707 312.126 C 43.078 310.670,44.631 309.056,45.158 308.540 C 46.173 307.544,46.188 307.362,45.200 308.000 " stroke="none" fill="#c91330" fill-rule="evenodd"></path><path id="path1" d="M0.000 9.000 C 0.000 16.733,0.084 18.000,0.600 18.000 C 0.930 18.000,1.200 18.276,1.200 18.613 C 1.200 18.949,0.930 19.329,0.600 19.455 C -0.309 19.804,-0.309 61.200,0.600 61.200 C 1.372 61.200,1.372 62.171,0.600 62.943 C -0.279 63.822,-0.309 104.196,0.569 104.533 C 1.174 104.765,0.985 106.400,0.353 106.400 C 0.151 106.400,0.000 124.532,0.000 148.800 C 0.000 184.968,0.083 191.200,0.563 191.200 C 0.928 191.200,1.052 191.480,0.916 192.000 C 0.801 192.440,0.548 192.800,0.353 192.800 C 0.157 192.800,0.000 197.954,0.000 204.400 L 0.000 216.000 69.100 216.063 C 107.105 216.098,138.560 216.097,139.000 216.060 C 139.908 215.984,146.400 209.595,146.400 208.777 C 146.400 208.068,135.557 197.205,134.846 197.202 C 134.291 197.200,134.373 199.158,135.037 201.804 C 135.340 203.011,134.441 202.849,132.800 201.400 C 131.114 199.912,130.619 199.942,128.969 201.632 C 126.671 203.985,126.081 203.097,127.409 199.284 C 128.153 197.149,127.901 196.091,126.237 194.359 C 123.997 192.029,124.302 190.207,126.800 191.000 C 127.446 191.205,127.600 191.072,127.600 190.308 C 127.600 189.015,119.606 181.081,118.493 181.269 C 117.992 181.354,117.196 180.815,116.226 179.734 L 114.730 178.068 113.401 178.853 C 112.670 179.284,111.971 179.899,111.848 180.218 C 111.600 180.866,110.572 181.002,110.221 180.434 C 110.097 180.233,110.195 178.725,110.439 177.083 L 110.883 174.099 106.341 169.606 C 94.883 158.269,95.240 158.582,94.368 159.127 C 93.254 159.823,92.800 159.401,92.800 157.669 C 92.800 155.980,43.996 106.519,41.148 105.321 C 38.811 104.339,29.200 94.360,29.200 92.916 C 29.200 91.577,31.719 88.670,33.321 88.162 C 34.522 87.780,57.197 65.152,57.199 64.333 C 57.199 63.967,57.037 63.607,56.838 63.533 C 55.264 62.953,56.302 61.391,58.387 61.200 C 60.755 60.984,60.702 61.038,62.227 57.300 C 62.991 55.430,63.398 55.184,63.716 56.400 C 64.098 57.862,64.965 57.245,70.938 51.262 L 76.866 45.325 75.176 43.362 C 74.247 42.283,73.287 41.265,73.043 41.100 C 72.334 40.620,73.600 40.013,75.326 40.006 C 77.662 39.997,78.258 39.492,78.552 37.276 C 78.968 34.140,80.441 34.218,81.247 37.420 C 81.874 39.910,82.108 39.924,84.685 37.627 C 87.578 35.049,86.818 34.750,93.142 40.952 C 96.144 43.896,99.050 46.442,99.600 46.610 C 100.150 46.778,106.143 52.424,112.918 59.158 C 125.638 71.800,126.327 72.356,127.125 70.605 C 128.287 68.054,128.144 66.708,126.527 65.000 C 123.518 61.821,123.532 61.200,126.618 61.200 C 129.059 61.200,129.426 60.866,129.808 58.300 C 130.238 55.409,131.552 55.871,132.529 59.256 L 133.032 61.000 135.316 61.120 C 138.180 61.270,138.331 62.025,136.000 64.554 C 134.252 66.449,133.986 67.895,134.828 70.924 C 135.433 73.105,135.172 73.381,133.593 72.231 C 130.769 70.175,130.560 70.144,129.214 71.585 C 128.546 72.300,128.000 73.182,128.000 73.545 C 128.000 74.304,147.550 94.000,148.303 94.000 C 148.695 94.000,148.803 87.367,148.814 62.700 C 148.841 1.626,148.850 2.409,148.100 1.138 L 147.428 -0.000 73.714 -0.000 L 0.000 0.000 0.000 9.000 M97.562 13.500 C 97.779 14.325,98.076 15.500,98.224 16.111 C 98.563 17.517,99.472 18.000,101.774 18.000 C 104.085 18.000,104.114 18.479,101.962 21.201 L 100.323 23.274 100.599 26.390 C 100.912 29.921,100.477 30.714,99.153 29.031 C 97.589 27.043,96.882 26.958,95.239 28.562 C 92.780 30.963,92.355 30.403,93.272 25.964 C 93.787 23.472,93.960 23.955,91.202 20.200 C 89.651 18.089,89.680 18.000,91.911 18.000 C 94.610 18.000,95.397 17.305,95.965 14.416 C 96.511 11.640,97.001 11.359,97.562 13.500 M63.750 13.650 C 63.888 14.338,64.000 15.317,64.000 15.827 C 64.000 17.129,65.452 18.000,67.622 18.000 C 70.477 18.000,70.477 18.010,67.573 21.302 C 65.761 23.355,65.772 23.274,66.733 27.872 C 67.290 30.539,66.693 30.851,64.849 28.854 C 63.067 26.923,62.221 26.884,60.817 28.669 C 59.382 30.494,58.843 29.677,59.092 26.051 L 59.311 22.849 57.957 21.413 C 55.496 18.804,55.587 18.000,58.344 18.000 C 60.216 18.000,61.200 17.502,61.200 16.553 C 61.200 15.726,62.750 12.400,63.136 12.400 C 63.336 12.400,63.613 12.963,63.750 13.650 M30.000 15.403 C 30.000 17.250,30.885 18.000,33.064 18.000 C 35.782 18.000,35.916 18.841,33.600 21.354 C 31.789 23.318,31.598 24.537,32.585 27.818 C 32.907 28.887,33.116 29.817,33.050 29.883 C 32.826 30.108,30.411 28.749,30.105 28.226 C 29.380 26.987,28.203 27.175,26.588 28.788 C 24.262 31.110,23.660 30.287,24.988 26.600 C 25.854 24.197,25.734 23.548,24.104 21.800 C 22.813 20.415,21.600 18.649,21.600 18.154 C 21.600 18.069,22.658 18.000,23.951 18.000 C 26.644 18.000,26.980 17.728,27.360 15.238 C 27.508 14.269,27.742 13.295,27.879 13.073 C 28.177 12.590,30.000 14.594,30.000 15.403 M132.400 15.533 C 132.400 17.133,133.548 18.000,135.666 18.000 C 138.118 18.000,138.152 19.114,135.774 21.562 C 134.190 23.193,133.967 25.072,135.008 28.022 C 135.825 30.339,135.274 30.691,133.447 29.018 C 131.140 26.904,130.605 26.875,128.875 28.768 C 126.650 31.201,126.086 30.285,127.430 26.424 C 128.191 24.239,127.996 23.393,126.322 21.600 C 125.183 20.380,124.000 18.625,124.000 18.154 C 124.000 18.069,124.912 18.000,126.026 18.000 C 128.857 18.000,129.453 17.575,129.792 15.311 C 129.949 14.260,130.179 13.235,130.303 13.034 C 130.609 12.538,132.400 14.672,132.400 15.533 M46.593 35.970 C 47.394 39.242,48.001 39.901,50.370 40.072 C 52.538 40.229,52.727 40.664,51.303 42.224 C 49.160 44.572,48.826 45.345,49.219 47.042 C 50.172 51.150,49.636 51.910,47.179 49.935 C 45.462 48.555,45.166 48.632,43.180 50.964 C 41.704 52.697,41.075 48.876,42.422 46.360 C 42.794 45.664,40.794 42.492,39.270 41.361 C 38.332 40.665,39.103 40.000,40.850 40.000 C 43.510 40.000,44.800 38.600,44.800 35.714 C 44.800 34.830,45.430 33.200,45.771 33.200 C 45.850 33.200,46.219 34.447,46.593 35.970 M12.550 35.250 C 12.688 35.938,12.800 36.893,12.800 37.374 C 12.800 38.972,13.767 39.755,16.025 39.985 C 18.722 40.260,18.778 40.569,16.572 43.000 C 14.979 44.755,14.781 45.172,14.953 46.400 C 15.865 52.886,15.945 52.656,13.536 50.432 C 11.749 48.781,10.130 48.842,9.461 50.585 C 9.179 51.319,7.599 51.417,7.602 50.700 C 7.604 50.425,7.778 49.142,7.990 47.850 C 8.430 45.161,8.221 44.549,6.107 42.336 C 4.391 40.540,4.654 40.000,7.244 40.000 C 9.179 40.000,9.259 39.953,9.837 38.500 C 11.796 33.565,12.132 33.162,12.550 35.250 M115.154 36.500 C 115.649 39.320,116.271 39.997,118.376 40.006 C 119.159 40.009,120.063 40.179,120.384 40.382 C 121.011 40.778,121.057 40.705,118.276 43.764 C 117.363 44.767,117.189 45.263,117.351 46.400 C 118.264 52.809,118.319 52.620,116.122 50.602 C 114.315 48.942,113.481 48.856,112.235 50.200 C 111.254 51.258,109.998 51.539,110.002 50.700 C 110.004 50.425,110.178 49.142,110.390 47.850 C 110.821 45.215,110.618 44.596,108.635 42.487 C 106.887 40.629,107.037 40.221,109.518 40.078 C 111.396 39.971,111.685 39.834,112.063 38.878 C 114.276 33.277,114.550 33.065,115.154 36.500 M29.986 58.707 C 30.604 60.937,30.840 61.138,33.004 61.274 C 35.622 61.440,35.755 62.216,33.570 64.586 C 31.779 66.529,31.668 67.377,32.620 71.874 C 32.945 73.409,31.705 73.368,30.475 71.805 C 29.146 70.115,28.130 70.157,26.475 71.968 C 24.232 74.421,23.803 73.798,25.004 69.836 C 25.838 67.090,25.784 66.801,24.104 65.000 C 21.121 61.800,21.139 61.200,24.218 61.200 C 26.580 61.200,26.973 60.878,27.384 58.603 C 27.876 55.879,29.218 55.933,29.986 58.707 M12.666 79.530 C 12.997 82.326,13.452 82.820,15.987 83.134 C 18.722 83.473,18.783 83.775,16.595 86.147 C 14.641 88.267,14.432 89.197,15.317 91.850 C 16.406 95.115,15.759 95.776,13.624 93.577 C 11.967 91.870,10.161 91.960,9.461 93.785 C 9.210 94.439,8.184 94.621,7.844 94.071 C 7.732 93.890,7.802 92.601,7.999 91.205 C 8.407 88.323,8.212 87.740,6.107 85.536 C 4.446 83.798,4.654 83.202,6.924 83.194 C 9.204 83.186,9.392 83.007,10.630 79.668 C 11.832 76.423,12.295 76.392,12.666 79.530 M395.000 93.229 C 392.800 94.975,389.650 97.430,388.000 98.685 C 384.207 101.570,376.060 107.915,373.985 109.600 C 373.579 109.930,371.701 111.370,369.812 112.800 C 365.199 116.293,360.289 120.085,359.579 120.705 C 358.856 121.335,356.380 123.202,355.210 124.000 C 354.726 124.330,353.905 124.960,353.386 125.400 C 352.866 125.840,351.431 126.920,350.195 127.800 C 347.861 129.462,345.889 131.077,342.874 133.794 C 340.410 136.016,339.077 135.915,371.500 135.960 L 400.000 136.000 400.000 113.000 C 400.000 94.852,399.895 90.006,399.500 90.027 C 399.225 90.042,397.200 91.482,395.000 93.229 M30.190 102.501 L 30.600 104.200 32.797 104.400 C 35.633 104.658,35.795 105.372,33.568 107.788 L 31.886 109.614 32.136 112.107 C 32.273 113.478,32.499 115.001,32.637 115.492 C 32.920 116.494,30.768 115.758,30.105 114.626 C 29.380 113.387,28.203 113.575,26.588 115.188 C 24.207 117.565,23.799 117.010,25.004 113.036 C 25.845 110.266,25.785 109.954,24.070 108.169 C 21.440 105.432,21.627 104.400,24.753 104.400 C 26.330 104.400,27.199 103.840,27.202 102.820 C 27.203 102.479,27.399 101.500,27.636 100.645 L 28.068 99.090 28.924 99.946 C 29.395 100.417,29.965 101.567,30.190 102.501 M46.385 121.700 C 47.288 125.388,47.964 126.186,50.300 126.321 C 52.782 126.464,52.914 126.873,51.100 128.811 C 49.329 130.704,48.867 131.905,49.258 133.600 C 50.167 137.542,49.606 138.285,47.188 136.342 C 45.468 134.960,45.191 135.021,43.330 137.187 C 41.862 138.895,41.355 137.855,41.972 134.402 C 42.535 131.253,42.437 130.961,40.010 128.515 C 38.447 126.940,38.706 126.400,41.024 126.400 C 43.188 126.400,44.252 125.485,44.601 123.322 C 45.236 119.378,45.711 118.947,46.385 121.700 M12.750 122.873 C 13.283 125.896,13.440 126.064,15.985 126.308 C 18.703 126.569,18.769 126.872,16.629 129.252 C 14.627 131.479,14.442 132.339,15.384 135.041 C 16.506 138.263,15.769 138.988,13.621 136.774 C 11.904 135.005,11.043 135.033,9.551 136.909 C 8.427 138.322,7.499 137.543,7.813 135.451 C 8.406 131.498,8.281 130.917,6.433 129.033 C 4.389 126.950,4.557 126.400,7.236 126.400 C 8.772 126.400,9.280 126.241,9.465 125.700 C 10.127 123.768,11.746 120.400,12.012 120.400 C 12.178 120.400,12.511 121.513,12.750 122.873 M63.750 143.250 C 63.888 143.938,64.000 144.928,64.000 145.450 C 64.000 146.925,65.349 148.000,67.200 148.000 C 69.317 148.000,69.376 149.215,67.366 151.409 C 65.832 153.084,65.798 153.397,66.709 157.472 C 67.305 160.141,66.696 160.454,64.833 158.436 L 63.224 156.692 62.112 157.409 C 61.500 157.803,60.856 158.368,60.680 158.663 C 60.277 159.340,59.218 159.365,59.145 158.700 C 59.114 158.425,59.128 156.940,59.175 155.400 C 59.258 152.689,59.215 152.550,57.814 151.032 C 55.894 148.951,56.068 148.234,58.534 148.077 C 60.340 147.961,60.497 147.862,61.046 146.477 C 62.993 141.571,63.333 141.165,63.750 143.250 M29.343 143.700 C 29.652 144.195,30.031 145.139,30.185 145.798 C 30.605 147.599,31.127 148.000,33.049 148.000 C 35.346 148.000,35.452 149.206,33.346 151.375 C 31.842 152.923,31.634 155.124,32.650 158.739 C 32.937 159.762,32.132 159.506,30.200 157.960 C 28.685 156.747,28.165 156.812,26.555 158.420 C 24.209 160.763,23.804 160.193,25.004 156.236 C 25.848 153.454,25.788 153.157,24.000 151.296 C 21.790 148.996,21.841 148.000,24.171 148.000 C 26.321 148.000,27.003 147.394,27.359 145.165 C 27.782 142.520,28.347 142.103,29.343 143.700 M46.385 164.900 C 47.288 168.588,47.964 169.386,50.300 169.521 C 52.848 169.668,52.947 170.113,50.900 172.226 L 49.400 173.775 49.488 177.287 C 49.587 181.237,49.415 181.422,47.339 179.600 C 45.630 178.100,45.634 178.100,43.893 179.840 C 41.694 182.040,40.995 180.937,42.153 177.091 C 42.776 175.020,42.486 174.282,40.012 171.642 C 38.549 170.081,38.843 169.616,41.300 169.606 C 43.170 169.598,44.271 168.571,44.601 166.522 C 45.236 162.578,45.711 162.147,46.385 164.900 M12.750 166.073 C 13.279 169.074,13.343 169.144,15.942 169.555 C 18.749 169.999,18.767 170.074,16.651 172.428 C 14.625 174.681,14.440 175.533,15.384 178.241 C 16.502 181.451,15.774 182.184,13.687 179.947 C 12.006 178.145,11.085 178.181,9.551 180.109 C 8.344 181.626,7.523 180.744,7.874 178.307 C 8.396 174.693,8.249 174.084,6.409 172.210 C 4.448 170.212,4.568 169.602,6.924 169.594 C 9.107 169.586,9.226 169.478,10.558 166.300 C 11.952 162.976,12.200 162.950,12.750 166.073 M81.241 166.964 C 81.851 169.245,82.252 169.600,84.225 169.600 C 86.618 169.600,86.739 170.147,84.840 172.398 C 82.994 174.588,82.833 175.611,83.767 179.212 C 84.258 181.105,84.216 182.711,83.712 181.300 C 83.614 181.025,83.293 180.800,83.000 180.800 C 82.707 180.800,82.137 180.363,81.733 179.829 C 80.597 178.326,79.498 178.399,77.657 180.100 C 75.334 182.248,75.016 181.753,76.204 177.836 C 77.025 175.131,77.024 175.128,74.994 172.750 C 72.809 170.190,72.867 169.874,75.586 169.537 C 77.983 169.240,78.220 168.997,78.603 166.434 C 79.059 163.387,80.354 163.647,81.241 166.964 M97.432 185.900 C 98.445 190.396,98.525 190.496,101.500 190.989 C 103.648 191.344,103.704 192.068,101.759 194.339 L 100.319 196.022 100.597 199.164 C 100.934 202.974,100.561 203.384,98.541 201.422 C 96.753 199.685,96.861 199.686,95.200 201.400 C 92.720 203.958,92.513 203.540,93.416 197.800 C 93.639 196.377,93.516 196.023,92.299 194.600 C 90.136 192.069,90.129 191.335,92.266 191.094 C 94.331 190.861,95.466 189.977,95.777 188.359 C 95.900 187.721,96.104 186.660,96.232 186.000 C 96.522 184.500,97.106 184.451,97.432 185.900 M63.769 186.700 C 64.389 190.303,64.409 190.341,65.857 190.819 C 66.629 191.074,67.787 191.205,68.430 191.110 C 69.074 191.016,69.599 191.042,69.599 191.169 C 69.595 191.651,68.072 193.844,67.015 194.889 C 66.085 195.808,65.948 196.211,66.132 197.489 C 67.074 204.016,67.063 204.051,64.791 201.590 C 63.158 199.822,61.753 199.818,60.810 201.581 C 59.788 203.491,58.717 202.595,59.040 200.100 C 59.479 196.704,59.341 196.054,57.771 194.138 C 55.928 191.889,56.063 191.000,58.248 190.999 C 59.938 190.999,61.200 190.299,61.200 189.362 C 61.200 188.643,62.884 185.200,63.235 185.200 C 63.387 185.200,63.627 185.875,63.769 186.700 M29.251 186.651 C 29.553 187.010,29.986 188.045,30.214 188.951 C 30.615 190.544,30.699 190.613,32.714 190.973 C 35.311 191.437,35.488 192.384,33.360 194.422 C 31.875 195.844,31.653 198.229,32.659 201.940 C 32.948 203.005,30.809 202.247,30.120 201.039 C 29.473 199.905,28.090 200.155,26.457 201.700 C 24.174 203.859,23.702 203.039,25.030 199.224 C 25.797 197.020,25.584 196.118,23.881 194.365 C 22.623 193.069,21.754 191.261,22.337 191.150 C 22.482 191.123,23.485 191.041,24.566 190.967 C 26.759 190.817,27.005 190.583,27.372 188.283 C 27.765 185.827,28.222 185.430,29.251 186.651 M341.870 265.944 C 341.279 266.177,342.041 266.938,345.870 269.937 C 348.471 271.974,351.380 274.290,352.334 275.084 C 353.287 275.877,355.537 277.624,357.334 278.964 C 359.944 280.912,364.932 284.803,367.829 287.151 C 368.065 287.342,369.415 288.370,370.829 289.434 C 373.942 291.779,379.572 296.191,380.400 296.935 C 380.730 297.231,382.440 298.579,384.200 299.929 C 394.179 307.586,396.147 309.119,397.505 310.291 C 400.149 312.573,400.000 313.870,400.000 288.600 L 400.000 265.600 371.300 265.628 C 355.515 265.644,342.271 265.786,341.870 265.944 M244.000 352.548 L 244.000 400.000 321.400 400.000 C 363.970 400.000,398.800 399.850,398.800 399.666 C 398.800 399.266,395.855 396.577,394.417 395.664 C 393.415 395.027,385.947 389.193,384.000 387.526 C 383.450 387.055,381.650 385.674,380.000 384.457 C 378.350 383.240,374.840 380.515,372.200 378.400 C 369.560 376.286,365.960 373.477,364.200 372.159 C 359.163 368.385,355.949 365.880,354.831 364.854 C 352.820 363.010,348.804 360.341,348.235 360.469 C 347.918 360.541,342.794 365.415,336.849 371.300 C 330.904 377.185,325.832 382.000,325.578 382.000 C 325.323 382.000,322.659 379.592,319.658 376.648 C 316.656 373.704,313.785 371.169,313.279 371.014 C 312.375 370.738,308.092 366.531,267.183 325.737 C 249.294 307.898,246.795 305.549,245.483 305.336 L 244.000 305.095 244.000 352.548 M138.874 332.500 C 129.533 341.795,115.970 355.295,108.734 362.500 C 101.497 369.705,95.306 375.600,94.975 375.600 C 94.644 375.600,92.844 377.040,90.976 378.800 C 89.107 380.560,87.406 382.000,87.195 382.000 C 86.984 382.000,80.766 376.015,73.377 368.700 C 57.705 353.184,59.128 354.205,56.326 356.459 C 55.135 357.416,53.630 358.598,52.981 359.084 C 50.910 360.634,50.267 361.133,47.000 363.717 C 45.240 365.109,42.810 366.980,41.600 367.876 C 40.390 368.771,38.996 369.840,38.503 370.252 C 38.010 370.663,35.158 372.890,32.165 375.200 C 29.172 377.510,24.085 381.478,20.861 384.018 C 17.638 386.557,14.010 389.371,12.800 390.270 C 11.590 391.169,10.060 392.393,9.400 392.989 C 8.740 393.585,7.741 394.372,7.179 394.737 C 5.227 396.005,1.200 399.320,1.200 399.659 C 1.200 399.847,36.120 400.000,78.800 400.000 L 156.400 400.000 156.400 357.800 C 156.400 334.590,156.278 315.600,156.129 315.600 C 155.980 315.600,148.215 323.205,138.874 332.500 " stroke="none" fill="#07266e" fill-rule="evenodd"></path><path id="path2" d="M317.461 42.811 C 313.163 47.036,309.231 50.777,308.723 51.126 C 308.216 51.475,305.820 53.684,303.400 56.036 C 300.980 58.387,298.488 60.736,297.862 61.256 C 297.237 61.775,296.247 62.727,295.662 63.371 C 291.822 67.603,242.770 115.847,239.800 118.312 C 238.480 119.408,236.780 120.956,236.022 121.752 C 235.263 122.549,234.429 123.200,234.168 123.200 C 233.906 123.200,233.369 123.695,232.974 124.300 C 231.798 126.100,207.055 150.400,206.401 150.397 C 205.731 150.393,179.600 124.647,179.600 123.990 C 179.600 123.761,179.246 123.443,178.814 123.284 C 178.382 123.124,175.997 121.000,173.514 118.564 C 171.031 116.128,168.588 113.858,168.084 113.519 C 166.643 112.549,148.800 94.869,148.800 94.411 C 148.800 94.185,148.574 94.000,148.297 94.000 C 147.525 94.000,128.000 74.289,128.000 73.510 C 128.000 73.066,127.789 72.906,127.400 73.055 C 126.988 73.214,126.800 73.031,126.800 72.471 C 126.800 71.972,126.496 71.606,126.018 71.528 C 125.587 71.458,119.692 65.891,112.918 59.158 C 106.143 52.424,100.150 46.778,99.600 46.610 C 99.050 46.442,96.144 43.896,93.142 40.952 C 86.818 34.750,87.578 35.049,84.685 37.627 C 83.435 38.742,82.229 39.541,82.006 39.403 C 81.781 39.264,81.600 39.528,81.600 39.995 C 81.600 41.143,77.771 44.951,76.938 44.632 C 76.516 44.470,76.379 44.569,76.520 44.936 C 76.787 45.631,65.255 57.200,64.295 57.200 C 63.863 57.200,63.600 57.508,63.600 58.013 C 63.600 58.459,63.285 58.946,62.900 59.094 C 61.816 59.510,59.549 61.699,59.165 62.700 C 58.964 63.223,58.481 63.600,58.010 63.600 C 57.506 63.600,57.200 63.864,57.199 64.300 C 57.197 65.142,34.553 87.771,33.321 88.162 C 31.719 88.670,29.200 91.577,29.200 92.916 C 29.200 94.360,38.811 104.339,41.148 105.321 C 42.566 105.918,92.800 155.835,92.800 156.648 C 92.800 156.903,93.115 157.086,93.500 157.056 C 93.943 157.020,94.247 157.330,94.328 157.900 C 94.398 158.395,94.676 158.800,94.945 158.800 C 95.214 158.800,98.216 161.594,101.617 165.009 C 105.018 168.424,109.285 172.394,111.100 173.831 C 112.915 175.268,114.403 176.659,114.406 176.922 C 114.414 177.555,118.178 181.200,118.823 181.200 C 119.609 181.200,127.600 189.277,127.600 190.071 C 127.600 190.469,128.169 191.067,128.900 191.435 C 130.309 192.145,133.712 195.473,134.122 196.541 C 134.261 196.903,134.606 197.201,134.887 197.202 C 135.566 197.205,146.400 208.092,146.400 208.771 C 146.400 209.467,140.010 216.000,139.329 216.000 C 139.038 216.000,138.800 216.235,138.800 216.523 C 138.800 216.811,132.206 223.516,124.147 231.423 C 116.089 239.330,108.889 246.400,108.147 247.134 C 107.406 247.868,106.800 248.611,106.800 248.786 C 106.800 248.960,106.293 249.313,105.673 249.570 C 105.054 249.826,98.871 255.653,91.935 262.518 C 84.999 269.383,78.396 275.804,77.262 276.787 C 76.128 277.770,75.200 278.720,75.200 278.899 C 75.200 279.077,72.185 282.173,68.500 285.778 C 64.815 289.383,58.740 295.333,55.000 299.000 C 51.260 302.668,47.300 306.527,46.200 307.578 C 45.100 308.628,43.078 310.676,41.707 312.130 C 40.336 313.583,38.706 315.035,38.086 315.356 C 36.018 316.425,29.204 323.687,29.202 324.824 C 29.200 325.933,35.440 332.505,38.052 334.144 C 39.272 334.911,48.604 344.008,50.635 346.412 C 51.094 346.955,52.828 348.632,54.488 350.138 C 56.147 351.644,57.727 353.291,57.999 353.797 C 58.270 354.304,58.818 354.872,59.218 355.059 C 59.617 355.247,65.989 361.385,73.377 368.700 C 80.766 376.015,86.984 382.000,87.195 382.000 C 87.406 382.000,89.107 380.560,90.976 378.800 C 92.844 377.040,94.644 375.600,94.975 375.600 C 95.306 375.600,101.497 369.705,108.734 362.500 C 115.970 355.295,129.552 341.776,138.916 332.458 C 148.280 323.140,156.122 315.628,156.342 315.764 C 156.562 315.900,156.849 315.676,156.979 315.266 C 157.220 314.506,161.282 310.503,165.222 307.141 C 166.420 306.119,176.040 296.714,186.600 286.241 C 198.910 274.033,206.046 267.236,206.485 267.300 C 207.240 267.410,227.200 286.977,227.200 287.607 C 227.200 287.823,227.431 288.000,227.713 288.000 C 228.418 288.000,243.447 303.198,243.757 304.224 C 243.922 304.772,244.535 305.174,245.587 305.424 C 246.972 305.753,251.194 309.809,279.624 338.127 C 297.475 355.906,312.557 370.657,313.140 370.906 C 313.723 371.154,316.656 373.752,319.658 376.679 C 322.659 379.605,325.323 382.000,325.578 382.000 C 325.832 382.000,330.905 377.185,336.849 371.300 C 342.794 365.415,348.005 360.542,348.429 360.472 C 348.853 360.402,349.200 360.062,349.200 359.717 C 349.200 358.421,372.641 336.000,373.997 336.000 C 374.218 336.000,374.401 335.775,374.403 335.500 C 374.404 335.225,376.474 332.950,379.003 330.444 C 382.664 326.816,383.600 325.663,383.600 324.780 C 383.600 323.548,373.563 313.239,371.079 311.921 C 369.635 311.154,338.292 279.785,337.887 278.700 C 337.743 278.315,337.349 278.000,337.013 278.000 C 336.676 278.000,336.400 277.730,336.400 277.400 C 336.400 277.070,336.231 276.800,336.024 276.800 C 335.505 276.800,331.071 272.588,317.026 258.756 C 310.412 252.241,304.280 246.316,303.400 245.587 C 300.945 243.555,297.457 240.172,281.000 223.860 L 265.800 208.794 281.800 192.786 C 290.600 183.982,298.430 176.439,299.200 176.024 C 299.970 175.609,309.503 166.434,320.385 155.635 C 332.152 143.958,340.470 136.000,340.909 136.000 C 341.315 136.000,341.550 135.842,341.431 135.649 C 341.311 135.457,342.651 133.980,344.407 132.369 C 346.163 130.757,347.600 129.205,347.600 128.919 C 347.600 128.634,347.960 128.400,348.400 128.400 C 348.933 128.400,349.200 128.133,349.200 127.600 C 349.200 127.160,349.383 126.800,349.607 126.800 C 349.831 126.800,351.211 125.531,352.674 123.980 C 356.675 119.739,365.368 111.234,366.449 110.504 C 369.443 108.481,383.873 93.516,383.700 92.613 C 383.596 92.066,381.664 89.929,379.108 87.534 C 366.444 75.667,353.600 63.026,353.600 62.429 C 353.600 62.193,353.400 62.000,353.156 62.000 C 352.709 62.000,347.970 57.453,334.606 44.200 C 330.612 40.240,326.879 36.579,326.310 36.065 L 325.275 35.131 317.461 42.811 M88.285 52.520 C 88.772 52.791,92.642 56.443,96.885 60.636 C 101.128 64.829,105.023 68.546,105.540 68.896 C 106.404 69.480,128.290 90.862,147.819 110.200 C 165.959 128.164,171.844 133.905,172.705 134.479 C 173.202 134.811,180.735 142.084,189.444 150.641 C 202.869 163.832,205.454 166.200,206.428 166.200 C 207.398 166.200,209.664 164.152,220.991 153.036 C 228.368 145.796,234.809 139.600,235.302 139.267 C 236.167 138.684,244.126 130.913,261.591 113.600 C 279.669 95.678,301.886 73.998,303.400 72.803 C 304.280 72.107,309.230 67.351,314.400 62.233 C 319.570 57.115,324.220 52.704,324.733 52.432 C 325.882 51.822,324.726 50.830,337.527 63.400 C 360.916 86.365,366.323 91.843,366.459 92.716 C 366.573 93.445,363.882 96.305,352.354 107.708 C 326.136 133.642,306.215 153.122,304.604 154.400 C 303.726 155.096,293.376 165.180,281.604 176.809 C 269.832 188.437,257.815 200.294,254.900 203.156 C 251.985 206.019,249.600 208.576,249.600 208.838 C 249.600 209.099,253.065 212.720,257.300 216.884 C 261.535 221.047,274.346 233.667,285.768 244.927 C 309.723 268.540,307.594 266.470,308.765 267.290 C 309.645 267.907,329.963 287.795,354.657 312.212 C 363.671 321.125,366.400 324.050,366.400 324.800 C 366.400 326.089,326.662 365.600,325.366 365.600 C 324.991 365.600,321.246 362.213,317.042 358.074 C 312.839 353.935,308.770 350.045,308.000 349.431 C 306.682 348.378,282.857 325.101,264.982 307.400 C 246.751 289.347,240.954 283.693,240.073 283.106 C 239.564 282.766,232.034 275.493,223.341 266.944 C 205.960 249.849,206.495 250.246,204.057 252.673 C 193.840 262.845,169.830 286.228,168.604 287.200 C 167.726 287.896,157.376 297.980,145.604 309.608 C 112.719 342.092,102.012 352.543,99.774 354.345 C 99.128 354.864,96.233 357.609,93.340 360.445 C 90.448 363.280,87.809 365.600,87.476 365.600 C 86.899 365.600,78.342 357.341,56.343 335.552 C 49.187 328.465,46.400 325.451,46.400 324.800 C 46.400 323.846,50.207 319.995,82.444 288.333 C 91.330 279.606,99.318 271.896,100.196 271.200 C 101.074 270.504,111.424 260.424,123.196 248.800 C 134.968 237.176,148.785 223.540,153.900 218.497 C 159.015 213.455,163.200 209.095,163.200 208.809 C 163.200 208.523,157.680 202.869,150.934 196.244 C 144.187 189.620,134.944 180.510,130.393 176.000 C 112.574 158.341,104.961 150.911,104.060 150.303 C 103.542 149.954,95.642 142.318,86.503 133.334 C 50.374 97.818,46.400 93.809,46.400 92.878 C 46.400 91.928,50.108 88.143,74.394 64.300 C 81.284 57.535,87.030 52.006,87.161 52.014 C 87.292 52.022,87.798 52.250,88.285 52.520 " stroke="none" fill="#000000" fill-rule="evenodd"></path><path id="path3" d="M96.191 13.500 C 95.653 16.793,95.507 17.222,94.794 17.603 C 94.386 17.821,93.141 18.000,92.026 18.000 C 90.912 18.000,90.000 18.096,90.000 18.214 C 90.000 18.630,91.385 20.615,92.486 21.776 C 93.739 23.098,93.799 23.587,93.120 26.876 C 92.447 30.132,93.092 30.773,94.945 28.690 C 96.597 26.833,97.189 26.827,98.789 28.649 C 100.592 30.702,101.042 30.078,100.551 26.208 L 100.168 23.189 101.884 21.097 C 104.090 18.409,104.075 18.000,101.774 18.000 C 98.736 18.000,98.468 17.698,97.432 13.100 C 97.082 11.543,96.479 11.737,96.191 13.500 M61.981 14.700 C 60.735 17.844,60.566 18.000,58.418 18.000 C 55.563 18.000,55.525 18.644,58.202 21.639 C 59.462 23.049,59.484 23.139,59.291 26.139 C 59.071 29.576,59.486 30.024,61.200 28.200 C 62.491 26.825,63.193 26.939,64.904 28.800 C 67.052 31.136,67.396 30.329,66.205 25.755 L 65.610 23.472 67.305 21.574 C 70.524 17.970,70.523 18.000,67.362 18.000 C 65.029 18.000,64.000 17.333,64.000 15.821 C 64.000 12.115,63.185 11.663,61.981 14.700 M27.879 13.473 C 27.765 13.656,27.543 14.525,27.384 15.403 C 26.965 17.726,26.602 18.000,23.951 18.000 C 22.658 18.000,21.600 18.096,21.600 18.214 C 21.600 18.690,23.074 20.675,24.298 21.847 C 25.767 23.254,25.886 24.130,25.004 27.036 C 23.963 30.469,24.269 30.785,26.519 28.600 C 28.226 26.942,29.147 26.845,30.325 28.200 C 30.803 28.750,31.451 29.200,31.764 29.200 C 32.077 29.200,32.409 29.335,32.501 29.500 C 32.593 29.665,32.594 29.530,32.502 29.200 C 31.612 26.004,31.950 22.988,33.367 21.481 C 35.820 18.870,35.743 18.000,33.057 18.000 C 30.716 18.000,30.000 17.460,30.000 15.696 C 30.000 14.845,28.198 12.957,27.879 13.473 M130.279 13.473 C 130.165 13.656,129.943 14.525,129.784 15.403 C 129.365 17.726,129.002 18.000,126.351 18.000 C 125.058 18.000,124.000 18.096,124.000 18.214 C 124.000 18.690,125.474 20.675,126.698 21.847 C 128.186 23.273,128.298 24.184,127.347 27.129 C 126.349 30.221,126.837 30.775,128.787 28.765 C 130.545 26.954,131.958 26.827,132.803 28.405 C 133.037 28.842,133.567 29.200,133.981 29.200 C 134.395 29.200,134.809 29.335,134.901 29.500 C 134.993 29.665,135.004 29.548,134.924 29.241 C 134.044 25.836,134.353 22.984,135.767 21.481 C 138.220 18.870,138.143 18.000,135.457 18.000 C 133.116 18.000,132.400 17.460,132.400 15.696 C 132.400 14.845,130.598 12.957,130.279 13.473 M0.000 18.600 C 0.000 18.930,0.270 19.200,0.600 19.200 C 0.930 19.200,1.200 18.930,1.200 18.600 C 1.200 18.270,0.930 18.000,0.600 18.000 C 0.270 18.000,0.000 18.270,0.000 18.600 M149.180 32.180 C 148.584 32.776,148.680 61.320,149.280 61.920 C 149.650 62.290,166.618 62.400,223.222 62.400 L 296.683 62.400 297.842 61.348 C 298.479 60.770,300.980 58.376,303.400 56.028 C 305.820 53.681,308.244 51.455,308.787 51.081 C 309.330 50.708,312.932 47.297,316.791 43.502 C 320.651 39.706,324.190 36.276,324.657 35.880 C 325.498 35.168,325.584 35.238,333.695 43.280 C 338.199 47.746,344.366 53.830,347.399 56.800 L 352.914 62.200 364.924 62.400 C 377.118 62.603,378.609 62.818,376.324 64.040 C 375.431 64.518,368.807 69.616,366.054 71.945 C 364.145 73.559,363.767 73.107,379.120 87.534 C 381.662 89.923,383.596 92.067,383.700 92.613 C 383.873 93.516,369.443 108.481,366.449 110.504 C 365.368 111.234,356.675 119.739,352.674 123.980 C 351.211 125.531,349.831 126.800,349.607 126.800 C 349.383 126.800,349.200 127.070,349.200 127.400 C 349.200 128.349,351.682 127.120,353.715 125.165 C 354.038 124.854,354.702 124.330,355.190 124.000 C 355.679 123.670,358.393 121.600,361.221 119.400 C 364.049 117.200,367.911 114.230,369.804 112.800 C 373.220 110.220,374.026 109.586,376.052 107.884 C 376.631 107.398,377.509 106.730,378.005 106.400 C 378.500 106.070,380.276 104.709,381.952 103.376 C 383.629 102.043,385.990 100.220,387.200 99.324 C 388.410 98.429,389.850 97.297,390.400 96.808 C 390.950 96.319,393.085 94.632,395.145 93.059 C 397.205 91.487,399.140 90.000,399.445 89.756 C 399.909 89.385,400.000 84.613,400.000 60.657 L 400.000 32.003 274.780 31.901 C 196.085 31.838,149.419 31.941,149.180 32.180 M45.029 34.500 C 44.927 34.995,44.733 36.255,44.597 37.299 C 44.317 39.463,43.672 39.997,41.326 40.006 C 38.863 40.016,38.428 40.538,39.770 41.874 C 42.635 44.723,42.915 45.353,42.226 47.385 C 41.186 50.447,41.711 52.605,43.103 50.993 C 45.152 48.620,45.452 48.547,47.237 49.981 C 49.431 51.745,49.901 51.278,49.329 47.903 C 48.845 45.048,49.015 44.511,51.093 42.336 C 52.768 40.584,52.546 40.000,50.205 40.000 C 47.680 40.000,47.317 39.515,46.232 34.700 C 45.933 33.370,45.285 33.262,45.029 34.500 M10.846 36.300 C 9.465 39.826,9.501 39.788,7.359 39.924 C 5.119 40.066,4.287 40.607,5.200 41.327 C 7.837 43.406,8.386 44.657,8.128 48.000 C 7.886 51.141,8.667 52.656,9.461 50.585 C 10.167 48.745,12.012 48.648,13.614 50.366 C 15.795 52.705,16.293 51.711,15.028 47.543 C 14.387 45.432,14.547 45.037,17.157 42.284 C 18.831 40.518,18.516 40.016,15.729 40.006 C 13.765 39.999,12.800 39.213,12.800 37.621 C 12.800 33.738,12.049 33.230,10.846 36.300 M112.922 36.900 L 111.751 39.800 109.776 39.924 C 106.980 40.099,106.817 40.501,108.737 42.479 C 110.585 44.382,110.549 44.257,110.414 48.300 C 110.319 51.165,111.140 52.463,111.861 50.585 C 112.556 48.775,114.322 48.692,116.035 50.388 C 116.931 51.275,117.739 52.000,117.832 52.000 C 118.218 52.000,117.946 49.283,117.412 47.800 C 116.599 45.545,116.580 45.606,118.865 43.043 C 121.088 40.549,121.042 40.024,118.600 40.001 C 115.719 39.973,115.612 39.846,114.986 35.700 C 114.631 33.346,114.274 33.553,112.922 36.900 M79.064 35.097 C 78.935 35.305,78.708 36.269,78.560 37.238 C 78.201 39.591,77.801 39.999,75.851 40.006 C 73.081 40.016,72.871 40.455,74.629 42.558 C 76.828 45.187,77.232 45.206,79.646 42.792 C 81.700 40.738,81.703 40.731,81.461 38.685 C 81.221 36.656,79.600 34.229,79.064 35.097 M74.394 64.300 C 50.108 88.143,46.400 91.928,46.400 92.878 C 46.400 93.809,50.374 97.818,86.503 133.334 C 95.642 142.318,103.542 149.954,104.060 150.303 C 104.961 150.911,112.574 158.341,130.393 176.000 C 134.944 180.510,144.187 189.620,150.934 196.244 C 157.680 202.869,163.200 208.523,163.200 208.809 C 163.200 209.095,159.015 213.455,153.900 218.497 C 148.785 223.540,134.968 237.176,123.196 248.800 C 111.424 260.424,101.074 270.504,100.196 271.200 C 99.318 271.896,91.330 279.606,82.444 288.333 C 50.207 319.995,46.400 323.846,46.400 324.800 C 46.400 325.451,49.187 328.465,56.343 335.552 C 78.342 357.341,86.899 365.600,87.476 365.600 C 87.809 365.600,90.448 363.280,93.340 360.445 C 96.233 357.609,99.128 354.864,99.774 354.345 C 102.012 352.543,112.719 342.092,145.604 309.608 C 157.376 297.980,167.726 287.896,168.604 287.200 C 169.830 286.228,193.840 262.845,204.057 252.673 C 206.495 250.246,205.960 249.849,223.341 266.944 C 232.034 275.493,239.564 282.766,240.073 283.106 C 240.954 283.693,246.751 289.347,264.982 307.400 C 282.857 325.101,306.682 348.378,308.000 349.431 C 308.770 350.045,312.839 353.935,317.042 358.074 C 321.246 362.213,324.991 365.600,325.366 365.600 C 326.662 365.600,366.400 326.089,366.400 324.800 C 366.400 324.050,363.671 321.125,354.657 312.212 C 329.963 287.795,309.645 267.907,308.765 267.290 C 307.594 266.470,309.723 268.540,285.768 244.927 C 274.346 233.667,261.535 221.047,257.300 216.884 C 253.065 212.720,249.600 209.099,249.600 208.838 C 249.600 208.576,251.985 206.019,254.900 203.156 C 257.815 200.294,269.832 188.437,281.604 176.809 C 293.376 165.180,303.726 155.096,304.604 154.400 C 306.215 153.122,326.136 133.642,352.354 107.708 C 363.882 96.305,366.573 93.445,366.459 92.716 C 366.323 91.843,360.916 86.365,337.527 63.400 C 324.726 50.830,325.882 51.822,324.733 52.432 C 324.220 52.704,319.570 57.115,314.400 62.233 C 309.230 67.351,304.280 72.107,303.400 72.803 C 301.886 73.998,279.669 95.678,261.591 113.600 C 244.126 130.913,236.167 138.684,235.302 139.267 C 234.809 139.600,228.368 145.796,220.991 153.036 C 209.664 164.152,207.398 166.200,206.428 166.200 C 205.454 166.200,202.869 163.832,189.444 150.641 C 180.735 142.084,173.202 134.811,172.705 134.479 C 171.844 133.905,165.959 128.164,147.819 110.200 C 128.290 90.862,106.404 69.480,105.540 68.896 C 105.023 68.546,101.128 64.829,96.885 60.636 C 90.037 53.869,88.002 52.064,87.161 52.014 C 87.030 52.006,81.284 57.535,74.394 64.300 M62.191 57.626 C 61.821 58.740,61.627 59.760,61.759 59.893 C 61.892 60.025,62.000 59.944,62.000 59.713 C 62.000 59.482,62.360 59.199,62.800 59.084 C 63.436 58.918,63.600 58.538,63.600 57.237 C 63.600 55.014,63.005 55.178,62.191 57.626 M27.879 56.673 C 27.765 56.856,27.543 57.725,27.384 58.603 C 26.972 60.886,26.584 61.200,24.175 61.200 C 23.005 61.200,21.936 61.380,21.800 61.600 C 21.664 61.820,21.743 62.000,21.976 62.000 C 22.209 62.000,22.400 62.234,22.400 62.519 C 22.400 62.805,23.120 63.788,24.000 64.704 C 25.770 66.546,25.948 67.536,24.988 70.200 C 23.821 73.439,24.307 73.948,26.519 71.800 C 28.233 70.136,28.807 70.074,30.238 71.400 C 30.831 71.950,31.546 72.400,31.825 72.400 C 32.105 72.400,32.409 72.535,32.501 72.700 C 32.593 72.865,32.604 72.748,32.524 72.441 C 31.640 69.022,31.953 66.185,33.380 64.666 C 35.583 62.321,35.483 61.428,33.000 61.283 C 30.866 61.157,30.000 60.496,30.000 58.993 C 30.000 58.072,28.218 56.124,27.879 56.673 M130.285 56.663 C 130.168 56.852,129.943 57.725,129.784 58.603 C 129.372 60.886,128.984 61.200,126.575 61.200 C 125.405 61.200,124.336 61.380,124.200 61.600 C 124.064 61.820,124.143 62.000,124.376 62.000 C 124.609 62.000,124.800 62.234,124.800 62.519 C 124.800 62.805,125.520 63.788,126.400 64.704 C 128.170 66.546,128.348 67.536,127.388 70.200 C 126.214 73.459,126.706 73.949,128.958 71.762 C 130.594 70.173,132.005 70.115,132.803 71.605 C 133.037 72.042,133.567 72.400,133.981 72.400 C 134.395 72.400,134.809 72.535,134.901 72.700 C 134.993 72.865,135.004 72.748,134.924 72.441 C 134.050 69.061,134.355 66.183,135.743 64.706 C 138.006 62.299,137.874 61.443,135.200 61.200 C 133.043 61.004,132.990 60.969,132.482 59.400 C 131.931 57.700,130.639 56.090,130.285 56.663 M0.000 62.000 C 0.000 62.516,0.203 62.799,0.500 62.700 C 0.775 62.608,1.000 62.293,1.000 62.000 C 1.000 61.707,0.775 61.392,0.500 61.300 C 0.203 61.201,0.000 61.484,0.000 62.000 M56.473 62.300 C 56.648 63.814,58.627 64.129,59.156 62.727 C 59.633 61.465,59.389 61.200,57.750 61.200 C 56.455 61.200,56.357 61.285,56.473 62.300 M10.815 79.500 C 9.470 83.023,9.503 82.988,7.359 83.124 C 4.654 83.295,4.458 83.689,6.195 85.469 C 8.147 87.471,8.385 88.190,8.045 91.073 C 7.682 94.152,8.626 95.960,9.461 93.785 C 10.181 91.908,12.072 91.816,13.715 93.578 C 14.576 94.500,15.351 95.182,15.439 95.095 C 15.857 94.676,15.676 92.796,15.032 90.876 C 14.231 88.488,14.112 88.787,17.184 85.484 C 18.752 83.798,18.504 83.223,16.200 83.201 C 13.319 83.173,13.212 83.046,12.586 78.900 C 12.243 76.627,11.862 76.757,10.815 79.500 M149.180 93.380 C 148.971 93.589,148.800 93.999,148.800 94.291 C 148.800 94.832,166.416 112.397,168.084 113.519 C 168.588 113.858,171.037 116.129,173.526 118.567 C 176.015 121.005,178.106 123.051,178.172 123.114 C 178.239 123.176,190.927 123.227,206.367 123.228 L 234.440 123.228 237.884 120.114 C 247.774 111.172,265.397 93.650,264.746 93.406 C 263.698 93.014,149.572 92.988,149.180 93.380 M27.393 101.710 C 27.019 104.198,26.792 104.417,24.313 104.673 C 21.666 104.946,21.625 105.432,24.035 107.941 C 25.771 109.747,25.901 110.482,25.004 113.436 C 23.963 116.869,24.269 117.185,26.519 115.000 C 28.233 113.336,28.807 113.274,30.238 114.600 C 30.831 115.150,31.546 115.600,31.825 115.600 C 32.105 115.600,32.440 115.825,32.571 116.100 C 32.702 116.375,32.712 116.150,32.594 115.600 C 31.682 111.365,31.872 109.448,33.348 108.000 C 35.451 105.936,35.311 104.877,32.913 104.722 C 30.914 104.593,31.048 104.727,29.430 101.203 C 28.637 99.475,27.693 99.710,27.393 101.710 M45.061 120.700 C 44.954 121.085,44.752 122.252,44.610 123.294 C 44.309 125.507,43.338 126.397,41.211 126.406 C 38.924 126.416,38.558 126.899,39.815 128.244 C 42.746 131.379,42.913 131.762,42.226 133.785 C 40.911 137.657,41.681 138.813,43.981 136.420 C 45.787 134.540,45.967 134.566,48.056 137.000 C 49.284 138.430,49.832 137.269,49.329 134.303 C 48.845 131.448,49.015 130.911,51.093 128.736 C 52.767 126.984,52.546 126.400,50.205 126.400 C 48.149 126.400,47.054 125.331,46.624 122.903 C 46.232 120.695,45.987 120.000,45.600 120.000 C 45.410 120.000,45.167 120.315,45.061 120.700 M10.522 123.300 L 9.350 126.200 7.300 126.409 C 4.563 126.687,4.463 126.894,6.201 128.676 C 8.100 130.622,8.336 131.295,8.098 134.086 C 7.804 137.538,8.101 137.945,9.816 136.439 C 11.637 134.841,12.013 134.875,13.752 136.800 C 14.547 137.680,15.288 138.400,15.399 138.400 C 15.812 138.400,15.568 135.343,15.032 133.803 C 14.381 131.932,14.555 131.482,16.922 128.914 C 18.710 126.974,18.552 126.423,16.200 126.401 C 13.319 126.373,13.212 126.246,12.586 122.100 C 12.231 119.746,11.874 119.953,10.522 123.300 M327.660 148.391 C 320.775 155.207,315.256 160.967,315.395 161.191 C 315.564 161.465,329.548 161.600,357.824 161.600 L 400.000 161.600 400.000 148.800 L 400.000 136.000 370.089 136.000 L 340.178 136.000 327.660 148.391 M61.755 144.843 C 61.142 146.407,60.451 147.743,60.220 147.812 C 59.989 147.881,59.116 148.052,58.279 148.191 C 56.166 148.543,56.097 149.220,57.978 151.177 C 59.690 152.959,59.731 153.116,59.244 156.071 C 58.773 158.930,59.324 159.525,61.043 158.016 C 62.853 156.426,63.260 156.476,64.987 158.494 C 66.649 160.435,67.346 160.100,66.728 157.659 C 65.703 153.619,65.781 152.858,67.383 151.218 C 69.342 149.211,69.186 148.280,66.837 147.965 C 64.963 147.715,64.000 146.835,64.000 145.374 C 64.000 141.464,63.159 141.265,61.755 144.843 M27.876 143.057 C 27.730 143.203,27.496 144.191,27.355 145.254 C 27.046 147.585,26.707 147.908,24.396 148.072 C 22.043 148.240,21.945 148.965,23.988 151.092 C 25.804 152.981,25.875 153.436,24.920 157.021 C 24.063 160.238,24.327 160.488,26.364 158.390 C 28.145 156.554,29.554 156.419,30.403 158.005 C 30.637 158.442,31.167 158.800,31.581 158.800 C 31.995 158.800,32.409 158.935,32.501 159.100 C 32.593 159.265,32.604 159.148,32.524 158.841 C 32.445 158.534,32.276 157.004,32.149 155.441 L 31.918 152.600 33.359 151.222 C 35.592 149.086,35.108 148.021,31.898 148.005 C 30.931 148.001,30.738 147.779,30.313 146.189 C 29.834 144.401,28.390 142.544,27.876 143.057 M92.966 157.343 C 92.603 158.291,92.948 159.400,93.605 159.400 C 93.996 159.400,94.200 158.999,94.200 158.233 C 94.200 156.969,93.346 156.353,92.966 157.343 M45.061 163.900 C 44.954 164.285,44.752 165.452,44.610 166.494 C 44.309 168.707,43.338 169.597,41.211 169.606 C 38.924 169.616,38.558 170.099,39.815 171.444 C 42.746 174.579,42.913 174.962,42.226 176.985 C 40.963 180.705,41.823 181.751,44.194 179.380 L 45.669 177.905 47.234 179.433 C 49.357 181.506,49.920 180.987,49.329 177.503 C 48.854 174.699,49.017 174.159,50.965 172.087 C 52.672 170.273,52.549 169.822,50.312 169.679 C 48.349 169.552,46.803 168.306,46.798 166.846 C 46.790 164.555,45.489 162.349,45.061 163.900 M10.522 166.500 L 9.351 169.400 7.376 169.524 C 4.653 169.695,4.456 170.087,6.195 171.869 C 8.153 173.877,8.385 174.588,8.038 177.526 C 7.657 180.758,8.084 181.133,10.139 179.374 L 11.758 177.988 13.470 179.669 C 15.804 181.959,16.292 181.260,15.096 177.341 C 14.380 174.997,14.496 174.690,17.157 171.884 C 18.753 170.200,18.511 169.623,16.200 169.601 C 13.319 169.573,13.212 169.446,12.586 165.300 C 12.231 162.946,11.874 163.153,10.522 166.500 M79.063 164.698 C 78.935 164.906,78.708 165.869,78.560 166.838 C 78.192 169.244,77.808 169.600,75.575 169.600 C 72.942 169.600,72.840 170.082,74.971 172.452 C 76.970 174.676,77.151 175.529,76.188 178.200 C 74.937 181.673,75.415 182.274,77.612 179.988 C 79.367 178.160,80.659 178.114,81.788 179.838 C 82.135 180.367,82.684 180.800,83.009 180.800 C 83.334 180.800,83.600 180.980,83.600 181.200 C 83.600 181.420,83.754 181.600,83.941 181.600 C 84.129 181.600,84.039 180.661,83.741 179.513 C 82.787 175.835,82.995 174.294,84.700 172.394 C 86.697 170.170,86.616 169.838,84.017 169.600 L 81.834 169.400 81.417 167.708 C 80.986 165.961,79.476 164.030,79.063 164.698 M110.766 174.700 C 110.748 175.085,110.602 176.442,110.444 177.715 C 110.053 180.840,110.565 181.173,112.711 179.191 C 114.794 177.269,114.809 176.791,112.842 175.234 C 111.040 173.806,110.812 173.748,110.766 174.700 M96.245 185.900 C 96.126 186.505,95.908 187.694,95.761 188.542 C 95.468 190.243,93.977 191.200,91.623 191.200 C 90.139 191.200,90.455 192.535,92.414 194.539 C 93.730 195.885,93.807 196.436,93.141 199.754 C 92.504 202.923,93.061 203.415,95.071 201.463 C 96.927 199.660,97.092 199.658,98.709 201.420 C 100.433 203.299,100.978 202.907,100.620 200.045 C 100.194 196.639,100.308 195.948,101.546 194.408 C 103.499 191.977,103.541 191.200,101.716 191.200 C 99.057 191.200,98.459 190.460,97.432 185.900 C 97.296 185.295,97.022 184.800,96.824 184.800 C 96.626 184.800,96.365 185.295,96.245 185.900 M62.049 187.174 C 61.582 188.260,61.200 189.312,61.200 189.512 C 61.200 190.302,59.663 191.200,58.311 191.200 C 57.353 191.200,56.802 191.417,56.631 191.862 C 56.394 192.482,56.748 193.014,58.895 195.262 C 59.480 195.875,59.551 196.460,59.341 198.938 C 59.057 202.301,59.531 203.104,60.826 201.457 C 62.204 199.706,63.074 199.730,64.767 201.564 C 67.068 204.057,67.074 204.039,66.130 197.463 C 65.937 196.122,66.080 195.741,67.255 194.463 C 69.288 192.253,70.119 190.626,68.995 191.057 C 66.293 192.094,64.250 190.538,63.800 187.100 C 63.484 184.691,63.111 184.707,62.049 187.174 M27.889 186.270 C 27.782 186.451,27.569 187.230,27.417 188.000 C 26.867 190.780,26.898 190.749,24.407 191.031 C 21.651 191.343,21.605 192.127,24.200 194.575 C 25.795 196.078,25.869 196.659,24.920 200.221 C 24.065 203.428,24.302 203.656,26.377 201.622 C 28.162 199.873,29.608 199.720,30.398 201.197 C 31.272 202.830,32.697 202.417,32.351 200.632 C 31.678 197.161,31.892 195.869,33.387 194.381 C 35.425 192.352,35.303 191.200,33.049 191.200 C 31.110 191.200,30.527 190.734,30.158 188.890 C 29.903 187.614,28.234 185.687,27.889 186.270 M124.709 192.100 C 124.838 192.595,125.631 193.682,126.472 194.515 C 128.202 196.231,128.267 196.667,127.320 200.221 C 126.462 203.441,126.795 203.772,128.756 201.648 C 130.347 199.924,132.021 199.635,132.542 200.992 C 132.951 202.058,135.229 202.870,135.004 201.869 C 134.896 201.391,134.639 199.893,134.432 198.539 C 133.817 194.506,130.228 191.200,126.464 191.200 C 124.599 191.200,124.489 191.256,124.709 192.100 M0.000 231.394 L 0.000 246.800 53.300 246.798 C 86.746 246.796,107.121 246.650,108.000 246.405 C 109.622 245.952,139.231 217.098,138.660 216.527 C 138.480 216.347,107.208 216.153,69.167 216.094 L 0.000 215.989 0.000 231.394 M298.826 240.376 C 298.079 240.848,298.481 241.343,302.200 244.528 C 303.740 245.846,311.030 252.864,318.400 260.123 C 330.158 271.703,333.840 275.136,337.490 277.921 C 337.979 278.294,339.059 279.188,339.890 279.908 C 340.720 280.627,342.120 281.705,343.000 282.304 C 343.880 282.902,346.760 285.115,349.400 287.221 C 352.040 289.327,355.730 292.198,357.600 293.601 C 359.470 295.004,361.308 296.433,361.684 296.776 C 362.061 297.119,362.781 297.714,363.284 298.097 C 363.788 298.480,366.119 300.280,368.464 302.097 C 370.809 303.914,375.639 307.650,379.197 310.400 C 391.993 320.291,395.825 323.270,397.364 324.525 C 400.070 326.731,400.000 326.882,400.000 318.829 C 400.000 313.766,399.866 311.600,399.553 311.600 C 399.307 311.600,396.431 309.485,393.162 306.900 C 389.893 304.315,386.173 301.429,384.896 300.488 C 383.619 299.546,381.906 298.196,381.090 297.488 C 380.274 296.779,378.971 295.750,378.194 295.200 C 377.417 294.650,376.296 293.767,375.704 293.239 C 375.111 292.710,373.271 291.285,371.613 290.072 C 369.956 288.859,368.330 287.626,368.000 287.331 C 366.856 286.310,360.584 281.390,357.334 278.964 C 355.537 277.624,353.287 275.876,352.334 275.080 C 349.958 273.098,342.665 267.497,341.780 266.975 C 339.588 265.683,341.348 265.600,370.824 265.600 L 400.000 265.600 400.000 252.800 L 400.000 240.000 349.700 240.006 C 320.245 240.010,299.162 240.163,298.826 240.376 M0.000 293.200 L 0.000 308.400 22.300 308.399 C 43.450 308.397,44.662 308.358,45.800 307.643 C 46.460 307.229,50.330 303.615,54.400 299.613 C 58.470 295.610,64.830 289.370,68.534 285.746 C 72.926 281.449,75.192 278.955,75.047 278.578 C 74.856 278.080,69.669 278.000,37.413 278.000 L 0.000 278.000 0.000 293.200 M227.067 288.267 C 226.920 288.413,226.800 313.613,226.800 344.267 L 226.800 400.000 235.400 400.000 L 244.000 400.000 244.000 352.374 C 244.000 318.358,243.874 304.498,243.557 303.874 C 242.972 302.719,228.334 288.000,227.771 288.000 C 227.530 288.000,227.213 288.120,227.067 288.267 M167.908 304.505 C 165.547 306.757,162.324 309.770,160.745 311.200 C 155.888 315.600,156.403 310.042,156.401 358.100 L 156.400 400.000 165.002 400.000 L 173.603 400.000 173.502 350.305 C 173.412 306.496,173.329 300.599,172.800 300.511 C 172.470 300.456,170.268 302.253,167.908 304.505 M371.818 337.244 C 368.613 339.652,349.200 359.080,349.200 359.878 C 349.200 360.379,349.967 361.197,351.300 362.118 C 352.455 362.916,353.955 364.071,354.633 364.684 C 355.958 365.883,359.089 368.330,364.200 372.159 C 365.960 373.477,369.560 376.286,372.200 378.400 C 374.840 380.515,378.350 383.240,380.000 384.457 C 381.650 385.674,383.450 387.056,384.000 387.529 C 386.483 389.664,394.129 395.600,394.395 395.600 C 394.558 395.600,395.738 396.590,397.018 397.800 C 398.297 399.010,399.492 400.000,399.672 400.000 C 399.852 400.000,399.993 390.055,399.985 377.900 L 399.971 355.800 398.085 354.613 C 396.376 353.536,389.364 348.179,387.400 346.449 C 386.960 346.061,385.520 344.958,384.200 343.998 C 382.880 343.037,380.056 340.845,377.924 339.126 C 373.503 335.560,373.897 335.681,371.818 337.244 M0.000 347.400 C 0.000 351.910,0.154 355.600,0.343 355.600 C 0.650 355.600,4.548 352.804,6.600 351.110 C 7.040 350.747,9.740 348.630,12.600 346.405 C 15.460 344.180,18.253 342.000,18.808 341.561 C 19.362 341.121,20.082 340.590,20.408 340.381 C 21.825 339.470,19.520 339.212,9.900 339.206 L 0.000 339.200 0.000 347.400 M45.717 350.326 C 43.559 352.045,41.504 353.620,41.151 353.826 C 40.798 354.032,39.900 354.697,39.155 355.305 C 36.380 357.568,20.704 369.758,15.433 373.752 C 13.435 375.266,9.346 378.461,6.346 380.852 C 3.346 383.243,0.691 385.200,0.446 385.200 C 0.134 385.200,0.000 387.425,0.000 392.600 C 0.000 398.911,0.088 400.000,0.600 400.000 C 0.930 400.000,1.200 399.847,1.200 399.659 C 1.200 399.320,5.227 396.005,7.179 394.737 C 7.741 394.372,8.740 393.585,9.400 392.989 C 10.060 392.393,11.590 391.169,12.800 390.270 C 14.010 389.371,17.638 386.557,20.861 384.018 C 24.085 381.478,29.180 377.510,32.184 375.200 C 35.188 372.890,37.950 370.714,38.323 370.364 C 38.695 370.014,40.080 368.944,41.400 367.988 C 42.720 367.031,45.174 365.157,46.853 363.824 C 48.532 362.491,50.382 361.056,50.964 360.636 C 51.546 360.216,52.441 359.496,52.954 359.036 C 53.466 358.576,54.300 357.930,54.806 357.600 C 59.130 354.780,59.133 354.629,54.924 350.560 C 50.610 346.390,50.657 346.391,45.717 350.326 " stroke="none" fill="#fbfbfa" fill-rule="evenodd"></path></g></svg>