<svg id="svg" version="1.1" xmlns="http://www.w3.org/2000/svg" xmlns:xlink="http://www.w3.org/1999/xlink" width="400" height="400" viewBox="0, 0, 400,400"><g id="svgg"><path id="path0" d="M0.000 93.800 C 0.000 170.822,0.094 187.600,0.524 187.600 C 1.043 187.600,5.596 184.997,5.993 184.473 C 6.353 183.998,16.563 177.260,17.400 176.946 C 17.840 176.781,19.403 175.789,20.872 174.743 C 22.342 173.697,24.496 172.359,25.659 171.770 C 26.821 171.181,28.434 170.168,29.242 169.518 C 30.050 168.869,31.808 167.676,33.148 166.869 C 35.511 165.444,40.581 162.279,45.754 159.000 C 47.142 158.120,50.455 155.960,53.116 154.200 C 59.738 149.821,63.863 147.197,66.000 146.004 C 66.990 145.451,69.330 143.992,71.200 142.762 C 73.070 141.532,75.320 140.106,76.200 139.593 C 77.080 139.081,77.880 138.597,77.979 138.519 C 78.077 138.440,63.450 123.756,45.475 105.888 C 27.500 88.020,12.794 73.208,12.796 72.973 C 12.807 71.674,72.868 12.808,73.727 13.254 C 74.207 13.502,86.390 25.442,100.800 39.785 C 153.723 92.464,150.370 89.224,151.175 88.469 C 152.100 87.601,159.743 82.037,161.436 81.000 C 164.004 79.427,169.835 75.374,171.800 73.796 C 172.900 72.913,174.340 71.849,175.000 71.430 C 175.660 71.011,177.100 69.924,178.200 69.014 C 179.300 68.104,180.585 67.098,181.056 66.780 C 181.527 66.461,184.828 64.040,188.391 61.400 C 200.661 52.308,200.800 52.293,208.993 59.159 C 210.757 60.637,213.125 62.427,214.256 63.137 C 215.387 63.847,216.747 64.826,217.278 65.314 C 218.910 66.811,222.499 69.411,224.541 70.575 C 225.608 71.184,227.448 72.557,228.630 73.627 C 229.812 74.697,231.458 75.927,232.289 76.359 C 233.120 76.792,234.250 77.566,234.800 78.080 C 235.350 78.593,236.790 79.638,238.000 80.401 C 239.210 81.163,240.380 81.930,240.600 82.105 C 240.820 82.280,242.480 83.492,244.289 84.799 C 246.098 86.106,247.795 87.524,248.061 87.949 C 248.501 88.654,251.922 85.370,286.454 51.087 C 307.305 30.388,324.658 13.288,325.016 13.087 C 325.688 12.711,385.600 71.983,385.600 73.023 C 385.600 73.271,371.025 87.991,353.212 105.736 C 335.398 123.481,321.062 138.000,321.353 138.000 C 321.645 138.000,324.138 139.515,326.894 141.368 C 329.650 143.220,332.654 145.117,333.569 145.584 C 334.484 146.051,335.577 146.777,335.996 147.196 C 336.416 147.616,337.984 148.620,339.480 149.428 C 340.976 150.235,342.920 151.389,343.800 151.993 C 347.531 154.552,352.629 157.822,353.317 158.098 C 353.725 158.262,355.860 159.612,358.061 161.098 C 360.261 162.584,362.360 163.980,362.725 164.200 C 363.089 164.420,365.910 166.228,368.994 168.217 C 372.077 170.206,375.468 172.337,376.529 172.951 C 378.359 174.010,380.271 175.248,390.205 181.800 C 395.341 185.188,399.289 187.600,399.698 187.600 C 399.864 187.600,400.000 145.390,400.000 93.800 L 400.000 0.000 200.000 0.000 L 0.000 0.000 0.000 93.800 M0.000 305.800 L 0.000 400.000 200.000 400.000 L 400.000 400.000 400.000 306.000 C 400.000 240.979,399.871 212.000,399.583 212.000 C 399.353 212.000,398.679 212.451,398.084 213.002 C 397.490 213.553,396.283 214.367,395.402 214.811 C 392.818 216.113,385.145 221.062,379.998 224.747 C 377.644 226.432,370.934 230.400,370.438 230.400 C 370.274 230.400,369.103 231.205,367.836 232.189 C 366.569 233.173,364.693 234.388,363.666 234.889 C 362.640 235.390,361.080 236.297,360.200 236.906 C 357.592 238.707,351.146 242.952,349.091 244.221 C 348.040 244.870,345.790 246.308,344.091 247.418 C 342.391 248.528,340.100 249.951,339.000 250.582 C 337.900 251.212,336.460 252.165,335.800 252.700 C 334.349 253.875,328.014 257.999,327.656 258.002 C 327.515 258.003,326.590 258.542,325.600 259.200 C 324.610 259.858,323.448 260.397,323.019 260.398 C 322.505 260.399,333.059 271.158,353.924 291.900 C 371.352 309.225,385.608 323.606,385.605 323.858 C 385.598 324.492,326.141 383.766,325.339 383.940 C 324.921 384.030,315.300 374.712,298.047 357.506 C 283.391 342.891,266.649 326.232,260.843 320.487 L 250.286 310.040 249.243 311.023 C 248.105 312.095,245.550 313.964,240.600 317.342 C 231.925 323.263,226.588 327.175,224.464 329.167 C 223.730 329.856,222.399 330.792,221.508 331.247 C 219.699 332.170,219.641 332.211,217.400 334.131 C 216.520 334.885,214.000 336.765,211.800 338.309 C 209.600 339.853,207.440 341.474,207.000 341.911 C 205.357 343.543,201.217 346.000,200.108 346.000 C 198.856 346.000,198.084 345.534,194.674 342.714 C 193.395 341.657,191.415 340.190,190.274 339.456 C 189.133 338.721,186.670 336.889,184.800 335.384 C 182.930 333.879,180.186 331.947,178.701 331.090 C 177.217 330.233,175.507 328.944,174.901 328.226 C 174.296 327.507,172.900 326.409,171.800 325.786 C 170.700 325.163,169.058 324.011,168.151 323.227 C 167.244 322.442,165.714 321.310,164.751 320.711 C 161.824 318.891,161.509 318.677,158.396 316.400 C 156.741 315.190,154.040 313.303,152.394 312.207 C 150.747 311.110,149.273 310.032,149.117 309.811 C 148.771 309.318,150.429 307.721,124.848 333.200 C 78.470 379.394,73.690 384.076,73.043 383.938 C 72.376 383.796,12.800 324.442,12.800 323.920 C 12.800 323.759,27.240 309.221,44.889 291.614 C 67.416 269.139,76.729 259.600,76.143 259.600 C 75.684 259.600,74.879 259.267,74.354 258.860 C 73.829 258.453,71.915 257.267,70.100 256.225 C 68.285 255.183,66.800 254.193,66.800 254.026 C 66.800 253.859,65.675 253.135,64.300 252.417 C 62.241 251.341,56.510 247.733,51.600 244.421 C 51.050 244.050,50.312 243.639,49.959 243.508 C 49.341 243.279,43.544 239.535,31.800 231.780 C 28.720 229.746,25.570 227.821,24.800 227.502 C 24.030 227.183,22.175 225.995,20.679 224.861 C 19.182 223.727,17.828 222.800,17.670 222.800 C 17.349 222.800,14.736 221.110,10.798 218.355 C 9.367 217.354,6.730 215.689,4.937 214.655 C 3.144 213.620,1.457 212.510,1.189 212.187 C 0.921 211.864,0.544 211.600,0.351 211.600 C 0.151 211.600,0.000 252.029,0.000 305.800 " stroke="none" fill="#048b3b" fill-rule="evenodd"></path><path id="path1" d="M50.100 50.164 C 37.725 62.524,27.600 72.811,27.600 73.024 C 27.600 73.237,36.285 82.051,46.900 92.610 C 136.309 181.553,152.400 197.698,152.400 198.463 C 152.400 199.159,87.304 264.377,36.493 314.588 C 31.602 319.421,27.600 323.561,27.600 323.788 C 27.601 324.467,72.680 369.200,73.364 369.200 C 73.711 369.200,87.379 355.835,103.737 339.500 C 171.820 271.514,198.758 244.800,199.230 244.800 C 199.747 244.800,215.815 260.730,284.260 329.100 C 306.339 351.155,324.698 369.200,325.057 369.200 C 325.762 369.200,370.800 324.511,370.800 323.811 C 370.800 323.579,362.205 314.839,351.700 304.389 C 267.571 220.704,246.000 199.079,246.000 198.424 C 246.000 197.671,276.559 167.110,362.472 81.945 C 367.053 77.405,370.800 73.445,370.800 73.145 C 370.800 72.478,325.859 27.600,325.192 27.600 C 324.930 27.600,320.753 31.560,315.910 36.400 C 311.067 41.240,307.035 45.200,306.950 45.200 C 306.865 45.200,288.013 63.965,265.056 86.900 C 206.696 145.203,199.819 152.000,199.187 152.000 C 198.627 152.000,187.894 141.360,114.144 67.700 C 89.643 43.228,73.724 27.618,73.298 27.646 C 72.914 27.671,62.475 37.805,50.100 50.164 M266.000 198.144 C 266.000 198.914,265.730 199.813,265.400 200.143 C 263.279 202.264,266.013 203.428,268.263 201.362 L 270.119 199.658 268.944 198.483 C 267.022 196.560,266.000 196.443,266.000 198.144 M274.000 204.062 C 274.000 205.044,273.736 206.196,273.413 206.624 C 272.420 207.936,272.606 209.715,273.700 209.370 C 274.195 209.213,274.832 208.756,275.114 208.354 C 275.397 207.952,276.342 207.410,277.214 207.148 C 278.087 206.887,278.800 206.448,278.800 206.172 C 278.800 205.594,276.553 203.600,275.901 203.600 C 275.660 203.600,275.134 203.302,274.731 202.938 C 274.033 202.306,274.000 202.357,274.000 204.062 M282.400 210.226 C 282.400 210.351,282.583 210.794,282.806 211.212 C 283.120 211.798,282.938 212.553,282.006 214.524 C 280.433 217.854,280.712 218.854,283.652 220.428 C 285.781 221.567,287.335 213.220,285.375 211.173 C 284.414 210.171,282.400 209.529,282.400 210.226 M277.467 211.467 C 276.487 212.446,277.454 214.256,278.468 213.339 C 279.368 212.524,279.408 211.765,278.567 211.443 C 277.784 211.142,277.791 211.142,277.467 211.467 " stroke="none" fill="#fbfbfb" fill-rule="evenodd"></path><path id="path2" d="M42.753 42.749 L 12.652 72.698 13.892 74.249 C 15.018 75.658,69.146 129.428,85.340 145.225 C 103.497 162.937,115.157 174.893,115.414 176.063 C 115.592 176.875,115.856 177.183,116.238 177.028 C 116.547 176.903,117.051 176.698,117.358 176.573 C 117.853 176.372,119.301 177.741,128.446 187.051 C 128.801 187.412,131.276 189.851,133.946 192.470 C 138.116 196.562,138.800 197.410,138.800 198.493 C 138.800 200.264,118.816 220.400,117.057 220.400 C 116.059 220.400,114.000 222.022,114.000 222.809 C 114.000 223.172,77.602 259.600,77.240 259.600 C 76.877 259.600,12.800 323.557,12.800 323.920 C 12.800 324.442,72.376 383.796,73.043 383.938 C 73.798 384.099,95.526 362.595,158.954 298.916 C 164.260 293.590,168.960 289.180,169.400 289.116 C 170.027 289.025,170.171 288.751,170.064 287.847 C 169.920 286.618,197.856 258.000,199.200 258.000 C 200.740 258.000,228.495 286.657,228.210 287.954 C 227.957 289.107,228.017 289.200,229.007 289.200 C 229.876 289.200,231.935 291.081,239.939 299.187 C 283.498 343.303,324.605 384.098,325.339 383.940 C 326.140 383.767,385.598 324.492,385.606 323.858 C 385.612 323.364,324.444 262.319,320.800 259.183 C 319.590 258.141,305.595 244.304,289.700 228.434 C 257.339 196.123,259.455 198.687,262.600 195.600 C 263.590 194.628,264.400 193.494,264.400 193.079 C 264.400 192.330,277.858 178.349,280.944 175.892 C 282.239 174.861,282.610 174.739,283.239 175.131 C 284.264 175.772,284.303 175.753,284.583 174.476 C 284.758 173.682,290.076 168.159,302.715 155.647 C 360.462 98.480,385.600 73.421,385.600 73.023 C 385.600 71.770,325.680 12.729,324.856 13.170 C 324.404 13.412,302.513 35.107,276.208 61.381 C 249.904 87.655,228.027 109.265,227.591 109.403 C 227.065 109.570,226.800 110.009,226.800 110.715 C 226.800 111.882,200.347 138.800,199.200 138.800 C 198.211 138.800,171.600 111.898,171.600 110.898 C 171.600 110.349,171.189 109.803,170.500 109.438 C 169.895 109.118,165.260 104.615,160.200 99.431 C 137.697 76.376,75.041 13.935,73.727 13.253 C 72.917 12.833,70.685 14.959,42.753 42.749 M350.100 49.883 C 362.585 62.330,372.801 72.712,372.801 72.956 C 372.802 73.200,344.719 101.390,310.395 135.600 C 276.071 169.810,247.991 198.089,247.994 198.442 C 247.997 198.794,258.215 209.269,270.700 221.718 C 283.185 234.167,311.265 262.154,333.100 283.912 C 354.935 305.670,372.800 323.655,372.800 323.879 C 372.800 324.241,357.265 339.908,333.675 363.337 L 325.684 371.273 324.546 370.537 C 323.920 370.131,315.113 361.520,304.975 351.400 C 241.893 288.432,199.931 247.000,199.239 247.000 C 198.586 247.000,163.435 281.725,83.031 361.800 C 73.706 371.087,73.051 371.606,72.009 370.534 C 71.617 370.130,61.014 359.560,48.448 347.044 C 35.881 334.528,25.600 324.124,25.600 323.925 C 25.600 323.624,95.677 253.666,138.700 211.016 C 146.673 203.112,150.400 199.149,150.400 198.574 C 150.400 197.704,149.215 196.511,65.952 113.520 C 30.709 78.393,26.000 73.566,26.000 72.562 C 26.000 72.151,41.708 56.373,58.511 39.906 C 71.864 26.820,72.885 25.910,73.757 26.308 C 74.589 26.687,103.984 55.798,176.139 127.700 C 188.667 140.185,199.046 150.400,199.202 150.400 C 199.479 150.400,245.118 105.180,286.403 64.000 C 297.762 52.670,311.135 39.380,316.122 34.467 L 325.190 25.534 326.295 26.394 C 326.903 26.867,337.615 37.437,350.100 49.883 " stroke="none" fill="#070806" fill-rule="evenodd"></path><path id="path3" d="M196.955 58.437 C 195.440 59.557,193.840 60.664,193.400 60.896 C 192.960 61.129,191.249 62.441,189.599 63.812 C 187.948 65.183,185.608 66.885,184.399 67.596 C 183.189 68.306,181.267 69.681,180.127 70.651 C 178.987 71.622,177.342 72.820,176.472 73.314 C 175.602 73.808,174.105 74.892,173.145 75.721 C 172.185 76.551,170.372 78.114,169.117 79.196 C 167.861 80.277,166.277 81.450,165.598 81.801 C 164.505 82.366,160.928 84.776,155.412 88.664 C 154.426 89.358,153.390 90.033,153.109 90.164 C 152.705 90.351,152.703 90.448,153.100 90.633 C 153.375 90.762,153.600 91.067,153.600 91.312 C 153.600 91.556,157.353 95.474,161.941 100.017 C 171.318 109.302,171.548 109.443,174.658 107.790 C 175.869 107.145,177.169 106.800,178.380 106.800 C 179.403 106.800,180.411 106.630,180.620 106.422 C 181.074 105.971,185.503 104.924,189.400 104.346 C 193.012 103.811,212.130 104.082,212.868 104.679 C 213.160 104.916,214.836 105.299,216.592 105.530 C 218.347 105.761,219.847 106.141,219.925 106.375 C 220.003 106.609,220.817 106.808,221.733 106.818 C 222.650 106.827,224.120 107.095,225.000 107.412 C 226.976 108.124,227.852 108.145,228.660 107.500 C 230.966 105.659,246.000 90.374,246.000 89.870 C 246.000 88.808,240.175 84.399,236.611 82.762 C 235.285 82.153,233.210 80.734,232.000 79.608 C 230.790 78.482,229.215 77.279,228.501 76.935 C 227.787 76.591,226.527 75.685,225.701 74.922 C 224.875 74.159,223.660 73.252,223.000 72.907 C 221.777 72.266,219.778 70.694,216.456 67.760 C 215.435 66.858,213.528 65.442,212.218 64.613 C 210.908 63.784,208.928 62.394,207.818 61.524 C 200.139 55.507,200.702 55.666,196.955 58.437 M302.976 156.523 C 292.210 167.290,286.761 173.017,286.574 173.762 C 286.170 175.373,286.614 181.894,287.174 182.569 C 288.358 183.995,288.906 208.814,287.812 211.434 C 287.222 212.844,286.185 217.506,285.805 220.448 C 285.441 223.273,284.438 222.172,313.909 251.300 C 321.275 258.580,321.453 258.681,324.075 257.093 C 330.052 253.474,334.883 250.374,336.250 249.280 C 337.690 248.129,343.531 244.400,343.895 244.400 C 344.272 244.400,348.634 241.355,350.800 239.579 C 351.790 238.768,353.500 237.699,354.600 237.205 C 355.700 236.711,357.590 235.679,358.800 234.912 C 360.010 234.145,361.925 232.951,363.056 232.259 C 364.186 231.566,366.436 230.121,368.056 229.046 C 375.513 224.098,378.749 222.017,380.600 220.982 C 381.700 220.366,383.329 219.281,384.221 218.570 C 385.112 217.858,387.452 216.346,389.421 215.209 C 391.389 214.072,394.080 212.436,395.400 211.572 C 396.720 210.709,398.295 209.783,398.900 209.514 L 400.000 209.025 400.000 199.759 C 400.000 191.295,399.939 190.472,399.300 190.248 C 398.915 190.114,397.340 189.302,395.800 188.446 C 394.260 187.589,392.100 186.426,391.000 185.862 C 389.900 185.297,388.245 184.131,387.322 183.269 C 386.399 182.408,384.869 181.301,383.922 180.809 C 382.975 180.317,381.210 179.201,380.000 178.330 C 378.790 177.458,376.270 175.858,374.400 174.774 C 372.530 173.691,369.740 171.890,368.200 170.773 C 366.660 169.656,363.256 167.484,360.636 165.946 C 358.016 164.407,355.136 162.555,354.236 161.829 C 353.336 161.104,352.150 160.396,351.600 160.257 C 351.050 160.118,349.298 159.058,347.708 157.902 C 344.312 155.434,339.532 152.341,337.724 151.440 C 337.023 151.090,336.213 150.485,335.924 150.095 C 335.229 149.154,333.664 148.191,332.272 147.849 C 331.651 147.696,329.761 146.583,328.072 145.377 C 322.693 141.536,320.841 140.400,319.959 140.400 C 319.359 140.400,314.212 145.287,302.976 156.523 M75.600 143.038 C 73.950 144.039,72.240 145.176,71.800 145.565 C 71.360 145.954,69.740 146.948,68.200 147.774 C 66.660 148.600,65.040 149.596,64.600 149.988 C 64.160 150.379,62.270 151.564,60.400 152.620 C 58.530 153.676,55.890 155.400,54.533 156.451 C 53.176 157.502,51.386 158.646,50.554 158.993 C 49.723 159.341,48.413 160.114,47.643 160.712 C 46.874 161.311,45.286 162.340,44.116 163.000 C 41.998 164.195,37.098 167.295,31.833 170.773 C 30.311 171.778,27.934 173.320,26.551 174.200 C 25.169 175.080,23.235 176.340,22.253 177.000 C 21.272 177.660,19.215 178.976,17.682 179.924 C 16.149 180.872,14.468 182.108,13.947 182.670 C 13.426 183.232,11.830 184.275,10.400 184.989 C 8.970 185.702,6.802 186.896,5.583 187.643 C 4.363 188.389,2.610 189.360,1.687 189.800 L 0.009 190.600 0.005 199.700 C 0.001 207.139,0.100 208.800,0.548 208.800 C 0.849 208.800,2.033 209.547,3.179 210.459 C 4.326 211.372,5.834 212.418,6.532 212.784 C 12.505 215.918,15.204 217.508,16.400 218.598 C 17.170 219.300,18.837 220.445,20.104 221.142 C 21.371 221.840,23.230 223.039,24.235 223.806 C 25.239 224.573,26.298 225.200,26.587 225.200 C 26.876 225.200,27.984 225.920,29.049 226.800 C 30.114 227.680,31.147 228.400,31.344 228.400 C 31.541 228.400,33.074 229.399,34.751 230.620 C 36.428 231.841,39.934 234.091,42.542 235.620 C 45.150 237.149,47.850 238.877,48.542 239.460 C 49.234 240.044,50.395 240.771,51.123 241.076 C 51.851 241.381,54.911 243.307,57.923 245.357 C 60.935 247.407,64.030 249.401,64.800 249.788 C 65.570 250.175,66.650 250.911,67.200 251.424 C 67.750 251.937,69.190 252.800,70.400 253.341 C 71.610 253.883,73.499 254.973,74.599 255.763 C 78.043 258.239,76.790 259.160,95.766 240.213 C 105.886 230.109,112.880 222.822,113.029 222.228 C 113.329 221.034,113.060 218.011,112.458 215.800 C 111.198 211.174,111.595 184.787,112.974 181.513 C 115.387 175.782,115.590 176.043,86.576 147.600 C 79.105 140.277,79.726 140.534,75.600 143.038 M167.351 291.798 C 165.891 293.023,153.018 305.841,151.680 307.403 C 150.962 308.240,151.196 308.500,154.925 311.006 C 158.282 313.263,162.133 316.004,163.200 316.898 C 164.358 317.867,165.813 318.683,167.200 319.142 C 167.970 319.396,169.680 320.603,171.000 321.822 C 172.320 323.042,173.991 324.325,174.713 324.672 C 175.435 325.019,176.602 325.841,177.306 326.499 C 178.009 327.156,179.488 328.294,180.592 329.028 C 181.697 329.762,183.950 331.443,185.600 332.763 C 188.250 334.884,190.253 336.344,197.570 341.486 C 200.242 343.363,201.253 343.158,205.372 339.901 C 206.487 339.019,208.379 337.671,209.576 336.905 C 210.773 336.139,212.984 334.497,214.490 333.256 C 215.995 332.015,218.076 330.402,219.113 329.670 C 220.151 328.939,221.450 327.927,222.000 327.422 C 223.095 326.416,226.059 324.315,231.000 321.042 C 232.760 319.876,234.548 318.529,234.973 318.049 C 235.399 317.568,236.749 316.605,237.973 315.909 C 239.980 314.769,243.538 312.408,246.500 310.251 C 248.382 308.880,248.006 308.322,239.492 299.859 C 229.284 289.712,230.569 290.409,225.000 291.993 C 224.340 292.181,223.177 292.462,222.416 292.617 C 221.655 292.773,220.376 293.242,219.574 293.660 C 218.649 294.142,216.669 294.550,214.158 294.774 C 211.981 294.969,209.322 295.344,208.248 295.608 C 205.626 296.251,192.241 296.001,191.535 295.295 C 191.217 294.977,189.788 294.800,187.534 294.800 C 185.606 294.800,183.257 294.551,182.314 294.246 C 181.371 293.941,179.700 293.478,178.600 293.216 C 177.500 292.954,176.060 292.496,175.400 292.197 C 174.485 291.783,169.459 290.363,169.068 290.408 C 169.030 290.412,168.258 291.038,167.351 291.798 " stroke="none" fill="#eebc08" fill-rule="evenodd"></path><path id="path4" d="M195.202 104.296 C 194.432 104.389,193.568 104.661,193.280 104.900 C 192.992 105.139,190.561 105.458,187.878 105.610 C 184.747 105.787,182.570 106.107,181.800 106.505 C 178.649 108.130,176.787 108.800,175.418 108.800 C 173.544 108.800,171.600 109.907,171.600 110.974 C 171.600 111.904,198.278 138.800,199.200 138.800 C 200.315 138.800,226.800 111.885,226.800 110.752 C 226.800 109.676,225.528 108.800,223.965 108.800 C 223.527 108.800,222.462 108.440,221.600 108.000 C 220.738 107.560,219.530 107.199,218.916 107.199 C 218.302 107.198,217.211 106.838,216.490 106.399 C 215.693 105.912,214.475 105.600,213.377 105.600 C 212.386 105.600,210.953 105.340,210.194 105.023 C 208.809 104.445,198.213 103.930,195.202 104.296 M273.128 183.528 C 263.982 192.674,263.730 193.033,265.500 194.378 C 266.105 194.837,267.014 195.525,267.520 195.907 C 268.026 196.288,269.016 197.069,269.720 197.641 C 270.424 198.214,271.720 199.159,272.600 199.741 C 275.801 201.858,278.230 203.669,279.600 204.959 C 283.889 209.000,286.198 209.995,287.377 208.311 C 288.430 206.808,288.284 190.527,287.200 188.504 C 286.591 187.369,286.400 186.245,286.398 183.806 C 286.395 179.119,284.515 174.859,282.428 174.813 C 282.114 174.806,277.929 178.728,273.128 183.528 M116.239 176.978 C 114.542 177.726,113.639 179.721,113.603 182.800 C 113.583 184.498,113.305 185.955,112.800 187.000 C 111.609 189.465,111.602 209.036,112.791 211.656 C 113.308 212.796,113.585 214.280,113.591 215.938 C 113.619 223.893,115.771 222.951,129.700 208.885 C 140.930 197.546,140.559 198.958,133.992 192.516 C 131.347 189.922,128.872 187.483,128.492 187.097 C 128.111 186.710,125.588 184.145,122.885 181.397 C 120.182 178.648,117.842 176.415,117.685 176.432 C 117.528 176.450,116.877 176.696,116.239 176.978 M184.769 271.842 C 177.136 279.455,170.660 286.114,170.379 286.639 C 169.233 288.781,172.404 291.200,176.360 291.200 C 177.582 291.200,179.041 291.505,179.916 291.944 C 180.732 292.353,182.430 292.790,183.690 292.914 C 184.949 293.038,186.384 293.424,186.879 293.770 C 188.399 294.835,211.257 294.697,213.656 293.609 C 214.843 293.070,216.280 292.815,218.156 292.809 C 220.114 292.803,221.446 292.553,222.756 291.946 C 223.770 291.476,224.960 290.928,225.400 290.728 C 226.926 290.034,227.953 288.994,228.228 287.864 C 228.517 286.676,200.656 258.000,199.212 258.000 C 198.902 258.000,192.403 264.229,184.769 271.842 " stroke="none" fill="#29166c" fill-rule="evenodd"></path><path id="path5" d="M50.200 48.744 C 23.674 75.203,26.214 72.504,26.803 73.606 C 27.323 74.577,42.783 90.050,107.329 154.200 C 131.457 178.180,151.199 198.087,151.199 198.437 C 151.200 198.965,125.010 225.153,34.978 314.648 C 27.933 321.651,26.400 323.369,26.400 324.263 C 26.400 324.681,72.502 370.400,72.925 370.400 C 73.860 370.400,78.480 365.893,124.283 320.291 C 194.093 250.788,198.329 246.616,199.240 246.469 C 199.859 246.369,205.453 251.721,222.527 268.747 C 332.111 378.020,324.970 371.083,326.485 369.736 C 329.079 367.429,371.324 325.317,371.643 324.719 C 372.393 323.318,376.621 327.627,291.119 242.647 C 253.033 204.794,247.330 198.975,247.549 198.190 C 247.687 197.692,262.722 182.461,280.960 164.343 C 323.800 121.782,370.820 74.853,371.788 73.688 L 372.545 72.776 349.178 49.588 C 336.325 36.835,325.718 26.406,325.605 26.414 C 324.678 26.478,316.320 34.674,262.247 88.543 C 195.642 154.895,199.566 151.102,198.392 150.279 C 197.947 149.968,169.912 122.127,136.092 88.411 C 84.474 36.953,73.678 26.396,72.674 26.400 C 72.633 26.400,62.520 36.455,50.200 48.744 M348.271 49.222 C 373.739 74.568,371.787 72.504,371.247 73.511 C 370.773 74.397,370.777 74.394,300.446 144.390 C 270.940 173.754,246.800 198.073,246.800 198.431 C 246.800 198.789,257.105 209.347,269.700 221.893 C 282.295 234.439,310.378 262.411,332.106 284.052 C 353.834 305.693,371.609 323.623,371.606 323.895 C 371.601 324.335,356.978 339.093,333.736 362.114 C 326.889 368.896,325.625 369.983,324.901 369.714 C 324.436 369.541,296.311 341.770,262.402 308.000 C 228.492 274.230,200.400 246.437,199.974 246.239 C 198.632 245.613,198.707 245.541,145.077 299.000 C 72.762 371.086,74.309 369.561,73.345 369.688 C 72.437 369.807,26.800 324.901,26.800 323.888 C 26.800 323.411,68.639 281.616,123.900 226.892 C 154.521 196.567,152.935 198.439,150.100 195.984 C 145.250 191.783,27.537 74.086,27.319 73.220 C 26.978 71.861,71.967 27.082,73.473 27.283 C 74.028 27.356,97.306 50.256,136.212 89.000 C 170.233 122.880,198.323 150.744,198.634 150.920 C 199.567 151.447,198.603 152.382,254.321 96.967 C 326.382 25.299,324.040 27.620,324.763 27.197 C 325.113 26.993,325.522 26.865,325.671 26.913 C 325.820 26.961,335.990 37.000,348.271 49.222 M263.421 195.570 C 262.822 196.434,262.065 197.243,261.739 197.368 C 260.936 197.676,261.358 198.886,262.831 200.499 C 263.476 201.205,264.100 202.057,264.217 202.391 C 264.892 204.323,269.192 206.464,269.206 204.876 C 269.211 204.310,269.272 204.294,269.580 204.781 C 269.782 205.101,269.847 205.866,269.724 206.481 C 269.550 207.351,269.649 207.600,270.172 207.600 C 270.585 207.600,271.153 208.296,271.641 209.400 C 272.079 210.390,272.656 211.200,272.923 211.200 C 273.373 211.200,274.779 212.407,275.857 213.719 C 276.109 214.024,276.739 214.618,277.257 215.037 C 277.776 215.457,278.689 216.520,279.287 217.400 C 280.590 219.318,283.526 222.142,284.616 222.526 C 285.377 222.794,285.376 222.784,284.600 222.184 C 280.182 218.771,278.894 216.771,280.203 215.359 C 281.401 214.066,281.678 210.158,280.600 209.745 C 280.270 209.618,280.000 209.285,280.000 209.004 C 280.000 207.439,276.701 208.018,275.616 209.774 C 274.420 211.709,272.693 211.368,272.013 209.062 C 271.743 208.148,271.360 207.087,271.161 206.705 C 270.673 205.766,270.703 203.307,271.207 202.996 C 271.874 202.584,271.229 202.000,270.106 202.000 C 269.414 202.000,268.688 202.442,267.968 203.300 L 266.877 204.600 265.800 203.600 C 265.207 203.050,264.376 201.925,263.953 201.100 C 263.530 200.275,263.007 199.600,262.792 199.600 C 262.137 199.600,262.354 198.392,263.058 198.122 C 263.461 197.968,263.926 198.158,264.258 198.611 C 264.785 199.333,264.800 199.333,264.800 198.608 C 264.800 198.198,264.502 197.534,264.138 197.131 C 263.521 196.450,263.525 196.346,264.188 195.613 C 265.065 194.644,265.526 194.847,269.279 197.854 C 270.752 199.034,272.062 200.000,272.190 200.000 C 272.319 200.000,273.334 200.720,274.448 201.600 C 275.561 202.480,276.635 203.200,276.835 203.200 C 277.036 203.200,278.234 204.196,279.500 205.413 C 280.765 206.630,282.520 208.098,283.400 208.676 C 284.280 209.253,285.517 210.079,286.150 210.511 C 286.900 211.024,287.237 211.110,287.120 210.759 C 287.021 210.464,286.015 209.677,284.884 209.011 C 283.752 208.345,281.786 206.872,280.513 205.738 C 278.237 203.709,275.753 201.827,272.600 199.741 C 271.720 199.159,270.424 198.214,269.720 197.641 C 264.591 193.469,264.824 193.546,263.421 195.570 M272.000 204.400 C 272.000 205.236,272.170 205.610,272.500 205.500 C 272.775 205.408,273.000 204.913,273.000 204.400 C 273.000 203.887,272.775 203.392,272.500 203.300 C 272.170 203.190,272.000 203.564,272.000 204.400 M280.309 210.712 C 280.819 212.173,280.077 214.537,279.047 214.735 C 276.780 215.170,274.648 212.224,276.098 210.658 C 277.459 209.189,279.789 209.219,280.309 210.712 " stroke="none" fill="#048b3a" fill-rule="evenodd"></path><path id="path6" d="M316.122 34.467 C 311.135 39.380,297.762 52.670,286.403 64.000 C 245.118 105.180,199.479 150.400,199.202 150.400 C 199.046 150.400,188.667 140.185,176.139 127.700 C 103.984 55.798,74.589 26.687,73.757 26.308 C 72.885 25.910,71.864 26.820,58.511 39.906 C 41.708 56.373,26.000 72.151,26.000 72.562 C 26.000 73.566,30.709 78.393,65.952 113.520 C 149.215 196.511,150.400 197.704,150.400 198.574 C 150.400 199.149,146.673 203.112,138.700 211.016 C 95.677 253.666,25.600 323.624,25.600 323.925 C 25.600 324.124,35.881 334.528,48.448 347.044 C 61.014 359.560,71.617 370.130,72.009 370.534 C 73.051 371.606,73.706 371.087,83.031 361.800 C 163.435 281.725,198.586 247.000,199.239 247.000 C 199.931 247.000,241.893 288.432,304.975 351.400 C 315.113 361.520,323.920 370.131,324.546 370.537 L 325.684 371.273 333.675 363.337 C 357.265 339.908,372.800 324.241,372.800 323.879 C 372.800 323.655,354.935 305.670,333.100 283.912 C 311.265 262.154,283.185 234.167,270.700 221.718 C 258.215 209.269,247.997 198.794,247.994 198.442 C 247.991 198.089,276.071 169.810,310.395 135.600 C 344.719 101.390,372.802 73.200,372.801 72.956 C 372.800 72.505,328.313 27.964,326.295 26.394 L 325.190 25.534 316.122 34.467 M73.674 26.755 C 74.183 26.950,102.271 54.695,136.092 88.411 C 169.912 122.127,197.947 149.968,198.392 150.279 C 199.566 151.102,195.642 154.895,262.247 88.543 C 316.320 34.674,324.678 26.478,325.605 26.414 C 325.718 26.406,336.325 36.835,349.178 49.588 L 372.545 72.776 371.788 73.688 C 370.820 74.853,323.800 121.782,280.960 164.343 C 262.722 182.461,247.687 197.692,247.549 198.190 C 247.330 198.975,253.033 204.794,291.119 242.647 C 376.621 327.627,372.393 323.318,371.643 324.719 C 371.324 325.317,329.079 367.429,326.485 369.736 C 324.970 371.083,332.111 378.020,222.527 268.747 C 205.453 251.721,199.859 246.369,199.240 246.469 C 198.329 246.616,194.093 250.788,124.283 320.291 C 78.480 365.893,73.860 370.400,72.925 370.400 C 72.502 370.400,26.400 324.681,26.400 324.263 C 26.400 323.369,27.933 321.651,34.978 314.648 C 125.010 225.153,151.200 198.965,151.199 198.437 C 151.199 198.087,131.457 178.180,107.329 154.200 C 19.961 67.369,25.791 73.346,27.068 71.911 C 27.926 70.946,72.565 26.401,72.674 26.400 C 72.715 26.400,73.165 26.560,73.674 26.755 M196.935 55.302 C 195.799 56.016,191.954 58.760,188.391 61.400 C 184.828 64.040,181.527 66.461,181.056 66.780 C 180.585 67.098,179.300 68.104,178.200 69.014 C 177.100 69.924,175.660 71.011,175.000 71.430 C 174.340 71.849,172.900 72.913,171.800 73.796 C 169.867 75.348,164.063 79.382,161.467 80.979 C 160.770 81.407,158.424 83.077,156.254 84.690 C 154.083 86.302,151.968 87.803,151.554 88.025 C 149.875 88.923,150.680 89.996,160.273 99.640 C 170.254 109.674,171.332 110.513,172.866 109.439 C 173.368 109.088,174.483 108.800,175.345 108.800 C 176.207 108.800,177.652 108.460,178.556 108.046 C 181.023 106.913,182.511 106.262,183.400 105.924 C 183.988 105.700,183.882 105.658,183.000 105.764 C 182.340 105.844,181.260 106.105,180.600 106.344 C 176.509 107.831,172.308 108.864,171.341 108.621 C 169.890 108.257,152.400 90.773,152.400 89.687 C 152.400 88.780,152.919 88.348,159.000 84.200 C 161.420 82.549,164.969 80.127,166.887 78.816 C 169.723 76.880,183.517 66.667,189.600 62.000 C 199.057 54.745,200.931 53.634,201.445 54.972 C 201.583 55.334,202.212 55.896,202.842 56.222 C 203.472 56.548,210.198 61.484,217.789 67.192 C 225.380 72.899,232.538 78.200,233.695 78.971 C 234.853 79.742,237.060 81.270,238.600 82.367 C 240.140 83.464,242.300 84.910,243.400 85.581 C 245.950 87.136,247.200 88.199,247.200 88.813 C 247.200 89.080,242.888 93.596,237.617 98.849 C 226.982 109.448,227.624 109.051,223.496 107.600 C 222.244 107.160,220.838 106.800,220.370 106.800 C 219.903 106.800,218.954 106.536,218.260 106.214 C 217.100 105.675,214.664 105.166,210.600 104.611 L 209.000 104.393 210.200 104.978 C 210.860 105.300,212.251 105.572,213.290 105.582 C 214.448 105.593,215.688 105.909,216.490 106.399 C 217.211 106.838,218.304 107.198,218.920 107.199 C 219.536 107.199,220.616 107.500,221.320 107.867 C 222.848 108.664,225.310 109.282,227.093 109.316 C 228.535 109.343,248.400 90.165,248.400 88.744 C 248.400 87.971,246.347 86.112,242.929 83.792 C 241.648 82.922,240.510 82.112,240.400 81.992 C 240.290 81.872,239.210 81.153,238.000 80.394 C 236.790 79.635,235.350 78.593,234.800 78.080 C 234.250 77.566,233.120 76.792,232.289 76.359 C 231.458 75.927,229.812 74.697,228.630 73.627 C 227.448 72.557,225.608 71.184,224.541 70.575 C 222.499 69.411,218.910 66.811,217.278 65.314 C 216.747 64.826,215.387 63.847,214.256 63.137 C 213.125 62.427,210.757 60.637,208.993 59.159 C 202.890 54.045,200.268 53.206,196.935 55.302 M190.600 104.435 C 189.720 104.622,187.920 104.948,186.600 105.161 C 184.354 105.522,184.472 105.542,188.448 105.465 C 190.936 105.417,192.926 105.193,193.250 104.924 C 193.554 104.672,194.432 104.389,195.202 104.297 C 196.131 104.185,195.863 104.123,194.400 104.112 C 193.190 104.103,191.480 104.249,190.600 104.435 M204.311 104.293 C 205.251 104.378,206.691 104.377,207.511 104.291 C 208.330 104.205,207.560 104.136,205.800 104.137 C 204.040 104.139,203.370 104.209,204.311 104.293 M302.538 155.680 C 283.153 175.033,283.849 174.140,285.277 177.837 C 286.089 179.940,286.205 180.074,286.326 179.057 C 286.400 178.428,286.247 177.397,285.985 176.765 C 285.064 174.539,285.528 173.986,302.967 156.532 C 322.590 136.893,320.141 138.348,326.525 142.533 C 328.986 144.146,331.888 145.983,332.974 146.614 C 334.059 147.246,336.893 149.031,339.272 150.581 C 341.650 152.132,346.405 155.200,349.839 157.400 C 353.273 159.600,357.369 162.227,358.941 163.237 C 360.514 164.247,362.880 165.761,364.200 166.600 C 365.520 167.439,367.770 168.888,369.200 169.820 C 370.630 170.751,373.330 172.457,375.200 173.610 C 377.070 174.763,380.130 176.698,382.000 177.908 C 399.498 189.237,400.010 189.533,399.993 188.300 C 399.989 188.025,398.774 187.117,397.293 186.283 C 395.812 185.449,392.665 183.469,390.299 181.883 C 384.181 177.781,378.128 173.867,375.800 172.506 C 374.700 171.863,371.457 169.821,368.593 167.968 C 365.729 166.116,363.088 164.420,362.724 164.200 C 362.360 163.980,360.261 162.584,358.061 161.098 C 355.860 159.612,353.725 158.262,353.317 158.098 C 352.629 157.822,347.531 154.552,343.800 151.993 C 342.920 151.389,340.976 150.235,339.480 149.428 C 337.984 148.620,336.416 147.616,335.996 147.196 C 335.577 146.777,334.484 146.051,333.569 145.584 C 332.654 145.117,329.650 143.220,326.894 141.368 C 324.138 139.515,321.515 138.000,321.065 138.000 C 320.521 138.000,314.327 143.911,302.538 155.680 M76.000 139.673 C 75.230 140.146,73.070 141.538,71.200 142.766 C 69.330 143.994,66.990 145.451,66.000 146.004 C 63.863 147.197,59.738 149.821,53.116 154.200 C 50.455 155.960,47.142 158.120,45.754 159.000 C 40.581 162.279,35.511 165.444,33.148 166.869 C 31.808 167.676,30.050 168.869,29.242 169.518 C 28.434 170.168,26.821 171.181,25.659 171.770 C 24.496 172.359,22.342 173.697,20.872 174.743 C 19.403 175.789,17.840 176.781,17.400 176.946 C 16.456 177.301,6.568 183.875,5.406 184.921 C 4.965 185.317,3.577 186.127,2.322 186.721 C 0.251 187.700,-0.725 188.800,0.477 188.800 C 1.010 188.800,5.644 186.116,8.400 184.210 C 9.390 183.526,11.100 182.447,12.200 181.813 C 13.300 181.178,16.810 178.958,20.000 176.878 C 26.112 172.893,26.437 172.684,32.308 168.955 C 34.347 167.660,38.255 165.160,40.993 163.400 C 43.730 161.640,46.726 159.750,47.650 159.200 C 48.575 158.650,50.978 157.120,52.991 155.800 C 55.003 154.480,57.693 152.770,58.968 152.000 C 60.243 151.230,61.761 150.228,62.343 149.774 C 62.924 149.320,64.120 148.528,65.000 148.014 C 67.879 146.333,76.184 141.072,76.871 140.493 C 78.299 139.291,78.406 139.386,101.941 162.806 C 114.418 175.222,114.139 174.866,113.797 177.925 L 113.543 180.200 114.570 178.462 C 116.113 175.850,116.062 175.779,103.602 163.320 C 76.724 136.446,78.616 138.067,76.000 139.673 M112.863 183.000 C 112.568 184.540,112.246 186.430,112.148 187.200 L 111.969 188.600 112.803 186.885 C 113.435 185.585,113.609 184.567,113.519 182.685 L 113.400 180.200 112.863 183.000 M286.451 183.540 C 286.414 185.965,286.590 187.279,287.094 188.340 C 287.957 190.156,288.341 189.059,287.620 186.834 C 287.365 186.045,287.009 184.230,286.829 182.800 L 286.501 180.200 286.451 183.540 M288.169 198.800 C 288.169 203.310,288.227 205.155,288.298 202.900 C 288.370 200.645,288.370 196.955,288.298 194.700 C 288.227 192.445,288.169 194.290,288.169 198.800 M111.768 199.800 C 111.768 204.200,111.826 206.055,111.898 203.921 C 111.970 201.788,111.970 198.188,111.899 195.921 C 111.827 193.655,111.768 195.400,111.768 199.800 M262.683 195.595 C 261.647 196.692,260.800 197.862,260.800 198.194 C 260.800 199.058,264.046 203.115,266.244 205.000 C 267.941 206.455,270.080 208.550,272.200 210.835 C 272.640 211.309,274.170 212.866,275.600 214.293 C 277.030 215.721,284.500 223.182,292.200 230.873 C 325.418 264.051,322.291 261.399,325.600 259.200 C 326.590 258.542,327.515 258.003,327.656 258.002 C 328.014 257.999,334.349 253.875,335.800 252.700 C 336.460 252.165,337.900 251.212,339.000 250.582 C 340.100 249.951,342.391 248.528,344.091 247.418 C 345.790 246.308,348.040 244.870,349.091 244.221 C 351.146 242.952,357.592 238.707,360.200 236.906 C 361.080 236.297,362.640 235.390,363.666 234.889 C 364.693 234.388,366.569 233.173,367.836 232.189 C 369.103 231.205,370.274 230.400,370.438 230.400 C 370.934 230.400,377.644 226.432,379.998 224.747 C 385.145 221.062,392.818 216.113,395.402 214.811 C 396.283 214.367,397.490 213.553,398.084 213.002 C 398.679 212.451,399.353 212.000,399.583 212.000 C 399.812 212.000,400.000 211.730,400.000 211.400 C 400.000 210.368,399.162 210.717,394.817 213.555 C 392.498 215.070,388.530 217.611,386.000 219.202 C 379.298 223.416,375.782 225.652,372.400 227.850 C 370.750 228.922,369.228 229.872,369.017 229.961 C 368.806 230.049,367.272 231.040,365.607 232.161 C 363.942 233.282,361.259 235.010,359.645 236.000 C 358.030 236.990,356.234 238.174,355.654 238.630 C 355.074 239.087,353.520 240.065,352.200 240.805 C 350.880 241.545,349.350 242.456,348.800 242.830 C 347.682 243.590,341.078 247.857,337.400 250.195 C 336.080 251.035,333.740 252.561,332.200 253.587 C 330.660 254.614,328.386 256.027,327.147 256.729 C 325.908 257.431,324.671 258.274,324.398 258.603 C 322.890 260.420,324.387 261.741,295.950 233.500 C 289.802 227.395,284.597 222.400,284.382 222.400 C 283.777 222.400,280.497 219.181,279.287 217.400 C 278.689 216.520,277.776 215.457,277.257 215.037 C 276.739 214.618,276.109 214.024,275.857 213.719 C 274.779 212.407,273.373 211.200,272.923 211.200 C 272.656 211.200,272.079 210.390,271.641 209.400 C 271.153 208.296,270.585 207.600,270.172 207.600 C 269.649 207.600,269.550 207.351,269.724 206.481 C 269.847 205.866,269.782 205.101,269.580 204.781 C 269.272 204.294,269.211 204.310,269.206 204.876 C 269.192 206.464,264.892 204.323,264.217 202.391 C 264.100 202.057,263.476 201.205,262.831 200.499 C 261.372 198.901,260.937 197.676,261.721 197.375 C 262.233 197.179,265.064 193.600,264.708 193.600 C 264.629 193.600,263.718 194.498,262.683 195.595 M287.491 208.113 C 287.101 208.711,286.496 209.200,286.146 209.200 C 285.674 209.200,285.753 209.396,286.456 209.968 C 287.397 210.734,287.402 210.733,287.925 209.745 C 288.783 208.125,288.406 206.709,287.491 208.113 M112.032 211.674 C 112.015 212.485,112.190 213.647,112.422 214.257 C 113.185 216.266,113.671 221.521,113.177 222.442 C 112.497 223.713,77.765 258.294,76.890 258.572 C 76.380 258.733,75.272 258.248,73.549 257.107 C 70.441 255.049,63.783 250.798,60.223 248.600 C 58.798 247.720,56.950 246.533,56.116 245.963 C 54.736 245.018,50.002 241.978,42.600 237.281 C 38.613 234.752,37.451 234.010,33.400 231.405 C 31.420 230.132,28.810 228.468,27.600 227.707 C 24.685 225.874,18.169 221.714,12.000 217.747 C 1.922 211.267,0.576 210.491,0.148 210.918 C -0.235 211.301,1.377 212.546,4.998 214.664 C 6.757 215.693,9.367 217.354,10.798 218.355 C 14.736 221.110,17.349 222.800,17.670 222.800 C 17.828 222.800,19.182 223.727,20.679 224.861 C 22.175 225.995,24.030 227.183,24.800 227.502 C 25.570 227.821,28.720 229.746,31.800 231.780 C 43.544 239.535,49.341 243.279,49.959 243.508 C 50.312 243.639,51.050 244.050,51.600 244.421 C 56.510 247.733,62.241 251.341,64.300 252.417 C 65.675 253.135,66.800 253.859,66.800 254.026 C 66.800 254.193,68.285 255.183,70.100 256.225 C 71.915 257.267,73.829 258.453,74.354 258.860 C 76.581 260.588,76.198 260.901,95.540 241.563 C 115.524 221.583,115.551 221.551,114.385 219.782 C 113.818 218.923,113.602 217.889,113.592 216.000 C 113.584 214.303,113.316 212.844,112.822 211.800 L 112.065 210.200 112.032 211.674 M169.327 289.172 C 168.477 289.394,150.473 306.906,149.381 308.572 C 148.676 309.650,148.826 309.831,152.394 312.207 C 154.040 313.303,156.741 315.190,158.396 316.400 C 161.509 318.677,161.824 318.891,164.751 320.711 C 165.714 321.310,167.244 322.442,168.151 323.227 C 169.058 324.011,170.700 325.163,171.800 325.786 C 172.900 326.409,174.296 327.507,174.901 328.226 C 175.507 328.944,177.217 330.233,178.701 331.090 C 180.186 331.947,182.930 333.879,184.800 335.384 C 186.670 336.889,189.133 338.721,190.274 339.456 C 191.415 340.190,193.395 341.657,194.674 342.714 C 198.084 345.534,198.856 346.000,200.108 346.000 C 201.217 346.000,205.357 343.543,207.000 341.911 C 207.440 341.474,209.600 339.853,211.800 338.309 C 214.000 336.765,216.520 334.885,217.400 334.131 C 219.641 332.211,219.699 332.170,221.508 331.247 C 222.399 330.792,223.730 329.855,224.464 329.165 C 226.081 327.646,232.160 323.146,237.386 319.600 C 239.494 318.170,242.198 316.280,243.395 315.400 C 244.593 314.520,246.476 313.170,247.580 312.400 C 251.212 309.867,251.614 310.567,239.813 298.869 C 229.070 288.221,229.150 288.273,226.314 290.200 C 225.505 290.750,224.652 291.200,224.420 291.200 C 224.187 291.200,223.325 291.560,222.504 292.000 C 221.684 292.440,221.189 292.801,221.406 292.802 C 221.910 292.805,225.402 291.673,227.114 290.953 C 229.544 289.930,229.657 290.011,239.423 299.777 C 249.725 310.079,249.473 309.699,247.125 311.400 C 246.213 312.060,244.733 313.142,243.834 313.804 C 242.935 314.467,240.062 316.447,237.449 318.204 C 230.975 322.560,226.897 325.424,223.789 327.800 C 210.096 338.266,201.031 344.800,200.202 344.800 C 199.647 344.800,197.889 343.756,195.992 342.300 C 194.200 340.925,192.342 339.530,191.863 339.200 C 191.383 338.870,188.498 336.710,185.451 334.400 C 182.404 332.090,179.526 329.935,179.056 329.612 C 178.585 329.289,176.850 328.018,175.200 326.789 C 170.713 323.445,163.506 318.419,160.479 316.521 C 159.005 315.597,157.440 314.494,157.000 314.068 C 156.560 313.642,155.390 312.801,154.400 312.198 C 149.447 309.180,149.284 309.573,159.878 299.032 C 169.063 289.893,169.548 289.528,171.073 290.596 C 171.542 290.924,173.088 291.357,174.509 291.559 C 175.931 291.760,177.649 292.212,178.327 292.562 C 179.005 292.913,180.082 293.200,180.719 293.200 C 181.356 293.200,182.443 293.482,183.134 293.827 C 187.099 295.805,212.611 295.817,216.888 293.843 C 217.610 293.510,218.830 293.168,219.600 293.083 C 220.370 292.998,219.740 292.903,218.200 292.873 C 216.172 292.833,214.919 293.036,213.656 293.609 C 211.257 294.697,188.399 294.835,186.879 293.770 C 186.384 293.424,184.949 293.039,183.690 292.915 C 182.430 292.791,180.860 292.408,180.200 292.063 C 179.540 291.718,177.740 291.325,176.200 291.189 C 174.221 291.015,172.931 290.649,171.800 289.943 C 170.785 289.309,169.881 289.027,169.327 289.172 " stroke="none" fill="#6f8a36" fill-rule="evenodd"></path><path id="path7" d="M324.763 27.197 C 324.040 27.620,326.382 25.299,254.321 96.967 C 198.603 152.382,199.567 151.447,198.634 150.920 C 198.323 150.744,170.233 122.880,136.212 89.000 C 97.306 50.256,74.028 27.356,73.473 27.283 C 71.967 27.082,26.978 71.861,27.319 73.220 C 27.537 74.086,145.250 191.783,150.100 195.984 C 152.935 198.439,154.521 196.567,123.900 226.892 C 68.639 281.616,26.800 323.411,26.800 323.888 C 26.800 324.901,72.437 369.807,73.345 369.688 C 74.309 369.561,72.762 371.086,145.077 299.000 C 198.707 245.541,198.632 245.613,199.974 246.239 C 200.400 246.437,228.492 274.230,262.402 308.000 C 296.311 341.770,324.436 369.541,324.901 369.714 C 325.625 369.983,326.889 368.896,333.736 362.114 C 356.978 339.093,371.601 324.335,371.606 323.895 C 371.609 323.623,353.834 305.693,332.106 284.052 C 310.378 262.411,282.295 234.439,269.700 221.893 C 257.105 209.347,246.800 198.789,246.800 198.431 C 246.800 198.073,270.940 173.754,300.446 144.390 C 370.777 74.394,370.773 74.397,371.247 73.511 C 371.542 72.961,371.508 72.567,371.128 72.096 C 370.292 71.063,325.972 27.010,325.671 26.913 C 325.522 26.865,325.113 26.993,324.763 27.197 M114.144 67.700 C 187.894 141.360,198.627 152.000,199.187 152.000 C 199.819 152.000,206.696 145.203,265.056 86.900 C 288.013 63.965,306.865 45.200,306.950 45.200 C 307.035 45.200,311.067 41.240,315.910 36.400 C 320.753 31.560,324.930 27.600,325.192 27.600 C 325.859 27.600,370.800 72.478,370.800 73.145 C 370.800 73.445,367.053 77.405,362.472 81.945 C 276.559 167.110,246.000 197.671,246.000 198.424 C 246.000 199.079,267.571 220.704,351.700 304.389 C 362.205 314.839,370.800 323.579,370.800 323.811 C 370.800 324.511,325.762 369.200,325.057 369.200 C 324.698 369.200,306.339 351.155,284.260 329.100 C 215.815 260.730,199.747 244.800,199.230 244.800 C 198.758 244.800,171.820 271.514,103.737 339.500 C 87.379 355.835,73.711 369.200,73.364 369.200 C 72.680 369.200,27.601 324.467,27.600 323.788 C 27.600 323.561,31.602 319.421,36.493 314.588 C 87.304 264.377,152.400 199.159,152.400 198.463 C 152.400 197.698,136.309 181.553,46.900 92.610 C 36.285 82.051,27.600 73.237,27.600 73.024 C 27.600 72.348,72.569 27.694,73.298 27.646 C 73.724 27.618,89.643 43.228,114.144 67.700 M264.188 195.613 C 263.525 196.346,263.521 196.450,264.138 197.131 C 264.502 197.534,264.800 198.198,264.800 198.608 C 264.800 199.333,264.785 199.333,264.258 198.611 C 263.926 198.158,263.461 197.968,263.058 198.122 C 262.354 198.392,262.137 199.600,262.792 199.600 C 263.007 199.600,263.530 200.275,263.953 201.100 C 264.376 201.925,265.207 203.050,265.800 203.600 L 266.877 204.600 267.968 203.300 C 268.688 202.442,269.414 202.000,270.106 202.000 C 271.229 202.000,271.874 202.584,271.207 202.996 C 270.703 203.307,270.673 205.766,271.161 206.705 C 271.360 207.087,271.743 208.148,272.013 209.062 C 272.693 211.368,274.420 211.709,275.616 209.774 C 276.701 208.018,280.000 207.439,280.000 209.004 C 280.000 209.285,280.270 209.618,280.600 209.745 C 281.678 210.158,281.401 214.066,280.203 215.359 C 279.044 216.609,279.344 217.371,282.000 219.929 C 285.324 223.130,285.446 223.108,286.002 219.184 C 286.234 217.551,286.688 215.222,287.012 214.008 L 287.600 211.800 286.445 210.800 C 285.810 210.250,284.570 209.371,283.688 208.847 C 282.807 208.322,280.986 206.837,279.642 205.547 C 278.299 204.256,277.036 203.200,276.836 203.200 C 276.636 203.200,275.561 202.480,274.448 201.600 C 273.334 200.720,272.319 200.000,272.190 200.000 C 272.062 200.000,270.752 199.034,269.279 197.854 C 265.526 194.847,265.065 194.644,264.188 195.613 M268.944 198.483 L 270.119 199.658 268.263 201.362 C 266.013 203.428,263.279 202.264,265.400 200.143 C 265.730 199.813,266.000 198.914,266.000 198.144 C 266.000 196.443,267.022 196.560,268.944 198.483 M275.901 203.600 C 276.553 203.600,278.800 205.594,278.800 206.172 C 278.800 206.448,278.087 206.887,277.214 207.148 C 276.342 207.410,275.397 207.952,275.114 208.354 C 274.832 208.756,274.195 209.213,273.700 209.370 C 272.606 209.715,272.420 207.936,273.413 206.624 C 273.736 206.196,274.000 205.044,274.000 204.062 C 274.000 202.357,274.033 202.306,274.731 202.938 C 275.134 203.302,275.660 203.600,275.901 203.600 M273.000 204.400 C 273.000 204.913,272.775 205.408,272.500 205.500 C 272.170 205.610,272.000 205.236,272.000 204.400 C 272.000 203.564,272.170 203.190,272.500 203.300 C 272.775 203.392,273.000 203.887,273.000 204.400 M276.098 210.658 C 275.270 211.552,275.243 211.723,275.764 212.730 C 277.019 215.157,279.529 215.424,280.249 213.207 C 281.298 209.971,278.389 208.185,276.098 210.658 M285.375 211.173 C 287.335 213.220,285.781 221.567,283.652 220.428 C 280.712 218.854,280.433 217.854,282.006 214.524 C 282.938 212.553,283.120 211.798,282.806 211.212 C 282.229 210.133,282.286 210.000,283.325 210.000 C 283.834 210.000,284.756 210.528,285.375 211.173 M278.567 211.443 C 279.408 211.765,279.368 212.524,278.468 213.339 C 277.629 214.098,277.200 213.848,277.200 212.600 C 277.200 211.334,277.538 211.048,278.567 211.443 " stroke="none" fill="#acacac" fill-rule="evenodd"></path><path id="path8" d="M199.600 54.698 C 199.085 54.899,194.339 58.365,189.600 62.000 C 183.517 66.667,169.723 76.880,166.887 78.816 C 164.969 80.127,161.420 82.549,159.000 84.200 C 152.731 88.476,152.400 88.760,152.400 89.861 C 152.400 90.593,152.523 90.729,152.900 90.414 C 153.175 90.184,154.256 89.412,155.302 88.698 C 156.349 87.984,158.815 86.284,160.784 84.920 C 162.753 83.555,164.919 82.152,165.598 81.801 C 166.277 81.450,167.861 80.277,169.117 79.196 C 170.372 78.114,172.185 76.551,173.145 75.721 C 174.105 74.892,175.602 73.808,176.472 73.314 C 177.342 72.820,178.987 71.622,180.127 70.651 C 181.267 69.681,183.189 68.306,184.399 67.596 C 185.608 66.885,187.948 65.183,189.599 63.812 C 191.249 62.441,192.960 61.129,193.400 60.896 C 193.840 60.664,195.440 59.557,196.955 58.437 C 200.702 55.666,200.139 55.507,207.818 61.524 C 208.928 62.394,210.908 63.784,212.218 64.613 C 213.528 65.442,215.435 66.858,216.456 67.760 C 219.778 70.694,221.777 72.266,223.000 72.907 C 223.660 73.252,224.875 74.159,225.701 74.922 C 226.527 75.685,227.787 76.591,228.501 76.935 C 229.215 77.279,230.790 78.482,232.000 79.608 C 233.210 80.734,235.285 82.153,236.611 82.762 C 238.794 83.764,240.331 84.779,244.327 87.856 C 245.057 88.418,245.786 89.232,245.946 89.665 C 246.220 90.407,246.268 90.393,246.779 89.439 C 247.407 88.266,246.953 87.748,243.400 85.581 C 242.300 84.910,240.140 83.464,238.600 82.367 C 237.060 81.270,234.853 79.742,233.695 78.971 C 232.538 78.200,225.380 72.899,217.789 67.192 C 210.198 61.484,203.472 56.548,202.842 56.222 C 202.212 55.896,201.591 55.353,201.461 55.015 C 201.219 54.383,200.652 54.286,199.600 54.698 M188.525 104.365 C 187.383 104.504,186.339 104.728,186.205 104.862 C 185.897 105.170,189.397 104.830,191.000 104.397 C 192.396 104.019,191.465 104.007,188.525 104.365 M217.820 105.955 C 218.422 106.517,220.000 106.893,220.000 106.474 C 220.000 106.264,219.595 105.985,219.100 105.852 C 217.795 105.502,217.372 105.536,217.820 105.955 M175.239 107.422 C 173.121 108.341,174.006 108.481,176.429 107.610 C 177.872 107.091,178.265 106.829,177.600 106.830 C 177.050 106.831,175.988 107.097,175.239 107.422 M223.585 107.614 C 224.786 108.046,226.406 108.375,227.185 108.346 C 228.268 108.304,228.365 108.250,227.600 108.115 C 227.050 108.019,225.829 107.683,224.886 107.370 C 222.257 106.496,221.086 106.716,223.585 107.614 M319.384 140.162 C 318.661 140.691,318.677 140.713,319.662 140.524 C 320.765 140.313,321.892 140.964,328.072 145.377 C 329.761 146.583,331.651 147.696,332.272 147.849 C 333.664 148.191,335.229 149.154,335.924 150.095 C 336.213 150.485,337.023 151.090,337.724 151.440 C 339.532 152.341,344.312 155.434,347.708 157.902 C 349.298 159.058,351.050 160.118,351.600 160.257 C 352.150 160.396,353.336 161.104,354.236 161.829 C 355.136 162.555,358.016 164.407,360.636 165.946 C 363.256 167.484,366.660 169.656,368.200 170.773 C 369.740 171.890,372.530 173.691,374.400 174.774 C 376.270 175.858,378.790 177.458,380.000 178.330 C 381.210 179.201,382.979 180.319,383.932 180.814 C 384.885 181.309,386.325 182.345,387.132 183.116 C 388.595 184.513,391.158 186.066,395.900 188.429 C 397.274 189.114,398.500 189.838,398.623 190.038 C 399.039 190.711,400.000 190.406,400.000 189.600 C 400.000 189.160,399.775 188.799,399.500 188.797 C 398.939 188.794,395.715 186.788,382.000 177.908 C 380.130 176.698,377.070 174.763,375.200 173.610 C 373.330 172.457,370.630 170.751,369.200 169.820 C 367.770 168.888,365.520 167.439,364.200 166.600 C 362.880 165.761,360.514 164.247,358.941 163.237 C 357.369 162.227,353.273 159.600,349.839 157.400 C 346.405 155.200,341.650 152.132,339.272 150.581 C 336.893 149.031,334.059 147.246,332.974 146.614 C 331.888 145.983,328.986 144.146,326.525 142.533 C 321.986 139.558,320.765 139.152,319.384 140.162 M76.786 140.533 C 76.209 141.059,68.123 146.191,65.000 148.014 C 64.120 148.528,62.924 149.320,62.343 149.774 C 61.761 150.228,60.243 151.230,58.968 152.000 C 57.693 152.770,55.003 154.480,52.991 155.800 C 50.978 157.120,48.575 158.650,47.650 159.200 C 46.726 159.750,43.730 161.640,40.993 163.400 C 38.255 165.160,34.347 167.660,32.308 168.955 C 26.437 172.684,26.112 172.893,20.000 176.878 C 16.810 178.958,13.300 181.184,12.200 181.826 C 11.100 182.467,8.760 183.946,7.000 185.112 C 5.240 186.278,2.952 187.630,1.916 188.116 C 0.263 188.892,-0.775 190.400,0.345 190.400 C 0.737 190.400,6.280 187.398,7.017 186.786 C 7.284 186.564,8.739 185.778,10.251 185.038 C 11.763 184.297,13.426 183.232,13.947 182.670 C 14.468 182.108,16.149 180.872,17.682 179.924 C 19.215 178.976,21.272 177.660,22.253 177.000 C 23.235 176.340,25.169 175.080,26.551 174.200 C 27.934 173.320,30.311 171.778,31.833 170.773 C 37.098 167.295,41.998 164.195,44.116 163.000 C 45.286 162.340,46.874 161.311,47.643 160.712 C 48.413 160.114,49.723 159.341,50.554 158.993 C 51.386 158.646,53.176 157.502,54.533 156.451 C 55.890 155.400,58.530 153.676,60.400 152.620 C 62.270 151.564,64.160 150.379,64.600 149.988 C 65.040 149.596,66.660 148.596,68.200 147.765 C 69.740 146.934,71.509 145.836,72.132 145.326 C 75.449 142.607,78.897 141.041,80.077 141.719 C 81.691 142.645,81.460 142.206,79.707 141.014 C 78.002 139.855,77.602 139.790,76.786 140.533 M286.014 173.974 C 285.511 174.914,285.491 176.009,285.964 176.755 C 286.199 177.127,286.362 176.632,286.458 175.255 C 286.617 172.950,286.596 172.887,286.014 173.974 M113.568 176.300 C 113.759 177.681,113.787 177.709,113.919 176.651 C 113.998 176.019,113.905 175.345,113.712 175.152 C 113.510 174.950,113.449 175.440,113.568 176.300 M112.671 182.270 C 112.294 183.635,111.963 186.000,112.149 186.000 C 112.405 186.000,113.257 181.924,113.045 181.711 C 112.950 181.617,112.782 181.868,112.671 182.270 M287.017 184.200 C 287.424 187.079,288.112 187.958,287.800 185.200 C 287.663 183.990,287.367 182.820,287.142 182.600 C 286.865 182.328,286.825 182.842,287.017 184.200 M0.000 209.753 C 0.000 210.357,0.282 210.780,0.767 210.907 C 1.558 211.114,2.700 211.810,11.745 217.600 C 14.667 219.470,18.900 222.170,21.153 223.600 C 28.127 228.027,29.683 229.019,33.400 231.407 C 37.498 234.039,38.682 234.795,42.600 237.281 C 50.002 241.978,54.736 245.018,56.116 245.963 C 56.950 246.533,58.798 247.720,60.223 248.600 C 63.783 250.798,70.441 255.049,73.549 257.107 C 76.148 258.828,77.035 258.963,78.013 257.785 C 78.415 257.300,78.336 257.200,77.548 257.200 C 77.025 257.200,75.698 256.553,74.599 255.763 C 73.499 254.973,71.610 253.883,70.400 253.341 C 69.190 252.800,67.750 251.937,67.200 251.424 C 66.650 250.911,65.570 250.175,64.800 249.788 C 64.030 249.401,60.935 247.407,57.923 245.357 C 54.911 243.307,51.851 241.381,51.123 241.076 C 50.395 240.771,49.234 240.044,48.542 239.460 C 47.850 238.877,45.150 237.149,42.542 235.620 C 39.934 234.091,36.428 231.841,34.751 230.620 C 33.074 229.399,31.541 228.400,31.344 228.400 C 31.147 228.400,30.114 227.680,29.049 226.800 C 27.984 225.920,26.876 225.200,26.587 225.200 C 26.298 225.200,25.239 224.573,24.235 223.806 C 23.230 223.039,21.371 221.840,20.104 221.142 C 18.837 220.445,17.170 219.300,16.400 218.598 C 15.204 217.508,12.505 215.918,6.532 212.784 C 5.834 212.418,4.326 211.372,3.179 210.459 C 0.798 208.563,0.000 208.386,0.000 209.753 M287.665 210.217 C 287.106 211.443,287.094 211.600,287.557 211.600 C 287.923 211.600,288.561 209.628,288.284 209.351 C 288.199 209.266,287.921 209.656,287.665 210.217 M397.134 210.500 C 396.109 211.215,394.669 212.147,393.935 212.572 C 387.632 216.216,385.589 217.479,384.202 218.585 C 383.321 219.288,381.700 220.366,380.600 220.982 C 378.749 222.017,375.513 224.098,368.056 229.046 C 366.436 230.121,364.186 231.566,363.056 232.259 C 361.925 232.951,360.010 234.145,358.800 234.912 C 357.590 235.679,355.700 236.711,354.600 237.205 C 353.500 237.699,351.790 238.768,350.800 239.579 C 348.634 241.355,344.272 244.400,343.895 244.400 C 343.484 244.400,337.615 248.194,335.800 249.633 C 334.920 250.330,333.300 251.429,332.200 252.074 C 331.100 252.719,329.120 253.952,327.800 254.814 C 323.858 257.388,322.367 258.087,321.269 257.877 L 320.248 257.682 321.224 258.432 C 322.406 259.340,323.727 259.411,324.398 258.603 C 324.671 258.274,325.908 257.431,327.147 256.729 C 328.386 256.027,330.660 254.614,332.200 253.587 C 333.740 252.561,336.080 251.035,337.400 250.195 C 341.078 247.857,347.682 243.590,348.800 242.830 C 349.350 242.456,350.880 241.545,352.200 240.805 C 353.520 240.065,355.074 239.087,355.654 238.630 C 356.234 238.174,358.030 236.990,359.645 236.000 C 361.259 235.010,363.942 233.282,365.607 232.161 C 367.272 231.040,368.806 230.049,369.017 229.961 C 369.228 229.872,370.750 228.922,372.400 227.850 C 375.782 225.652,379.298 223.416,386.000 219.202 C 388.530 217.611,392.498 215.070,394.817 213.555 C 397.137 212.040,399.252 210.800,399.517 210.800 C 399.783 210.800,400.000 210.440,400.000 210.000 C 400.000 208.875,399.284 209.000,397.134 210.500 M112.258 215.000 C 112.392 215.880,112.667 216.870,112.869 217.200 C 113.107 217.591,113.141 217.313,112.966 216.400 C 112.553 214.254,111.966 213.093,112.258 215.000 M285.200 222.786 C 285.200 222.998,285.568 223.369,286.018 223.610 C 286.774 224.014,286.797 223.985,286.322 223.224 C 285.781 222.358,285.200 222.131,285.200 222.786 M168.162 290.900 L 167.400 291.800 168.282 291.055 C 169.028 290.424,169.367 290.377,170.482 290.749 C 171.686 291.151,171.733 291.137,171.024 290.595 C 169.933 289.759,169.048 289.854,168.162 290.900 M227.200 291.000 C 225.998 291.687,226.596 291.769,228.349 291.158 C 229.338 290.813,229.769 290.835,230.308 291.258 C 230.933 291.748,230.947 291.733,230.451 291.100 C 229.792 290.260,228.561 290.222,227.200 291.000 M174.972 291.954 C 175.092 292.149,176.408 292.623,177.895 293.007 C 179.383 293.391,181.371 293.952,182.314 294.253 C 183.257 294.554,184.517 294.788,185.114 294.773 C 186.287 294.744,183.713 293.864,180.600 293.230 C 179.720 293.051,178.331 292.611,177.513 292.252 C 175.891 291.541,174.625 291.393,174.972 291.954 M216.600 294.000 C 215.060 294.403,214.090 294.747,214.445 294.766 C 215.600 294.827,219.362 293.998,219.766 293.594 C 220.281 293.079,219.974 293.118,216.600 294.000 M191.532 295.293 C 192.255 296.015,208.656 296.017,209.800 295.295 C 210.468 294.873,210.170 294.840,208.000 295.095 C 204.662 295.487,194.221 295.482,192.413 295.088 C 191.292 294.843,191.122 294.883,191.532 295.293 M150.812 308.430 C 150.799 309.586,151.746 310.581,154.400 312.198 C 155.390 312.801,156.560 313.642,157.000 314.068 C 157.440 314.494,159.005 315.597,160.479 316.521 C 163.506 318.419,170.713 323.445,175.200 326.789 C 176.850 328.018,178.585 329.289,179.056 329.612 C 179.526 329.935,182.404 332.090,185.451 334.400 C 188.498 336.710,191.383 338.870,191.863 339.200 C 192.342 339.530,194.200 340.925,195.992 342.300 C 197.889 343.756,199.647 344.800,200.202 344.800 C 201.031 344.800,210.096 338.266,223.789 327.800 C 226.897 325.424,230.975 322.560,237.449 318.204 C 240.062 316.447,242.935 314.467,243.834 313.804 C 244.733 313.142,246.213 312.060,247.125 311.400 C 248.914 310.104,249.133 309.574,248.200 308.800 C 247.714 308.397,247.600 308.411,247.600 308.876 C 247.600 309.191,247.105 309.810,246.500 310.251 C 243.538 312.408,239.980 314.769,237.973 315.909 C 236.749 316.605,235.399 317.568,234.973 318.049 C 234.548 318.529,232.760 319.876,231.000 321.042 C 226.059 324.315,223.095 326.416,222.000 327.422 C 221.450 327.927,220.151 328.939,219.113 329.670 C 218.076 330.402,215.995 332.015,214.490 333.256 C 212.984 334.497,210.773 336.139,209.576 336.905 C 208.379 337.671,206.487 339.019,205.372 339.901 C 201.253 343.158,200.242 343.363,197.570 341.486 C 190.253 336.344,188.250 334.884,185.600 332.763 C 183.950 331.443,181.697 329.762,180.592 329.028 C 179.488 328.294,178.009 327.156,177.306 326.499 C 176.602 325.841,175.435 325.019,174.713 324.672 C 173.991 324.325,172.320 323.042,171.000 321.822 C 169.680 320.603,167.970 319.396,167.200 319.142 C 165.813 318.683,164.358 317.867,163.200 316.898 C 162.132 316.003,158.281 313.262,154.919 311.003 C 153.115 309.790,151.455 308.483,151.231 308.099 C 150.879 307.494,150.823 307.539,150.812 308.430 " stroke="none" fill="#94bc34" fill-rule="evenodd"></path></g></svg>