<svg id="svg" version="1.1" xmlns="http://www.w3.org/2000/svg" xmlns:xlink="http://www.w3.org/1999/xlink" width="400" height="400" viewBox="0, 0, 400,400"><g id="svgg"><path id="path0" d="M32.800 0.373 C 32.800 0.928,34.320 1.307,35.429 1.028 C 37.031 0.626,36.526 0.000,34.600 0.000 C 33.610 0.000,32.800 0.168,32.800 0.373 M363.600 0.400 C 363.600 0.620,364.050 0.800,364.600 0.800 C 365.150 0.800,365.600 0.620,365.600 0.400 C 365.600 0.180,365.150 0.000,364.600 0.000 C 364.050 0.000,363.600 0.180,363.600 0.400 M28.000 1.557 C 28.000 2.251,28.721 2.800,29.633 2.800 C 29.835 2.800,30.000 2.350,30.000 1.800 C 30.000 1.000,29.800 0.800,29.000 0.800 C 28.286 0.800,28.000 1.016,28.000 1.557 M376.800 4.800 C 376.800 5.333,377.067 5.600,377.600 5.600 C 378.507 5.600,378.625 5.185,377.920 4.480 C 377.215 3.775,376.800 3.893,376.800 4.800 M18.472 6.500 C 18.556 7.091,18.875 7.400,19.400 7.400 C 19.925 7.400,20.244 7.091,20.328 6.500 C 20.433 5.762,20.266 5.600,19.400 5.600 C 18.534 5.600,18.367 5.762,18.472 6.500 M5.600 19.400 C 5.600 20.266,5.762 20.433,6.500 20.328 C 7.091 20.244,7.400 19.925,7.400 19.400 C 7.400 18.875,7.091 18.556,6.500 18.472 C 5.762 18.367,5.600 18.534,5.600 19.400 M394.241 22.236 C 393.914 23.090,394.281 23.600,395.224 23.600 C 395.785 23.600,396.000 23.323,396.000 22.600 C 396.000 21.447,394.651 21.168,394.241 22.236 M0.800 29.000 C 0.800 29.800,1.000 30.000,1.800 30.000 C 2.828 30.000,2.978 29.730,2.557 28.633 C 2.148 27.568,0.800 27.849,0.800 29.000 M0.000 35.400 C 0.000 35.950,0.180 36.400,0.400 36.400 C 0.620 36.400,0.800 35.950,0.800 35.400 C 0.800 34.850,0.620 34.400,0.400 34.400 C 0.180 34.400,0.000 34.850,0.000 35.400 M399.200 36.800 C 399.200 37.240,399.380 37.600,399.600 37.600 C 399.820 37.600,400.000 37.240,400.000 36.800 C 400.000 36.360,399.820 36.000,399.600 36.000 C 399.380 36.000,399.200 36.360,399.200 36.800 M0.000 314.400 C 0.000 346.133,0.136 362.400,0.400 362.400 C 0.640 362.400,0.800 364.000,0.800 366.400 C 0.800 370.133,0.853 370.400,1.600 370.400 C 2.267 370.400,2.400 370.667,2.400 372.000 C 2.400 373.333,2.533 373.600,3.200 373.600 C 3.867 373.600,4.000 373.867,4.000 375.200 C 4.000 376.533,4.133 376.800,4.800 376.800 C 5.467 376.800,5.600 377.067,5.600 378.400 C 5.600 379.733,5.733 380.000,6.400 380.000 C 6.933 380.000,7.200 380.267,7.200 380.800 C 7.200 381.333,7.467 381.600,8.000 381.600 C 8.667 381.600,8.800 381.867,8.800 383.200 C 8.800 384.533,8.933 384.800,9.600 384.800 C 10.133 384.800,10.400 385.067,10.400 385.600 C 10.400 386.133,10.667 386.400,11.200 386.400 C 11.733 386.400,12.000 386.667,12.000 387.200 C 12.000 387.733,12.267 388.000,12.800 388.000 C 13.333 388.000,13.600 388.267,13.600 388.800 C 13.600 389.333,13.867 389.600,14.400 389.600 C 14.933 389.600,15.200 389.867,15.200 390.400 C 15.200 391.067,15.467 391.200,16.800 391.200 C 18.133 391.200,18.400 391.333,18.400 392.000 C 18.400 392.533,18.667 392.800,19.200 392.800 C 19.733 392.800,20.000 393.067,20.000 393.600 C 20.000 394.267,20.267 394.400,21.600 394.400 C 22.933 394.400,23.200 394.533,23.200 395.200 C 23.200 395.867,23.467 396.000,24.800 396.000 C 26.133 396.000,26.400 396.133,26.400 396.800 C 26.400 397.511,26.667 397.600,28.800 397.600 C 30.933 397.600,31.200 397.689,31.200 398.400 C 31.200 399.133,31.467 399.200,34.400 399.200 C 36.267 399.200,37.600 399.367,37.600 399.600 C 37.600 399.866,92.000 400.000,200.000 400.000 C 308.000 400.000,362.400 399.866,362.400 399.600 C 362.400 399.367,363.733 399.200,365.600 399.200 C 368.533 399.200,368.800 399.133,368.800 398.400 C 368.800 397.689,369.067 397.600,371.200 397.600 C 373.333 397.600,373.600 397.511,373.600 396.800 C 373.600 396.133,373.867 396.000,375.200 396.000 C 376.533 396.000,376.800 395.867,376.800 395.200 C 376.800 394.533,377.067 394.400,378.400 394.400 C 379.733 394.400,380.000 394.267,380.000 393.600 C 380.000 393.067,380.267 392.800,380.800 392.800 C 381.333 392.800,381.600 392.533,381.600 392.000 C 381.600 391.467,381.867 391.200,382.400 391.200 C 382.933 391.200,383.200 390.933,383.200 390.400 C 383.200 389.733,383.467 389.600,384.800 389.600 C 386.133 389.600,386.400 389.467,386.400 388.800 C 386.400 388.267,386.667 388.000,387.200 388.000 C 387.733 388.000,388.000 387.733,388.000 387.200 C 388.000 386.667,388.267 386.400,388.800 386.400 C 389.467 386.400,389.600 386.133,389.600 384.800 C 389.600 383.467,389.733 383.200,390.400 383.200 C 390.933 383.200,391.200 382.933,391.200 382.400 C 391.200 381.867,391.467 381.600,392.000 381.600 C 392.533 381.600,392.800 381.333,392.800 380.800 C 392.800 380.267,393.067 380.000,393.600 380.000 C 394.267 380.000,394.400 379.733,394.400 378.400 C 394.400 377.067,394.533 376.800,395.200 376.800 C 395.867 376.800,396.000 376.533,396.000 375.200 C 396.000 373.867,396.133 373.600,396.800 373.600 C 397.511 373.600,397.600 373.333,397.600 371.200 C 397.600 369.067,397.689 368.800,398.400 368.800 C 399.133 368.800,399.200 368.533,399.200 365.600 C 399.200 363.733,399.367 362.400,399.600 362.400 C 399.864 362.400,400.000 346.133,400.000 314.400 L 400.000 266.400 200.000 266.400 L 0.000 266.400 0.000 314.400 " stroke="none" fill="#fbdc34" fill-rule="evenodd"></path><path id="path1" d="M37.241 0.662 C 36.778 1.184,36.138 1.246,33.541 1.019 L 30.400 0.745 30.400 1.775 L 30.400 2.806 27.600 2.545 C 24.923 2.297,24.800 2.323,24.800 3.143 C 24.800 3.620,24.546 4.000,24.228 4.000 C 23.913 4.000,23.598 4.405,23.528 4.900 C 23.421 5.649,23.187 5.780,22.131 5.679 C 21.066 5.577,20.840 5.706,20.731 6.479 C 20.613 7.309,20.413 7.390,18.700 7.303 C 17.037 7.218,16.800 7.305,16.800 8.003 C 16.800 8.533,16.532 8.800,16.000 8.800 C 15.467 8.800,15.200 9.067,15.200 9.600 C 15.200 10.133,14.933 10.400,14.400 10.400 C 13.867 10.400,13.600 10.667,13.600 11.200 C 13.600 11.733,13.333 12.000,12.800 12.000 C 12.267 12.000,12.000 12.267,12.000 12.800 C 12.000 13.333,11.733 13.600,11.200 13.600 C 10.667 13.600,10.400 13.867,10.400 14.400 C 10.400 14.933,10.133 15.200,9.600 15.200 C 9.067 15.200,8.800 15.467,8.800 16.000 C 8.800 16.532,8.533 16.800,8.003 16.800 C 7.305 16.800,7.218 17.037,7.303 18.700 C 7.390 20.413,7.309 20.613,6.479 20.731 C 5.706 20.840,5.577 21.066,5.679 22.131 C 5.780 23.187,5.649 23.421,4.900 23.528 C 4.405 23.598,4.000 23.913,4.000 24.228 C 4.000 24.546,3.620 24.800,3.143 24.800 C 2.323 24.800,2.297 24.923,2.545 27.600 L 2.806 30.400 1.746 30.400 L 0.686 30.400 0.906 33.609 C 1.074 36.062,0.993 36.950,0.563 37.380 C 0.085 37.857,-0.000 45.169,-0.000 85.571 L 0.000 133.200 200.000 133.200 L 400.000 133.200 400.000 86.033 C 400.000 49.159,399.893 38.831,399.510 38.703 C 399.152 38.584,399.053 37.333,399.142 34.070 C 399.259 29.771,399.232 29.600,398.432 29.600 C 397.751 29.600,397.600 29.351,397.600 28.228 C 397.600 27.109,397.434 26.832,396.700 26.728 C 395.929 26.618,395.818 26.394,395.924 25.166 C 396.034 23.890,395.945 23.735,395.124 23.766 C 394.268 23.797,394.209 23.661,394.320 21.900 C 394.427 20.212,394.348 20.000,393.620 20.000 C 393.169 20.000,392.800 19.743,392.800 19.428 C 392.800 19.113,392.395 18.798,391.900 18.728 C 391.102 18.615,391.015 18.407,391.134 16.900 C 391.253 15.400,391.170 15.200,390.434 15.200 C 389.867 15.200,389.600 14.944,389.600 14.400 C 389.600 13.867,389.333 13.600,388.800 13.600 C 388.267 13.600,388.000 13.333,388.000 12.800 C 388.000 12.267,387.733 12.000,387.200 12.000 C 386.667 12.000,386.400 11.733,386.400 11.200 C 386.400 10.667,386.133 10.400,385.600 10.400 C 385.067 10.400,384.800 10.133,384.800 9.600 C 384.800 8.933,384.533 8.800,383.200 8.800 C 381.867 8.800,381.600 8.667,381.600 8.000 C 381.600 7.467,381.333 7.200,380.800 7.200 C 380.252 7.200,380.000 6.933,380.000 6.355 C 380.000 5.579,379.851 5.532,378.200 5.779 C 376.465 6.039,376.400 6.012,376.400 5.025 C 376.400 4.098,376.249 4.000,374.823 4.000 C 373.461 4.000,373.267 3.891,373.400 3.200 C 373.533 2.509,373.339 2.400,371.977 2.400 C 370.630 2.400,370.400 2.275,370.400 1.540 C 370.400 0.702,370.300 0.686,366.584 0.930 C 363.426 1.137,362.728 1.079,362.541 0.590 C 362.183 -0.342,38.067 -0.271,37.241 0.662 " stroke="none" fill="#040b04" fill-rule="evenodd"></path><path id="path2" d="M36.084 0.615 C 35.543 1.229,35.900 1.367,36.967 0.957 C 37.315 0.824,37.600 0.554,37.600 0.357 C 37.600 -0.196,36.658 -0.036,36.084 0.615 M362.497 0.500 C 362.588 0.775,363.278 1.028,364.031 1.062 C 364.788 1.096,364.998 1.039,364.500 0.934 C 364.005 0.830,363.600 0.577,363.600 0.372 C 363.600 0.167,363.315 0.000,362.967 0.000 C 362.618 0.000,362.407 0.225,362.497 0.500 M373.569 2.471 C 373.251 3.817,373.334 4.000,374.265 4.000 C 374.994 4.000,375.223 3.814,375.125 3.305 C 375.015 2.737,373.676 2.019,373.569 2.471 M21.600 4.757 C 21.600 5.544,22.602 6.169,23.236 5.778 C 24.062 5.267,23.608 4.000,22.600 4.000 C 21.886 4.000,21.600 4.216,21.600 4.757 M376.454 4.900 C 376.410 5.803,376.562 5.992,377.300 5.954 C 377.938 5.921,378.003 5.855,377.525 5.729 C 377.153 5.631,376.773 5.157,376.679 4.675 C 376.539 3.955,376.499 3.994,376.454 4.900 M381.600 7.971 C 381.600 8.543,381.857 8.800,382.429 8.800 C 383.002 8.800,383.217 8.585,383.125 8.105 C 382.924 7.062,381.600 6.946,381.600 7.971 M391.041 17.436 C 390.714 18.290,391.081 18.800,392.024 18.800 C 392.585 18.800,392.800 18.523,392.800 17.800 C 392.800 16.647,391.451 16.368,391.041 17.436 M4.000 22.600 C 4.000 23.323,4.215 23.600,4.776 23.600 C 5.719 23.600,6.086 23.090,5.759 22.236 C 5.349 21.168,4.000 21.447,4.000 22.600 M395.841 25.436 C 395.514 26.290,395.881 26.800,396.824 26.800 C 397.385 26.800,397.600 26.523,397.600 25.800 C 397.600 24.647,396.251 24.368,395.841 25.436 M0.800 35.733 C 0.800 36.100,0.620 36.400,0.400 36.400 C 0.180 36.400,0.000 36.670,0.000 37.000 C 0.000 37.330,0.177 37.600,0.392 37.600 C 0.856 37.600,1.408 35.675,1.048 35.315 C 0.912 35.178,0.800 35.367,0.800 35.733 M398.800 37.139 C 398.800 37.856,399.279 38.800,399.643 38.800 C 400.197 38.800,400.065 38.007,399.400 37.343 C 399.070 37.013,398.800 36.921,398.800 37.139 M0.000 199.800 L 0.000 266.400 200.000 266.400 L 400.000 266.400 400.000 199.800 L 400.000 133.200 200.000 133.200 L 0.000 133.200 0.000 199.800 " stroke="none" fill="#ec2424" fill-rule="evenodd"></path></g></svg>