<svg id="svg" version="1.1" xmlns="http://www.w3.org/2000/svg" xmlns:xlink="http://www.w3.org/1999/xlink" width="400" height="400" viewBox="0, 0, 400,400"><g id="svgg"><path id="path0" d="M86.400 25.966 C 85.096 27.486,78.998 33.863,58.829 54.800 C 56.603 57.110,53.752 60.084,52.491 61.408 C 43.355 71.011,34.648 80.093,32.749 82.002 C 29.220 85.547,29.599 86.393,38.366 94.556 C 41.136 97.135,47.236 103.471,47.924 104.484 C 48.267 104.988,51.467 108.370,55.035 112.000 C 58.604 115.630,62.756 119.930,64.262 121.556 C 65.768 123.182,70.060 127.592,73.800 131.356 C 77.540 135.120,80.870 138.629,81.200 139.154 C 81.530 139.678,82.026 140.308,82.303 140.554 C 82.579 140.799,84.199 142.430,85.903 144.178 C 87.606 145.927,89.810 148.186,90.800 149.199 C 91.790 150.212,94.670 153.253,97.200 155.955 C 99.730 158.658,103.883 163.011,106.430 165.628 C 108.976 168.245,111.878 171.290,112.880 172.393 C 113.881 173.497,114.992 174.400,115.349 174.400 C 116.443 174.400,119.162 177.177,119.601 178.743 C 119.837 179.584,120.961 181.214,122.260 182.600 C 127.249 187.921,137.904 199.077,139.500 200.651 C 141.710 202.832,141.657 203.256,138.800 206.231 C 137.480 207.606,136.400 209.030,136.400 209.395 C 136.400 209.760,135.432 211.081,134.250 212.330 C 133.067 213.578,131.977 214.999,131.827 215.487 C 131.464 216.667,118.304 229.851,117.124 230.218 C 116.173 230.513,114.266 232.409,102.604 244.661 C 98.866 248.587,93.983 253.690,91.753 256.000 C 89.523 258.310,86.902 261.055,85.930 262.100 C 84.957 263.145,83.986 264.000,83.771 264.000 C 83.557 264.000,83.044 264.627,82.632 265.393 C 82.219 266.160,79.793 268.786,77.241 271.229 C 74.688 273.671,72.420 275.861,72.200 276.095 C 71.980 276.329,70.990 277.348,70.000 278.360 C 69.010 279.372,67.535 281.010,66.723 282.000 C 65.911 282.990,61.816 287.307,57.623 291.594 C 53.430 295.880,50.000 299.518,50.000 299.678 C 50.000 299.913,43.131 306.871,40.599 309.200 C 39.016 310.657,31.070 319.085,30.532 319.878 C 29.732 321.059,29.586 320.865,37.600 329.228 C 41.450 333.245,45.050 337.011,45.600 337.598 C 47.319 339.430,60.480 353.191,63.000 355.791 C 66.324 359.220,80.815 374.334,84.390 378.100 C 88.017 381.921,87.726 381.937,91.709 377.701 C 93.519 375.777,95.810 373.374,96.800 372.361 C 97.790 371.348,102.290 366.697,106.800 362.024 C 111.310 357.352,116.620 351.854,118.600 349.807 C 120.580 347.760,123.360 344.851,124.777 343.343 C 128.594 339.281,135.334 332.252,143.000 324.340 C 146.740 320.479,152.860 314.101,156.600 310.166 C 160.340 306.230,165.573 300.758,168.228 298.005 C 177.687 288.198,178.421 287.381,179.198 285.791 C 180.081 283.982,199.911 264.000,200.823 264.000 C 201.665 264.000,222.704 285.258,222.863 286.270 C 222.938 286.748,225.146 289.358,227.770 292.070 C 234.185 298.701,240.047 304.804,248.200 313.342 C 251.940 317.259,256.710 322.219,258.800 324.364 C 262.309 327.967,274.163 340.360,279.800 346.320 C 281.120 347.716,284.225 350.929,286.700 353.461 C 289.175 355.993,291.200 358.108,291.200 358.161 C 291.200 358.214,293.289 360.405,295.842 363.029 C 303.617 371.020,308.893 376.503,311.123 378.909 C 313.830 381.831,313.755 381.844,317.683 377.703 C 319.507 375.780,323.250 371.867,326.000 369.008 C 328.750 366.149,331.540 363.242,332.200 362.548 C 332.860 361.855,336.675 357.893,340.677 353.744 C 344.680 349.595,349.000 345.100,350.277 343.756 C 351.555 342.412,355.390 338.377,358.800 334.789 C 362.210 331.202,365.990 327.269,367.200 326.051 C 372.595 320.617,372.586 321.160,367.382 315.769 C 365.063 313.366,360.968 309.090,358.282 306.266 C 355.597 303.442,352.635 300.353,351.700 299.401 C 350.765 298.450,350.000 297.475,350.000 297.236 C 350.000 296.996,349.822 296.800,349.604 296.800 C 349.195 296.800,337.139 284.669,333.729 280.826 C 332.668 279.631,328.937 275.851,325.439 272.426 C 321.940 269.002,318.560 265.480,317.927 264.600 C 317.294 263.720,314.934 261.110,312.683 258.800 C 303.800 249.684,298.000 243.508,298.000 243.162 C 298.000 242.963,297.730 242.800,297.400 242.800 C 297.070 242.800,296.800 242.646,296.800 242.458 C 296.800 242.270,294.505 239.787,291.700 236.941 C 288.895 234.094,285.798 230.783,284.818 229.582 C 282.274 226.465,281.707 225.965,280.269 225.568 C 278.822 225.168,272.154 218.743,271.440 217.061 C 271.198 216.490,268.345 213.329,265.100 210.037 C 260.764 205.638,259.200 203.793,259.200 203.080 C 259.200 201.874,267.115 193.675,269.448 192.464 C 270.301 192.021,272.295 190.250,273.878 188.529 C 275.462 186.808,278.311 183.780,280.210 181.800 C 282.110 179.820,284.323 177.390,285.128 176.400 C 285.934 175.410,287.854 173.305,289.396 171.723 C 291.933 169.120,299.750 160.959,308.800 151.466 C 310.670 149.504,314.000 146.034,316.200 143.754 C 318.400 141.474,321.361 138.255,322.780 136.602 C 324.198 134.948,326.431 132.651,327.740 131.497 C 330.972 128.651,331.358 128.264,334.800 124.414 C 336.450 122.568,339.870 118.952,342.400 116.378 C 347.824 110.859,355.460 102.915,358.000 100.149 C 358.990 99.071,360.555 97.471,361.478 96.595 C 363.152 95.004,368.414 89.531,370.500 87.210 C 371.986 85.557,371.906 85.122,369.700 82.873 C 368.102 81.243,357.614 70.237,352.800 65.137 C 350.056 62.231,339.337 51.075,335.600 47.237 C 333.510 45.091,328.740 40.127,325.000 36.206 C 313.077 23.708,313.868 24.310,312.036 26.357 C 311.017 27.496,299.442 39.540,292.000 47.205 C 289.910 49.358,285.401 54.063,281.979 57.660 C 270.680 69.539,269.699 70.567,265.808 74.600 C 246.174 94.950,246.557 94.551,236.600 105.040 C 233.080 108.748,229.225 112.686,228.032 113.791 C 225.153 116.460,222.096 119.529,215.642 126.234 C 206.510 135.722,201.067 141.200,200.773 141.200 C 200.618 141.200,196.736 137.292,192.146 132.517 C 187.555 127.741,179.749 119.776,174.798 114.817 C 169.846 109.857,163.816 103.714,161.398 101.165 C 152.796 92.100,141.544 80.366,133.000 71.550 C 130.360 68.826,125.230 63.478,121.600 59.665 C 117.970 55.852,113.290 50.973,111.200 48.823 C 108.028 45.560,101.812 39.092,90.350 27.131 C 88.407 25.103,87.396 24.805,86.400 25.966 M90.960 48.573 C 92.082 49.769,96.532 54.404,100.848 58.873 C 111.091 69.479,113.426 71.913,117.283 76.000 C 120.620 79.536,134.383 93.842,139.600 99.198 C 142.821 102.504,153.531 113.715,156.606 117.000 C 158.287 118.795,161.700 122.337,177.420 138.600 C 179.972 141.240,184.187 145.650,186.787 148.400 C 189.388 151.150,193.581 155.541,196.105 158.158 L 200.695 162.917 201.681 162.173 C 202.224 161.763,203.091 160.871,203.608 160.189 C 204.126 159.507,205.141 158.511,205.864 157.975 C 206.587 157.439,207.183 156.854,207.189 156.675 C 207.195 156.497,208.235 155.303,209.500 154.022 C 210.765 152.741,214.950 148.391,218.800 144.355 C 222.650 140.319,226.880 135.909,228.200 134.554 C 229.520 133.199,233.840 128.714,237.800 124.586 C 241.760 120.459,245.810 116.245,246.800 115.223 C 247.790 114.200,251.660 110.149,255.400 106.219 C 259.140 102.290,264.180 97.041,266.600 94.556 C 273.896 87.063,284.187 76.342,284.400 76.012 C 284.582 75.730,293.421 66.516,303.468 56.137 C 305.630 53.903,308.613 50.798,310.095 49.237 C 312.898 46.286,314.686 45.552,315.505 47.016 C 315.694 47.354,318.178 50.022,321.025 52.944 C 326.981 59.059,342.566 75.270,346.460 79.400 C 352.177 85.465,352.152 85.423,350.900 86.731 C 350.515 87.134,346.960 90.855,343.000 95.000 C 339.040 99.146,334.990 103.375,334.000 104.399 C 333.010 105.423,329.140 109.466,325.400 113.383 C 321.660 117.301,316.530 122.616,314.000 125.195 C 311.470 127.773,308.070 131.305,306.445 133.042 C 304.819 134.779,301.759 138.004,299.645 140.208 C 297.530 142.412,293.640 146.471,291.000 149.228 C 288.360 151.984,282.240 158.346,277.400 163.364 C 268.005 173.105,266.294 174.889,261.600 179.839 C 255.950 185.798,241.401 200.906,240.700 201.542 C 239.095 202.999,239.237 203.200,248.935 213.208 C 251.391 215.742,255.470 219.983,258.000 222.632 C 265.225 230.197,277.032 242.489,281.200 246.785 C 285.390 251.104,296.869 263.124,300.696 267.200 C 302.038 268.630,305.221 271.928,307.768 274.528 C 310.316 277.129,312.400 279.291,312.400 279.333 C 312.400 279.375,314.487 281.567,317.039 284.205 C 319.590 286.842,323.595 290.983,325.939 293.407 C 335.484 303.278,340.000 308.107,340.000 308.444 C 340.000 308.640,340.270 308.800,340.600 308.800 C 340.930 308.800,341.201 308.935,341.201 309.100 C 341.202 309.265,343.542 311.825,346.401 314.788 C 349.261 317.752,351.600 320.485,351.600 320.863 C 351.600 321.240,349.041 324.216,345.912 327.475 C 342.784 330.734,338.689 335.000,336.812 336.955 C 334.936 338.910,331.420 342.552,329.000 345.049 C 326.580 347.546,322.370 351.932,319.645 354.795 C 313.673 361.067,314.110 361.004,309.464 356.252 C 305.073 351.760,289.315 335.394,285.392 331.251 C 283.856 329.630,281.295 326.962,279.700 325.324 C 278.105 323.685,276.800 322.177,276.800 321.972 C 276.800 321.767,276.530 321.600,276.200 321.600 C 275.870 321.600,275.600 321.458,275.600 321.284 C 275.600 321.110,273.215 318.525,270.300 315.539 C 265.069 310.180,254.029 298.656,249.283 293.600 C 247.941 292.170,244.763 288.870,242.221 286.268 C 239.680 283.665,237.600 281.497,237.600 281.452 C 237.600 281.406,235.575 279.289,233.100 276.749 C 228.287 271.807,212.828 255.727,208.200 250.847 C 200.022 242.225,201.413 242.396,195.013 249.225 C 192.177 252.251,176.570 268.546,172.200 273.045 C 168.376 276.980,155.514 290.369,154.234 291.746 C 152.874 293.210,137.982 308.700,133.600 313.210 C 131.950 314.908,127.540 319.513,123.800 323.443 C 113.741 334.014,109.546 338.382,95.892 352.500 C 87.300 361.385,88.055 361.146,83.589 356.394 C 81.725 354.411,78.130 350.663,75.600 348.066 C 70.638 342.973,59.551 331.430,53.907 325.482 C 49.308 320.635,49.350 320.964,52.867 317.334 C 59.963 310.010,63.724 306.087,68.400 301.136 C 71.150 298.224,74.629 294.572,76.130 293.021 C 77.632 291.469,82.222 286.710,86.330 282.444 C 90.439 278.178,95.558 272.868,97.707 270.644 C 99.856 268.420,102.556 265.610,103.708 264.400 C 110.261 257.514,119.999 247.359,124.000 243.238 C 126.530 240.633,131.660 235.286,135.400 231.356 C 139.140 227.426,144.365 221.958,147.012 219.205 C 149.659 216.452,153.439 212.510,155.412 210.445 C 157.385 208.380,159.675 206.009,160.500 205.176 C 162.564 203.094,162.562 203.089,157.500 197.926 C 155.025 195.401,149.940 190.128,146.200 186.207 C 142.460 182.286,138.320 177.953,137.000 176.577 C 135.680 175.202,131.630 170.979,128.000 167.192 C 124.370 163.406,120.320 159.182,119.000 157.806 C 117.680 156.429,114.440 153.072,111.800 150.346 C 109.160 147.620,104.030 142.276,100.400 138.471 C 96.770 134.665,92.090 129.785,90.000 127.626 C 81.935 119.295,76.752 113.906,70.200 107.039 C 61.408 97.825,59.489 95.822,54.300 90.436 C 51.935 87.981,50.000 85.754,50.000 85.486 C 50.000 84.852,52.425 82.235,66.976 67.158 C 70.289 63.725,76.150 57.652,80.000 53.662 C 88.113 45.254,87.925 45.341,90.960 48.573 " stroke="none" fill="#0a0a09" fill-rule="evenodd"></path><path id="path1" d="M36.600 97.101 C 35.720 98.530,34.810 99.901,34.577 100.149 C 34.140 100.615,29.200 108.001,29.200 108.189 C 29.200 108.395,25.489 113.825,24.408 115.200 C 23.802 115.970,23.181 117.005,23.026 117.500 C 22.872 117.995,22.591 118.400,22.402 118.400 C 22.213 118.400,21.472 119.435,20.756 120.700 C 20.039 121.965,19.345 123.090,19.213 123.200 C 18.559 123.744,16.017 127.993,15.780 128.938 C 15.341 130.686,16.848 132.320,22.035 135.724 L 26.789 138.843 28.179 138.183 C 29.045 137.772,29.976 136.822,30.650 135.662 C 31.244 134.638,32.072 133.350,32.489 132.800 C 32.907 132.250,34.554 129.820,36.150 127.400 C 37.747 124.980,39.539 122.280,40.134 121.400 C 40.728 120.520,41.388 119.530,41.599 119.200 C 42.437 117.891,47.104 110.872,47.829 109.831 C 48.253 109.222,48.914 108.382,49.299 107.963 C 50.248 106.930,45.360 100.806,39.400 95.561 L 38.200 94.505 36.600 97.101 M359.495 98.700 C 351.989 106.298,349.962 108.598,350.647 108.741 C 351.311 108.880,353.020 110.679,353.800 112.060 C 354.020 112.450,355.380 114.531,356.822 116.684 C 360.404 122.035,361.573 123.785,363.154 126.163 C 363.899 127.283,364.638 128.290,364.795 128.400 C 364.953 128.510,365.387 129.251,365.761 130.046 C 366.134 130.841,366.772 131.848,367.177 132.284 C 367.583 132.719,368.198 133.622,368.543 134.290 C 370.893 138.835,372.253 139.250,376.689 136.776 C 382.990 133.262,385.888 129.648,383.954 127.714 C 383.431 127.191,382.659 125.900,381.831 124.160 C 381.506 123.478,380.286 121.634,379.120 120.062 C 374.969 114.465,374.395 113.618,372.930 110.925 C 372.115 109.426,370.673 107.281,369.724 106.157 C 368.776 105.033,368.000 103.990,368.000 103.838 C 368.000 103.686,366.920 101.988,365.600 100.063 C 364.280 98.139,363.200 96.348,363.200 96.083 C 363.200 95.154,362.534 95.624,359.495 98.700 M53.333 111.315 C 53.333 111.980,51.339 115.387,50.582 116.015 C 50.262 116.281,50.000 116.641,50.000 116.815 C 50.000 117.208,46.115 123.144,44.209 125.663 C 43.434 126.688,42.800 127.701,42.800 127.914 C 42.800 128.127,42.531 128.525,42.203 128.798 C 41.874 129.071,41.031 130.308,40.329 131.547 C 39.627 132.786,38.941 133.890,38.805 134.000 C 38.669 134.110,38.123 134.920,37.592 135.800 C 37.060 136.680,36.035 138.179,35.313 139.131 C 33.141 141.994,33.693 143.806,37.400 145.988 C 38.280 146.506,39.360 147.243,39.800 147.626 C 42.048 149.582,46.800 151.465,46.800 150.400 C 46.800 150.180,47.025 150.000,47.300 150.000 C 47.575 149.999,48.324 149.054,48.965 147.900 C 49.606 146.745,50.794 144.990,51.606 144.000 C 52.418 143.010,53.569 141.319,54.165 140.242 C 54.761 139.166,56.048 137.141,57.024 135.744 C 58.001 134.347,58.800 133.093,58.800 132.957 C 58.800 132.822,59.492 131.876,60.337 130.856 C 61.183 129.835,62.372 128.142,62.979 127.093 C 64.115 125.132,65.475 123.875,66.065 124.240 C 67.468 125.107,65.486 122.765,60.155 117.255 C 53.979 110.872,53.333 110.310,53.333 111.315 M342.349 116.412 C 336.241 122.511,333.738 125.583,335.391 124.948 C 335.778 124.800,336.150 125.114,336.471 125.861 C 336.741 126.487,337.626 127.990,338.440 129.200 C 340.281 131.940,341.957 134.504,343.000 136.175 C 343.440 136.880,344.215 137.984,344.721 138.628 C 345.228 139.273,346.905 141.753,348.447 144.140 C 351.519 148.892,353.511 151.146,354.415 150.892 C 355.793 150.506,357.685 149.489,359.284 148.276 C 360.228 147.560,361.720 146.546,362.600 146.023 C 366.979 143.417,367.023 140.689,362.768 135.731 C 361.595 134.364,358.422 129.703,356.800 126.963 C 356.250 126.034,355.527 124.942,355.194 124.537 C 354.012 123.101,352.800 121.227,352.800 120.836 C 352.800 120.618,352.565 120.296,352.278 120.120 C 351.991 119.944,351.326 119.080,350.799 118.200 C 350.273 117.320,349.072 115.643,348.130 114.474 L 346.418 112.349 342.349 116.412 M69.200 128.701 C 67.499 130.603,65.009 134.023,64.065 135.754 C 63.479 136.828,62.765 138.133,62.478 138.654 C 62.191 139.174,61.805 139.600,61.620 139.600 C 61.435 139.600,60.792 140.540,60.192 141.689 C 59.591 142.837,58.323 144.730,57.374 145.896 C 55.330 148.405,52.394 153.585,52.413 154.649 C 52.434 155.839,53.514 156.898,56.843 158.995 C 57.196 159.218,58.276 159.936,59.243 160.590 C 64.131 163.901,65.741 163.821,67.878 160.165 C 68.661 158.825,70.054 156.651,72.341 153.198 C 74.377 150.124,74.713 149.577,75.477 148.100 C 75.846 147.385,76.281 146.800,76.443 146.800 C 76.605 146.800,77.691 145.356,78.856 143.590 C 80.136 141.649,81.176 140.459,81.486 140.578 C 83.110 141.201,81.607 139.300,75.600 133.133 C 70.364 127.757,70.167 127.620,69.200 128.701 M329.754 129.663 C 328.032 130.952,321.656 137.585,320.527 139.263 L 319.543 140.726 320.571 142.355 C 321.137 143.251,321.600 144.168,321.600 144.392 C 321.600 144.616,321.767 144.800,321.970 144.800 C 322.174 144.800,322.759 145.517,323.270 146.393 C 323.782 147.269,325.259 149.564,326.554 151.493 C 327.848 153.422,330.008 156.661,331.354 158.692 C 334.862 163.987,336.590 164.329,341.000 160.604 C 342.100 159.674,343.379 158.795,343.842 158.649 C 346.118 157.931,348.493 154.424,347.485 153.271 C 347.162 152.902,346.160 151.286,345.258 149.681 C 344.357 148.075,343.390 146.530,343.109 146.247 C 342.048 145.174,339.200 140.924,339.200 140.413 C 339.200 140.219,338.582 139.251,337.826 138.262 C 337.071 137.272,336.181 135.938,335.850 135.297 C 335.519 134.656,334.427 133.124,333.424 131.893 C 332.421 130.661,331.600 129.462,331.600 129.227 C 331.600 128.576,331.026 128.712,329.754 129.663 M61.268 238.318 C 60.096 238.924,58.746 239.795,58.268 240.253 C 57.791 240.711,57.009 241.209,56.530 241.360 C 55.334 241.738,52.400 244.651,52.400 245.461 C 52.400 246.580,55.779 252.308,58.500 255.800 C 59.363 256.909,60.800 259.279,60.800 259.595 C 60.800 259.793,61.115 260.193,61.500 260.483 C 62.294 261.083,62.749 261.763,64.250 264.593 C 64.832 265.690,66.049 267.511,66.954 268.640 C 68.376 270.414,69.685 272.350,71.438 275.273 C 72.031 276.262,73.740 274.999,78.645 269.951 C 83.187 265.276,83.828 264.169,82.761 262.851 C 82.342 262.334,82.000 261.683,82.000 261.405 C 82.000 261.126,81.739 260.681,81.420 260.416 C 81.101 260.152,80.287 258.956,79.612 257.760 C 78.937 256.563,78.019 255.183,77.574 254.692 C 75.969 252.926,75.715 252.566,74.406 250.200 C 73.676 248.880,72.773 247.440,72.400 247.000 C 72.027 246.560,71.144 245.171,70.439 243.914 C 68.838 241.059,65.236 237.197,64.185 237.209 C 63.753 237.213,62.441 237.713,61.268 238.318 M334.025 238.437 C 332.773 239.689,330.400 242.934,330.400 243.395 C 330.400 243.532,329.545 244.706,328.500 246.003 C 327.455 247.300,326.158 249.225,325.618 250.281 C 325.078 251.336,323.988 253.010,323.196 254.000 C 321.652 255.930,318.852 259.992,318.205 261.239 C 317.988 261.657,317.481 262.000,317.080 262.000 C 315.691 262.000,317.884 264.925,323.269 270.253 C 329.105 276.028,328.728 275.953,330.952 271.775 C 331.524 270.701,332.505 269.277,333.133 268.611 C 333.761 267.945,335.037 266.050,335.968 264.400 C 336.900 262.750,337.979 261.040,338.367 260.600 C 338.754 260.160,339.502 259.080,340.028 258.200 C 340.555 257.320,341.861 255.444,342.929 254.031 C 343.998 252.618,345.033 251.088,345.229 250.631 C 345.426 250.174,346.038 249.080,346.590 248.200 C 347.143 247.320,347.706 246.371,347.843 246.092 C 348.214 245.334,346.453 243.010,344.858 242.152 C 344.089 241.738,342.841 240.908,342.084 240.307 C 338.351 237.342,335.728 236.733,334.025 238.437 M43.800 249.961 C 42.044 250.931,40.308 252.096,39.425 252.897 C 38.998 253.284,38.413 253.600,38.125 253.600 C 37.836 253.600,37.600 253.768,37.600 253.973 C 37.600 254.178,37.234 254.462,36.788 254.604 C 34.226 255.417,33.363 258.194,34.974 260.441 C 35.510 261.188,36.502 262.724,37.177 263.853 C 37.852 264.982,38.674 266.129,39.003 266.402 C 39.331 266.675,39.601 267.101,39.602 267.349 C 39.603 267.597,40.323 268.749,41.202 269.908 C 42.081 271.068,42.800 272.111,42.800 272.227 C 42.800 272.462,47.664 279.684,48.035 280.000 C 48.164 280.110,48.787 281.100,49.420 282.200 C 50.053 283.300,50.706 284.258,50.872 284.329 C 51.039 284.400,51.758 285.480,52.470 286.729 C 53.183 287.978,54.359 289.561,55.083 290.247 C 55.807 290.933,56.400 291.698,56.400 291.947 C 56.400 292.748,56.711 292.480,61.617 287.448 C 67.521 281.391,68.685 279.910,67.787 279.596 C 67.439 279.474,66.760 278.708,66.277 277.895 C 64.489 274.883,59.928 268.400,59.597 268.400 C 59.408 268.400,59.127 267.995,58.972 267.500 C 58.712 266.671,58.251 265.963,56.562 263.800 C 56.219 263.360,55.068 261.560,54.005 259.800 C 52.942 258.040,51.514 255.675,50.832 254.544 C 48.050 249.933,46.124 248.677,43.800 249.961 M352.738 250.102 C 351.616 251.051,348.800 254.944,348.800 255.547 C 348.800 255.742,348.536 256.121,348.213 256.389 C 347.890 256.657,346.781 258.344,345.749 260.138 C 344.717 261.932,343.271 264.191,342.536 265.158 C 341.801 266.124,341.200 267.085,341.200 267.294 C 341.200 267.502,340.413 268.601,339.451 269.736 C 338.490 270.871,337.390 272.413,337.009 273.162 C 336.627 273.912,335.959 274.902,335.524 275.362 C 335.088 275.823,334.468 276.704,334.145 277.321 C 333.822 277.937,333.199 278.574,332.760 278.737 C 332.028 279.007,332.117 279.198,333.814 281.016 C 339.409 287.009,344.994 292.405,345.114 291.934 C 345.477 290.518,347.726 286.376,349.098 284.600 C 349.624 283.918,351.124 281.623,353.000 278.628 C 353.660 277.574,354.713 276.057,355.339 275.256 C 355.965 274.455,356.757 273.260,357.099 272.600 C 357.441 271.940,358.278 270.640,358.960 269.712 C 359.642 268.784,360.734 267.164,361.386 266.112 C 362.038 265.060,363.343 263.145,364.286 261.856 C 367.303 257.730,366.925 256.783,360.600 252.642 C 354.954 248.945,354.341 248.747,352.738 250.102 M24.699 262.727 C 23.653 263.317,22.483 264.073,22.099 264.406 C 21.715 264.740,20.503 265.537,19.406 266.179 C 15.028 268.738,14.816 272.005,18.753 276.264 C 19.128 276.669,20.013 278.014,20.720 279.253 C 21.427 280.492,22.274 281.729,22.603 282.002 C 22.931 282.275,23.200 282.682,23.200 282.908 C 23.200 283.133,23.830 284.086,24.600 285.026 C 25.370 285.966,26.000 286.856,26.000 287.004 C 26.000 287.152,26.702 288.291,27.559 289.536 C 28.416 290.781,29.631 292.589,30.259 293.553 C 34.265 299.709,36.423 302.889,37.216 303.800 C 37.599 304.240,38.458 305.634,39.124 306.897 L 40.336 309.193 42.268 307.658 C 44.260 306.074,49.681 300.344,49.954 299.533 C 50.039 299.282,50.804 298.436,51.654 297.654 C 53.076 296.347,53.777 295.196,52.775 295.816 C 52.006 296.291,49.690 293.454,46.254 287.828 C 45.844 287.156,45.124 286.135,44.654 285.558 C 43.772 284.476,41.817 281.434,40.846 279.629 C 40.541 279.063,39.686 277.850,38.946 276.933 C 38.205 276.016,37.600 275.103,37.600 274.905 C 37.600 274.706,37.015 273.837,36.300 272.972 C 35.585 272.107,34.661 270.733,34.247 269.919 C 33.833 269.104,33.193 268.114,32.826 267.719 C 32.458 267.323,31.645 266.088,31.018 264.973 C 29.121 261.596,27.637 261.068,24.699 262.727 M370.616 263.011 C 369.840 263.786,368.835 265.091,368.382 265.911 C 367.436 267.620,366.678 268.785,358.920 280.456 C 355.796 285.155,352.941 289.335,352.575 289.745 C 349.890 292.753,348.812 297.400,350.800 297.400 C 351.130 297.400,351.400 297.668,351.400 297.996 C 351.400 298.324,351.850 298.684,352.400 298.796 C 352.950 298.908,354.120 299.465,355.000 300.033 C 361.220 304.048,362.705 304.346,364.291 301.900 C 364.897 300.965,365.545 300.089,365.732 299.954 C 366.088 299.697,366.824 298.495,367.664 296.800 C 367.937 296.250,368.908 294.900,369.823 293.800 C 370.737 292.700,371.875 291.034,372.352 290.098 C 373.404 288.032,378.145 280.985,379.416 279.600 C 379.920 279.050,380.763 277.790,381.290 276.800 C 381.816 275.810,382.731 274.239,383.323 273.308 C 385.390 270.061,384.689 268.707,379.000 264.954 C 373.126 261.080,372.656 260.971,370.616 263.011 " stroke="none" fill="#000000" fill-rule="evenodd"></path><path id="path2" d="M18.800 0.400 C 18.800 0.620,17.810 0.800,16.600 0.800 C 14.667 0.800,14.400 0.897,14.400 1.600 C 14.400 2.267,14.133 2.400,12.800 2.400 C 11.699 2.400,11.200 2.574,11.200 2.957 C 11.200 3.264,10.930 3.618,10.600 3.745 C 10.270 3.871,10.000 4.251,10.000 4.587 C 10.000 4.933,9.652 5.200,9.200 5.200 C 8.667 5.200,8.400 5.467,8.400 6.000 C 8.400 6.533,8.133 6.800,7.600 6.800 C 7.067 6.800,6.800 7.067,6.800 7.600 C 6.800 8.133,6.533 8.400,6.000 8.400 C 5.467 8.400,5.200 8.667,5.200 9.200 C 5.200 9.652,4.933 10.000,4.587 10.000 C 4.251 10.000,3.871 10.270,3.745 10.600 C 3.618 10.930,3.264 11.200,2.957 11.200 C 2.574 11.200,2.400 11.699,2.400 12.800 C 2.400 14.133,2.267 14.400,1.600 14.400 C 0.897 14.400,0.800 14.667,0.800 16.600 C 0.800 17.810,0.620 18.800,0.400 18.800 C 0.134 18.800,0.000 79.667,0.000 200.600 C 0.000 321.533,0.134 382.400,0.400 382.400 C 0.620 382.400,0.800 383.120,0.800 384.000 C 0.800 385.333,0.933 385.600,1.600 385.600 C 2.267 385.600,2.400 385.867,2.400 387.200 C 2.400 388.301,2.574 388.800,2.957 388.800 C 3.264 388.800,3.618 389.070,3.745 389.400 C 3.871 389.730,4.251 390.000,4.587 390.000 C 5.035 390.000,5.200 390.430,5.200 391.600 C 5.200 392.933,5.333 393.200,6.000 393.200 C 6.533 393.200,6.800 393.467,6.800 394.000 C 6.800 394.667,7.067 394.800,8.400 394.800 C 9.733 394.800,10.000 394.933,10.000 395.600 C 10.000 396.044,10.267 396.400,10.600 396.400 C 10.930 396.400,11.200 396.670,11.200 397.000 C 11.200 397.433,11.644 397.600,12.800 397.600 C 14.133 397.600,14.400 397.733,14.400 398.400 C 14.400 399.067,14.667 399.200,16.000 399.200 C 16.880 399.200,17.600 399.380,17.600 399.600 C 17.600 399.866,78.467 400.000,199.400 400.000 C 320.333 400.000,381.200 399.866,381.200 399.600 C 381.200 399.380,382.190 399.200,383.400 399.200 C 385.333 399.200,385.600 399.103,385.600 398.400 C 385.600 397.733,385.867 397.600,387.200 397.600 C 388.356 397.600,388.800 397.433,388.800 397.000 C 388.800 396.670,389.070 396.400,389.400 396.400 C 389.733 396.400,390.000 396.044,390.000 395.600 C 390.000 395.067,390.267 394.800,390.800 394.800 C 391.333 394.800,391.600 394.533,391.600 394.000 C 391.600 393.467,391.867 393.200,392.400 393.200 C 392.933 393.200,393.200 392.933,393.200 392.400 C 393.200 391.867,393.467 391.600,394.000 391.600 C 394.533 391.600,394.800 391.333,394.800 390.800 C 394.800 390.267,395.067 390.000,395.600 390.000 C 396.044 390.000,396.400 389.733,396.400 389.400 C 396.400 389.070,396.670 388.800,397.000 388.800 C 397.433 388.800,397.600 388.356,397.600 387.200 C 397.600 385.867,397.733 385.600,398.400 385.600 C 399.103 385.600,399.200 385.333,399.200 383.400 C 399.200 382.190,399.380 381.200,399.600 381.200 C 399.866 381.200,400.000 320.533,400.000 200.000 C 400.000 79.467,399.866 18.800,399.600 18.800 C 399.380 18.800,399.200 17.810,399.200 16.600 C 399.200 14.667,399.103 14.400,398.400 14.400 C 397.733 14.400,397.600 14.133,397.600 12.800 C 397.600 11.644,397.433 11.200,397.000 11.200 C 396.670 11.200,396.400 10.930,396.400 10.600 C 396.400 10.267,396.044 10.000,395.600 10.000 C 395.067 10.000,394.800 9.733,394.800 9.200 C 394.800 8.667,394.533 8.400,394.000 8.400 C 393.467 8.400,393.200 8.133,393.200 7.600 C 393.200 7.067,392.933 6.800,392.400 6.800 C 391.867 6.800,391.600 6.533,391.600 6.000 C 391.600 5.467,391.333 5.200,390.800 5.200 C 390.348 5.200,390.000 4.933,390.000 4.587 C 390.000 4.251,389.730 3.871,389.400 3.745 C 389.070 3.618,388.800 3.264,388.800 2.957 C 388.800 2.574,388.301 2.400,387.200 2.400 C 385.867 2.400,385.600 2.267,385.600 1.600 C 385.600 0.897,385.333 0.800,383.400 0.800 C 382.190 0.800,381.200 0.620,381.200 0.400 C 381.200 0.134,320.533 0.000,200.000 0.000 C 79.467 0.000,18.800 0.134,18.800 0.400 M89.267 24.762 C 89.340 24.962,92.190 28.055,95.600 31.636 C 99.010 35.217,102.250 38.626,102.800 39.210 C 103.350 39.795,108.054 44.667,113.253 50.037 C 118.452 55.407,123.465 60.610,124.392 61.600 C 125.320 62.590,127.816 65.212,129.939 67.426 C 132.063 69.641,137.130 74.932,141.200 79.185 C 145.270 83.438,150.102 88.467,151.939 90.359 C 153.775 92.252,158.542 97.220,162.532 101.400 C 176.556 116.092,174.928 115.005,180.600 113.468 C 191.731 110.453,209.047 110.608,221.091 113.832 C 226.077 115.167,227.378 114.477,233.606 107.200 C 234.077 106.650,236.293 104.300,238.531 101.978 C 240.769 99.655,246.650 93.552,251.600 88.415 C 256.550 83.278,261.590 78.053,262.800 76.803 C 264.010 75.553,266.598 72.836,268.550 70.765 C 272.015 67.091,285.407 53.136,290.200 48.206 C 293.529 44.782,307.725 29.938,310.576 26.900 C 314.153 23.088,312.351 21.892,328.200 38.597 C 331.280 41.844,335.510 46.266,337.600 48.424 C 341.379 52.327,354.345 65.790,357.400 68.983 C 366.144 78.123,371.285 83.588,372.013 84.520 L 372.889 85.639 370.514 88.120 C 362.528 96.458,362.744 95.752,366.679 100.641 C 367.406 101.544,368.000 102.472,368.000 102.705 C 368.000 102.937,368.817 104.130,369.816 105.357 C 370.815 106.583,372.372 108.894,373.276 110.493 C 374.179 112.092,375.432 114.026,376.059 114.791 C 376.687 115.556,377.200 116.387,377.200 116.637 C 377.200 116.887,377.749 117.701,378.419 118.446 C 379.940 120.135,382.000 123.032,382.000 123.481 C 382.000 123.667,382.630 124.775,383.400 125.944 C 386.250 130.272,384.773 132.891,377.050 137.198 C 372.174 139.917,370.226 139.334,368.163 134.537 C 367.864 133.842,367.448 133.212,367.238 133.137 C 367.029 133.061,366.259 131.986,365.528 130.747 C 364.798 129.507,363.300 127.200,362.200 125.619 C 359.767 122.123,358.572 120.328,357.000 117.811 C 356.340 116.754,355.420 115.419,354.956 114.845 C 354.492 114.270,353.818 113.225,353.457 112.522 C 353.097 111.818,352.359 110.766,351.818 110.182 L 350.835 109.121 349.617 109.988 C 348.444 110.823,347.600 111.959,347.600 112.702 C 347.600 112.897,348.246 113.811,349.037 114.734 C 349.827 115.658,350.862 117.100,351.337 117.939 C 352.145 119.368,353.043 120.663,355.965 124.611 C 356.620 125.497,357.291 126.577,357.455 127.011 C 357.619 127.445,358.438 128.671,359.276 129.736 C 360.114 130.801,360.800 131.861,360.800 132.093 C 360.800 132.324,361.575 133.433,362.522 134.557 C 367.697 140.698,367.884 143.620,363.271 146.279 C 362.242 146.872,360.609 147.952,359.642 148.679 C 358.676 149.406,357.714 150.000,357.506 150.000 C 357.297 150.000,356.669 150.360,356.109 150.800 C 354.146 152.344,350.981 150.046,348.354 145.171 C 347.371 143.345,345.430 140.351,344.261 138.856 C 343.635 138.055,342.850 136.877,342.519 136.238 C 342.187 135.598,341.598 134.735,341.210 134.319 C 340.823 133.903,340.167 132.896,339.753 132.081 C 339.339 131.267,338.807 130.420,338.572 130.200 C 338.117 129.775,336.892 127.929,336.183 126.600 C 335.637 125.577,334.524 125.761,333.100 127.108 C 331.640 128.490,331.713 129.344,333.440 131.120 C 334.232 131.934,335.341 133.410,335.905 134.400 C 336.469 135.390,337.334 136.650,337.827 137.200 C 338.642 138.111,339.185 139.042,340.971 142.600 C 341.302 143.260,342.215 144.520,342.999 145.400 C 343.783 146.280,345.137 148.293,346.008 149.874 C 346.879 151.455,347.774 152.860,347.996 152.998 C 349.500 153.927,347.293 157.387,344.103 159.102 C 343.389 159.486,341.807 160.592,340.588 161.560 C 337.520 163.995,335.196 164.259,333.300 162.388 C 332.585 161.682,332.000 160.889,332.000 160.625 C 332.000 160.360,331.471 159.552,330.824 158.827 C 330.178 158.103,329.341 156.856,328.965 156.055 C 328.589 155.255,328.152 154.510,327.994 154.400 C 327.728 154.215,327.021 153.187,323.200 147.428 C 320.589 143.492,320.251 143.001,319.695 142.336 C 319.115 141.641,319.488 141.299,309.800 151.406 C 306.244 155.117,292.542 169.363,289.690 172.315 C 285.901 176.236,285.671 176.793,286.537 179.918 C 289.789 191.643,289.620 207.621,286.096 221.668 C 284.250 229.027,283.617 227.703,294.234 238.680 C 306.711 251.581,310.713 255.734,313.600 258.779 C 316.732 262.082,317.768 261.865,320.010 257.435 C 320.335 256.793,321.334 255.443,322.231 254.435 C 323.127 253.426,324.385 251.554,325.026 250.276 C 325.667 248.997,327.021 246.926,328.035 245.673 C 329.049 244.420,330.169 242.833,330.525 242.146 C 331.331 240.587,335.123 236.400,335.729 236.400 C 336.546 236.400,342.082 239.348,342.291 239.894 C 342.405 240.189,343.085 240.676,343.804 240.976 C 347.135 242.367,349.358 245.682,347.923 247.117 C 347.661 247.379,346.716 248.937,345.823 250.578 C 344.931 252.220,343.570 254.247,342.800 255.082 C 342.030 255.917,341.061 257.267,340.647 258.081 C 340.233 258.896,339.579 259.901,339.194 260.314 C 338.810 260.727,337.755 262.413,336.850 264.061 C 335.946 265.709,334.487 267.855,333.608 268.829 C 332.730 269.803,332.009 270.799,332.006 271.042 C 332.003 271.286,331.360 272.323,330.578 273.347 C 329.418 274.867,329.271 275.252,329.778 275.447 C 330.120 275.578,330.400 275.902,330.400 276.168 C 330.400 276.784,332.912 278.661,333.079 278.169 C 333.148 277.966,333.518 277.333,333.902 276.762 C 334.286 276.191,335.306 274.661,336.169 273.362 C 337.031 272.063,338.516 270.038,339.469 268.863 C 340.421 267.688,341.200 266.544,341.200 266.321 C 341.200 266.098,341.712 265.259,342.338 264.458 C 342.963 263.656,344.248 261.650,345.192 260.000 C 346.136 258.350,347.220 256.640,347.600 256.200 C 347.981 255.760,348.768 254.571,349.349 253.559 C 350.778 251.072,353.514 248.401,354.348 248.679 C 356.223 249.304,358.779 250.669,360.200 251.804 C 361.080 252.507,362.412 253.397,363.161 253.783 C 364.905 254.681,366.800 256.753,366.800 257.763 C 366.800 258.847,365.218 262.018,364.549 262.275 C 364.247 262.391,363.988 262.691,363.973 262.943 C 363.959 263.194,363.330 264.210,362.575 265.200 C 361.821 266.190,361.012 267.444,360.778 267.987 C 360.545 268.530,359.734 269.730,358.977 270.654 C 358.220 271.579,357.600 272.516,357.600 272.737 C 357.600 272.958,356.999 273.926,356.264 274.889 C 355.529 275.852,354.432 277.486,353.826 278.520 C 353.220 279.554,352.583 280.400,352.410 280.400 C 352.237 280.400,351.594 281.390,350.982 282.600 C 350.370 283.810,349.709 284.800,349.514 284.800 C 349.319 284.800,348.892 285.385,348.566 286.100 C 348.240 286.815,347.447 288.371,346.804 289.559 C 345.568 291.840,345.609 292.360,347.133 293.740 C 348.314 294.808,349.215 294.428,350.282 292.411 C 350.802 291.427,351.551 290.257,351.947 289.811 C 352.343 289.365,353.149 288.190,353.737 287.200 C 354.326 286.210,355.145 284.950,355.558 284.400 C 356.481 283.168,363.776 272.175,365.344 269.652 C 365.973 268.640,366.918 267.300,367.444 266.675 C 367.970 266.050,368.400 265.304,368.400 265.018 C 368.400 264.045,371.540 261.200,372.613 261.200 C 373.804 261.200,376.996 262.746,378.643 264.122 C 379.279 264.653,380.412 265.401,381.161 265.785 C 384.073 267.279,386.118 271.538,384.425 272.584 C 384.078 272.799,383.701 273.445,382.086 276.600 C 381.748 277.260,380.626 278.880,379.593 280.200 C 378.560 281.520,377.487 283.050,377.209 283.600 C 376.930 284.150,376.293 285.050,375.792 285.600 C 375.291 286.150,374.188 287.920,373.341 289.534 C 372.493 291.148,371.080 293.281,370.200 294.274 C 369.320 295.267,368.330 296.590,368.000 297.214 C 366.579 299.900,363.558 303.959,362.801 304.200 C 362.007 304.452,358.936 303.268,357.600 302.195 C 356.692 301.465,355.200 301.193,355.200 301.757 C 355.200 302.023,356.865 303.952,358.900 306.045 C 360.935 308.138,364.887 312.243,367.682 315.167 L 372.764 320.482 372.088 321.541 C 371.716 322.124,370.779 323.252,370.006 324.048 C 367.040 327.103,360.734 333.683,354.200 340.541 C 350.460 344.466,345.600 349.526,343.400 351.785 C 341.200 354.045,336.430 359.022,332.800 362.847 C 329.170 366.671,324.022 372.050,321.361 374.800 C 318.699 377.550,316.068 380.295,315.515 380.900 C 314.085 382.463,313.352 382.288,311.040 379.831 C 306.059 374.537,298.335 366.415,295.400 363.386 C 287.387 355.115,276.053 343.376,274.600 341.842 C 271.504 338.574,259.264 325.770,256.746 323.167 C 251.598 317.844,236.860 302.496,233.580 299.041 C 223.419 288.342,222.170 287.189,220.953 287.380 C 220.319 287.480,218.670 287.658,217.290 287.776 C 215.909 287.893,214.253 288.262,213.610 288.595 C 211.835 289.513,188.783 289.486,186.574 288.564 C 185.737 288.213,183.734 287.827,182.125 287.706 L 179.198 287.484 176.499 290.253 C 175.015 291.775,172.368 294.546,170.617 296.410 C 167.594 299.630,154.746 313.007,146.279 321.751 C 144.123 323.978,141.063 327.159,139.479 328.821 C 137.896 330.482,133.540 335.053,129.800 338.978 C 126.060 342.903,121.920 347.223,120.600 348.577 C 119.280 349.932,114.150 355.258,109.200 360.413 C 104.250 365.568,98.467 371.589,96.349 373.793 C 94.232 375.997,91.640 378.745,90.590 379.900 C 87.724 383.053,89.262 384.239,70.000 364.017 C 66.370 360.206,61.986 355.628,60.257 353.844 C 58.528 352.060,53.758 347.091,49.657 342.802 C 41.077 333.829,35.014 327.507,32.322 324.725 C 31.289 323.658,30.085 322.281,29.648 321.667 L 28.852 320.550 34.026 315.188 C 39.767 309.240,39.895 308.955,38.069 306.171 C 37.481 305.275,36.460 303.691,35.800 302.651 C 35.140 301.612,34.019 300.095,33.309 299.281 C 32.599 298.466,32.014 297.564,32.009 297.277 C 32.004 296.989,31.475 296.089,30.833 295.277 C 30.190 294.464,29.335 293.250,28.933 292.578 C 27.086 289.498,25.711 287.398,24.661 286.056 C 24.035 285.255,23.250 284.077,22.919 283.438 C 22.587 282.798,21.973 281.909,21.556 281.460 C 21.138 281.012,20.421 279.870,19.963 278.923 C 19.504 277.975,18.971 277.200,18.778 277.200 C 18.134 277.200,15.211 271.428,15.205 270.147 C 15.199 268.750,16.748 267.146,20.175 265.000 C 21.229 264.340,23.007 263.215,24.128 262.500 C 27.361 260.437,29.483 260.988,31.234 264.347 C 31.765 265.366,32.588 266.613,33.063 267.117 C 33.537 267.621,34.232 268.682,34.608 269.473 C 34.983 270.264,35.855 271.675,36.545 272.608 C 38.455 275.189,40.772 278.503,41.314 279.428 C 42.642 281.692,44.287 284.219,45.044 285.155 C 45.508 285.730,46.182 286.775,46.543 287.478 C 46.903 288.182,47.673 289.262,48.252 289.878 C 48.832 290.495,49.549 291.540,49.846 292.200 C 51.358 295.557,52.951 295.924,54.879 293.360 L 55.958 291.925 54.424 290.328 C 53.580 289.450,52.554 288.072,52.145 287.266 C 51.735 286.460,50.825 285.074,50.123 284.187 C 49.421 283.300,48.650 282.130,48.411 281.587 C 48.171 281.044,47.177 279.520,46.201 278.200 C 45.225 276.880,43.935 274.990,43.335 274.000 C 42.735 273.010,41.649 271.461,40.922 270.559 C 40.195 269.656,39.600 268.725,39.600 268.489 C 39.600 268.254,39.181 267.553,38.668 266.931 C 38.156 266.309,37.608 265.530,37.452 265.200 C 36.895 264.022,36.181 262.937,34.900 261.323 C 32.398 258.170,33.403 255.545,38.011 253.194 C 38.885 252.749,39.601 252.252,39.603 252.092 C 39.607 251.599,44.412 248.911,45.637 248.716 C 46.791 248.533,51.600 253.683,51.600 255.102 C 51.600 255.299,52.050 255.883,52.600 256.400 C 53.150 256.917,53.600 257.478,53.600 257.648 C 53.600 258.146,56.432 262.835,57.874 264.724 C 58.603 265.679,59.200 266.678,59.200 266.942 C 59.200 267.207,59.797 268.048,60.526 268.812 C 61.901 270.251,66.453 276.871,66.913 278.100 C 67.308 279.155,68.719 278.942,70.031 277.631 C 71.349 276.312,71.541 275.013,70.500 274.448 C 70.115 274.239,69.350 273.198,68.800 272.134 C 68.250 271.070,67.136 269.493,66.324 268.628 C 65.512 267.764,64.190 265.784,63.386 264.228 C 62.582 262.673,61.714 261.220,61.457 261.000 C 60.891 260.516,59.550 258.521,59.000 257.345 C 58.780 256.875,57.919 255.686,57.086 254.703 C 54.670 251.852,51.501 246.049,51.772 244.970 C 52.005 244.040,55.123 241.200,55.911 241.200 C 56.146 241.200,56.847 240.772,57.469 240.249 C 58.969 238.986,62.585 236.869,63.733 236.581 C 65.073 236.245,69.655 240.885,71.200 244.144 C 71.530 244.840,72.271 246.037,72.846 246.805 C 73.421 247.572,74.400 249.100,75.020 250.200 C 75.641 251.300,76.813 253.010,77.624 254.000 C 78.435 254.990,79.438 256.430,79.853 257.200 C 80.268 257.970,81.374 259.631,82.310 260.890 L 84.011 263.181 85.106 262.031 C 85.708 261.398,87.360 259.648,88.777 258.140 C 91.384 255.368,103.728 242.507,111.176 234.803 C 115.815 230.005,115.945 229.717,114.826 226.771 C 114.372 225.577,114.000 224.323,114.000 223.985 C 114.000 223.646,113.640 222.663,113.200 221.800 C 112.708 220.836,112.400 219.441,112.400 218.183 C 112.400 217.056,112.028 214.949,111.573 213.499 C 110.472 209.993,110.581 188.582,111.713 185.800 C 112.072 184.920,112.373 183.205,112.382 181.989 C 112.392 180.773,112.642 179.423,112.937 178.989 C 113.232 178.555,113.663 177.436,113.894 176.503 C 114.380 174.535,115.682 176.136,102.501 162.490 C 98.192 158.029,94.202 153.880,93.633 153.270 C 82.759 141.599,81.144 140.199,80.517 141.900 C 80.201 142.756,78.618 144.984,77.177 146.600 C 76.588 147.260,75.427 149.060,74.596 150.600 C 73.764 152.140,72.737 153.850,72.313 154.400 C 71.507 155.446,69.622 158.302,68.117 160.758 C 66.615 163.210,63.486 164.633,62.632 163.252 C 62.514 163.061,61.402 162.391,60.162 161.763 C 58.921 161.135,57.821 160.400,57.718 160.129 C 57.614 159.858,56.743 159.256,55.782 158.791 C 51.804 156.866,50.996 154.922,52.909 151.881 C 53.629 150.736,54.418 149.350,54.661 148.800 C 54.905 148.250,55.981 146.684,57.052 145.319 C 59.150 142.647,60.286 140.938,63.400 135.770 C 64.500 133.945,66.076 131.675,66.903 130.726 C 67.730 129.777,68.554 128.825,68.733 128.610 C 69.158 128.103,68.169 126.399,66.891 125.435 C 65.606 124.466,64.992 124.833,63.404 127.519 C 62.742 128.640,61.636 130.190,60.946 130.965 C 60.256 131.740,59.221 133.177,58.645 134.159 C 58.070 135.140,57.363 136.181,57.074 136.472 C 56.786 136.762,55.859 138.260,55.016 139.800 C 54.173 141.340,52.722 143.500,51.791 144.600 C 50.861 145.700,49.973 147.013,49.818 147.517 C 49.108 149.819,45.361 152.431,44.580 151.167 C 44.432 150.929,43.567 150.389,42.656 149.967 C 40.721 149.070,36.281 146.030,34.700 144.518 C 33.091 142.980,33.173 140.811,34.923 138.641 C 35.651 137.739,36.679 136.280,37.206 135.400 C 37.734 134.520,38.306 133.741,38.478 133.668 C 38.650 133.596,39.124 132.786,39.531 131.868 C 39.938 130.951,40.747 129.750,41.329 129.200 C 41.910 128.650,42.389 127.998,42.393 127.751 C 42.397 127.503,43.036 126.423,43.813 125.351 C 45.282 123.324,47.265 120.334,48.539 118.224 C 48.946 117.551,49.756 116.370,50.339 115.600 C 52.987 112.106,53.196 110.887,51.431 109.229 C 49.877 107.769,48.440 109.229,43.635 117.150 C 42.885 118.388,42.030 119.544,41.735 119.720 C 41.441 119.896,41.200 120.285,41.200 120.584 C 41.200 120.883,40.503 122.010,39.651 123.087 C 38.799 124.165,37.991 125.396,37.856 125.823 C 37.720 126.251,37.194 127.050,36.687 127.600 C 36.180 128.150,35.174 129.590,34.451 130.800 C 29.870 138.474,27.343 140.701,25.600 138.600 C 25.326 138.270,24.868 138.000,24.582 138.000 C 24.295 138.000,23.282 137.409,22.331 136.687 C 21.379 135.965,19.880 134.942,19.000 134.414 C 14.276 131.580,14.097 128.962,18.270 123.733 C 19.001 122.816,19.600 121.887,19.600 121.669 C 19.600 121.450,20.320 120.361,21.200 119.248 C 22.080 118.134,22.800 117.052,22.800 116.842 C 22.800 116.633,23.401 115.674,24.136 114.711 C 24.871 113.748,25.968 112.114,26.574 111.080 C 27.180 110.046,27.827 109.200,28.011 109.200 C 28.195 109.200,28.474 108.798,28.629 108.308 C 28.935 107.345,30.175 105.497,31.300 104.328 C 31.685 103.927,32.000 103.354,32.000 103.054 C 32.000 102.754,32.540 101.899,33.199 101.154 C 33.859 100.409,34.776 99.080,35.236 98.200 C 35.697 97.320,36.425 96.221,36.853 95.757 L 37.632 94.915 34.202 91.293 C 28.513 85.287,28.588 85.494,31.127 82.843 C 31.497 82.457,34.860 78.916,38.600 74.975 C 42.340 71.034,46.120 67.069,47.000 66.164 C 47.880 65.260,51.930 61.056,56.000 56.823 C 60.070 52.590,65.174 47.298,67.343 45.063 C 69.512 42.828,72.640 39.560,74.295 37.800 C 87.161 24.116,88.576 22.884,89.267 24.762 M80.800 53.658 C 77.390 57.200,73.520 61.219,72.200 62.588 C 70.880 63.958,66.740 68.293,63.000 72.220 C 48.826 87.105,50.067 85.157,52.900 88.075 C 56.033 91.302,72.466 108.409,76.636 112.785 C 78.635 114.883,81.129 117.500,82.177 118.600 C 83.225 119.700,87.559 124.200,91.807 128.600 C 102.585 139.762,103.732 140.956,111.400 149.005 C 115.140 152.931,119.010 156.982,120.000 158.008 C 126.347 164.586,140.833 179.589,142.000 180.793 C 142.770 181.587,145.740 184.728,148.600 187.773 C 151.460 190.817,155.735 195.285,158.100 197.702 C 162.745 202.449,163.171 203.361,161.500 204.980 C 161.005 205.460,157.540 209.081,153.801 213.026 C 147.179 220.013,142.844 224.538,132.940 234.800 C 130.286 237.550,127.259 240.700,126.214 241.800 C 125.169 242.900,122.308 245.878,119.857 248.417 C 117.406 250.956,112.401 256.176,108.735 260.017 C 100.095 269.068,98.371 270.860,88.059 281.513 C 83.314 286.415,79.334 290.579,79.216 290.768 C 79.002 291.107,67.615 302.950,54.100 316.890 C 52.285 318.762,50.800 320.497,50.800 320.746 C 50.800 321.166,53.018 323.580,62.242 333.200 C 64.246 335.290,66.560 337.720,67.383 338.600 C 68.507 339.803,82.655 354.470,86.729 358.657 C 87.981 359.944,88.364 359.597,105.200 341.935 C 114.582 332.093,120.307 326.124,125.659 320.605 C 132.251 313.807,144.768 300.761,149.800 295.443 C 153.349 291.692,166.839 277.630,170.400 273.969 C 172.490 271.820,177.170 266.951,180.800 263.148 C 197.972 245.157,200.300 242.800,200.898 242.800 C 201.280 242.800,208.313 249.807,213.345 255.200 C 217.924 260.108,229.151 271.805,244.800 287.971 C 246.010 289.221,250.060 293.461,253.800 297.394 C 257.540 301.327,261.680 305.660,263.000 307.023 C 270.788 315.068,281.938 326.653,282.756 327.551 C 283.813 328.711,288.993 334.110,310.339 356.300 C 313.670 359.762,313.880 359.790,316.457 357.100 C 319.910 353.496,335.689 337.180,338.000 334.824 C 339.210 333.591,342.681 329.907,345.713 326.638 L 351.226 320.695 348.713 318.076 C 347.331 316.635,344.517 313.734,342.459 311.628 C 338.604 307.682,328.692 297.334,325.384 293.800 C 322.409 290.622,311.029 278.776,306.000 273.621 C 303.470 271.028,299.780 267.210,297.800 265.136 C 295.820 263.062,291.092 258.110,287.294 254.132 C 283.496 250.153,279.196 245.661,277.739 244.149 C 276.282 242.637,273.354 239.600,271.232 237.400 C 263.859 229.753,256.562 222.139,250.200 215.452 C 246.680 211.752,242.765 207.673,241.500 206.387 C 238.297 203.131,238.292 203.145,244.304 196.937 C 247.107 194.042,250.570 190.442,252.000 188.937 C 259.687 180.848,269.859 170.221,273.200 166.790 C 276.563 163.336,281.812 157.863,295.800 143.222 C 299.545 139.303,301.455 137.321,313.364 125.005 C 315.914 122.367,318.000 120.194,318.000 120.174 C 318.000 120.155,320.077 117.993,322.615 115.369 C 325.153 112.746,329.248 108.451,331.715 105.825 C 334.182 103.198,337.280 99.945,338.600 98.595 C 339.920 97.246,343.313 93.750,346.140 90.828 L 351.279 85.515 349.740 83.868 C 348.893 82.962,346.821 80.777,345.135 79.011 C 343.449 77.245,341.379 75.064,340.535 74.165 C 338.029 71.496,324.575 57.499,319.380 52.156 C 316.536 49.231,314.248 47.200,313.798 47.200 C 313.020 47.200,309.490 50.698,296.400 64.442 C 289.544 71.640,284.196 77.225,279.400 82.193 C 278.080 83.560,273.040 88.780,268.200 93.791 C 263.360 98.803,258.968 103.375,258.440 103.951 C 257.030 105.493,244.802 118.274,240.400 122.808 C 236.455 126.872,226.896 136.843,218.600 145.550 C 215.960 148.321,211.501 152.946,208.692 155.829 C 205.882 158.711,203.362 161.328,203.092 161.644 C 200.844 164.271,201.090 164.386,194.818 157.795 C 192.518 155.378,188.648 151.323,186.218 148.785 C 183.788 146.247,178.740 140.964,175.000 137.045 C 171.260 133.127,166.130 127.794,163.600 125.194 C 159.052 120.521,147.834 108.792,142.800 103.447 C 141.370 101.929,138.310 98.745,136.000 96.373 C 132.436 92.712,126.111 86.155,116.332 75.982 C 115.159 74.762,111.050 70.457,107.200 66.415 C 103.350 62.373,99.120 57.951,97.800 56.587 C 96.480 55.224,93.906 52.554,92.079 50.654 C 87.682 46.080,88.239 45.932,80.800 53.658 " stroke="none" fill="#fbfbfb" fill-rule="evenodd"></path><path id="path3" d="M82.133 29.510 C 79.456 32.310,76.777 35.140,76.179 35.800 C 75.581 36.460,71.831 40.389,67.846 44.531 C 63.861 48.673,59.185 53.533,57.456 55.331 C 55.728 57.129,52.308 60.676,49.856 63.213 C 47.405 65.750,42.340 71.046,38.600 74.983 C 34.860 78.920,31.497 82.457,31.127 82.843 C 29.266 84.787,29.058 85.492,29.991 86.688 C 31.535 88.665,37.245 94.400,37.671 94.400 C 37.898 94.400,37.174 93.455,36.064 92.300 C 28.919 84.870,29.157 85.610,32.749 82.002 C 34.648 80.093,43.355 71.011,52.491 61.408 C 53.752 60.084,56.542 57.178,58.691 54.951 C 60.841 52.724,64.479 48.944,66.776 46.551 C 69.074 44.158,73.124 39.946,75.776 37.191 C 78.429 34.436,82.093 30.611,83.917 28.691 C 87.782 24.624,87.916 24.591,90.350 27.131 C 101.812 39.092,108.028 45.560,111.200 48.823 C 113.290 50.973,117.970 55.852,121.600 59.665 C 125.230 63.478,130.360 68.826,133.000 71.550 C 141.544 80.366,152.796 92.100,161.398 101.165 C 163.816 103.714,169.846 109.857,174.798 114.817 C 179.749 119.776,187.555 127.741,192.146 132.517 C 196.736 137.292,200.618 141.200,200.773 141.200 C 201.067 141.200,206.510 135.722,215.642 126.234 C 222.096 119.529,225.153 116.460,228.032 113.791 C 229.225 112.686,233.080 108.748,236.600 105.040 C 246.557 94.551,246.174 94.950,265.808 74.600 C 269.699 70.567,270.680 69.539,281.979 57.660 C 285.401 54.063,289.910 49.358,292.000 47.205 C 299.442 39.540,311.017 27.496,312.036 26.357 C 313.868 24.310,313.077 23.708,325.000 36.206 C 328.740 40.127,333.510 45.091,335.600 47.237 C 339.337 51.075,350.056 62.231,352.800 65.137 C 357.614 70.237,368.102 81.243,369.700 82.873 C 372.396 85.622,372.566 85.186,366.300 91.614 C 364.595 93.363,363.201 95.021,363.203 95.297 C 363.205 95.574,364.240 94.705,365.503 93.366 C 366.766 92.027,368.945 89.741,370.345 88.286 L 372.889 85.639 372.012 84.520 C 371.272 83.575,367.743 79.824,357.400 68.989 C 355.190 66.673,342.220 53.205,337.600 48.429 C 335.510 46.268,331.280 41.844,328.200 38.597 C 312.351 21.892,314.153 23.088,310.576 26.900 C 307.908 29.742,293.824 44.474,290.200 48.213 C 285.326 53.241,278.418 60.439,271.800 67.386 C 268.060 71.311,264.010 75.548,262.800 76.800 C 261.590 78.052,256.640 83.191,251.800 88.221 C 246.960 93.250,241.078 99.353,238.729 101.783 C 236.380 104.212,234.074 106.650,233.604 107.200 C 227.404 114.461,226.074 115.166,221.091 113.832 C 209.047 110.608,191.731 110.453,180.600 113.468 C 174.909 115.010,176.677 116.215,161.729 100.600 C 157.307 95.980,152.544 91.010,151.144 89.555 C 149.745 88.100,145.270 83.432,141.200 79.181 C 137.130 74.930,132.063 69.641,129.939 67.426 C 127.816 65.212,125.320 62.590,124.392 61.600 C 123.465 60.610,118.452 55.407,113.253 50.037 C 108.054 44.667,103.350 39.795,102.800 39.210 C 102.250 38.626,99.010 35.217,95.600 31.636 C 92.190 28.055,89.340 24.962,89.267 24.762 C 88.738 23.325,86.840 24.588,82.133 29.510 M80.000 53.662 C 76.150 57.652,70.289 63.725,66.976 67.158 C 52.425 82.235,50.000 84.852,50.000 85.486 C 50.000 85.754,51.935 87.981,54.300 90.436 C 59.489 95.822,61.408 97.825,70.200 107.039 C 76.752 113.906,81.935 119.295,90.000 127.626 C 92.090 129.785,96.770 134.665,100.400 138.471 C 104.030 142.276,109.160 147.620,111.800 150.346 C 114.440 153.072,117.680 156.429,119.000 157.806 C 120.320 159.182,124.370 163.406,128.000 167.192 C 131.630 170.979,135.680 175.202,137.000 176.577 C 138.320 177.953,142.460 182.286,146.200 186.207 C 149.940 190.128,155.025 195.401,157.500 197.926 C 162.562 203.089,162.564 203.094,160.500 205.176 C 159.675 206.009,157.385 208.380,155.412 210.445 C 153.439 212.510,149.659 216.452,147.012 219.205 C 144.365 221.958,139.140 227.426,135.400 231.356 C 131.660 235.286,126.530 240.633,124.000 243.238 C 119.999 247.359,110.261 257.514,103.708 264.400 C 102.556 265.610,99.856 268.420,97.707 270.644 C 95.558 272.868,90.439 278.178,86.330 282.444 C 82.222 286.710,77.632 291.469,76.130 293.021 C 74.629 294.572,71.150 298.224,68.400 301.136 C 63.724 306.087,59.963 310.010,52.867 317.334 C 49.350 320.964,49.308 320.635,53.907 325.482 C 59.551 331.430,70.638 342.973,75.600 348.066 C 78.130 350.663,81.725 354.411,83.589 356.394 C 88.055 361.146,87.300 361.385,95.892 352.500 C 109.546 338.382,113.741 334.014,123.800 323.443 C 127.540 319.513,131.950 314.908,133.600 313.210 C 137.982 308.700,152.874 293.210,154.234 291.746 C 155.514 290.369,168.376 276.980,172.200 273.045 C 176.570 268.546,192.177 252.251,195.013 249.225 C 201.413 242.396,200.022 242.225,208.200 250.847 C 212.828 255.727,228.287 271.807,233.100 276.749 C 235.575 279.289,237.600 281.406,237.600 281.452 C 237.600 281.497,239.680 283.665,242.221 286.268 C 244.763 288.870,247.941 292.170,249.283 293.600 C 254.029 298.656,265.069 310.180,270.300 315.539 C 273.215 318.525,275.600 321.110,275.600 321.284 C 275.600 321.458,275.870 321.600,276.200 321.600 C 276.530 321.600,276.800 321.767,276.800 321.972 C 276.800 322.177,278.105 323.685,279.700 325.324 C 281.295 326.962,283.856 329.630,285.392 331.251 C 289.315 335.394,305.073 351.760,309.464 356.252 C 314.110 361.004,313.673 361.067,319.645 354.795 C 322.370 351.932,326.580 347.546,329.000 345.049 C 331.420 342.552,334.936 338.910,336.812 336.955 C 338.689 335.000,342.784 330.734,345.912 327.475 C 349.041 324.216,351.600 321.240,351.600 320.863 C 351.600 320.485,349.261 317.752,346.401 314.788 C 343.542 311.825,341.202 309.265,341.201 309.100 C 341.201 308.935,340.930 308.800,340.600 308.800 C 340.270 308.800,340.000 308.640,340.000 308.444 C 340.000 308.107,335.484 303.278,325.939 293.407 C 323.595 290.983,319.590 286.842,317.039 284.205 C 314.487 281.567,312.400 279.375,312.400 279.333 C 312.400 279.291,310.316 277.129,307.768 274.528 C 305.221 271.928,302.038 268.630,300.696 267.200 C 296.869 263.124,285.390 251.104,281.200 246.785 C 277.032 242.489,265.225 230.197,258.000 222.632 C 255.470 219.983,251.391 215.742,248.935 213.208 C 239.237 203.200,239.095 202.999,240.700 201.542 C 241.401 200.906,255.950 185.798,261.600 179.839 C 266.294 174.889,268.005 173.105,277.400 163.364 C 282.240 158.346,288.360 151.984,291.000 149.228 C 293.640 146.471,297.530 142.412,299.645 140.208 C 301.759 138.004,304.819 134.779,306.445 133.042 C 308.070 131.305,311.470 127.773,314.000 125.195 C 316.530 122.616,321.660 117.301,325.400 113.383 C 329.140 109.466,333.010 105.423,334.000 104.399 C 334.990 103.375,339.040 99.146,343.000 95.000 C 346.960 90.855,350.515 87.134,350.900 86.731 C 352.152 85.423,352.177 85.465,346.460 79.400 C 342.566 75.270,326.981 59.059,321.025 52.944 C 318.178 50.022,315.694 47.354,315.505 47.016 C 314.686 45.552,312.898 46.286,310.095 49.237 C 308.613 50.798,305.630 53.903,303.468 56.137 C 293.421 66.516,284.582 75.730,284.400 76.012 C 284.187 76.342,273.896 87.063,266.600 94.556 C 264.180 97.041,259.140 102.290,255.400 106.219 C 251.660 110.149,247.790 114.200,246.800 115.223 C 245.810 116.245,241.760 120.459,237.800 124.586 C 233.840 128.714,229.520 133.199,228.200 134.554 C 226.880 135.909,222.650 140.319,218.800 144.355 C 214.950 148.391,210.765 152.741,209.500 154.022 C 208.235 155.303,207.195 156.497,207.189 156.675 C 207.183 156.854,206.587 157.439,205.864 157.975 C 205.141 158.511,204.126 159.507,203.608 160.189 C 203.091 160.871,202.224 161.763,201.681 162.173 L 200.695 162.917 196.105 158.158 C 193.581 155.541,189.388 151.150,186.787 148.400 C 184.187 145.650,179.972 141.240,177.420 138.600 C 161.700 122.337,158.287 118.795,156.606 117.000 C 153.531 113.715,142.821 102.504,139.600 99.198 C 134.383 93.842,120.620 79.536,117.283 76.000 C 113.426 71.913,111.091 69.479,100.848 58.873 C 96.532 54.404,92.082 49.769,90.960 48.573 C 87.925 45.341,88.113 45.254,80.000 53.662 M331.600 64.826 C 345.434 79.249,349.119 83.120,350.542 84.721 C 351.275 85.546,351.257 85.583,348.942 87.915 C 347.654 89.213,343.270 93.762,339.200 98.025 C 335.130 102.287,330.720 106.906,329.400 108.288 C 321.457 116.608,318.290 119.902,310.482 127.970 C 305.707 132.903,301.350 137.416,300.800 138.000 C 298.844 140.073,286.164 153.363,284.000 155.607 C 268.792 171.379,256.265 184.421,252.180 188.737 C 250.651 190.352,247.107 194.042,244.304 196.937 C 237.994 203.454,238.036 202.814,243.533 208.510 C 245.916 210.979,249.921 215.155,252.433 217.788 C 259.252 224.937,266.798 232.798,277.739 244.149 C 279.196 245.661,283.496 250.153,287.294 254.132 C 299.112 266.511,301.262 268.751,306.000 273.613 C 311.763 279.528,322.441 290.668,326.852 295.367 C 328.693 297.329,331.010 299.766,332.000 300.783 C 336.033 304.927,346.363 315.609,348.713 318.067 L 351.226 320.695 345.713 326.634 C 342.681 329.901,339.300 333.499,338.200 334.629 C 337.100 335.759,332.510 340.516,328.000 345.199 C 315.344 358.341,314.466 359.201,313.708 359.189 C 313.319 359.183,311.200 357.279,309.000 354.958 C 306.800 352.637,303.290 348.973,301.200 346.816 C 299.110 344.659,294.250 339.594,290.400 335.561 C 280.638 325.335,268.330 312.514,263.000 307.019 C 261.680 305.658,257.540 301.333,253.800 297.408 C 246.349 289.588,246.533 289.780,233.600 276.378 C 224.870 267.332,219.358 261.573,213.183 255.046 C 207.009 248.520,201.258 242.800,200.870 242.800 C 200.538 242.800,192.982 250.304,188.553 255.031 C 186.041 257.713,173.983 270.298,170.400 273.977 C 168.310 276.124,163.270 281.365,159.200 285.624 C 155.130 289.883,150.990 294.213,150.000 295.246 C 149.010 296.279,145.911 299.527,143.113 302.462 C 137.347 308.512,132.419 313.635,125.659 320.605 C 120.307 326.124,114.582 332.093,105.200 341.935 C 92.785 354.960,88.538 359.200,87.909 359.200 C 87.194 359.200,87.525 359.524,76.000 347.558 C 67.821 339.066,64.960 336.078,55.078 325.712 C 49.963 320.346,50.044 321.075,54.100 316.886 C 61.617 309.124,77.696 292.386,81.414 288.453 C 82.946 286.833,85.820 283.837,87.800 281.797 C 89.780 279.756,94.910 274.433,99.200 269.968 C 103.490 265.502,107.900 260.917,109.000 259.778 C 110.100 258.639,113.970 254.588,117.600 250.776 C 121.230 246.964,125.010 243.009,126.000 241.988 C 128.564 239.343,136.966 230.630,142.383 225.000 C 144.923 222.360,150.061 216.972,153.801 213.026 C 157.540 209.081,161.005 205.460,161.500 204.980 C 163.171 203.361,162.745 202.449,158.100 197.702 C 155.735 195.285,151.460 190.817,148.600 187.773 C 145.740 184.728,142.770 181.589,142.000 180.796 C 140.862 179.625,128.088 166.393,120.000 158.009 C 119.010 156.982,115.140 152.931,111.400 149.005 C 103.732 140.956,102.585 139.762,91.807 128.600 C 87.559 124.200,83.225 119.700,82.177 118.600 C 71.882 107.795,55.644 90.865,53.400 88.597 C 50.220 85.383,50.180 85.638,54.614 81.000 C 55.666 79.900,58.343 77.103,60.563 74.784 C 62.784 72.464,67.750 67.267,71.600 63.233 C 89.531 44.446,87.380 45.766,92.079 50.654 C 93.906 52.554,96.480 55.224,97.800 56.587 C 99.120 57.951,103.350 62.374,107.200 66.418 C 111.050 70.461,116.121 75.756,118.469 78.185 C 131.118 91.265,147.872 108.737,155.482 116.784 C 157.287 118.692,160.887 122.429,163.482 125.087 C 166.077 127.746,171.260 133.127,175.000 137.045 C 178.740 140.964,183.800 146.247,186.245 148.785 C 188.689 151.323,191.278 154.030,191.997 154.800 C 195.705 158.772,200.506 163.600,200.748 163.600 C 201.253 163.600,206.040 158.737,220.600 143.433 C 224.340 139.502,228.840 134.794,230.600 132.971 C 244.404 118.672,257.032 105.513,258.449 103.951 C 259.256 103.061,271.328 90.530,279.400 82.204 C 281.376 80.165,289.597 71.568,297.400 63.381 C 308.016 52.241,312.734 47.467,313.400 47.191 C 314.265 46.832,315.326 47.860,331.600 64.826 M50.020 107.500 C 50.052 108.000,53.142 110.991,53.380 110.753 C 53.502 110.631,52.888 109.782,52.017 108.866 C 50.462 107.231,49.981 106.902,50.020 107.500 M348.274 110.324 C 346.838 111.795,346.490 112.407,347.100 112.393 C 347.501 112.383,350.132 109.199,349.917 108.983 C 349.824 108.891,349.085 109.494,348.274 110.324 M66.400 124.361 C 66.400 124.875,69.352 128.000,69.838 128.000 C 70.124 128.000,69.320 127.003,67.300 124.850 C 66.805 124.323,66.400 124.102,66.400 124.361 M333.224 126.090 C 331.116 128.231,330.946 129.165,333.038 127.114 C 334.096 126.077,334.861 125.127,334.738 125.004 C 334.615 124.881,333.933 125.370,333.224 126.090 M83.267 142.300 C 85.847 145.146,96.992 156.788,105.200 165.211 C 107.290 167.355,110.170 170.385,111.600 171.944 C 113.322 173.821,114.504 174.782,115.100 174.789 C 116.473 174.806,119.037 177.599,119.375 179.445 C 119.531 180.300,119.889 181.360,120.171 181.800 C 120.452 182.240,120.779 183.860,120.898 185.400 C 121.260 190.105,126.403 199.783,131.099 204.600 C 136.685 210.329,136.380 209.509,133.940 212.250 L 131.847 214.600 133.919 212.619 C 135.059 211.530,136.175 210.082,136.399 209.402 C 136.624 208.722,137.796 207.189,139.004 205.996 C 141.646 203.387,141.699 202.821,139.500 200.651 C 137.904 199.077,127.249 187.921,122.260 182.600 C 120.961 181.214,119.837 179.584,119.601 178.743 C 119.162 177.177,116.443 174.400,115.349 174.400 C 114.992 174.400,113.881 173.497,112.880 172.393 C 111.878 171.290,108.976 168.245,106.430 165.628 C 103.883 163.011,99.730 158.658,97.200 155.955 C 94.670 153.253,91.790 150.212,90.800 149.199 C 89.810 148.186,87.583 145.882,85.851 144.078 C 82.745 140.845,80.625 139.386,83.267 142.300 M313.397 146.638 C 310.319 149.849,307.186 153.134,306.435 153.938 C 304.474 156.040,292.702 168.330,289.400 171.723 C 287.860 173.306,286.093 175.231,285.473 176.000 C 284.420 177.308,276.719 185.556,272.200 190.216 C 271.100 191.351,269.930 192.379,269.600 192.502 C 269.159 192.665,269.506 193.169,270.914 194.405 C 271.966 195.329,273.206 196.831,273.668 197.743 C 274.131 198.654,274.927 199.899,275.437 200.510 C 276.775 202.110,279.831 208.373,280.177 210.223 C 280.339 211.090,280.625 211.986,280.812 212.213 C 281.000 212.440,281.343 214.140,281.575 215.991 C 281.807 217.843,282.178 219.538,282.399 219.759 C 283.128 220.488,282.859 223.417,281.958 224.563 L 281.115 225.634 282.081 226.517 C 282.612 227.003,283.847 228.382,284.824 229.582 C 285.801 230.783,288.895 234.094,291.700 236.941 C 294.505 239.787,296.800 242.270,296.800 242.458 C 296.800 242.646,297.070 242.800,297.400 242.800 C 297.730 242.800,298.000 242.963,298.000 243.162 C 298.000 243.502,303.554 249.418,312.495 258.600 C 316.876 263.099,317.867 263.371,313.696 258.929 C 310.205 255.211,297.277 241.776,290.507 234.830 C 284.173 228.331,284.275 228.618,286.003 222.190 C 289.566 208.929,289.785 191.627,286.537 179.918 C 285.671 176.793,285.901 176.236,289.690 172.315 C 293.176 168.706,307.751 153.548,309.800 151.401 C 310.460 150.709,312.710 148.356,314.800 146.171 C 319.113 141.664,319.844 140.800,319.346 140.800 C 319.153 140.800,316.476 143.427,313.397 146.638 M266.000 195.072 C 265.113 196.010,265.097 196.078,265.853 195.676 C 266.322 195.426,266.811 194.947,266.940 194.611 C 267.254 193.794,267.168 193.836,266.000 195.072 M264.495 196.666 C 264.218 196.778,263.788 197.259,263.541 197.735 C 263.120 198.545,263.159 198.538,264.146 197.630 C 264.726 197.097,265.200 196.602,265.200 196.530 C 265.200 196.384,265.193 196.385,264.495 196.666 M259.862 201.531 C 258.575 202.954,259.052 203.853,263.454 208.301 L 267.708 212.600 263.654 208.294 C 259.473 203.854,259.005 202.921,260.262 201.531 C 260.626 201.129,260.834 200.800,260.724 200.800 C 260.614 200.800,260.226 201.129,259.862 201.531 M269.620 214.621 C 270.599 215.733,271.481 216.581,271.581 216.507 C 271.680 216.433,270.879 215.523,269.801 214.486 L 267.840 212.600 269.620 214.621 M130.833 216.233 C 130.312 216.995,129.960 217.693,130.051 217.785 C 130.143 217.876,130.645 217.328,131.167 216.567 C 131.688 215.805,132.040 215.107,131.949 215.015 C 131.857 214.924,131.355 215.472,130.833 216.233 M271.600 217.514 C 271.600 217.713,271.986 218.219,272.458 218.638 C 273.310 219.395,273.313 219.394,272.856 218.522 C 272.346 217.550,271.600 216.951,271.600 217.514 M123.600 223.887 C 121.290 226.241,119.760 227.904,120.200 227.583 C 121.083 226.939,126.679 221.387,127.549 220.292 C 128.782 218.739,127.580 219.833,123.600 223.887 M274.024 220.200 C 274.942 221.638,279.561 225.601,280.289 225.575 C 280.797 225.557,280.715 225.437,280.000 225.156 C 279.450 224.939,277.765 223.556,276.257 222.081 C 274.748 220.606,273.743 219.760,274.024 220.200 M118.400 229.000 C 118.126 229.330,117.519 229.599,117.051 229.598 C 116.493 229.596,114.846 231.006,112.263 233.698 C 110.097 235.954,106.147 240.050,103.483 242.800 C 100.820 245.550,96.832 249.693,94.620 252.006 C 92.409 254.320,89.003 257.883,87.051 259.924 C 85.099 261.966,83.619 263.752,83.760 263.894 C 83.902 264.035,84.846 263.262,85.858 262.176 C 86.870 261.089,89.523 258.310,91.753 256.000 C 93.983 253.690,98.866 248.587,102.604 244.661 C 113.888 232.806,116.260 230.400,116.661 230.400 C 116.872 230.400,117.655 229.950,118.400 229.400 C 119.145 228.850,119.562 228.400,119.327 228.400 C 119.091 228.400,118.674 228.670,118.400 229.000 M190.124 274.091 C 183.897 280.287,179.680 284.803,179.198 285.791 C 178.421 287.381,177.687 288.198,168.228 298.005 C 165.573 300.758,160.340 306.230,156.600 310.166 C 152.860 314.101,146.740 320.479,143.000 324.340 C 135.334 332.252,128.594 339.281,124.777 343.343 C 123.360 344.851,120.580 347.760,118.600 349.807 C 116.620 351.854,111.310 357.352,106.800 362.024 C 102.290 366.697,97.790 371.348,96.800 372.361 C 95.810 373.374,93.519 375.777,91.709 377.701 C 87.726 381.937,88.017 381.921,84.390 378.100 C 80.815 374.334,66.324 359.220,63.000 355.791 C 60.480 353.191,47.319 339.430,45.600 337.598 C 45.050 337.011,41.450 333.245,37.600 329.228 C 33.750 325.211,30.451 321.661,30.268 321.340 C 29.807 320.529,30.436 319.709,35.564 314.446 C 38.004 311.941,40.000 309.697,40.000 309.460 C 40.000 309.222,37.494 311.623,34.431 314.796 L 28.863 320.565 29.653 321.675 C 30.088 322.285,31.289 323.658,32.322 324.725 C 35.169 327.667,41.386 334.145,49.669 342.800 C 53.775 347.090,58.544 352.059,60.267 353.842 C 61.990 355.625,66.726 360.575,70.791 364.842 C 89.202 384.167,87.646 382.980,90.538 379.900 C 91.623 378.745,94.240 375.997,96.355 373.793 C 109.486 360.107,118.513 350.719,120.600 348.577 C 122.706 346.416,130.545 338.210,139.472 328.821 C 141.052 327.159,144.112 323.976,146.272 321.747 C 153.794 313.985,167.449 299.777,170.614 296.420 C 172.366 294.560,175.103 291.680,176.695 290.020 C 178.572 288.061,179.591 286.674,179.595 286.074 C 179.601 285.011,199.765 264.398,200.800 264.397 C 201.829 264.397,222.398 285.409,222.411 286.474 C 222.419 287.094,223.753 288.787,226.452 291.600 C 228.668 293.910,231.938 297.330,233.720 299.200 C 237.127 302.776,252.400 318.673,256.746 323.167 C 259.129 325.631,271.039 338.087,274.600 341.839 C 276.045 343.361,287.192 354.908,295.400 363.384 C 298.343 366.423,306.111 374.592,311.040 379.831 C 313.352 382.288,314.085 382.463,315.515 380.900 C 316.068 380.295,318.699 377.550,321.361 374.800 C 324.022 372.050,329.170 366.671,332.800 362.847 C 336.430 359.022,341.200 354.045,343.400 351.785 C 345.600 349.526,350.460 344.466,354.200 340.541 C 360.734 333.683,367.040 327.103,370.006 324.048 C 373.060 320.902,373.063 320.859,370.344 317.958 C 364.175 311.375,350.600 297.600,350.282 297.600 C 350.087 297.600,350.708 298.395,351.663 299.366 C 352.618 300.337,355.597 303.442,358.282 306.266 C 360.968 309.090,365.063 313.366,367.382 315.769 C 372.586 321.160,372.595 320.617,367.200 326.051 C 365.990 327.269,362.210 331.202,358.800 334.789 C 355.390 338.377,351.555 342.412,350.277 343.756 C 349.000 345.100,344.680 349.595,340.677 353.744 C 336.675 357.893,332.860 361.855,332.200 362.548 C 331.540 363.242,328.750 366.149,326.000 369.008 C 323.250 371.867,319.507 375.780,317.683 377.703 C 313.755 381.844,313.830 381.831,311.123 378.909 C 308.893 376.503,303.617 371.020,295.842 363.029 C 293.289 360.405,291.200 358.214,291.200 358.161 C 291.200 358.108,289.175 355.993,286.700 353.461 C 284.225 350.929,281.120 347.716,279.800 346.320 C 274.163 340.360,262.309 327.967,258.800 324.364 C 256.710 322.219,251.940 317.259,248.200 313.342 C 240.047 304.804,234.185 298.701,227.770 292.070 C 225.146 289.358,222.938 286.748,222.863 286.270 C 222.704 285.258,201.665 264.000,200.823 264.000 C 200.516 264.000,195.702 268.541,190.124 274.091 M329.630 276.267 C 331.614 278.450,332.000 278.789,332.000 278.347 C 332.000 277.891,329.351 275.200,328.902 275.200 C 328.769 275.200,329.097 275.680,329.630 276.267 M69.867 277.667 C 69.023 278.547,68.416 279.349,68.516 279.450 C 68.776 279.710,71.139 277.662,71.623 276.757 C 72.269 275.550,71.526 275.935,69.867 277.667 M54.554 293.878 C 53.809 294.691,53.200 295.535,53.200 295.753 C 53.200 296.236,55.519 294.077,56.048 293.100 C 56.672 291.951,55.998 292.302,54.554 293.878 M345.549 293.104 C 345.774 293.525,346.823 294.569,347.879 295.424 C 348.936 296.279,349.539 296.624,349.220 296.190 C 347.404 293.717,344.629 291.385,345.549 293.104 " stroke="none" fill="#c92d4a" fill-rule="evenodd"></path><path id="path4" d="M37.142 94.530 C 37.492 94.952,37.429 95.230,36.871 95.735 C 36.472 96.097,35.755 97.159,35.278 98.096 C 34.801 99.033,33.868 100.409,33.205 101.154 C 32.542 101.899,32.000 102.754,32.000 103.054 C 32.000 103.354,31.685 103.927,31.300 104.328 C 30.175 105.497,28.935 107.345,28.629 108.308 C 28.474 108.798,28.195 109.200,28.011 109.200 C 27.827 109.200,27.180 110.046,26.574 111.080 C 25.968 112.114,24.871 113.748,24.136 114.711 C 23.401 115.674,22.800 116.633,22.800 116.842 C 22.800 117.052,22.080 118.134,21.200 119.248 C 20.320 120.361,19.600 121.450,19.600 121.669 C 19.600 121.887,19.001 122.816,18.270 123.733 C 14.097 128.962,14.276 131.580,19.000 134.414 C 19.880 134.942,21.379 135.965,22.331 136.687 C 23.282 137.409,24.295 138.000,24.582 138.000 C 24.868 138.000,25.326 138.270,25.600 138.600 C 27.343 140.701,29.870 138.474,34.451 130.800 C 35.174 129.590,36.180 128.150,36.687 127.600 C 37.194 127.050,37.720 126.251,37.856 125.823 C 37.991 125.396,38.799 124.165,39.651 123.087 C 40.503 122.010,41.200 120.883,41.200 120.584 C 41.200 120.285,41.441 119.896,41.735 119.720 C 42.030 119.544,42.885 118.388,43.635 117.150 C 46.464 112.487,48.952 109.114,49.871 108.695 C 50.567 108.378,50.685 108.174,50.311 107.937 C 49.506 107.426,49.331 107.518,48.465 108.900 C 48.017 109.615,46.375 112.090,44.817 114.400 C 43.259 116.710,41.811 118.870,41.599 119.200 C 41.388 119.530,40.728 120.520,40.134 121.400 C 39.539 122.280,37.747 124.980,36.150 127.400 C 34.554 129.820,32.907 132.250,32.489 132.800 C 32.072 133.350,31.244 134.638,30.650 135.662 C 29.976 136.822,29.045 137.772,28.179 138.183 L 26.789 138.843 22.035 135.724 C 16.848 132.320,15.341 130.686,15.780 128.938 C 16.017 127.993,18.559 123.744,19.213 123.200 C 19.345 123.090,20.039 121.965,20.756 120.700 C 21.472 119.435,22.213 118.400,22.402 118.400 C 22.591 118.400,22.872 117.995,23.026 117.500 C 23.181 117.005,23.802 115.970,24.408 115.200 C 25.489 113.825,29.200 108.395,29.200 108.189 C 29.200 108.015,34.119 100.617,34.378 100.400 C 34.738 100.099,38.000 94.979,38.000 94.715 C 38.000 94.589,37.705 94.372,37.343 94.234 C 36.823 94.034,36.781 94.096,37.142 94.530 M363.340 95.813 C 363.198 96.183,364.072 97.837,365.552 99.994 C 366.899 101.956,368.000 103.686,368.000 103.838 C 368.000 103.990,368.776 105.033,369.724 106.157 C 370.673 107.281,372.115 109.426,372.930 110.925 C 374.395 113.618,374.969 114.465,379.120 120.062 C 380.286 121.634,381.506 123.478,381.831 124.160 C 382.659 125.900,383.431 127.191,383.954 127.714 C 385.888 129.648,382.990 133.262,376.689 136.776 C 372.253 139.250,370.893 138.835,368.543 134.290 C 368.198 133.622,367.583 132.719,367.177 132.284 C 366.772 131.848,366.134 130.841,365.761 130.046 C 365.387 129.251,364.953 128.510,364.795 128.400 C 364.638 128.290,363.899 127.283,363.154 126.163 C 361.573 123.785,360.404 122.035,356.822 116.684 C 355.380 114.531,354.020 112.450,353.800 112.060 C 352.295 109.394,350.348 108.116,349.834 109.457 C 349.622 110.008,349.680 110.031,350.196 109.603 C 350.906 109.014,352.297 110.259,353.457 112.522 C 353.818 113.225,354.492 114.270,354.956 114.845 C 355.420 115.419,356.340 116.754,357.000 117.811 C 358.572 120.328,359.767 122.123,362.200 125.619 C 363.300 127.200,364.798 129.507,365.528 130.747 C 366.259 131.986,367.029 133.061,367.238 133.137 C 367.448 133.212,367.864 133.842,368.163 134.537 C 370.226 139.334,372.174 139.917,377.050 137.198 C 384.773 132.891,386.250 130.272,383.400 125.944 C 382.630 124.775,382.000 123.667,382.000 123.481 C 382.000 123.032,379.940 120.135,378.419 118.446 C 377.749 117.701,377.200 116.887,377.200 116.637 C 377.200 116.387,376.687 115.556,376.059 114.791 C 375.432 114.026,374.179 112.092,373.276 110.493 C 372.372 108.894,370.815 106.583,369.816 105.357 C 368.817 104.130,368.000 102.937,368.000 102.705 C 368.000 102.472,367.397 101.544,366.659 100.641 C 365.062 98.687,363.799 96.395,363.936 95.700 C 364.076 94.992,363.622 95.078,363.340 95.813 M52.616 110.898 C 52.875 111.574,51.964 113.456,50.339 115.600 C 49.756 116.370,48.946 117.551,48.539 118.224 C 47.265 120.334,45.282 123.324,43.813 125.351 C 43.036 126.423,42.397 127.503,42.393 127.751 C 42.389 127.998,41.910 128.650,41.329 129.200 C 40.747 129.750,39.938 130.951,39.531 131.868 C 39.124 132.786,38.650 133.596,38.478 133.668 C 38.306 133.741,37.734 134.520,37.206 135.400 C 36.679 136.280,35.651 137.739,34.923 138.641 C 33.173 140.811,33.091 142.980,34.700 144.518 C 36.281 146.030,40.721 149.070,42.656 149.967 C 43.567 150.389,44.432 150.929,44.580 151.167 C 45.361 152.431,49.108 149.819,49.818 147.517 C 49.973 147.013,50.861 145.700,51.791 144.600 C 52.722 143.500,54.173 141.340,55.016 139.800 C 55.859 138.260,56.786 136.762,57.074 136.472 C 57.363 136.181,58.079 135.125,58.665 134.124 C 59.252 133.124,60.258 131.742,60.901 131.053 C 61.544 130.364,62.603 128.870,63.255 127.733 C 64.668 125.267,65.364 124.624,66.251 124.964 C 66.802 125.175,66.829 125.117,66.415 124.618 C 65.688 123.742,64.569 124.477,63.273 126.682 C 62.683 127.686,61.435 129.461,60.500 130.627 C 59.565 131.792,58.800 132.849,58.800 132.975 C 58.800 133.101,58.001 134.347,57.024 135.744 C 56.048 137.141,54.761 139.166,54.165 140.242 C 53.569 141.319,52.418 143.010,51.606 144.000 C 50.794 144.990,49.606 146.745,48.965 147.900 C 48.324 149.054,47.575 149.999,47.300 150.000 C 47.025 150.000,46.800 150.180,46.800 150.400 C 46.800 151.465,42.048 149.582,39.800 147.626 C 39.360 147.243,38.280 146.506,37.400 145.988 C 33.693 143.806,33.141 141.994,35.313 139.131 C 36.035 138.179,37.060 136.680,37.592 135.800 C 38.123 134.920,38.669 134.110,38.805 134.000 C 38.941 133.890,39.627 132.786,40.329 131.547 C 41.031 130.308,41.874 129.071,42.203 128.798 C 42.531 128.525,42.800 128.127,42.800 127.914 C 42.800 127.701,43.434 126.688,44.209 125.663 C 45.928 123.391,50.000 117.224,50.000 116.892 C 50.000 116.760,50.336 116.280,50.746 115.826 C 52.528 113.853,53.652 111.341,52.997 110.798 C 52.485 110.372,52.421 110.389,52.616 110.898 M346.800 112.644 C 346.800 112.779,347.487 113.724,348.327 114.744 C 349.167 115.765,350.282 117.320,350.805 118.200 C 351.328 119.080,351.991 119.944,352.278 120.120 C 352.565 120.296,352.800 120.618,352.800 120.836 C 352.800 121.227,354.012 123.101,355.194 124.537 C 355.527 124.942,356.250 126.034,356.800 126.963 C 358.422 129.703,361.595 134.364,362.768 135.731 C 367.022 140.688,366.978 143.415,362.600 146.045 C 360.080 147.559,357.193 149.726,357.409 149.942 C 357.517 150.050,358.369 149.572,359.303 148.878 C 360.236 148.185,361.924 147.084,363.053 146.432 C 367.897 143.634,367.770 140.784,362.522 134.557 C 361.575 133.433,360.800 132.324,360.800 132.093 C 360.800 131.861,360.114 130.801,359.276 129.736 C 358.438 128.671,357.619 127.445,357.455 127.011 C 357.291 126.577,356.620 125.497,355.965 124.611 C 353.043 120.663,352.145 119.368,351.337 117.939 C 350.862 117.100,349.827 115.658,349.037 114.734 C 348.246 113.811,347.600 112.908,347.600 112.728 C 347.600 112.548,347.420 112.400,347.200 112.400 C 346.980 112.400,346.800 112.510,346.800 112.644 M334.770 125.436 C 334.318 125.981,334.350 126.052,334.999 125.936 C 335.446 125.856,335.931 126.128,336.183 126.600 C 336.892 127.929,338.117 129.775,338.572 130.200 C 338.807 130.420,339.339 131.267,339.753 132.081 C 340.167 132.896,340.823 133.903,341.210 134.319 C 341.598 134.735,342.187 135.598,342.519 136.238 C 342.850 136.877,343.635 138.055,344.261 138.856 C 345.430 140.351,347.371 143.345,348.354 145.171 C 350.959 150.006,354.186 152.371,356.056 150.813 C 356.575 150.381,356.811 150.021,356.580 150.013 C 356.349 150.006,355.989 150.163,355.780 150.361 C 354.206 151.857,352.501 150.411,348.447 144.140 C 346.905 141.753,345.228 139.273,344.721 138.628 C 344.215 137.984,343.440 136.880,343.000 136.175 C 341.957 134.504,340.281 131.940,338.440 129.200 C 337.626 127.990,336.749 126.505,336.489 125.900 C 335.950 124.644,335.523 124.529,334.770 125.436 M68.670 127.626 C 69.180 128.140,69.215 128.079,66.906 130.726 C 66.078 131.675,64.500 133.945,63.400 135.770 C 60.286 140.938,59.150 142.647,57.052 145.319 C 55.981 146.684,54.905 148.250,54.661 148.800 C 54.418 149.350,53.629 150.736,52.909 151.881 C 50.996 154.922,51.804 156.866,55.782 158.791 C 56.743 159.256,57.614 159.858,57.718 160.129 C 57.821 160.400,58.921 161.135,60.162 161.763 C 61.402 162.391,62.514 163.061,62.632 163.252 C 63.486 164.633,66.615 163.210,68.117 160.758 C 69.622 158.302,71.507 155.446,72.313 154.400 C 72.737 153.850,73.764 152.140,74.596 150.600 C 75.427 149.060,76.588 147.260,77.177 146.600 C 78.618 144.984,80.201 142.756,80.517 141.900 C 80.659 141.515,81.061 141.200,81.411 141.200 C 81.761 141.200,81.936 141.020,81.800 140.800 C 81.334 140.047,80.957 140.404,78.849 143.600 C 77.688 145.360,76.605 146.800,76.443 146.800 C 76.281 146.800,75.846 147.385,75.477 148.100 C 74.713 149.577,74.377 150.124,72.341 153.198 C 70.054 156.651,68.661 158.825,67.878 160.165 C 65.741 163.821,64.131 163.901,59.243 160.590 C 58.276 159.936,57.196 159.218,56.843 158.995 C 53.514 156.898,52.434 155.839,52.413 154.649 C 52.394 153.585,55.330 148.405,57.374 145.896 C 58.323 144.730,59.591 142.837,60.192 141.689 C 60.792 140.540,61.435 139.600,61.620 139.600 C 61.805 139.600,62.191 139.174,62.478 138.652 C 62.765 138.131,63.427 136.916,63.949 135.952 C 65.083 133.859,68.865 128.800,69.296 128.800 C 69.903 128.800,69.582 127.679,68.900 127.419 C 68.363 127.215,68.309 127.263,68.670 127.626 M331.646 128.927 C 331.621 129.327,332.421 130.661,333.424 131.893 C 334.427 133.124,335.519 134.656,335.850 135.297 C 336.181 135.938,337.071 137.272,337.826 138.262 C 338.582 139.251,339.200 140.219,339.200 140.413 C 339.200 140.924,342.048 145.174,343.109 146.247 C 343.390 146.530,344.357 148.075,345.258 149.681 C 346.160 151.286,347.162 152.902,347.485 153.271 C 348.493 154.424,346.118 157.931,343.842 158.649 C 343.379 158.795,342.100 159.674,341.000 160.604 C 336.590 164.329,334.862 163.987,331.354 158.692 C 330.008 156.661,327.848 153.421,326.554 151.490 C 325.259 149.560,323.815 147.333,323.344 146.541 C 322.873 145.749,322.331 144.988,322.140 144.851 C 321.949 144.713,321.434 143.910,320.996 143.067 C 320.179 141.494,319.693 140.974,319.355 141.312 C 319.249 141.418,319.756 142.355,320.481 143.395 C 321.207 144.435,322.430 146.243,323.200 147.412 C 326.579 152.543,327.725 154.213,327.994 154.400 C 328.152 154.510,328.589 155.255,328.965 156.055 C 329.341 156.856,330.178 158.103,330.824 158.827 C 331.471 159.552,332.000 160.360,332.000 160.625 C 332.000 160.889,332.585 161.682,333.300 162.388 C 335.196 164.259,337.520 163.995,340.588 161.560 C 341.807 160.592,343.389 159.486,344.103 159.102 C 347.293 157.387,349.500 153.927,347.996 152.998 C 347.774 152.860,346.879 151.455,346.008 149.874 C 345.137 148.293,343.783 146.280,342.999 145.400 C 342.215 144.520,341.302 143.260,340.971 142.600 C 339.185 139.042,338.642 138.111,337.827 137.200 C 337.334 136.650,336.469 135.390,335.905 134.400 C 335.341 133.410,334.251 131.953,333.481 131.162 C 332.712 130.372,331.995 129.382,331.888 128.962 C 331.709 128.264,331.689 128.261,331.646 128.927 M114.271 175.100 C 114.174 175.265,113.960 176.030,113.796 176.800 C 113.632 177.570,113.251 178.555,112.949 178.989 C 112.647 179.423,112.392 180.773,112.382 181.989 C 112.373 183.205,112.072 184.920,111.713 185.800 C 110.581 188.582,110.472 209.993,111.573 213.499 C 112.028 214.949,112.400 217.056,112.400 218.183 C 112.400 219.441,112.708 220.836,113.200 221.800 C 113.640 222.663,114.000 223.646,114.000 223.985 C 114.000 224.323,114.372 225.579,114.827 226.775 C 115.282 227.972,115.562 229.303,115.449 229.733 C 115.296 230.320,115.359 230.401,115.702 230.058 C 115.954 229.806,116.537 229.600,116.998 229.600 C 117.965 229.600,129.171 218.668,131.027 215.915 C 131.663 214.972,133.049 213.232,134.108 212.050 C 136.355 209.539,136.667 210.310,131.099 204.600 C 126.403 199.783,121.260 190.105,120.898 185.400 C 120.779 183.860,120.452 182.240,120.171 181.800 C 119.889 181.360,119.531 180.300,119.375 179.445 C 118.916 176.935,115.102 173.688,114.271 175.100 M264.248 197.411 C 258.236 203.424,258.145 202.569,265.600 210.161 C 268.900 213.522,271.600 216.397,271.600 216.552 C 271.600 217.641,278.157 224.308,279.998 225.092 C 281.994 225.941,284.038 221.398,282.399 219.759 C 282.178 219.538,281.807 217.843,281.575 215.991 C 281.343 214.140,281.000 212.440,280.812 212.213 C 280.625 211.986,280.339 211.090,280.177 210.223 C 279.831 208.373,276.775 202.110,275.437 200.510 C 274.927 199.899,274.141 198.680,273.691 197.800 C 272.943 196.337,272.140 195.454,269.748 193.470 C 268.908 192.773,268.830 192.829,264.248 197.411 M61.797 237.446 C 60.699 238.021,59.005 239.101,58.034 239.846 C 57.063 240.591,56.092 241.200,55.876 241.200 C 55.115 241.200,52.000 244.062,51.772 244.970 C 51.501 246.049,54.670 251.852,57.086 254.703 C 57.919 255.686,58.780 256.875,59.000 257.345 C 59.550 258.521,60.891 260.516,61.457 261.000 C 61.714 261.220,62.582 262.673,63.386 264.228 C 64.190 265.784,65.512 267.764,66.324 268.628 C 67.136 269.493,68.250 271.070,68.800 272.134 C 69.350 273.198,70.115 274.239,70.500 274.448 C 70.885 274.657,71.214 275.137,71.232 275.514 C 71.253 275.976,71.332 276.027,71.474 275.671 C 71.591 275.381,71.336 274.751,70.908 274.271 C 70.480 273.792,69.707 272.680,69.192 271.800 C 68.676 270.920,67.591 269.390,66.780 268.400 C 65.969 267.410,64.830 265.700,64.249 264.600 C 62.757 261.775,62.296 261.085,61.500 260.483 C 61.115 260.193,60.800 259.793,60.800 259.595 C 60.800 259.279,59.363 256.909,58.500 255.800 C 55.779 252.308,52.400 246.580,52.400 245.461 C 52.400 244.649,55.336 241.736,56.530 241.363 C 57.009 241.214,57.796 240.700,58.280 240.221 C 59.327 239.183,63.254 237.200,64.260 237.200 C 65.248 237.200,68.897 241.164,70.439 243.914 C 71.144 245.171,72.027 246.560,72.400 247.000 C 72.773 247.440,73.676 248.880,74.406 250.200 C 75.715 252.566,75.969 252.926,77.574 254.692 C 78.019 255.183,78.937 256.563,79.612 257.760 C 80.287 258.956,81.101 260.152,81.420 260.416 C 81.739 260.681,82.000 261.106,82.000 261.360 C 82.000 262.100,83.220 263.635,83.615 263.391 C 83.813 263.268,83.306 262.259,82.488 261.149 C 81.670 260.038,80.569 258.380,80.042 257.465 C 79.515 256.549,78.423 254.990,77.616 254.000 C 76.809 253.010,75.641 251.300,75.020 250.200 C 74.400 249.100,73.421 247.572,72.846 246.805 C 72.271 246.037,71.530 244.840,71.200 244.144 C 70.069 241.757,65.258 236.400,64.247 236.400 C 63.998 236.400,62.895 236.871,61.797 237.446 M333.225 238.648 C 332.095 239.885,330.880 241.459,330.525 242.146 C 330.169 242.833,329.049 244.420,328.035 245.673 C 327.021 246.926,325.667 248.997,325.026 250.276 C 324.385 251.554,323.127 253.426,322.231 254.435 C 321.334 255.443,320.332 256.793,320.005 257.435 C 319.095 259.216,317.459 261.200,316.900 261.200 C 316.625 261.200,316.400 261.380,316.400 261.600 C 316.400 262.306,317.796 262.027,318.205 261.239 C 318.838 260.019,321.633 255.956,323.185 254.000 C 323.970 253.010,325.041 251.390,325.564 250.400 C 326.087 249.410,327.254 247.643,328.158 246.474 C 329.061 245.305,330.134 243.775,330.541 243.074 C 334.193 236.796,336.194 236.131,341.000 239.603 C 341.880 240.238,343.427 241.247,344.438 241.845 C 346.434 243.026,348.241 245.279,347.843 246.092 C 347.706 246.371,347.143 247.320,346.590 248.200 C 346.038 249.080,345.426 250.174,345.229 250.631 C 345.033 251.088,343.998 252.618,342.929 254.031 C 341.861 255.444,340.555 257.320,340.028 258.200 C 339.502 259.080,338.754 260.160,338.367 260.600 C 337.979 261.040,336.902 262.750,335.973 264.400 C 335.044 266.050,333.762 267.937,333.125 268.593 C 332.488 269.249,331.487 270.734,330.900 271.893 C 330.313 273.052,329.710 274.000,329.559 274.000 C 329.035 274.000,328.839 275.176,329.317 275.451 C 329.583 275.604,329.673 275.588,329.518 275.416 C 329.364 275.244,329.859 274.289,330.618 273.294 C 331.378 272.299,332.003 271.286,332.006 271.042 C 332.009 270.799,332.730 269.803,333.608 268.829 C 334.487 267.855,335.946 265.709,336.850 264.061 C 337.755 262.413,338.810 260.727,339.194 260.314 C 339.579 259.901,340.233 258.896,340.647 258.081 C 341.061 257.267,342.030 255.917,342.800 255.082 C 343.570 254.247,344.931 252.220,345.823 250.578 C 346.716 248.937,347.661 247.379,347.923 247.117 C 349.358 245.682,347.135 242.367,343.804 240.976 C 343.085 240.676,342.405 240.189,342.291 239.894 C 342.082 239.348,336.546 236.400,335.729 236.400 C 335.482 236.400,334.356 237.412,333.225 238.648 M45.400 248.792 C 43.588 249.359,39.607 251.626,39.603 252.092 C 39.601 252.252,38.885 252.749,38.011 253.194 C 33.403 255.545,32.398 258.170,34.900 261.323 C 36.181 262.937,36.895 264.022,37.452 265.200 C 37.608 265.530,38.156 266.309,38.668 266.931 C 39.181 267.553,39.600 268.254,39.600 268.489 C 39.600 268.725,40.195 269.656,40.922 270.559 C 41.649 271.461,42.735 273.010,43.335 274.000 C 43.935 274.990,45.225 276.880,46.201 278.200 C 47.177 279.520,48.171 281.044,48.411 281.587 C 48.650 282.130,49.421 283.300,50.123 284.187 C 50.825 285.074,51.721 286.434,52.114 287.210 C 52.507 287.985,53.492 289.335,54.302 290.210 C 55.113 291.084,55.724 292.043,55.661 292.340 C 55.598 292.637,55.739 292.762,55.973 292.617 C 56.692 292.172,56.458 291.549,55.083 290.247 C 54.359 289.561,53.183 287.978,52.470 286.729 C 51.758 285.480,51.039 284.400,50.872 284.329 C 50.706 284.258,50.053 283.300,49.420 282.200 C 48.787 281.100,48.164 280.110,48.035 280.000 C 47.664 279.684,42.800 272.462,42.800 272.227 C 42.800 272.111,42.081 271.068,41.202 269.908 C 40.323 268.749,39.603 267.597,39.602 267.349 C 39.601 267.101,39.331 266.675,39.003 266.402 C 38.674 266.129,37.852 264.982,37.177 263.853 C 36.502 262.724,35.510 261.188,34.974 260.441 C 33.363 258.194,34.226 255.417,36.788 254.604 C 37.234 254.462,37.600 254.178,37.600 253.973 C 37.600 253.768,37.836 253.600,38.125 253.600 C 38.413 253.600,38.998 253.284,39.425 252.897 C 45.589 247.307,47.797 248.473,54.777 261.000 C 55.512 262.320,56.313 263.582,56.557 263.805 C 57.324 264.505,58.676 266.579,58.971 267.508 C 59.126 267.998,59.408 268.400,59.597 268.400 C 59.943 268.400,64.612 275.061,66.330 278.006 C 67.180 279.464,68.400 280.167,68.400 279.200 C 68.400 278.980,68.124 278.800,67.787 278.800 C 67.451 278.800,67.057 278.485,66.913 278.100 C 66.453 276.871,61.901 270.251,60.526 268.812 C 59.797 268.048,59.200 267.207,59.200 266.942 C 59.200 266.678,58.603 265.679,57.874 264.724 C 56.421 262.821,53.600 258.145,53.600 257.641 C 53.600 257.466,53.239 256.997,52.797 256.597 C 52.355 256.198,51.726 255.333,51.398 254.676 C 49.774 251.421,46.684 248.390,45.400 248.792 M352.051 250.090 C 351.147 250.985,349.931 252.546,349.349 253.559 C 348.768 254.571,347.981 255.760,347.600 256.200 C 347.220 256.640,346.136 258.350,345.192 260.000 C 344.248 261.650,342.963 263.656,342.338 264.458 C 341.712 265.259,341.200 266.098,341.200 266.321 C 341.200 266.544,340.421 267.688,339.469 268.863 C 337.729 271.010,335.290 274.534,333.800 277.052 C 333.360 277.796,332.775 278.319,332.500 278.215 C 332.225 278.110,332.000 278.199,332.000 278.413 C 332.000 279.346,333.272 278.670,334.160 277.264 C 334.693 276.419,335.392 275.465,335.713 275.144 C 336.034 274.823,336.613 273.940,336.999 273.180 C 337.386 272.421,338.490 270.871,339.451 269.736 C 340.413 268.601,341.200 267.502,341.200 267.294 C 341.200 267.085,341.801 266.124,342.536 265.158 C 343.271 264.191,344.717 261.932,345.749 260.138 C 346.781 258.344,347.890 256.657,348.213 256.389 C 348.536 256.121,348.812 255.699,348.827 255.451 C 348.875 254.640,352.174 250.363,353.256 249.707 C 354.543 248.928,355.599 249.349,360.600 252.635 C 366.928 256.792,367.303 257.730,364.286 261.856 C 363.343 263.145,362.038 265.060,361.386 266.112 C 360.734 267.164,359.642 268.784,358.960 269.712 C 358.278 270.640,357.441 271.940,357.099 272.600 C 356.757 273.260,355.965 274.455,355.339 275.256 C 354.713 276.057,353.660 277.574,353.000 278.628 C 351.124 281.623,349.624 283.918,349.098 284.600 C 346.330 288.186,344.688 292.036,345.668 292.642 C 345.977 292.833,346.054 292.718,345.895 292.305 C 345.763 291.960,346.177 290.715,346.814 289.539 C 347.451 288.363,348.240 286.815,348.566 286.100 C 348.892 285.385,349.319 284.800,349.514 284.800 C 349.709 284.800,350.370 283.810,350.982 282.600 C 351.594 281.390,352.237 280.400,352.410 280.400 C 352.583 280.400,353.220 279.554,353.826 278.520 C 354.432 277.486,355.529 275.852,356.264 274.889 C 356.999 273.926,357.600 272.958,357.600 272.737 C 357.600 272.516,358.220 271.579,358.977 270.654 C 359.734 269.730,360.545 268.530,360.778 267.987 C 361.012 267.444,361.821 266.190,362.575 265.200 C 363.330 264.210,363.959 263.194,363.973 262.943 C 363.988 262.691,364.247 262.391,364.549 262.275 C 365.218 262.018,366.800 258.847,366.800 257.763 C 366.800 256.753,364.905 254.681,363.161 253.783 C 362.412 253.397,361.080 252.507,360.200 251.804 C 358.779 250.669,356.223 249.304,354.348 248.679 C 353.932 248.541,353.098 249.053,352.051 250.090 M24.128 262.500 C 23.007 263.215,21.229 264.340,20.175 265.000 C 16.748 267.146,15.199 268.750,15.205 270.147 C 15.211 271.428,18.134 277.200,18.778 277.200 C 18.971 277.200,19.504 277.975,19.963 278.923 C 20.421 279.870,21.138 281.012,21.556 281.460 C 21.973 281.909,22.587 282.798,22.919 283.438 C 23.250 284.077,24.035 285.255,24.661 286.056 C 25.711 287.398,27.086 289.498,28.933 292.578 C 29.335 293.250,30.190 294.464,30.833 295.277 C 31.475 296.089,32.004 296.989,32.009 297.277 C 32.014 297.564,32.599 298.466,33.309 299.281 C 34.501 300.647,35.049 301.449,38.068 306.236 C 38.655 307.167,39.208 308.350,39.297 308.865 C 39.433 309.651,39.508 309.692,39.763 309.126 C 40.089 308.400,38.936 306.311,35.400 301.223 C 33.442 298.405,32.563 297.094,30.259 293.553 C 29.631 292.589,28.416 290.781,27.559 289.536 C 26.702 288.291,26.000 287.152,26.000 287.004 C 26.000 286.856,25.370 285.966,24.600 285.026 C 23.830 284.086,23.200 283.133,23.200 282.908 C 23.200 282.682,22.931 282.275,22.603 282.002 C 22.274 281.729,21.427 280.492,20.720 279.253 C 20.013 278.014,19.128 276.669,18.753 276.264 C 14.816 272.005,15.028 268.732,19.406 266.183 C 20.503 265.545,21.739 264.712,22.153 264.332 C 25.829 260.961,28.885 261.175,31.007 264.952 C 31.640 266.079,32.458 267.323,32.826 267.719 C 33.193 268.114,33.833 269.104,34.247 269.919 C 34.661 270.733,35.585 272.107,36.300 272.972 C 37.015 273.837,37.600 274.706,37.600 274.905 C 37.600 275.103,38.205 276.016,38.946 276.933 C 39.686 277.850,40.541 279.063,40.846 279.629 C 41.817 281.434,43.772 284.476,44.654 285.558 C 45.124 286.135,45.844 287.156,46.254 287.828 C 50.306 294.463,52.097 296.475,53.078 295.494 C 53.682 294.890,53.666 294.858,52.867 295.067 C 51.904 295.318,50.763 294.235,49.846 292.200 C 49.549 291.540,48.832 290.495,48.252 289.878 C 47.673 289.262,46.903 288.182,46.543 287.478 C 46.182 286.775,45.508 285.730,45.044 285.155 C 44.287 284.219,42.642 281.692,41.314 279.428 C 40.772 278.503,38.455 275.189,36.545 272.608 C 35.855 271.675,34.983 270.264,34.608 269.473 C 34.232 268.682,33.537 267.621,33.063 267.117 C 32.588 266.613,31.765 265.366,31.234 264.347 C 29.483 260.988,27.361 260.437,24.128 262.500 M370.000 262.848 C 369.120 263.755,368.400 264.731,368.400 265.018 C 368.400 265.304,367.970 266.050,367.444 266.675 C 366.918 267.300,365.973 268.640,365.344 269.652 C 363.776 272.175,356.481 283.168,355.558 284.400 C 355.145 284.950,354.322 286.210,353.728 287.200 C 353.135 288.190,352.206 289.540,351.664 290.200 C 351.122 290.860,350.430 291.993,350.127 292.718 C 349.823 293.442,349.231 294.162,348.810 294.318 C 348.059 294.596,348.059 294.617,348.814 295.600 C 349.557 296.568,349.582 296.572,349.591 295.741 C 349.601 294.792,351.530 290.916,352.575 289.745 C 352.941 289.335,355.618 285.400,358.524 281.000 C 361.430 276.600,364.181 272.460,364.635 271.800 C 365.090 271.140,366.153 269.520,366.998 268.200 C 370.051 263.426,370.499 262.827,371.511 262.164 C 372.885 261.263,374.255 261.769,378.988 264.922 C 384.698 268.727,385.389 270.063,383.323 273.308 C 382.731 274.239,381.816 275.810,381.290 276.800 C 380.763 277.790,379.920 279.050,379.416 279.600 C 378.145 280.985,373.404 288.032,372.352 290.098 C 371.875 291.034,370.737 292.700,369.823 293.800 C 368.908 294.900,367.937 296.250,367.664 296.800 C 366.824 298.495,366.088 299.697,365.732 299.954 C 365.545 300.089,364.897 300.965,364.291 301.900 C 362.700 304.354,360.995 304.000,354.880 299.942 C 353.324 298.909,352.000 298.477,352.000 299.001 C 352.000 299.443,355.000 301.999,355.115 301.654 C 355.265 301.204,356.776 301.533,357.600 302.195 C 358.936 303.268,362.007 304.452,362.801 304.200 C 363.558 303.959,366.579 299.900,368.000 297.214 C 368.330 296.590,369.320 295.267,370.200 294.274 C 371.080 293.281,372.493 291.148,373.341 289.534 C 374.188 287.920,375.291 286.150,375.792 285.600 C 376.293 285.050,376.930 284.150,377.209 283.600 C 377.487 283.050,378.560 281.520,379.593 280.200 C 380.626 278.880,381.770 277.215,382.136 276.500 C 383.705 273.430,384.071 272.803,384.425 272.584 C 386.118 271.538,384.073 267.279,381.161 265.785 C 380.412 265.401,379.279 264.653,378.643 264.122 C 374.849 260.954,372.214 260.566,370.000 262.848 M189.900 274.773 C 182.260 282.468,179.600 285.392,179.600 286.094 C 179.600 286.614,179.431 287.211,179.225 287.420 C 178.989 287.659,179.988 287.814,181.925 287.839 C 183.814 287.862,185.598 288.132,186.549 288.539 C 188.792 289.496,211.798 289.532,213.639 288.580 C 215.017 287.867,221.588 287.156,222.229 287.650 C 222.522 287.875,222.599 287.575,222.472 286.706 C 222.264 285.289,201.967 264.397,200.800 264.397 C 200.470 264.398,195.565 269.067,189.900 274.773 " stroke="none" fill="#1d4b87" fill-rule="evenodd"></path></g></svg>