<svg id="svg" version="1.1" xmlns="http://www.w3.org/2000/svg" xmlns:xlink="http://www.w3.org/1999/xlink" width="400"
  height="400" viewBox="0, 0, 400,400">
  <g id="svgg">
    <path id="path0"
      d="M0.000 200.000 L 0.000 400.000 66.800 400.000 L 133.600 400.000 133.600 361.856 L 133.600 323.712 134.642 322.156 C 135.215 321.300,137.060 319.268,138.742 317.639 C 140.424 316.010,148.271 308.360,156.180 300.639 C 169.015 288.108,174.078 283.176,191.196 266.520 C 204.646 253.435,207.456 250.813,208.043 250.807 C 208.397 250.803,210.557 252.610,212.843 254.822 C 219.030 260.807,224.291 265.926,240.202 281.437 C 264.837 305.456,266.438 306.996,266.925 307.155 C 267.186 307.240,264.767 304.720,261.548 301.555 C 251.257 291.434,222.830 263.696,213.243 254.422 C 207.760 249.117,208.441 249.016,201.000 256.241 C 197.700 259.446,191.310 265.638,186.800 270.001 C 182.290 274.365,175.180 281.295,171.000 285.401 C 166.820 289.508,158.360 297.757,152.200 303.734 C 146.040 309.710,139.110 316.559,136.800 318.953 C 129.207 326.824,125.920 330.108,115.624 340.112 C 110.027 345.551,105.237 350.000,104.980 350.000 C 104.454 350.000,104.141 349.701,82.802 328.848 C 65.961 312.391,60.672 307.239,54.200 300.991 C 49.051 296.020,48.971 296.776,55.296 290.625 C 57.993 288.003,64.895 281.254,70.634 275.629 C 87.257 259.333,104.860 242.220,105.256 241.970 C 105.456 241.844,108.901 238.520,112.910 234.584 C 125.584 222.143,133.401 214.626,134.525 213.800 C 136.894 212.058,152.400 196.621,152.400 196.004 C 152.400 195.642,148.595 191.669,143.945 187.173 C 133.743 177.310,134.233 177.771,133.477 177.345 C 133.140 177.155,127.519 171.780,120.986 165.400 C 114.452 159.020,108.969 153.710,108.801 153.600 C 108.501 153.403,89.384 134.831,81.420 127.000 C 79.183 124.800,71.289 117.070,63.878 109.822 C 56.468 102.574,50.308 96.342,50.191 95.973 C 50.012 95.407,62.224 82.698,64.004 81.597 C 64.409 81.347,70.784 75.123,90.200 56.018 C 96.140 50.174,101.849 44.611,102.887 43.657 L 104.774 41.922 105.887 42.791 C 107.443 44.006,128.964 64.886,131.400 67.545 C 134.529 70.959,143.219 79.616,155.547 91.600 C 161.770 97.650,170.133 105.815,174.131 109.745 C 178.129 113.675,185.270 120.634,190.000 125.209 C 194.730 129.785,200.450 135.324,202.711 137.520 C 208.408 143.051,207.690 143.140,214.969 136.006 C 218.286 132.756,221.540 129.608,222.200 129.012 C 223.546 127.796,248.032 103.833,259.758 92.255 C 263.961 88.106,267.186 84.776,266.924 84.855 C 266.663 84.935,263.063 88.313,258.924 92.362 C 254.786 96.412,244.861 106.130,236.869 113.958 C 228.877 121.786,222.162 128.300,221.946 128.434 C 221.730 128.567,218.705 131.494,215.225 134.938 C 207.667 142.417,208.426 142.276,203.157 137.178 C 193.748 128.076,162.656 97.789,157.599 92.800 C 155.703 90.930,149.784 85.170,144.446 80.000 C 138.542 74.282,134.517 70.072,134.170 69.251 C 133.692 68.119,133.600 62.440,133.600 33.951 L 133.600 0.000 66.800 0.000 L 0.000 0.000 0.000 200.000 M103.567 64.733 C 103.218 65.100,98.550 69.630,93.193 74.800 C 74.370 92.964,72.400 94.950,72.400 95.763 C 72.400 96.258,74.566 98.677,78.144 102.179 C 81.303 105.270,89.988 113.770,97.444 121.067 C 104.900 128.364,111.540 134.827,112.200 135.429 C 113.549 136.660,130.724 153.261,136.998 159.400 C 150.420 172.531,168.988 190.600,171.300 192.780 C 174.883 196.160,175.127 195.630,165.900 204.521 C 161.445 208.814,154.740 215.326,151.000 218.993 C 147.260 222.659,139.531 230.191,133.824 235.730 C 128.117 241.268,120.153 249.029,116.125 252.976 C 112.098 256.922,108.639 260.252,108.440 260.376 C 108.138 260.563,96.621 271.786,76.811 291.200 C 72.217 295.701,71.560 296.689,72.637 297.476 C 73.043 297.773,76.360 300.938,80.008 304.508 C 92.645 316.876,104.432 328.201,104.800 328.328 C 105.226 328.476,108.424 325.544,117.200 316.958 C 120.610 313.622,123.940 310.406,124.600 309.812 C 125.596 308.916,136.867 297.923,156.397 278.800 C 159.760 275.507,177.078 258.748,185.536 250.600 C 187.820 248.400,193.662 242.685,198.518 237.900 C 203.374 233.115,207.645 229.200,208.009 229.200 C 208.373 229.200,211.924 232.395,215.900 236.300 C 219.876 240.205,224.994 245.200,227.273 247.400 C 239.656 259.354,253.353 272.614,256.402 275.600 C 276.316 295.103,287.341 305.839,287.650 306.030 C 287.854 306.157,291.122 309.313,294.911 313.043 C 306.011 323.970,310.396 328.000,311.186 328.000 C 311.593 328.000,313.721 326.245,315.913 324.100 C 319.965 320.135,337.482 303.190,341.733 299.122 C 344.757 296.229,345.028 296.702,334.529 286.533 C 329.948 282.097,322.780 275.109,318.600 271.004 C 310.755 263.301,309.753 262.329,293.039 246.200 C 287.567 240.920,281.251 234.800,279.002 232.600 C 267.452 221.298,247.448 201.835,244.900 199.419 C 241.492 196.187,241.424 195.825,243.820 193.708 C 245.331 192.372,258.319 179.750,274.800 163.600 C 277.794 160.666,290.005 148.843,303.792 135.529 C 305.996 133.400,310.860 128.660,314.600 124.995 C 318.340 121.330,326.391 113.463,332.490 107.512 C 343.607 96.667,344.639 95.456,343.484 94.612 C 342.940 94.214,329.126 80.902,319.604 71.600 C 313.249 65.392,311.692 64.000,311.101 64.000 C 310.461 64.000,310.135 64.304,295.050 78.951 C 289.358 84.478,284.560 89.090,284.388 89.200 C 284.217 89.310,277.824 95.520,270.182 103.000 C 262.540 110.480,254.447 118.400,252.198 120.600 C 249.950 122.800,243.633 128.920,238.161 134.200 C 221.859 149.932,220.447 151.300,214.457 157.171 C 211.298 160.267,208.402 162.800,208.021 162.800 C 207.641 162.800,204.076 159.605,200.100 155.700 C 196.124 151.795,191.006 146.800,188.727 144.600 C 176.344 132.646,162.647 119.386,159.598 116.400 C 139.684 96.897,128.659 86.161,128.350 85.970 C 128.146 85.843,124.878 82.687,121.089 78.957 C 105.757 63.864,104.987 63.239,103.567 64.733 M109.277 68.300 C 111.531 70.445,116.578 75.341,120.493 79.180 C 124.408 83.018,127.773 86.260,127.972 86.382 C 128.276 86.570,147.252 105.046,159.213 116.800 C 166.398 123.860,184.908 141.808,185.203 142.000 C 185.371 142.110,190.402 146.970,196.382 152.800 C 202.362 158.630,207.557 163.446,207.927 163.503 C 208.332 163.564,210.857 161.416,214.274 158.103 C 217.395 155.076,221.625 150.978,223.674 148.995 C 245.424 127.951,250.606 122.928,253.587 120.000 C 266.268 107.548,284.537 89.763,284.840 89.576 C 285.039 89.453,288.220 86.393,291.910 82.776 C 303.305 71.606,310.842 64.400,311.131 64.400 C 311.282 64.400,313.655 66.581,316.403 69.246 C 340.904 93.006,343.116 95.236,342.924 95.970 C 342.816 96.383,336.311 102.994,328.470 110.661 C 320.628 118.327,312.833 125.950,311.148 127.600 C 309.462 129.250,306.310 132.312,304.142 134.405 C 290.732 147.352,277.393 160.272,274.414 163.200 C 270.896 166.657,244.909 191.959,242.512 194.260 C 240.744 195.958,240.797 196.145,243.900 199.173 C 245.385 200.622,252.799 207.836,260.375 215.204 C 267.951 222.572,275.708 230.130,277.613 232.000 C 286.040 240.275,303.730 257.421,304.051 257.625 C 304.246 257.749,310.479 263.796,317.903 271.062 C 347.150 299.691,344.215 296.155,341.107 299.017 C 339.309 300.673,325.522 313.977,314.699 324.500 C 312.945 326.205,311.341 327.600,311.134 327.600 C 310.731 327.600,306.884 323.961,295.513 312.820 C 291.595 308.982,288.227 305.740,288.028 305.618 C 287.723 305.429,268.221 286.440,256.789 275.200 C 250.128 268.652,231.905 250.998,231.601 250.800 C 231.433 250.690,226.220 245.650,220.017 239.600 C 213.697 233.436,208.422 228.600,208.018 228.600 C 207.611 228.600,201.681 234.090,194.408 241.200 C 187.319 248.130,181.378 253.890,181.205 254.000 C 180.836 254.234,163.462 271.101,148.836 285.423 C 143.206 290.935,135.543 298.405,131.808 302.023 C 128.072 305.640,122.977 310.580,120.485 313.000 C 108.475 324.665,105.369 327.592,104.997 327.596 C 103.969 327.606,72.817 296.823,73.098 296.074 C 73.237 295.703,75.085 293.690,77.206 291.600 C 86.556 282.384,108.497 260.987,108.786 260.803 C 109.086 260.611,127.691 242.571,135.190 235.200 C 137.092 233.330,144.758 225.864,152.224 218.609 C 172.635 198.777,174.800 196.610,174.800 196.012 C 174.800 195.709,173.585 194.276,172.100 192.827 C 170.615 191.378,163.201 184.164,155.625 176.796 C 148.049 169.428,140.292 161.870,138.387 160.000 C 130.136 151.898,112.273 134.581,111.963 134.383 C 111.776 134.264,105.813 128.484,98.711 121.538 C 91.610 114.593,82.964 106.140,79.497 102.755 C 75.329 98.685,73.194 96.318,73.197 95.767 C 73.199 95.207,76.239 91.992,82.461 85.967 C 87.555 81.035,94.620 74.168,98.161 70.707 C 101.703 67.246,104.730 64.411,104.890 64.407 C 105.049 64.403,107.024 66.155,109.277 68.300 M145.563 189.510 L 152.200 196.020 143.742 204.384 C 136.882 211.167,135.125 212.706,134.442 212.527 C 133.234 212.211,133.095 179.776,134.300 179.496 C 135.089 179.312,135.903 180.036,145.563 189.510 M264.700 194.490 C 263.279 196.146,263.768 197.638,266.131 198.851 C 266.680 199.133,266.418 198.691,265.420 197.650 L 263.840 196.003 265.199 194.601 C 265.946 193.831,266.387 193.202,266.178 193.204 C 265.970 193.206,265.305 193.785,264.700 194.490 "
      stroke="none" fill="#008C45" fill-rule="evenodd"></path>
    <path id="path1"
      d="M267.107 41.981 L 267.000 83.962 265.400 85.662 L 263.800 87.363 265.400 85.958 C 266.280 85.185,268.710 82.885,270.800 80.846 C 272.890 78.808,276.580 75.217,279.000 72.867 C 281.420 70.516,289.308 62.843,296.530 55.814 C 303.751 48.785,310.017 42.783,310.454 42.477 C 311.446 41.783,310.558 41.028,322.389 52.626 C 334.787 64.780,352.378 81.913,361.763 90.973 C 366.602 95.645,366.744 96.050,364.300 98.210 C 362.882 99.464,343.315 118.496,330.384 131.200 C 322.291 139.150,303.875 157.017,303.575 157.209 C 303.395 157.323,296.532 164.003,288.324 172.052 C 280.116 180.101,271.242 188.790,268.605 191.360 L 263.810 196.034 270.805 202.872 C 274.652 206.633,284.334 216.116,292.321 223.945 C 300.307 231.773,306.991 238.273,307.173 238.389 C 307.489 238.591,326.031 256.594,334.580 265.000 C 336.818 267.200,344.802 275.020,352.324 282.377 C 359.846 289.735,366.003 296.035,366.007 296.377 C 366.011 296.720,363.356 299.574,360.107 302.720 C 356.858 305.867,351.860 310.728,349.000 313.523 C 315.996 345.781,311.613 350.000,311.096 350.000 C 310.768 350.000,306.604 346.090,298.954 338.600 C 296.932 336.620,293.235 333.019,290.739 330.597 C 288.243 328.175,280.440 320.585,273.400 313.731 C 259.352 300.052,258.043 298.821,263.400 304.321 L 267.000 308.017 267.107 354.008 L 267.213 400.000 333.607 400.000 L 400.000 400.000 400.000 200.000 L 400.000 0.000 333.607 0.000 L 267.214 0.000 267.107 41.981 M103.762 65.300 L 103.000 66.200 103.892 65.445 C 104.667 64.790,104.879 64.763,105.492 65.245 C 106.135 65.749,106.150 65.736,105.651 65.100 C 104.937 64.189,104.679 64.216,103.762 65.300 M310.349 65.100 C 309.850 65.736,309.865 65.749,310.508 65.245 C 311.121 64.763,311.333 64.790,312.108 65.445 L 313.000 66.200 312.238 65.300 C 311.321 64.216,311.063 64.189,310.349 65.100 M136.200 72.000 C 137.283 73.100,138.260 74.000,138.370 74.000 C 138.480 74.000,137.683 73.100,136.600 72.000 C 135.517 70.900,134.540 70.000,134.430 70.000 C 134.320 70.000,135.117 70.900,136.200 72.000 M123.193 82.100 C 127.087 86.094,127.600 86.582,127.600 86.293 C 127.600 86.234,125.665 84.299,123.300 81.993 L 119.000 77.800 123.193 82.100 M289.193 85.500 L 285.000 89.800 289.300 85.607 C 291.665 83.301,293.600 81.366,293.600 81.307 C 293.600 81.018,293.087 81.506,289.193 85.500 M131.400 90.000 C 133.371 91.980,135.073 93.600,135.183 93.600 C 135.293 93.600,133.771 91.980,131.800 90.000 C 129.829 88.020,128.127 86.400,128.017 86.400 C 127.907 86.400,129.429 88.020,131.400 90.000 M338.400 91.000 C 340.260 92.870,341.872 94.400,341.982 94.400 C 342.092 94.400,340.660 92.870,338.800 91.000 C 336.940 89.130,335.328 87.600,335.218 87.600 C 335.108 87.600,336.540 89.130,338.400 91.000 M280.393 93.900 L 276.200 98.200 280.500 94.007 C 282.865 91.701,284.800 89.766,284.800 89.707 C 284.800 89.418,284.287 89.906,280.393 93.900 M75.186 93.100 L 73.000 95.400 75.300 93.214 C 77.437 91.182,77.783 90.800,77.486 90.800 C 77.424 90.800,76.389 91.835,75.186 93.100 M146.000 104.200 C 147.860 106.070,149.472 107.600,149.582 107.600 C 149.692 107.600,148.260 106.070,146.400 104.200 C 144.540 102.330,142.928 100.800,142.818 100.800 C 142.708 100.800,144.140 102.330,146.000 104.200 M171.193 106.100 C 173.499 108.465,175.434 110.400,175.493 110.400 C 175.782 110.400,175.294 109.887,171.300 105.993 L 167.000 101.800 171.193 106.100 M266.391 107.500 L 263.000 111.000 266.500 107.609 C 268.425 105.744,270.000 104.169,270.000 104.109 C 270.000 103.818,269.541 104.249,266.391 107.500 M240.391 110.300 L 237.000 113.800 240.500 110.409 C 242.425 108.544,244.000 106.969,244.000 106.909 C 244.000 106.618,243.541 107.049,240.391 110.300 M94.393 117.300 C 96.699 119.665,98.634 121.600,98.693 121.600 C 98.982 121.600,98.494 121.087,94.500 117.193 L 90.200 113.000 94.393 117.300 M185.993 120.500 C 188.299 122.865,190.234 124.800,190.293 124.800 C 190.582 124.800,190.094 124.287,186.100 120.393 L 181.800 116.200 185.993 120.500 M317.191 121.500 L 313.800 125.000 317.300 121.609 C 319.225 119.744,320.800 118.169,320.800 118.109 C 320.800 117.818,320.341 118.249,317.191 121.500 M225.392 124.900 L 221.800 128.600 225.500 125.008 C 228.936 121.672,229.382 121.200,229.092 121.200 C 229.032 121.200,227.367 122.865,225.392 124.900 M195.000 129.200 C 197.192 131.400,199.075 133.200,199.185 133.200 C 199.295 133.200,197.592 131.400,195.400 129.200 C 193.208 127.000,191.325 125.200,191.215 125.200 C 191.105 125.200,192.808 127.000,195.000 129.200 M108.400 131.000 C 110.260 132.870,111.872 134.400,111.982 134.400 C 112.092 134.400,110.660 132.870,108.800 131.000 C 106.940 129.130,105.328 127.600,105.218 127.600 C 105.108 127.600,106.540 129.130,108.400 131.000 M216.791 133.100 L 213.400 136.600 216.900 133.209 C 220.151 130.059,220.582 129.600,220.291 129.600 C 220.231 129.600,218.656 131.175,216.791 133.100 M303.792 134.500 L 300.200 138.200 303.900 134.608 C 305.935 132.633,307.600 130.968,307.600 130.908 C 307.600 130.618,307.128 131.064,303.792 134.500 M180.000 137.400 C 181.860 139.270,183.472 140.800,183.582 140.800 C 183.692 140.800,182.260 139.270,180.400 137.400 C 178.540 135.530,176.928 134.000,176.818 134.000 C 176.708 134.000,178.140 135.530,180.000 137.400 M117.000 139.200 C 118.971 141.180,120.673 142.800,120.783 142.800 C 120.893 142.800,119.371 141.180,117.400 139.200 C 115.429 137.220,113.727 135.600,113.617 135.600 C 113.507 135.600,115.029 137.220,117.000 139.200 M232.192 140.900 L 228.600 144.600 232.300 141.008 C 235.736 137.672,236.182 137.200,235.892 137.200 C 235.832 137.200,234.167 138.865,232.192 140.900 M295.191 142.700 L 291.800 146.200 295.300 142.809 C 297.225 140.944,298.800 139.369,298.800 139.309 C 298.800 139.018,298.341 139.449,295.191 142.700 M209.380 140.366 C 209.171 140.568,208.550 140.813,208.000 140.912 L 207.000 141.091 208.051 141.146 C 208.629 141.175,209.326 140.930,209.600 140.600 C 210.144 139.944,209.989 139.779,209.380 140.366 M188.600 145.600 C 190.571 147.580,192.273 149.200,192.383 149.200 C 192.493 149.200,190.971 147.580,189.000 145.600 C 187.029 143.620,185.327 142.000,185.217 142.000 C 185.107 142.000,186.629 143.620,188.600 145.600 M223.591 149.100 L 220.200 152.600 223.700 149.209 C 225.625 147.344,227.200 145.769,227.200 145.709 C 227.200 145.418,226.741 145.849,223.591 149.100 M202.793 159.300 C 206.687 163.294,207.200 163.782,207.200 163.493 C 207.200 163.434,205.265 161.499,202.900 159.193 L 198.600 155.000 202.793 159.300 M211.188 161.100 L 208.600 163.800 211.300 161.212 C 212.785 159.788,214.000 158.573,214.000 158.512 C 214.000 158.217,213.593 158.592,211.188 161.100 M151.200 172.600 C 153.060 174.470,154.672 176.000,154.782 176.000 C 154.892 176.000,153.460 174.470,151.600 172.600 C 149.740 170.730,148.128 169.200,148.018 169.200 C 147.908 169.200,149.340 170.730,151.200 172.600 M261.191 175.900 L 257.800 179.400 261.300 176.009 C 263.225 174.144,264.800 172.569,264.800 172.509 C 264.800 172.218,264.341 172.649,261.191 175.900 M165.193 186.100 C 167.499 188.465,169.434 190.400,169.493 190.400 C 169.782 190.400,169.294 189.887,165.300 185.993 L 161.000 181.800 165.193 186.100 M140.000 184.125 C 140.000 184.194,140.585 184.779,141.300 185.425 L 142.600 186.600 141.425 185.300 C 140.330 184.088,140.000 183.816,140.000 184.125 M246.791 189.900 L 243.400 193.400 246.900 190.009 C 248.825 188.144,250.400 186.569,250.400 186.509 C 250.400 186.218,249.941 186.649,246.791 189.900 M172.000 192.600 C 173.195 193.810,174.263 194.800,174.373 194.800 C 174.483 194.800,173.595 193.810,172.400 192.600 C 171.205 191.390,170.137 190.400,170.027 190.400 C 169.917 190.400,170.805 191.390,172.000 192.600 M266.957 194.633 C 267.879 197.034,266.814 198.596,265.292 197.074 L 264.268 196.050 265.234 195.032 C 266.366 193.839,266.629 193.778,266.957 194.633 M170.392 201.100 L 166.600 205.000 170.500 201.208 C 174.122 197.686,174.582 197.200,174.292 197.200 C 174.233 197.200,172.478 198.955,170.392 201.100 M243.600 199.400 C 244.795 200.610,245.863 201.600,245.973 201.600 C 246.083 201.600,245.195 200.610,244.000 199.400 C 242.805 198.190,241.737 197.200,241.627 197.200 C 241.517 197.200,242.405 198.190,243.600 199.400 M250.393 205.700 C 252.699 208.065,254.634 210.000,254.693 210.000 C 254.982 210.000,254.494 209.487,250.500 205.593 L 246.200 201.400 250.393 205.700 M141.600 206.200 C 140.628 207.190,139.923 208.000,140.033 208.000 C 140.143 208.000,141.028 207.190,142.000 206.200 C 142.972 205.210,143.677 204.400,143.567 204.400 C 143.457 204.400,142.572 205.210,141.600 206.200 M161.792 209.300 L 157.800 213.400 161.900 209.408 C 164.155 207.212,166.000 205.367,166.000 205.308 C 166.000 205.018,165.501 205.492,161.792 209.300 M264.400 219.400 C 266.260 221.270,267.872 222.800,267.982 222.800 C 268.092 222.800,266.660 221.270,264.800 219.400 C 262.940 217.530,261.328 216.000,261.218 216.000 C 261.108 216.000,262.540 217.530,264.400 219.400 M147.991 222.700 L 144.600 226.200 148.100 222.809 C 151.351 219.659,151.782 219.200,151.491 219.200 C 151.431 219.200,149.856 220.775,147.991 222.700 M201.195 234.300 L 195.400 240.200 201.300 234.405 C 206.781 229.022,207.381 228.400,207.095 228.400 C 207.037 228.400,204.382 231.055,201.195 234.300 M212.793 232.500 C 216.687 236.494,217.200 236.982,217.200 236.693 C 217.200 236.634,215.265 234.699,212.900 232.393 L 208.600 228.200 212.793 232.500 M227.400 246.800 C 229.592 249.000,231.475 250.800,231.585 250.800 C 231.695 250.800,229.992 249.000,227.800 246.800 C 225.608 244.600,223.725 242.800,223.615 242.800 C 223.505 242.800,225.208 244.600,227.400 246.800 M184.992 250.100 L 181.000 254.200 185.100 250.208 C 187.355 248.012,189.200 246.167,189.200 246.108 C 189.200 245.818,188.701 246.292,184.992 250.100 M298.600 252.800 C 300.571 254.780,302.273 256.400,302.383 256.400 C 302.493 256.400,300.971 254.780,299.000 252.800 C 297.029 250.820,295.327 249.200,295.217 249.200 C 295.107 249.200,296.629 250.820,298.600 252.800 M235.600 254.600 C 237.460 256.470,239.072 258.000,239.182 258.000 C 239.292 258.000,237.860 256.470,236.000 254.600 C 234.140 252.730,232.528 251.200,232.418 251.200 C 232.308 251.200,233.740 252.730,235.600 254.600 M113.193 256.700 L 109.000 261.000 113.300 256.807 C 117.294 252.913,117.782 252.400,117.493 252.400 C 117.434 252.400,115.499 254.335,113.193 256.700 M176.791 257.900 L 173.400 261.400 176.900 258.009 C 180.151 254.859,180.582 254.400,180.291 254.400 C 180.231 254.400,178.656 255.975,176.791 257.900 M307.200 261.000 C 309.060 262.870,310.672 264.400,310.782 264.400 C 310.892 264.400,309.460 262.870,307.600 261.000 C 305.740 259.130,304.128 257.600,304.018 257.600 C 303.908 257.600,305.340 259.130,307.200 261.000 M220.793 262.900 C 224.687 266.894,225.200 267.382,225.200 267.093 C 225.200 267.034,223.265 265.099,220.900 262.793 L 216.600 258.600 220.793 262.900 M105.191 264.300 L 101.800 267.800 105.300 264.409 C 108.551 261.259,108.982 260.800,108.691 260.800 C 108.631 260.800,107.056 262.375,105.191 264.300 M191.593 266.300 L 187.400 270.600 191.700 266.407 C 194.065 264.101,196.000 262.166,196.000 262.107 C 196.000 261.818,195.487 262.306,191.593 266.300 M229.593 271.300 C 233.487 275.294,234.000 275.782,234.000 275.493 C 234.000 275.434,232.065 273.499,229.700 271.193 L 225.400 267.000 229.593 271.300 M321.193 274.500 C 323.499 276.865,325.434 278.800,325.493 278.800 C 325.782 278.800,325.294 278.287,321.300 274.393 L 317.000 270.200 321.193 274.500 M182.592 274.900 L 178.600 279.000 182.700 275.008 C 184.955 272.812,186.800 270.967,186.800 270.908 C 186.800 270.618,186.301 271.092,182.592 274.900 M90.391 278.700 L 87.000 282.200 90.500 278.809 C 93.751 275.659,94.182 275.200,93.891 275.200 C 93.831 275.200,92.256 276.775,90.391 278.700 M244.393 285.700 C 248.287 289.694,248.800 290.182,248.800 289.893 C 248.800 289.834,246.865 287.899,244.500 285.593 L 240.200 281.400 244.393 285.700 M269.600 287.800 C 271.460 289.670,273.072 291.200,273.182 291.200 C 273.292 291.200,271.860 289.670,270.000 287.800 C 268.140 285.930,266.528 284.400,266.418 284.400 C 266.308 284.400,267.740 285.930,269.600 287.800 M167.191 289.900 L 163.800 293.400 167.300 290.009 C 170.551 286.859,170.982 286.400,170.691 286.400 C 170.631 286.400,169.056 287.975,167.191 289.900 M141.993 291.900 L 137.800 296.200 142.100 292.007 C 146.094 288.113,146.582 287.600,146.293 287.600 C 146.234 287.600,144.299 289.535,141.993 291.900 M341.220 298.579 L 339.440 300.600 341.401 298.714 C 342.479 297.677,343.280 296.767,343.181 296.693 C 343.081 296.619,342.199 297.467,341.220 298.579 M77.200 301.000 C 79.060 302.870,80.672 304.400,80.782 304.400 C 80.892 304.400,79.460 302.870,77.600 301.000 C 75.740 299.130,74.128 297.600,74.018 297.600 C 73.908 297.600,75.340 299.130,77.200 301.000 M284.400 302.200 C 286.260 304.070,287.872 305.600,287.982 305.600 C 288.092 305.600,286.660 304.070,284.800 302.200 C 282.940 300.330,281.328 298.800,281.218 298.800 C 281.108 298.800,282.540 300.330,284.400 302.200 M335.191 304.300 L 331.800 307.800 335.300 304.409 C 338.551 301.259,338.982 300.800,338.691 300.800 C 338.631 300.800,337.056 302.375,335.191 304.300 M127.991 305.500 L 124.600 309.000 128.100 305.609 C 131.351 302.459,131.782 302.000,131.491 302.000 C 131.431 302.000,129.856 303.575,127.991 305.500 M292.393 309.700 C 294.699 312.065,296.634 314.000,296.693 314.000 C 296.982 314.000,296.494 313.487,292.500 309.593 L 288.200 305.400 292.393 309.700 M119.392 313.700 L 115.800 317.400 119.500 313.808 C 122.936 310.472,123.382 310.000,123.092 310.000 C 123.032 310.000,121.367 311.665,119.392 313.700 M310.000 326.744 C 311.223 327.770,311.361 327.780,312.051 326.900 C 312.544 326.272,312.531 326.254,311.927 326.727 C 311.363 327.168,311.070 327.144,310.127 326.579 L 309.000 325.905 310.000 326.744 "
      stroke="none" fill="#cd212a" fill-rule="evenodd"> </path>
    <path id="path2"
      d="M133.600 34.020 C 133.600 62.394,133.693 68.219,134.160 69.122 C 134.627 70.025,145.232 80.564,164.200 98.976 C 201.444 135.126,206.140 139.712,206.518 140.300 C 207.630 142.029,210.183 139.828,232.392 118.000 C 234.295 116.130,241.316 109.290,247.995 102.800 C 264.777 86.492,266.676 84.519,266.960 83.100 C 267.092 82.440,267.200 63.472,267.200 40.950 L 267.200 0.000 200.400 0.000 L 133.600 0.000 133.600 34.020 M100.586 68.652 C 70.714 97.518,72.304 95.660,75.165 98.348 C 76.640 99.734,96.362 118.883,102.203 124.600 C 104.001 126.360,107.436 129.685,109.836 131.989 C 112.236 134.293,120.320 142.143,127.800 149.434 C 142.494 163.756,143.348 164.586,159.200 179.929 C 165.030 185.572,170.925 191.286,172.300 192.628 C 176.218 196.451,177.953 194.048,155.855 215.412 C 149.945 221.125,143.545 227.330,141.632 229.200 C 128.625 241.916,109.495 260.512,105.812 264.020 C 103.398 266.319,100.058 269.550,98.389 271.200 C 96.720 272.850,90.462 278.954,84.484 284.764 C 78.505 290.574,73.517 295.632,73.399 296.004 C 73.170 296.726,79.548 303.181,99.193 322.111 C 104.821 327.534,104.926 327.611,105.747 326.911 C 106.206 326.520,110.186 322.679,114.591 318.376 C 118.996 314.072,124.564 308.672,126.964 306.376 C 129.364 304.079,132.799 300.760,134.597 299.000 C 136.395 297.240,142.966 290.850,149.199 284.800 C 155.433 278.750,161.912 272.450,163.597 270.800 C 168.548 265.954,179.676 255.109,193.764 241.400 C 204.552 230.902,207.115 228.600,208.016 228.600 C 209.172 228.600,215.184 234.292,249.202 267.600 C 250.887 269.250,257.280 275.460,263.409 281.400 C 269.538 287.340,275.921 293.550,277.594 295.200 C 279.267 296.850,282.517 299.993,284.818 302.185 C 287.118 304.376,293.502 310.586,299.004 315.985 C 310.411 327.176,310.822 327.510,312.097 326.617 C 312.579 326.279,318.650 320.461,325.587 313.688 C 332.524 306.915,339.245 300.398,340.523 299.207 C 343.236 296.677,343.284 295.916,340.873 293.673 C 339.456 292.356,320.544 274.004,313.797 267.400 C 311.999 265.640,308.564 262.315,306.164 260.011 C 303.764 257.707,295.680 249.857,288.200 242.566 C 273.506 228.244,272.652 227.414,256.800 212.071 C 250.970 206.428,245.075 200.714,243.700 199.372 C 240.330 196.084,240.340 196.042,245.661 190.906 C 248.115 188.538,251.592 185.160,253.389 183.400 C 255.186 181.640,261.667 175.340,267.792 169.400 C 273.916 163.460,283.264 154.365,288.564 149.190 C 293.864 144.014,300.438 137.624,303.173 134.990 C 305.909 132.355,309.435 128.940,311.009 127.400 C 312.583 125.860,318.691 119.920,324.583 114.200 C 341.843 97.442,342.283 96.999,342.556 96.140 C 342.770 95.465,341.595 94.117,335.950 88.559 C 319.909 72.769,311.594 64.800,311.158 64.800 C 310.713 64.800,305.872 69.357,295.000 80.008 C 289.940 84.965,283.560 91.176,280.823 93.811 C 278.085 96.445,274.834 99.590,273.599 100.800 C 272.363 102.010,266.251 107.950,260.018 114.000 C 246.712 126.914,244.459 129.107,234.957 138.400 C 213.458 159.427,209.177 163.400,208.018 163.400 C 206.821 163.400,201.140 158.025,166.798 124.400 C 165.113 122.750,158.720 116.540,152.591 110.600 C 146.462 104.660,140.070 98.450,138.387 96.800 C 136.703 95.150,133.453 92.003,131.163 89.806 C 128.873 87.610,122.498 81.400,116.996 76.006 C 108.456 67.635,105.345 64.800,104.700 64.800 C 104.630 64.800,102.779 66.533,100.586 68.652 M133.600 196.000 L 133.600 212.400 134.500 212.392 C 135.412 212.385,151.600 196.907,151.600 196.044 C 151.600 195.693,146.045 190.121,137.650 182.051 C 133.334 177.903,133.600 176.987,133.600 196.000 M265.234 195.032 L 264.268 196.050 265.292 197.074 C 266.488 198.270,267.200 198.022,267.200 196.409 C 267.200 193.907,266.660 193.529,265.234 195.032 M204.976 253.320 C 202.516 255.850,191.306 266.817,175.966 281.704 C 169.678 287.806,162.645 294.645,160.338 296.900 C 158.030 299.155,151.324 305.680,145.434 311.400 C 139.545 317.120,134.473 322.286,134.163 322.880 C 133.691 323.787,133.600 330.072,133.600 361.980 L 133.600 400.000 200.407 400.000 L 267.213 400.000 267.107 353.955 L 267.000 307.910 257.743 298.855 C 252.652 293.875,243.292 284.762,236.943 278.604 C 217.258 259.510,209.816 252.219,209.482 251.700 C 208.764 250.585,207.031 251.208,204.976 253.320 "
      stroke="none" fill="#fbfbfb" fill-rule="evenodd"></path>
    <path id="path3"
      d="M99.579 46.862 C 96.841 49.537,87.801 58.393,79.492 66.544 C 71.182 74.694,64.209 81.471,63.995 81.603 C 62.221 82.699,50.012 95.409,50.191 95.973 C 50.308 96.342,56.468 102.574,63.878 109.822 C 71.289 117.070,79.183 124.800,81.420 127.000 C 89.384 134.831,108.501 153.403,108.801 153.600 C 108.969 153.710,114.452 159.020,120.986 165.400 C 127.519 171.780,133.140 177.155,133.477 177.345 C 134.233 177.771,133.743 177.310,143.945 187.173 C 148.595 191.669,152.400 195.642,152.400 196.004 C 152.400 196.621,136.894 212.058,134.525 213.800 C 133.401 214.626,125.584 222.143,112.910 234.584 C 108.901 238.520,105.456 241.844,105.256 241.970 C 104.860 242.220,87.257 259.333,70.634 275.629 C 64.895 281.254,57.993 288.003,55.296 290.625 C 48.971 296.776,49.051 296.020,54.200 300.991 C 60.672 307.239,65.961 312.391,82.802 328.848 C 104.141 349.701,104.454 350.000,104.980 350.000 C 105.237 350.000,110.027 345.551,115.624 340.112 C 125.920 330.108,129.207 326.824,136.800 318.953 C 139.110 316.559,146.040 309.710,152.200 303.734 C 158.360 297.757,166.820 289.508,171.000 285.401 C 175.180 281.295,182.290 274.365,186.800 270.001 C 191.310 265.638,197.700 259.446,201.000 256.241 C 208.441 249.016,207.760 249.117,213.243 254.422 C 230.447 271.066,255.578 295.669,261.637 301.800 C 271.051 311.326,277.446 317.706,282.400 322.515 C 284.930 324.971,290.519 330.405,294.819 334.590 C 307.602 347.031,310.738 350.000,311.096 350.000 C 311.613 350.000,315.996 345.781,349.000 313.523 C 351.860 310.728,356.858 305.867,360.107 302.720 C 363.356 299.574,366.011 296.720,366.007 296.377 C 366.003 296.035,359.846 289.735,352.324 282.377 C 344.802 275.020,336.818 267.200,334.580 265.000 C 326.031 256.594,307.489 238.591,307.173 238.389 C 306.887 238.208,300.684 232.148,272.439 204.460 C 269.668 201.743,266.921 199.272,266.335 198.968 C 265.314 198.439,263.600 196.590,263.600 196.018 C 263.600 195.507,265.868 193.200,266.371 193.200 C 266.646 193.200,268.258 191.805,269.954 190.100 C 274.614 185.415,303.201 157.448,303.575 157.209 C 303.875 157.017,322.291 139.150,330.384 131.200 C 343.315 118.496,362.882 99.464,364.300 98.210 C 366.744 96.050,366.602 95.645,361.763 90.973 C 352.378 81.913,334.787 64.780,322.389 52.626 C 310.558 41.028,311.446 41.783,310.454 42.477 C 310.017 42.783,303.751 48.785,296.530 55.814 C 289.308 62.843,281.420 70.517,279.000 72.868 C 276.580 75.219,273.034 78.730,271.121 80.671 C 257.777 94.207,226.328 125.283,222.200 129.012 C 221.540 129.608,218.286 132.756,214.969 136.006 C 207.690 143.140,208.408 143.051,202.711 137.520 C 200.450 135.324,194.730 129.785,190.000 125.209 C 185.270 120.634,178.129 113.675,174.131 109.745 C 170.133 105.815,161.770 97.650,155.547 91.600 C 143.468 79.858,134.650 71.080,131.400 67.563 C 127.511 63.354,105.353 42.000,104.874 42.000 C 104.701 42.000,102.318 44.188,99.579 46.862 M109.877 68.088 C 112.255 70.336,117.300 75.227,121.089 78.957 C 124.878 82.687,128.146 85.843,128.350 85.970 C 128.659 86.161,139.684 96.897,159.598 116.400 C 162.647 119.386,176.344 132.646,188.727 144.600 C 191.006 146.800,196.124 151.795,200.100 155.700 C 204.076 159.605,207.641 162.800,208.021 162.800 C 208.402 162.800,211.298 160.267,214.457 157.171 C 220.447 151.300,221.859 149.932,238.161 134.200 C 243.633 128.920,249.950 122.800,252.198 120.600 C 254.447 118.400,262.540 110.480,270.182 103.000 C 277.824 95.520,284.217 89.310,284.388 89.200 C 284.560 89.090,289.358 84.478,295.050 78.951 C 310.135 64.304,310.461 64.000,311.101 64.000 C 311.692 64.000,313.249 65.392,319.604 71.600 C 329.126 80.902,342.940 94.214,343.484 94.612 C 344.639 95.456,343.607 96.667,332.490 107.512 C 326.391 113.463,318.340 121.330,314.600 124.995 C 310.860 128.660,305.996 133.400,303.792 135.529 C 290.005 148.843,277.794 160.666,274.800 163.600 C 258.319 179.750,245.331 192.372,243.820 193.708 C 241.424 195.825,241.492 196.187,244.900 199.419 C 247.448 201.835,267.452 221.298,279.002 232.600 C 281.251 234.800,287.567 240.920,293.039 246.200 C 309.753 262.329,310.755 263.301,318.600 271.004 C 322.780 275.109,329.948 282.097,334.529 286.533 C 345.028 296.702,344.757 296.229,341.733 299.122 C 337.482 303.190,319.965 320.135,315.913 324.100 C 313.721 326.245,311.593 328.000,311.186 328.000 C 310.396 328.000,306.011 323.970,294.911 313.043 C 291.122 309.313,287.854 306.157,287.650 306.030 C 287.341 305.839,276.316 295.103,256.402 275.600 C 253.353 272.614,239.656 259.354,227.273 247.400 C 224.994 245.200,219.876 240.205,215.900 236.300 C 211.924 232.395,208.373 229.200,208.009 229.200 C 207.645 229.200,203.374 233.115,198.518 237.900 C 193.662 242.685,187.820 248.400,185.536 250.600 C 177.078 258.748,159.760 275.507,156.397 278.800 C 136.867 297.923,125.596 308.916,124.600 309.812 C 123.940 310.406,120.610 313.622,117.200 316.958 C 108.424 325.544,105.226 328.476,104.800 328.328 C 104.432 328.201,92.645 316.876,80.008 304.508 C 76.360 300.938,73.043 297.773,72.637 297.476 C 71.560 296.689,72.217 295.701,76.811 291.200 C 96.621 271.786,108.138 260.563,108.440 260.376 C 108.639 260.252,112.098 256.922,116.125 252.976 C 120.153 249.029,128.117 241.268,133.824 235.730 C 139.531 230.191,147.260 222.659,151.000 218.993 C 154.740 215.326,161.445 208.814,165.900 204.521 C 175.127 195.630,174.883 196.160,171.300 192.780 C 168.988 190.600,150.420 172.531,136.998 159.400 C 130.724 153.261,113.549 136.660,112.200 135.429 C 111.540 134.827,104.900 128.364,97.444 121.067 C 89.988 113.770,81.303 105.270,78.144 102.179 C 74.566 98.677,72.400 96.258,72.400 95.763 C 72.400 94.950,74.370 92.964,93.193 74.800 C 98.550 69.630,103.218 65.100,103.567 64.733 C 104.710 63.530,105.505 63.952,109.877 68.088 "
      stroke="none" fill="#060506" fill-rule="evenodd"></path>
  </g>
</svg>
