<svg id="svg" xmlns="http://www.w3.org/2000/svg" xmlns:xlink="http://www.w3.org/1999/xlink" width="400" height="400" viewBox="0, 0, 400,400"><g id="svgg"><path id="path0" d="M239.135 0.227 C 239.135 0.352,239.840 1.853,240.700 3.562 C 246.394 14.869,248.681 31.792,248.861 63.966 C 248.865 64.682,240.734 66.481,225.081 69.225 C 195.936 74.335,187.358 76.262,186.161 77.970 C 181.855 84.118,197.352 91.688,217.799 93.425 C 223.880 93.942,224.726 93.917,244.024 92.665 L 247.831 92.418 247.615 93.452 C 247.496 94.021,246.872 101.492,246.230 110.054 C 245.587 118.616,244.924 125.778,244.756 125.969 C 244.380 126.398,238.248 127.390,220.324 129.922 C 189.184 134.322,172.103 136.067,155.365 136.559 C 142.413 136.940,141.754 137.117,141.486 140.286 C 141.171 144.004,148.392 151.670,155.545 155.212 C 163.807 159.304,170.122 160.363,176.865 158.790 C 192.575 155.124,200.170 153.643,233.730 147.705 C 287.443 138.201,322.010 133.190,333.854 133.189 C 348.310 133.189,347.268 141.540,329.116 171.170 C 321.629 183.391,321.132 185.249,324.771 187.399 C 326.955 188.689,328.003 188.220,341.405 179.968 C 362.176 167.178,377.138 160.757,393.618 157.561 L 399.993 156.324 399.996 141.560 L 400.000 126.796 397.297 124.291 C 385.656 113.500,373.927 106.732,363.938 105.043 C 359.003 104.208,356.443 104.674,337.297 109.893 C 325.945 112.987,318.826 114.511,291.191 119.761 C 272.947 123.227,273.199 123.198,273.486 121.838 C 273.599 121.303,274.217 113.470,274.859 104.432 C 275.550 94.691,276.218 87.804,276.499 87.519 C 276.760 87.255,284.368 85.335,293.405 83.253 C 332.044 74.351,335.910 73.024,340.594 67.059 C 344.468 62.126,344.550 58.988,340.909 54.939 C 334.009 47.265,318.738 47.432,286.776 55.531 L 277.551 57.869 277.796 55.853 C 277.930 54.745,278.344 50.043,278.716 45.405 C 280.171 27.223,280.669 24.646,284.603 14.919 C 287.561 7.606,287.853 5.423,286.330 1.981 L 285.454 -0.000 262.295 -0.000 C 249.557 -0.000,239.135 0.102,239.135 0.227 M76.931 9.951 C 68.765 11.333,70.444 17.163,83.128 31.481 C 98.407 48.727,110.497 57.654,125.537 62.797 C 148.941 70.801,158.598 44.185,139.172 25.217 C 132.252 18.459,126.374 16.027,109.553 12.961 C 91.790 9.722,83.051 8.916,76.931 9.951 M85.582 133.988 C 82.878 135.071,80.306 136.881,73.946 142.177 C 63.835 150.597,61.386 152.133,50.086 157.149 C 34.670 163.991,24.192 167.223,8.000 170.130 L 0.216 171.527 0.100 180.891 L -0.017 190.254 4.424 192.532 L 8.865 194.811 15.351 194.811 L 21.838 194.811 29.001 191.714 C 32.941 190.010,43.449 185.317,52.353 181.283 C 75.050 171.002,74.832 170.977,74.195 183.740 C 72.502 217.656,68.207 250.700,62.441 274.162 C 58.453 290.389,55.365 297.215,42.918 317.308 C 34.815 330.389,34.300 332.978,37.735 343.358 C 40.081 350.448,41.512 353.357,44.866 357.855 C 53.851 369.906,58.044 369.652,66.523 356.545 C 83.577 330.184,87.103 325.791,112.849 298.811 C 117.501 293.935,124.309 286.774,127.976 282.897 C 132.427 278.191,134.741 276.035,134.937 276.410 C 135.099 276.720,135.585 278.307,136.016 279.938 C 136.930 283.387,138.706 285.364,144.897 289.824 C 157.342 298.789,163.547 299.319,195.459 294.138 C 220.498 290.072,237.834 287.418,238.031 287.620 C 238.215 287.807,235.739 298.598,234.619 302.493 C 232.017 311.544,222.532 330.368,215.012 341.405 C 202.553 359.692,175.640 381.550,148.108 395.741 L 139.892 399.976 155.819 399.988 L 171.747 400.000 174.846 398.649 C 210.260 383.207,227.064 369.928,244.001 344.000 C 254.806 327.460,257.331 321.534,264.688 295.449 C 267.389 285.872,268.028 284.056,268.757 283.888 C 270.287 283.535,307.570 279.844,325.189 278.301 C 348.476 276.262,353.971 275.937,372.973 275.475 C 392.666 274.996,394.582 274.715,398.595 271.711 L 400.000 270.659 400.000 264.660 C 400.000 256.674,397.846 254.280,386.754 249.944 C 370.988 243.780,366.132 243.360,349.838 246.753 C 321.407 252.673,273.567 261.603,273.051 261.087 C 272.912 260.948,273.492 257.363,274.339 253.120 C 275.186 248.877,276.955 238.886,278.271 230.919 C 283.664 198.254,285.909 187.848,289.102 180.717 C 293.710 170.426,288.890 164.466,268.867 155.696 C 259.815 151.731,255.187 150.358,250.715 150.310 C 243.635 150.235,243.348 151.961,248.198 165.426 C 253.892 181.232,254.281 193.314,250.140 225.730 C 249.288 232.396,244.005 265.102,243.738 265.357 C 243.582 265.507,199.984 269.574,182.054 271.111 C 167.197 272.385,146.185 273.725,141.045 273.728 L 136.576 273.730 138.015 271.892 C 138.807 270.881,141.135 268.303,143.189 266.162 C 149.229 259.867,150.233 257.684,148.466 254.692 C 146.804 251.880,145.363 252.501,131.854 261.855 C 114.441 273.913,85.871 292.855,85.731 292.436 C 85.658 292.218,86.196 288.066,86.926 283.209 C 87.657 278.352,89.212 267.762,90.383 259.676 C 100.632 188.894,103.217 179.961,117.665 165.405 C 127.854 155.140,127.880 155.098,127.053 150.406 C 126.174 145.412,121.959 142.603,109.405 138.644 C 93.615 133.664,88.758 132.714,85.582 133.988 M180.796 168.685 C 175.671 169.691,175.544 173.023,180.358 180.158 C 194.757 201.496,205.559 211.384,215.351 212.192 C 231.671 213.538,233.006 188.061,217.196 176.979 C 210.385 172.205,188.393 167.194,180.796 168.685 M163.145 217.995 C 159.237 219.124,160.750 224.442,169.144 239.086 C 180.016 258.053,196.557 269.924,203.717 263.898 C 212.830 256.231,212.098 240.409,202.184 230.779 C 194.497 223.311,171.176 215.674,163.145 217.995 M279.487 316.602 C 277.294 317.209,277.094 320.281,279.002 324.045 C 283.684 333.280,316.317 378.875,330.348 395.784 L 333.847 400.000 355.925 400.000 C 376.744 400.000,377.992 399.957,377.795 399.243 C 377.680 398.827,377.455 397.522,377.294 396.344 C 375.490 383.124,361.860 363.219,345.946 350.563 C 325.365 334.196,286.912 314.546,279.487 316.602 " stroke="none" fill="#000000" fill-rule="evenodd"></path></g></svg>