<svg id="svg" xmlns="http://www.w3.org/2000/svg" xmlns:xlink="http://www.w3.org/1999/xlink" width="400" height="400" viewBox="0, 0, 400,400"><g id="svgg"><path id="path0" d="M353.478 0.261 C 353.478 0.405,354.533 2.410,355.822 4.718 C 360.686 13.426,364.594 23.903,366.064 32.174 C 368.380 45.204,368.342 44.076,368.715 111.304 C 368.906 145.859,369.266 181.957,369.514 191.522 C 370.085 213.536,370.126 310.958,369.570 321.982 C 368.608 341.025,366.989 355.560,365.411 359.338 C 362.913 365.316,356.841 363.255,325.870 345.913 C 320.276 342.780,318.248 342.734,316.712 345.704 C 315.471 348.104,316.138 349.646,321.762 357.400 C 328.322 366.443,336.945 379.361,344.172 390.971 L 349.783 399.986 372.174 399.884 L 394.565 399.783 395.523 395.967 C 398.966 382.251,399.804 358.535,398.274 318.043 C 398.040 311.826,397.641 299.891,397.389 291.522 C 397.137 283.152,396.446 265.348,395.854 251.957 C 393.824 206.053,393.480 173.479,394.348 109.348 C 394.966 63.689,395.522 54.544,398.487 41.267 L 400.000 34.490 400.000 19.201 L 400.000 3.911 397.343 1.956 L 394.687 0.000 374.083 0.000 C 362.750 0.000,353.478 0.117,353.478 0.261 M231.880 17.118 C 229.442 17.920,227.532 19.143,222.619 23.050 C 215.345 28.833,212.720 30.366,206.739 32.320 C 197.388 35.374,190.437 36.220,184.651 35.006 C 173.877 32.744,171.538 36.237,176.647 46.957 C 180.079 54.156,181.799 61.547,183.023 74.348 C 183.576 80.132,183.886 152.341,183.360 152.870 C 183.069 153.162,148.271 160.870,147.241 160.870 C 146.686 160.870,147.208 76.819,147.792 72.174 C 149.004 62.519,151.745 52.805,156.074 42.826 C 161.446 30.442,159.054 26.638,141.224 19.215 C 136.029 17.053,134.108 17.535,126.739 22.849 C 114.155 31.923,108.771 34.260,99.516 34.665 C 91.783 35.003,88.852 34.269,77.609 29.177 C 66.347 24.077,61.648 30.015,67.160 42.381 C 74.445 58.726,78.073 95.512,76.531 137.391 C 75.983 152.277,74.781 176.951,74.547 178.096 C 74.380 178.918,73.002 179.352,61.854 182.097 C 37.721 188.040,22.056 190.902,6.413 192.226 L 0.000 192.769 0.000 204.592 L 0.000 216.416 1.196 216.883 C 8.890 219.890,12.588 219.270,34.565 211.288 C 53.424 204.439,72.609 198.557,72.609 199.625 C 72.609 203.830,68.662 229.755,66.033 242.826 C 53.771 303.771,39.545 339.523,10.214 383.115 C 3.720 392.766,3.224 393.973,4.753 396.413 C 6.783 399.649,9.768 397.727,22.408 385.045 C 44.658 362.722,62.982 332.150,73.970 299.017 C 83.886 269.120,88.690 245.307,94.574 196.884 C 94.841 194.691,95.001 194.387,96.024 194.129 C 98.007 193.628,126.632 186.957,126.798 186.957 C 127.150 186.957,126.902 240.823,126.485 255.000 C 126.238 263.370,125.901 276.024,125.736 283.121 C 125.300 301.811,126.044 301.253,107.672 296.670 C 96.009 293.761,95.480 293.763,95.313 296.739 C 95.198 298.789,95.396 299.245,98.791 304.753 C 100.771 307.966,107.380 320.469,113.478 332.540 C 125.087 355.518,125.697 356.497,128.041 355.909 C 133.604 354.513,143.802 334.281,146.141 320.000 C 148.902 303.136,149.914 258.709,148.038 236.739 C 147.774 233.654,146.892 182.963,147.098 182.757 C 147.280 182.575,181.568 175.217,182.233 175.217 C 183.036 175.217,181.983 205.051,180.629 220.652 C 177.190 260.295,171.028 290.343,160.000 321.234 C 156.706 330.461,156.707 332.549,160.007 333.916 C 164.738 335.875,178.938 309.809,186.891 284.565 C 197.431 251.115,200.520 231.743,202.836 184.592 C 203.200 177.194,203.542 171.097,203.596 171.044 C 203.952 170.701,233.997 164.721,234.225 164.949 C 235.130 165.854,235.727 281.210,234.929 300.943 C 234.369 314.786,234.766 314.686,212.862 306.538 C 203.442 303.034,201.689 302.778,200.663 304.761 C 199.366 307.270,199.741 308.394,203.843 314.273 C 212.467 326.637,218.631 337.238,227.195 354.440 C 234.930 369.977,236.609 372.053,240.508 370.912 C 243.997 369.890,246.769 366.371,251.422 357.052 C 260.735 338.402,261.634 331.072,260.052 286.739 C 259.779 279.087,259.167 261.380,258.694 247.391 C 258.220 233.402,257.517 214.033,257.131 204.348 C 256.456 187.387,256.404 161.712,257.044 161.072 C 257.211 160.905,260.243 160.397,263.782 159.942 C 286.194 157.066,287.833 156.496,287.822 151.597 C 287.798 141.400,273.591 134.919,257.283 137.665 L 255.652 137.940 255.658 115.383 C 255.670 71.529,256.679 63.640,264.378 47.204 C 269.641 35.967,269.438 35.373,256.556 24.388 C 249.404 18.289,238.280 15.012,231.880 17.118 M235.217 92.762 L 235.217 142.915 219.523 146.053 C 210.891 147.779,203.773 149.129,203.705 149.052 C 203.637 148.976,203.438 126.008,203.264 98.013 L 202.947 47.113 209.626 46.575 C 215.526 46.099,228.817 44.111,233.043 43.072 C 233.880 42.866,234.712 42.678,234.891 42.653 C 235.071 42.629,235.217 65.178,235.217 92.762 M128.078 46.196 C 127.389 53.619,126.883 74.171,127.020 89.130 C 127.105 98.337,127.125 119.389,127.065 135.913 L 126.957 165.956 111.882 169.280 C 103.590 171.108,96.737 172.534,96.652 172.449 C 96.567 172.364,96.650 159.110,96.836 142.995 C 97.022 126.880,97.017 99.439,96.826 82.015 C 96.634 64.591,96.551 50.261,96.641 50.171 C 96.731 50.081,100.577 49.604,105.188 49.111 C 112.939 48.283,114.101 48.039,120.590 45.889 C 124.450 44.611,127.771 43.545,127.969 43.521 C 128.168 43.498,128.217 44.701,128.078 46.196 M302.024 87.156 C 296.779 89.026,296.483 92.207,300.618 102.260 C 303.584 109.471,304.413 112.604,305.598 121.087 C 308.285 140.327,309.113 179.674,307.586 215.633 C 306.450 242.403,308.007 252.539,314.289 259.255 C 319.223 264.530,321.975 263.715,325.696 255.876 C 333.020 240.445,333.696 231.542,332.879 161.304 C 332.492 128.003,332.816 116.106,334.369 106.628 C 336.344 94.568,331.814 90.641,311.957 87.202 C 307.203 86.379,304.242 86.365,302.024 87.156 " stroke="none" fill="#000000" fill-rule="evenodd"></path></g></svg>