<svg id="svg" xmlns="http://www.w3.org/2000/svg" xmlns:xlink="http://www.w3.org/1999/xlink" width="400" height="400" viewBox="0, 0, 400,400"><g id="svgg"><path id="path0" d="M259.758 5.626 C 260.565 9.942,262.913 34.952,262.532 35.176 C 261.515 35.772,202.595 48.919,197.933 49.590 C 175.776 52.779,173.185 55.488,185.920 62.150 C 193.897 66.323,195.056 66.373,208.635 63.120 C 218.623 60.728,246.120 54.294,257.389 51.713 C 260.158 51.079,262.461 50.602,262.507 50.653 C 262.689 50.858,264.491 84.686,264.328 84.850 C 264.108 85.069,249.570 88.625,240.413 90.700 C 229.051 93.273,217.981 95.490,208.362 97.119 C 197.404 98.973,197.017 99.194,198.660 102.655 C 199.344 104.097,199.792 104.319,206.380 106.484 C 218.471 110.459,219.918 110.509,234.673 107.453 C 252.305 103.801,293.662 97.372,311.366 95.529 C 325.021 94.108,340.665 92.777,343.776 92.772 C 357.678 92.748,356.571 80.471,341.915 72.127 C 329.670 65.154,317.442 64.059,309.885 69.259 C 305.542 72.247,295.095 77.319,290.350 78.743 L 289.311 79.055 289.432 61.922 L 289.552 44.789 291.848 44.464 C 303.125 42.869,336.300 39.497,356.602 37.882 C 393.500 34.946,370.419 11.399,329.506 10.240 L 320.321 9.980 318.274 11.543 C 317.147 12.403,315.391 14.166,314.370 15.461 C 312.208 18.203,306.293 21.708,298.656 24.771 C 291.498 27.642,291.158 27.662,291.167 25.201 C 291.185 20.653,292.101 2.137,292.359 1.109 L 292.637 0.000 275.671 0.000 L 258.706 0.000 259.758 5.626 M75.177 3.251 C 70.168 3.931,69.481 4.470,69.101 8.021 C 68.289 15.604,70.347 18.700,80.715 25.488 C 83.802 27.509,86.425 29.472,86.544 29.851 C 86.946 31.125,96.035 79.090,95.893 79.183 C 95.815 79.234,91.825 80.364,87.026 81.693 C 82.227 83.023,72.721 85.657,65.901 87.547 C 56.436 90.170,18.285 100.396,1.711 104.752 L -0.023 105.208 0.104 112.650 L 0.230 120.092 6.566 120.729 L 12.903 121.367 17.818 120.091 C 20.521 119.390,27.382 117.307,33.065 115.464 C 49.424 110.158,67.921 104.938,101.263 96.217 C 114.445 92.769,114.858 92.694,141.676 88.844 C 173.557 84.268,173.656 84.243,175.661 80.366 C 179.114 73.688,171.179 68.020,152.899 64.110 C 139.462 61.236,136.352 61.473,132.255 65.679 C 130.099 67.892,128.535 68.659,119.518 71.924 C 117.181 72.770,115.270 73.371,115.270 73.259 C 115.270 73.148,116.633 63.593,118.300 52.028 C 123.051 19.050,122.988 18.352,114.811 13.420 C 98.824 3.779,89.295 1.334,75.177 3.251 M373.223 102.398 C 372.009 102.873,370.769 103.452,370.467 103.685 C 370.166 103.918,366.846 105.396,363.090 106.969 L 356.260 109.828 337.602 112.788 C 295.596 119.451,249.016 127.298,208.220 134.583 C 178.880 139.822,172.976 140.020,161.421 136.154 C 153.175 133.395,148.631 135.132,149.657 140.653 C 150.477 145.070,151.883 147.542,156.699 153.032 C 159.246 155.936,159.708 156.861,164.382 168.417 C 178.528 203.384,180.912 207.558,190.218 213.641 C 200.217 220.178,204.724 217.832,206.607 205.112 C 206.864 203.377,207.161 201.871,207.267 201.765 C 207.585 201.447,241.234 194.847,256.028 192.201 C 297.397 184.802,328.300 181.229,343.284 182.114 L 348.335 182.412 353.387 187.373 C 360.744 194.598,364.603 195.970,370.354 193.407 C 375.430 191.145,376.550 189.369,395.806 153.054 L 400.000 145.144 400.000 129.848 L 400.000 114.552 390.904 108.475 C 379.736 101.014,378.155 100.471,373.223 102.398 M365.851 126.791 C 367.908 128.062,369.690 130.447,369.690 131.930 C 369.690 134.783,361.435 161.825,360.182 163.079 C 359.691 163.570,315.055 171.006,314.704 170.655 C 314.019 169.970,316.356 153.683,318.476 144.372 C 319.702 138.984,321.750 131.369,322.055 131.064 C 322.159 130.960,330.801 129.574,341.259 127.984 C 361.605 124.889,362.690 124.837,365.851 126.791 M103.999 129.504 C 103.017 129.812,101.362 131.492,98.418 135.170 L 94.234 140.397 83.282 144.449 C 48.467 157.329,40.692 160.297,39.906 161.008 C 35.240 165.230,50.730 170.586,59.958 167.940 C 72.376 164.381,113.521 154.809,123.536 153.149 C 143.322 149.871,150.766 140.571,138.737 134.160 C 132.416 130.791,109.629 127.737,103.999 129.504 M292.978 137.887 C 292.949 142.505,291.311 174.514,291.092 174.732 C 290.898 174.927,258.151 180.482,257.199 180.482 C 256.241 180.482,256.560 140.638,257.520 140.346 C 259.853 139.639,288.489 135.166,291.274 135.074 L 292.997 135.017 292.978 137.887 M228.517 146.843 C 231.313 150.259,232.211 152.344,232.824 156.838 C 233.522 161.956,234.018 184.615,233.432 184.615 C 233.180 184.615,226.307 185.867,218.158 187.396 C 210.009 188.925,203.293 190.113,203.233 190.036 C 202.488 189.069,190.051 152.925,190.254 152.316 C 190.363 151.988,222.153 144.822,226.037 144.249 C 226.212 144.223,227.328 145.390,228.517 146.843 M108.479 187.111 C 106.134 188.485,102.931 190.525,101.361 191.644 C 91.605 198.598,65.773 208.064,49.748 210.557 C 40.928 211.929,40.004 212.456,41.527 215.247 C 43.139 218.201,44.277 218.906,52.129 221.816 C 61.046 225.121,61.117 225.123,68.624 222.471 C 78.859 218.855,99.494 213.724,123.766 208.761 C 141.936 205.046,148.903 200.473,147.360 193.277 C 145.903 186.481,141.953 184.968,125.144 184.762 L 112.744 184.611 108.479 187.111 M312.974 204.389 C 302.694 207.605,264.976 215.806,242.409 219.733 L 235.678 220.904 228.402 218.774 C 217.172 215.487,216.296 215.284,214.665 215.590 C 210.686 216.336,209.072 221.962,211.867 225.338 C 216.993 231.526,214.871 281.292,208.189 311.575 C 205.118 325.495,214.785 350.137,224.596 353.396 C 230.065 355.212,235.588 351.931,235.591 346.864 C 235.591 345.145,235.355 345.236,245.601 342.998 C 252.955 341.392,252.908 341.387,251.926 343.739 C 248.601 351.695,234.982 367.987,214.790 388.163 L 202.944 400.000 211.939 400.000 L 220.934 400.000 229.526 394.660 C 251.695 380.881,264.203 370.979,282.082 353.055 C 286.561 348.565,290.498 344.891,290.832 344.891 C 293.703 344.891,298.048 340.995,298.048 338.421 C 298.048 332.256,282.246 318.542,274.392 317.891 C 272.156 317.706,271.432 317.920,266.505 320.226 C 257.560 324.414,252.395 326.409,247.424 327.599 C 241.229 329.082,236.533 329.912,236.203 329.583 C 235.915 329.295,237.589 305.541,237.921 305.210 C 238.174 304.957,256.527 302.072,281.846 298.307 C 302.914 295.173,303.056 295.133,305.268 291.758 C 308.572 286.715,302.727 282.437,288.064 279.167 L 283.361 278.118 279.044 280.304 C 273.771 282.974,261.491 286.515,245.465 289.985 C 242.434 290.641,239.489 291.281,238.921 291.407 L 237.887 291.636 237.887 282.079 L 237.887 272.521 257.979 268.219 C 303.629 258.445,303.104 258.628,303.098 252.491 C 303.091 244.668,284.725 240.896,274.141 246.544 C 269.527 249.006,245.502 257.453,239.380 258.766 L 237.887 259.086 237.887 247.568 C 237.887 241.233,237.982 236.051,238.098 236.051 C 238.213 236.051,242.811 235.110,248.316 233.960 C 261.312 231.246,308.788 221.515,311.024 221.107 C 314.188 220.530,316.171 222.896,318.802 230.384 L 320.228 234.443 320.446 259.013 C 320.713 289.187,319.478 319.677,317.775 324.947 C 317.027 327.261,314.649 329.200,311.926 329.717 C 304.722 331.083,304.902 332.078,314.031 341.391 C 318.023 345.463,323.614 351.481,326.457 354.765 C 335.475 365.181,337.871 365.503,341.822 356.829 C 348.327 342.549,350.122 329.491,350.851 291.160 C 351.401 262.236,352.853 241.819,355.025 232.455 C 357.327 222.537,355.501 219.808,339.124 208.693 C 327.617 200.883,325.366 200.512,312.974 204.389 M114.797 246.766 C 114.158 247.099,112.323 248.430,110.718 249.723 C 105.980 253.541,102.920 254.859,70.995 266.832 L 40.533 278.255 28.418 276.218 C 9.092 272.969,7.970 273.397,13.632 281.867 C 15.205 284.221,17.166 286.446,18.794 287.725 L 21.419 289.787 25.460 303.447 C 37.594 344.462,42.472 354.746,53.240 362.015 C 61.772 367.775,66.947 365.032,68.945 353.693 C 69.503 350.524,69.018 350.838,79.253 347.032 C 98.325 339.940,105.605 338.240,119.486 337.637 C 129.866 337.186,130.965 336.367,129.355 330.287 L 128.710 327.852 139.151 305.065 L 149.592 282.277 152.523 280.792 C 163.138 275.411,160.134 268.816,141.676 256.978 C 127.558 247.923,118.890 244.630,114.797 246.766 M109.272 273.968 C 110.269 274.868,111.587 276.613,112.201 277.846 L 113.318 280.087 112.030 286.427 C 110.645 293.247,106.188 313.659,104.662 320.172 L 103.728 324.156 84.645 331.790 C 74.149 335.988,65.484 339.346,65.389 339.250 C 65.294 339.155,63.372 333.514,61.120 326.714 C 57.581 316.035,54.935 307.208,51.048 293.117 L 50.131 289.793 60.772 286.362 C 66.624 284.475,78.749 280.558,87.715 277.657 C 106.113 271.704,106.663 271.610,109.272 273.968 M290.251 358.697 C 286.211 360.396,284.273 358.242,310.527 381.231 L 331.961 400.000 351.719 400.000 L 371.478 400.000 370.599 397.445 C 367.974 389.817,360.941 380.712,357.673 380.712 C 357.434 380.712,343.662 375.719,327.069 369.617 C 295.664 358.068,293.366 357.387,290.251 358.697 " stroke="none" fill="#000000" fill-rule="evenodd"></path></g></svg>