<svg id="svg" xmlns="http://www.w3.org/2000/svg" xmlns:xlink="http://www.w3.org/1999/xlink" width="400" height="400" viewBox="0, 0, 400,400"><g id="svgg"><path id="path0" d="M353.855 1.894 C 359.794 8.841,362.335 15.486,363.550 27.251 C 366.888 59.553,366.588 46.767,366.781 164.964 C 366.987 291.745,366.586 316.295,363.727 351.702 C 362.299 369.400,359.745 372.867,347.932 373.150 L 341.363 373.308 321.534 368.892 C 301.337 364.395,298.818 363.992,297.890 365.111 C 296.798 366.427,298.959 368.545,305.160 372.240 C 319.961 381.058,332.915 390.146,339.850 396.576 L 343.554 400.010 364.599 399.884 L 385.645 399.757 388.472 391.484 C 394.967 372.483,395.895 366.736,394.167 356.204 C 393.601 352.751,393.460 328.473,393.316 209.246 C 393.130 54.813,393.074 58.950,395.732 29.197 C 397.435 10.126,397.246 8.700,392.195 2.555 L 390.096 0.000 371.166 -0.000 L 352.236 -0.000 353.855 1.894 M193.067 8.480 C 192.064 8.838,190.340 9.946,189.237 10.943 C 186.206 13.682,181.078 15.859,173.723 17.532 C 125.526 28.492,83.240 37.405,62.882 40.895 C 50.633 42.994,46.711 42.843,36.047 39.861 C 24.446 36.617,20.990 39.132,25.343 47.649 C 26.491 49.896,27.473 52.621,27.673 54.112 C 28.907 63.335,25.021 156.106,22.091 187.362 L 21.793 190.539 10.897 193.168 L 0.000 195.796 0.000 203.738 C 0.000 210.230,0.125 211.679,0.683 211.679 C 1.059 211.679,5.931 210.602,11.510 209.286 C 17.089 207.970,21.699 206.938,21.754 206.994 C 21.894 207.133,20.606 226.098,19.701 237.226 C 16.706 274.037,11.128 320.262,8.934 326.455 C 5.914 334.976,8.357 346.136,17.126 363.878 C 23.529 376.832,27.186 379.162,34.166 374.735 C 42.501 369.450,44.548 356.902,44.362 312.249 C 44.249 285.340,44.704 262.372,45.757 241.849 C 46.470 227.951,47.702 207.976,48.085 204.112 L 48.418 200.754 57.178 199.416 C 61.995 198.681,67.360 197.764,69.100 197.379 C 73.093 196.496,72.750 194.976,72.079 210.580 C 70.834 239.539,69.069 261.912,67.293 271.255 L 66.468 275.600 67.772 282.015 C 69.314 289.598,72.093 299.022,73.793 302.433 C 78.689 312.251,90.376 312.760,93.912 303.309 C 94.802 300.931,95.036 296.495,96.894 246.836 C 98.003 217.196,98.979 192.865,99.063 192.769 C 99.552 192.207,120.686 188.808,123.693 188.808 L 125.061 188.808 125.061 192.905 C 125.061 204.332,121.994 245.431,119.909 261.938 C 118.642 271.973,123.834 297.369,128.475 303.831 C 133.320 310.578,140.101 309.040,143.097 300.515 C 145.085 294.857,147.452 271.277,150.621 225.547 C 152.218 202.492,153.639 184.885,153.925 184.599 C 154.492 184.032,167.706 182.941,177.566 182.647 L 188.466 182.322 188.136 210.748 C 187.536 262.363,186.354 306.776,185.400 313.491 C 184.381 320.668,182.197 328.548,180.947 329.557 C 174.823 334.498,166.511 333.657,134.284 324.835 C 114.776 319.495,113.961 321.199,130.115 333.547 C 158.598 355.320,167.339 364.558,179.050 385.262 C 186.263 398.014,192.907 401.405,198.582 395.233 C 206.039 387.124,211.906 373.498,216.853 352.798 L 218.539 345.742 218.990 326.277 C 219.900 286.964,220.438 245.466,220.445 214.009 C 220.450 196.048,220.645 181.449,220.885 181.069 C 221.373 180.298,233.086 179.472,255.474 178.628 C 275.004 177.891,280.949 175.749,282.019 169.063 C 282.964 163.150,278.960 158.675,269.100 154.627 C 257.364 149.808,251.637 148.100,242.540 146.703 L 237.193 145.883 232.830 148.821 C 228.362 151.830,224.193 153.771,222.199 153.771 C 220.708 153.771,220.437 147.532,220.453 113.625 C 220.474 71.289,221.880 55.838,226.751 44.390 C 232.477 30.934,231.938 29.734,215.129 18.534 C 199.550 8.155,197.106 7.041,193.067 8.480 M183.590 37.471 C 189.751 39.776,190.270 41.375,190.260 58.014 C 190.245 83.638,188.589 161.363,188.045 161.976 C 187.686 162.381,169.942 165.704,159.246 167.369 L 153.771 168.222 153.773 165.498 C 153.778 158.005,157.492 91.431,158.151 87.011 C 159.491 78.038,158.831 74.220,154.916 68.293 C 147.476 57.031,135.502 48.201,128.502 48.816 C 119.364 49.618,117.207 52.778,121.594 58.937 C 126.950 66.458,128.609 71.278,129.194 81.022 C 129.566 87.227,128.049 125.273,125.958 162.148 L 125.387 172.227 122.912 172.730 C 119.641 173.395,105.644 175.536,101.940 175.938 L 99.015 176.255 101.045 133.748 C 102.162 110.369,103.345 88.723,103.675 85.645 C 104.932 73.888,100.331 66.785,88.078 61.570 C 74.389 55.744,67.792 59.478,74.379 69.326 C 79.376 76.797,79.296 75.401,77.361 121.655 C 75.383 168.963,74.725 180.535,74.014 180.535 C 73.806 180.535,68.728 181.296,62.730 182.226 C 56.732 183.156,51.030 184.030,50.059 184.169 L 48.293 184.421 48.492 179.193 C 50.086 137.513,54.030 59.133,54.556 58.696 C 54.660 58.609,58.577 57.614,63.260 56.485 C 102.343 47.059,129.563 42.250,173.236 37.056 C 179.058 36.364,180.819 36.434,183.590 37.471 M290.149 100.214 C 286.631 101.087,286.157 103.242,288.739 106.624 C 295.833 115.914,296.721 125.922,295.427 181.972 C 295.151 193.895,294.661 207.097,294.336 211.310 C 293.287 224.938,296.512 236.651,302.843 242.205 C 311.732 250.002,318.816 243.281,324.246 221.898 L 325.791 215.815 325.791 171.533 L 325.791 127.251 324.434 123.415 C 320.797 113.128,309.296 102.106,300.826 100.789 C 295.722 99.996,291.868 99.788,290.149 100.214 " stroke="none" fill="#000000" fill-rule="evenodd"></path></g></svg>