<svg id="svg" version="1.1" xmlns="http://www.w3.org/2000/svg" xmlns:xlink="http://www.w3.org/1999/xlink" width="400" height="400" viewBox="0, 0, 400,400"><g id="svgg"><path id="path0" d="M32.800 0.400 C 32.800 0.620,33.340 0.800,34.000 0.800 C 34.660 0.800,35.200 0.620,35.200 0.400 C 35.200 0.180,34.660 0.000,34.000 0.000 C 33.340 0.000,32.800 0.180,32.800 0.400 M28.000 1.600 C 28.000 2.133,28.267 2.400,28.800 2.400 C 29.333 2.400,29.600 2.133,29.600 1.600 C 29.600 1.067,29.333 0.800,28.800 0.800 C 28.267 0.800,28.000 1.067,28.000 1.600 M18.400 6.400 C 18.400 6.933,18.667 7.200,19.200 7.200 C 19.733 7.200,20.000 6.933,20.000 6.400 C 20.000 5.867,19.733 5.600,19.200 5.600 C 18.667 5.600,18.400 5.867,18.400 6.400 M5.600 19.200 C 5.600 19.733,5.867 20.000,6.400 20.000 C 6.933 20.000,7.200 19.733,7.200 19.200 C 7.200 18.667,6.933 18.400,6.400 18.400 C 5.867 18.400,5.600 18.667,5.600 19.200 M394.400 22.400 C 394.400 22.933,394.667 23.200,395.200 23.200 C 395.733 23.200,396.000 22.933,396.000 22.400 C 396.000 21.867,395.733 21.600,395.200 21.600 C 394.667 21.600,394.400 21.867,394.400 22.400 M0.800 28.800 C 0.800 29.333,1.067 29.600,1.600 29.600 C 2.133 29.600,2.400 29.333,2.400 28.800 C 2.400 28.267,2.133 28.000,1.600 28.000 C 1.067 28.000,0.800 28.267,0.800 28.800 M91.400 55.651 C 90.937 56.126,85.017 61.778,75.607 70.729 C 63.604 82.147,61.819 83.839,59.600 85.898 C 56.245 89.012,48.229 96.914,47.657 97.671 C 47.127 98.373,48.118 99.418,58.790 109.422 C 60.655 111.170,62.828 113.230,63.621 114.000 C 64.413 114.770,68.630 118.820,72.992 123.000 C 77.354 127.180,81.935 131.590,83.171 132.800 C 84.408 134.010,86.945 136.433,88.810 138.184 C 90.674 139.935,95.772 144.795,100.139 148.984 C 109.721 158.176,109.729 158.184,118.220 166.200 C 124.567 172.191,129.710 177.091,134.594 181.800 C 135.735 182.900,139.692 186.680,143.387 190.200 C 147.083 193.720,150.712 197.182,151.453 197.893 C 153.151 199.522,153.151 200.478,151.453 202.107 C 150.711 202.818,146.805 206.550,142.772 210.400 C 138.740 214.250,134.791 218.030,133.998 218.800 C 130.171 222.517,123.005 229.363,119.596 232.559 C 114.512 237.325,103.152 248.148,96.226 254.823 C 90.028 260.796,85.125 265.375,82.386 267.746 C 81.404 268.596,77.015 272.736,72.634 276.946 C 61.968 287.193,56.091 292.798,52.000 296.622 C 50.130 298.370,48.173 300.306,47.650 300.923 L 46.700 302.047 51.864 307.123 C 57.277 312.445,69.874 324.456,70.402 324.800 C 70.695 324.990,83.764 337.442,86.775 340.400 C 87.559 341.170,89.043 342.577,90.074 343.527 L 91.947 345.253 93.074 344.551 C 93.693 344.164,94.755 343.298,95.434 342.624 C 96.113 341.951,98.003 340.140,99.634 338.599 C 108.381 330.338,116.397 322.724,118.581 320.600 C 124.625 314.725,136.880 302.997,137.173 302.808 C 137.464 302.621,148.145 292.490,152.786 288.000 C 153.809 287.010,158.326 282.690,162.823 278.400 C 167.320 274.110,173.970 267.698,177.600 264.152 C 183.678 258.215,188.874 253.210,195.000 247.392 C 199.361 243.252,199.195 243.253,203.335 247.310 C 204.509 248.460,208.496 252.280,212.196 255.800 C 215.896 259.320,220.741 264.000,222.962 266.201 C 225.183 268.402,230.407 273.442,234.570 277.401 C 238.734 281.360,243.253 285.680,244.613 287.000 C 249.299 291.550,260.097 301.800,260.421 302.007 C 260.718 302.196,272.245 313.206,278.213 319.000 C 280.538 321.258,290.309 330.527,295.939 335.815 C 297.336 337.127,300.126 339.773,302.139 341.696 C 306.485 345.847,306.084 345.777,309.075 342.900 C 311.508 340.560,323.775 328.887,329.146 323.800 C 333.070 320.085,333.794 319.393,342.560 311.006 C 346.695 307.050,350.418 303.336,350.833 302.754 L 351.587 301.695 347.494 297.714 C 345.242 295.524,342.254 292.668,340.853 291.366 C 338.056 288.767,337.577 288.308,325.167 276.333 C 320.455 271.786,315.893 267.506,315.030 266.821 C 313.691 265.759,307.388 259.825,297.438 250.256 C 296.097 248.967,293.195 246.177,290.988 244.056 C 288.782 241.935,283.924 237.320,280.193 233.800 C 274.390 228.326,270.233 224.361,262.788 217.200 C 259.788 214.315,251.642 206.495,248.676 203.653 C 244.520 199.672,244.161 200.588,253.261 191.964 C 254.285 190.994,258.695 186.773,263.061 182.584 C 267.428 178.395,272.526 173.535,274.390 171.784 C 276.255 170.033,278.430 167.970,279.223 167.200 C 280.017 166.430,283.880 162.740,287.809 159.000 C 291.737 155.260,295.602 151.570,296.397 150.800 C 300.297 147.024,307.665 139.975,313.603 134.337 C 317.231 130.892,321.755 126.572,323.656 124.737 C 327.505 121.021,340.136 108.947,345.977 103.400 C 348.062 101.420,350.102 99.473,350.511 99.073 C 351.129 98.468,351.168 98.234,350.745 97.673 C 350.165 96.906,342.105 88.964,338.800 85.903 C 337.590 84.782,334.619 81.961,332.197 79.633 C 329.776 77.305,324.826 72.578,321.197 69.129 C 317.569 65.680,312.807 61.135,310.616 59.029 C 308.425 56.923,306.512 55.200,306.366 55.200 C 306.030 55.200,302.582 58.290,297.206 63.407 C 294.900 65.603,291.026 69.290,288.598 71.600 C 286.170 73.910,280.517 79.310,276.035 83.600 C 265.070 94.097,265.805 93.397,261.988 96.979 C 256.988 101.671,237.543 120.259,230.832 126.763 C 229.605 127.952,226.632 130.733,224.226 132.942 C 221.820 135.151,219.279 137.508,218.578 138.179 C 202.432 153.662,199.519 156.400,199.200 156.400 C 198.908 156.400,196.732 154.396,190.789 148.655 C 186.708 144.712,182.117 140.365,170.028 129.000 C 168.156 127.240,165.975 125.170,165.181 124.400 C 163.301 122.575,148.071 107.980,147.233 107.200 C 145.028 105.146,132.696 93.457,130.984 91.800 C 128.124 89.029,113.550 75.087,108.197 70.000 C 105.767 67.690,101.606 63.724,98.952 61.187 C 94.802 57.221,92.352 55.143,91.914 55.220 C 91.851 55.231,91.620 55.425,91.400 55.651 " stroke="none" fill="#fbfbfb" fill-rule="evenodd"></path><path id="path1" d="M35.200 0.400 C 35.200 0.620,34.795 0.814,34.300 0.832 C 33.805 0.849,33.633 0.957,33.917 1.071 C 34.629 1.356,36.400 0.873,36.400 0.392 C 36.400 0.177,36.130 0.000,35.800 0.000 C 35.470 0.000,35.200 0.180,35.200 0.400 M363.200 0.400 C 363.200 0.620,363.740 0.800,364.400 0.800 C 365.060 0.800,365.600 0.620,365.600 0.400 C 365.600 0.180,365.060 0.000,364.400 0.000 C 363.740 0.000,363.200 0.180,363.200 0.400 M29.600 1.567 C 29.600 1.988,29.375 2.424,29.100 2.535 C 28.801 2.656,28.882 2.750,29.300 2.768 C 29.788 2.790,30.000 2.498,30.000 1.800 C 30.000 1.250,29.910 0.800,29.800 0.800 C 29.690 0.800,29.600 1.145,29.600 1.567 M22.500 4.500 C 22.555 4.775,22.375 4.955,22.100 4.900 C 21.825 4.845,21.600 4.980,21.600 5.200 C 21.600 5.420,21.960 5.600,22.400 5.600 C 22.933 5.600,23.200 5.333,23.200 4.800 C 23.200 4.360,23.020 4.000,22.800 4.000 C 22.580 4.000,22.445 4.225,22.500 4.500 M376.800 4.771 C 376.800 5.343,377.057 5.600,377.629 5.600 C 378.654 5.600,378.538 4.276,377.495 4.075 C 377.015 3.983,376.800 4.198,376.800 4.771 M20.000 6.371 C 20.000 6.795,19.685 7.224,19.300 7.324 C 18.773 7.462,18.823 7.519,19.500 7.554 C 20.206 7.590,20.400 7.384,20.400 6.600 C 20.400 6.050,20.310 5.600,20.200 5.600 C 20.090 5.600,20.000 5.947,20.000 6.371 M7.200 19.372 C 7.200 19.687,6.795 20.022,6.300 20.118 C 5.528 20.266,5.557 20.299,6.500 20.346 C 7.351 20.388,7.600 20.219,7.600 19.600 C 7.600 19.160,7.510 18.800,7.400 18.800 C 7.290 18.800,7.200 19.057,7.200 19.372 M4.267 21.867 C 3.716 22.417,4.029 23.200,4.800 23.200 C 5.333 23.200,5.600 22.933,5.600 22.400 C 5.600 21.629,4.817 21.316,4.267 21.867 M394.101 22.800 C 394.190 23.130,394.699 23.433,395.231 23.474 C 395.995 23.532,396.031 23.501,395.400 23.328 C 394.960 23.207,394.451 22.903,394.270 22.654 C 394.051 22.354,393.994 22.404,394.101 22.800 M396.267 25.067 C 396.120 25.213,396.000 25.573,396.000 25.867 C 396.000 26.493,397.039 26.584,397.406 25.990 C 397.545 25.765,397.421 25.630,397.130 25.690 C 396.838 25.751,396.645 25.575,396.700 25.300 C 396.811 24.743,396.667 24.666,396.267 25.067 M2.400 29.172 C 2.400 29.377,1.995 29.622,1.500 29.718 C 0.728 29.866,0.757 29.899,1.700 29.946 C 2.435 29.982,2.800 29.801,2.800 29.400 C 2.800 29.070,2.710 28.800,2.600 28.800 C 2.490 28.800,2.400 28.967,2.400 29.172 M0.000 35.400 C 0.000 35.950,0.180 36.400,0.400 36.400 C 0.620 36.400,0.800 35.950,0.800 35.400 C 0.800 34.850,0.620 34.400,0.400 34.400 C 0.180 34.400,0.000 34.850,0.000 35.400 M399.200 37.000 C 399.200 37.550,399.380 38.000,399.600 38.000 C 399.820 38.000,400.000 37.550,400.000 37.000 C 400.000 36.450,399.820 36.000,399.600 36.000 C 399.380 36.000,399.200 36.450,399.200 37.000 M91.467 55.067 C 91.320 55.213,91.203 55.528,91.206 55.767 C 91.209 56.005,91.367 55.956,91.556 55.658 C 91.839 55.211,92.101 55.236,93.050 55.805 L 94.200 56.495 93.200 55.656 C 92.112 54.744,91.871 54.662,91.467 55.067 M303.896 56.900 C 302.719 58.055,302.485 58.360,303.378 57.578 C 306.329 54.991,306.309 55.000,307.308 55.845 L 308.200 56.600 307.438 55.700 C 306.406 54.481,306.339 54.504,303.896 56.900 M97.389 59.557 C 97.570 59.863,99.086 61.391,100.759 62.951 C 102.431 64.511,105.690 67.599,108.000 69.813 C 110.310 72.027,112.560 74.093,113.000 74.406 C 114.027 75.134,114.235 75.344,108.400 69.799 C 105.650 67.186,101.974 63.688,100.230 62.024 C 98.487 60.361,97.208 59.251,97.389 59.557 M295.650 64.673 L 292.600 67.747 295.800 64.787 C 297.560 63.159,299.075 61.776,299.167 61.713 C 299.258 61.651,299.191 61.600,299.016 61.600 C 298.842 61.600,297.327 62.983,295.650 64.673 M316.600 64.800 C 317.906 66.120,319.065 67.200,319.175 67.200 C 319.285 67.200,318.306 66.120,317.000 64.800 C 315.694 63.480,314.535 62.400,314.425 62.400 C 314.315 62.400,315.294 63.480,316.600 64.800 M79.787 66.500 L 77.400 69.000 79.900 66.613 C 81.275 65.299,82.400 64.174,82.400 64.113 C 82.400 63.817,82.005 64.178,79.787 66.500 M287.613 72.102 C 285.090 74.564,283.560 76.191,284.213 75.718 C 285.423 74.841,292.740 67.589,292.392 67.613 C 292.286 67.620,290.136 69.640,287.613 72.102 M325.200 73.000 C 326.617 74.430,327.867 75.600,327.977 75.600 C 328.087 75.600,327.017 74.430,325.600 73.000 C 324.183 71.570,322.933 70.400,322.823 70.400 C 322.713 70.400,323.783 71.570,325.200 73.000 M71.650 74.273 L 68.600 77.347 71.800 74.387 C 73.560 72.759,75.075 71.376,75.167 71.313 C 75.258 71.251,75.191 71.200,75.016 71.200 C 74.842 71.200,73.327 72.583,71.650 74.273 M115.583 76.900 C 117.241 78.666,117.600 78.984,117.600 78.683 C 117.600 78.619,116.745 77.764,115.700 76.783 L 113.800 75.000 115.583 76.900 M332.200 79.600 C 334.392 81.800,336.275 83.600,336.385 83.600 C 336.495 83.600,334.792 81.800,332.600 79.600 C 330.408 77.400,328.525 75.600,328.415 75.600 C 328.305 75.600,330.008 77.400,332.200 79.600 M280.800 78.600 C 279.828 79.590,279.123 80.400,279.233 80.400 C 279.343 80.400,280.228 79.590,281.200 78.600 C 282.172 77.610,282.877 76.800,282.767 76.800 C 282.657 76.800,281.772 77.610,280.800 78.600 M64.991 80.500 L 61.800 83.800 65.100 80.609 C 68.165 77.646,68.582 77.200,68.291 77.200 C 68.230 77.200,66.745 78.685,64.991 80.500 M337.033 84.141 C 337.228 84.649,339.200 86.257,339.200 85.908 C 339.200 85.847,338.660 85.287,337.999 84.664 C 337.339 84.041,336.904 83.806,337.033 84.141 M126.400 87.400 C 127.817 88.830,129.067 90.000,129.177 90.000 C 129.287 90.000,128.217 88.830,126.800 87.400 C 125.383 85.970,124.133 84.800,124.023 84.800 C 123.913 84.800,124.983 85.970,126.400 87.400 M269.988 89.100 L 267.400 91.800 270.100 89.212 C 272.608 86.807,272.983 86.400,272.688 86.400 C 272.627 86.400,271.412 87.615,269.988 89.100 M133.600 94.097 C 133.600 94.201,136.435 96.962,139.900 100.234 C 143.365 103.505,145.840 105.761,145.400 105.245 C 144.334 103.998,133.600 93.856,133.600 94.097 M261.588 97.100 L 259.000 99.800 261.700 97.212 C 264.208 94.807,264.583 94.400,264.288 94.400 C 264.227 94.400,263.012 95.615,261.588 97.100 M47.584 97.223 C 47.105 97.896,46.779 98.513,46.861 98.594 C 46.943 98.676,47.414 98.126,47.908 97.371 C 49.023 95.671,48.771 95.556,47.584 97.223 M350.437 97.200 C 351.596 98.996,351.600 99.001,351.598 98.567 C 351.597 98.365,351.132 97.660,350.565 97.000 L 349.534 95.800 350.437 97.200 M254.069 104.048 C 251.576 106.481,249.596 108.525,249.669 108.591 C 249.741 108.657,251.870 106.665,254.400 104.163 C 256.930 101.661,258.910 99.616,258.800 99.620 C 258.690 99.623,256.561 101.616,254.069 104.048 M55.162 106.314 C 58.373 109.457,61.332 112.217,61.737 112.448 C 62.142 112.679,61.062 111.548,59.337 109.936 C 50.400 101.586,49.799 101.064,55.162 106.314 M342.800 106.469 L 336.600 112.504 342.200 107.298 C 347.546 102.328,349.517 100.380,349.162 100.417 C 349.073 100.427,346.210 103.150,342.800 106.469 M67.000 117.600 C 68.306 118.920,69.465 120.000,69.575 120.000 C 69.685 120.000,68.706 118.920,67.400 117.600 C 66.094 116.280,64.935 115.200,64.825 115.200 C 64.715 115.200,65.694 116.280,67.000 117.600 M329.588 119.100 L 327.000 121.800 329.700 119.212 C 331.185 117.788,332.400 116.573,332.400 116.512 C 332.400 116.217,331.993 116.592,329.588 119.100 M161.400 120.800 C 162.706 122.120,163.865 123.200,163.975 123.200 C 164.085 123.200,163.106 122.120,161.800 120.800 C 160.494 119.480,159.335 118.400,159.225 118.400 C 159.115 118.400,160.094 119.480,161.400 120.800 M235.188 122.300 L 232.600 125.000 235.300 122.412 C 236.785 120.988,238.000 119.773,238.000 119.712 C 238.000 119.417,237.593 119.792,235.188 122.300 M170.593 129.400 C 172.143 130.940,176.284 134.900,179.795 138.200 C 183.306 141.500,188.253 146.205,190.789 148.655 C 196.732 154.396,198.908 156.400,199.200 156.400 C 199.488 156.400,201.053 154.949,210.000 146.384 C 221.033 135.822,224.324 132.589,222.600 134.006 C 221.127 135.216,212.142 143.726,204.048 151.577 C 198.947 156.524,199.478 156.515,194.533 151.731 C 187.697 145.118,177.305 135.260,175.200 133.391 C 173.990 132.317,171.824 130.349,170.388 129.019 L 167.775 126.600 170.593 129.400 M227.400 129.690 L 224.200 132.959 227.200 130.180 C 229.836 127.738,231.106 126.378,230.720 126.410 C 230.654 126.416,229.160 127.891,227.400 129.690 M314.585 133.473 C 313.493 134.504,311.160 136.698,309.400 138.351 C 307.640 140.003,303.668 143.795,300.574 146.777 C 297.479 149.760,291.734 155.260,287.807 159.000 C 283.880 162.740,280.017 166.430,279.223 167.200 C 278.430 167.970,276.255 170.033,274.390 171.784 C 272.526 173.535,267.428 178.395,263.061 182.584 C 258.695 186.773,254.285 190.994,253.261 191.964 C 244.161 200.588,244.520 199.672,248.676 203.653 C 251.642 206.495,259.788 214.315,262.788 217.200 C 270.233 224.361,274.390 228.326,280.193 233.800 C 283.924 237.320,288.782 241.935,290.988 244.056 C 293.195 246.177,296.097 248.967,297.438 250.256 C 307.388 259.825,313.691 265.759,315.030 266.821 C 315.893 267.506,320.455 271.786,325.167 276.333 C 337.577 288.308,338.056 288.767,340.853 291.366 C 342.254 292.668,345.242 295.524,347.494 297.714 L 351.587 301.695 350.833 302.754 C 350.418 303.336,346.695 307.050,342.560 311.006 C 333.794 319.393,333.070 320.085,329.146 323.800 C 323.775 328.887,311.508 340.560,309.075 342.900 C 306.084 345.777,306.485 345.847,302.139 341.696 C 300.126 339.773,297.336 337.127,295.939 335.815 C 290.309 330.527,280.538 321.258,278.213 319.000 C 272.245 313.206,260.718 302.196,260.421 302.007 C 260.097 301.800,249.299 291.550,244.613 287.000 C 243.253 285.680,238.734 281.360,234.570 277.401 C 230.407 273.442,225.183 268.402,222.962 266.201 C 220.741 264.000,215.896 259.320,212.196 255.800 C 208.496 252.280,204.509 248.460,203.335 247.310 C 199.195 243.253,199.361 243.252,195.000 247.392 C 188.874 253.210,183.678 258.215,177.600 264.152 C 173.970 267.698,167.320 274.110,162.823 278.400 C 158.326 282.690,153.809 287.010,152.786 288.000 C 148.145 292.490,137.464 302.621,137.173 302.808 C 136.880 302.997,124.625 314.725,118.581 320.600 C 116.397 322.724,108.381 330.338,99.634 338.599 C 98.003 340.140,96.113 341.951,95.434 342.624 C 94.755 343.298,93.693 344.164,93.074 344.551 L 91.947 345.253 90.074 343.527 C 89.043 342.577,87.559 341.170,86.775 340.400 C 83.764 337.442,70.695 324.990,70.402 324.800 C 69.874 324.456,57.277 312.445,51.864 307.123 L 46.700 302.047 47.650 300.923 C 48.173 300.306,50.130 298.370,52.000 296.622 C 56.091 292.798,61.968 287.193,72.634 276.946 C 77.015 272.736,81.404 268.596,82.386 267.746 C 85.125 265.375,90.028 260.796,96.226 254.823 C 103.152 248.148,114.512 237.325,119.596 232.559 C 123.005 229.363,130.171 222.517,133.998 218.800 C 134.791 218.030,138.740 214.250,142.772 210.400 C 146.805 206.550,150.711 202.818,151.453 202.107 C 153.151 200.478,153.151 199.522,151.453 197.893 C 150.712 197.182,147.083 193.720,143.387 190.200 C 139.692 186.680,135.735 182.900,134.594 181.800 C 129.710 177.091,124.567 172.191,118.220 166.200 C 109.729 158.184,109.721 158.176,100.139 148.984 C 95.772 144.795,90.674 139.935,88.810 138.184 C 86.945 136.433,84.740 134.325,83.910 133.500 C 83.079 132.675,82.265 132.003,82.100 132.007 C 81.790 132.014,86.607 136.761,93.210 142.954 C 95.295 144.909,100.220 149.589,104.156 153.354 C 108.092 157.119,112.142 160.990,113.156 161.955 C 114.170 162.920,116.800 165.440,119.000 167.555 C 121.200 169.670,125.308 173.560,128.129 176.200 C 130.950 178.840,134.820 182.505,136.729 184.346 C 138.638 186.186,142.855 190.223,146.100 193.318 C 153.636 200.505,153.636 199.493,146.100 206.687 C 142.855 209.785,138.641 213.823,136.735 215.660 C 134.829 217.497,130.959 221.160,128.135 223.800 C 123.622 228.019,119.294 232.141,112.808 238.400 C 111.782 239.390,107.735 243.260,103.815 247.000 C 99.894 250.740,95.848 254.610,94.824 255.600 C 89.794 260.463,84.335 265.349,83.377 265.846 C 82.487 266.308,75.453 266.400,41.154 266.400 L 0.000 266.400 0.000 314.400 C 0.000 346.133,0.136 362.400,0.400 362.400 C 0.640 362.400,0.800 364.000,0.800 366.400 C 0.800 370.133,0.853 370.400,1.600 370.400 C 2.267 370.400,2.400 370.667,2.400 372.000 C 2.400 373.333,2.533 373.600,3.200 373.600 C 3.867 373.600,4.000 373.867,4.000 375.200 C 4.000 376.533,4.133 376.800,4.800 376.800 C 5.467 376.800,5.600 377.067,5.600 378.400 C 5.600 379.733,5.733 380.000,6.400 380.000 C 6.933 380.000,7.200 380.267,7.200 380.800 C 7.200 381.333,7.467 381.600,8.000 381.600 C 8.667 381.600,8.800 381.867,8.800 383.200 C 8.800 384.533,8.933 384.800,9.600 384.800 C 10.133 384.800,10.400 385.067,10.400 385.600 C 10.400 386.133,10.667 386.400,11.200 386.400 C 11.733 386.400,12.000 386.667,12.000 387.200 C 12.000 387.733,12.267 388.000,12.800 388.000 C 13.333 388.000,13.600 388.267,13.600 388.800 C 13.600 389.333,13.867 389.600,14.400 389.600 C 14.933 389.600,15.200 389.867,15.200 390.400 C 15.200 391.067,15.467 391.200,16.800 391.200 C 18.133 391.200,18.400 391.333,18.400 392.000 C 18.400 392.533,18.667 392.800,19.200 392.800 C 19.733 392.800,20.000 393.067,20.000 393.600 C 20.000 394.267,20.267 394.400,21.600 394.400 C 22.933 394.400,23.200 394.533,23.200 395.200 C 23.200 395.867,23.467 396.000,24.800 396.000 C 26.133 396.000,26.400 396.133,26.400 396.800 C 26.400 397.511,26.667 397.600,28.800 397.600 C 30.933 397.600,31.200 397.689,31.200 398.400 C 31.200 399.133,31.467 399.200,34.400 399.200 C 36.267 399.200,37.600 399.367,37.600 399.600 C 37.600 399.866,92.000 400.000,200.000 400.000 C 308.000 400.000,362.400 399.866,362.400 399.600 C 362.400 399.367,363.733 399.200,365.600 399.200 C 368.533 399.200,368.800 399.133,368.800 398.400 C 368.800 397.689,369.067 397.600,371.200 397.600 C 373.333 397.600,373.600 397.511,373.600 396.800 C 373.600 396.133,373.867 396.000,375.200 396.000 C 376.533 396.000,376.800 395.867,376.800 395.200 C 376.800 394.533,377.067 394.400,378.400 394.400 C 379.733 394.400,380.000 394.267,380.000 393.600 C 380.000 393.067,380.267 392.800,380.800 392.800 C 381.333 392.800,381.600 392.533,381.600 392.000 C 381.600 391.467,381.867 391.200,382.400 391.200 C 382.933 391.200,383.200 390.933,383.200 390.400 C 383.200 389.733,383.467 389.600,384.800 389.600 C 386.133 389.600,386.400 389.467,386.400 388.800 C 386.400 388.267,386.667 388.000,387.200 388.000 C 387.733 388.000,388.000 387.733,388.000 387.200 C 388.000 386.667,388.267 386.400,388.800 386.400 C 389.467 386.400,389.600 386.133,389.600 384.800 C 389.600 383.467,389.733 383.200,390.400 383.200 C 390.933 383.200,391.200 382.933,391.200 382.400 C 391.200 381.867,391.467 381.600,392.000 381.600 C 392.533 381.600,392.800 381.333,392.800 380.800 C 392.800 380.267,393.067 380.000,393.600 380.000 C 394.267 380.000,394.400 379.733,394.400 378.400 C 394.400 377.067,394.533 376.800,395.200 376.800 C 395.867 376.800,396.000 376.533,396.000 375.200 C 396.000 373.867,396.133 373.600,396.800 373.600 C 397.511 373.600,397.600 373.333,397.600 371.200 C 397.600 369.067,397.689 368.800,398.400 368.800 C 399.147 368.800,399.200 368.533,399.200 364.800 C 399.200 362.400,399.360 360.800,399.600 360.800 C 399.864 360.800,400.000 344.800,400.000 313.600 L 400.000 266.400 358.046 266.400 C 323.161 266.400,315.912 266.307,315.028 265.848 C 314.443 265.545,311.688 263.160,308.906 260.548 C 306.125 257.937,303.366 255.350,302.776 254.800 C 301.686 253.784,287.392 240.088,283.989 236.800 C 279.531 232.491,273.496 226.736,269.989 223.446 C 265.892 219.603,253.587 207.849,249.144 203.536 C 245.667 200.160,245.667 199.840,249.144 196.464 C 253.587 192.151,265.892 180.397,269.989 176.554 C 273.442 173.316,279.201 167.823,283.992 163.200 C 288.040 159.294,300.006 147.911,303.595 144.552 C 309.134 139.368,317.034 131.614,316.785 131.607 C 316.667 131.603,315.677 132.443,314.585 133.473 M200.200 245.019 C 200.933 245.562,207.843 252.130,217.070 261.051 C 219.089 263.003,220.856 265.005,220.997 265.500 L 221.254 266.400 199.264 266.400 L 177.275 266.400 177.488 265.500 C 177.605 265.005,179.073 263.272,180.750 261.649 C 182.428 260.025,186.584 256.001,189.987 252.706 C 198.927 244.049,198.910 244.062,200.200 245.019 " stroke="none" fill="#fcdc34" fill-rule="evenodd"></path><path id="path2" d="M37.398 0.594 C 36.966 1.238,34.897 1.384,32.100 0.969 C 30.469 0.726,30.400 0.759,30.400 1.761 L 30.400 2.806 27.600 2.545 C 24.923 2.297,24.800 2.323,24.800 3.143 C 24.800 3.620,24.546 4.000,24.228 4.000 C 23.913 4.000,23.598 4.405,23.528 4.900 C 23.421 5.654,23.190 5.780,22.100 5.674 C 21.037 5.572,20.800 5.690,20.800 6.325 C 20.800 7.531,19.707 8.259,18.773 7.676 C 17.630 6.962,16.800 7.098,16.800 8.000 C 16.800 8.533,16.533 8.800,16.000 8.800 C 15.467 8.800,15.200 9.067,15.200 9.600 C 15.200 10.133,14.933 10.400,14.400 10.400 C 13.867 10.400,13.600 10.667,13.600 11.200 C 13.600 11.733,13.333 12.000,12.800 12.000 C 12.267 12.000,12.000 12.267,12.000 12.800 C 12.000 13.333,11.733 13.600,11.200 13.600 C 10.667 13.600,10.400 13.867,10.400 14.400 C 10.400 14.933,10.133 15.200,9.600 15.200 C 9.067 15.200,8.800 15.467,8.800 16.000 C 8.800 16.533,8.533 16.800,8.000 16.800 C 7.098 16.800,6.962 17.630,7.676 18.773 C 8.263 19.713,7.528 20.800,6.307 20.800 C 5.614 20.800,5.545 20.981,5.774 22.200 C 6.018 23.502,5.965 23.600,5.018 23.600 C 4.380 23.600,4.000 23.824,4.000 24.200 C 4.000 24.533,3.644 24.800,3.200 24.800 C 2.327 24.800,2.024 27.587,2.769 28.764 C 3.321 29.636,2.821 30.400,1.698 30.400 L 0.682 30.400 0.944 33.811 C 1.162 36.649,1.105 37.262,0.603 37.454 C 0.070 37.659,-0.000 43.248,-0.000 85.443 L 0.000 133.200 40.351 133.200 C 86.367 133.200,83.189 133.467,79.506 129.907 C 70.544 121.245,61.483 112.574,61.214 112.404 C 60.005 111.640,46.800 98.599,46.800 98.168 C 46.800 97.585,51.455 92.978,66.976 78.200 C 70.674 74.680,73.842 71.708,74.018 71.596 C 74.193 71.484,77.816 68.035,82.068 63.932 C 93.295 53.101,91.702 53.707,96.664 58.371 C 101.081 62.523,112.387 73.247,114.407 75.200 C 121.291 81.859,132.398 92.520,133.400 93.431 C 134.801 94.705,146.884 106.166,149.604 108.800 C 154.427 113.471,167.405 125.842,170.875 129.078 C 173.466 131.492,175.173 132.775,176.025 132.945 C 178.491 133.438,221.700 133.192,223.066 132.677 C 224.225 132.240,228.100 128.761,237.258 119.933 C 249.366 108.261,262.594 95.645,265.889 92.626 C 267.037 91.573,269.764 88.977,271.949 86.856 C 279.513 79.513,300.668 59.403,304.584 55.833 C 306.549 54.042,305.378 53.302,314.658 62.200 C 321.920 69.163,327.594 74.569,329.772 76.600 C 332.089 78.762,346.809 92.914,349.046 95.131 C 350.451 96.522,351.600 97.896,351.600 98.184 C 351.600 98.605,341.980 108.089,336.600 112.972 C 335.940 113.571,331.890 117.443,327.600 121.576 C 323.310 125.709,319.102 129.743,318.248 130.541 C 315.233 133.360,312.785 133.200,358.849 133.200 L 400.000 133.200 400.000 86.043 C 400.000 47.195,399.906 38.850,399.468 38.682 C 399.055 38.523,398.978 37.492,399.120 34.039 C 399.298 29.720,399.280 29.600,398.451 29.600 C 397.745 29.600,397.600 29.361,397.600 28.200 C 397.600 26.967,397.479 26.800,396.582 26.800 C 395.640 26.800,395.583 26.698,395.820 25.433 C 396.049 24.214,395.975 24.051,395.138 23.933 C 394.284 23.812,394.211 23.630,394.320 21.900 C 394.427 20.212,394.348 20.000,393.620 20.000 C 393.169 20.000,392.800 19.743,392.800 19.428 C 392.800 19.113,392.395 18.798,391.900 18.728 C 391.104 18.615,391.015 18.404,391.127 16.900 C 391.239 15.407,391.153 15.200,390.427 15.200 C 389.867 15.200,389.600 14.942,389.600 14.400 C 389.600 13.867,389.333 13.600,388.800 13.600 C 388.267 13.600,388.000 13.333,388.000 12.800 C 388.000 12.267,387.733 12.000,387.200 12.000 C 386.667 12.000,386.400 11.733,386.400 11.200 C 386.400 10.667,386.133 10.400,385.600 10.400 C 385.056 10.400,384.800 10.133,384.800 9.566 C 384.800 8.830,384.600 8.747,383.100 8.866 C 381.593 8.985,381.385 8.898,381.272 8.100 C 381.202 7.605,380.887 7.200,380.572 7.200 C 380.256 7.200,380.000 6.821,380.000 6.355 C 380.000 5.579,379.851 5.532,378.200 5.779 C 376.465 6.039,376.400 6.012,376.400 5.025 C 376.400 4.096,376.250 4.000,374.800 4.000 C 373.467 4.000,373.200 3.867,373.200 3.200 C 373.200 2.552,372.933 2.400,371.800 2.400 C 370.634 2.400,370.400 2.256,370.400 1.540 C 370.400 0.702,370.299 0.686,366.617 0.928 C 363.577 1.128,362.718 1.061,362.245 0.588 C 361.348 -0.309,38.000 -0.304,37.398 0.594 " stroke="none" fill="#040c04" fill-rule="evenodd"></path><path id="path3" d="M36.052 0.649 C 35.575 1.189,35.622 1.251,36.421 1.134 C 36.925 1.060,37.411 0.775,37.502 0.500 C 37.733 -0.201,36.712 -0.096,36.052 0.649 M362.000 0.392 C 362.000 0.890,363.705 1.331,364.668 1.082 C 365.157 0.956,365.034 0.877,364.300 0.846 C 363.695 0.821,363.200 0.620,363.200 0.400 C 363.200 0.180,362.930 0.000,362.600 0.000 C 362.270 0.000,362.000 0.177,362.000 0.392 M373.200 3.172 C 373.200 3.795,373.455 4.000,374.229 4.000 C 375.542 4.000,375.425 2.662,374.096 2.472 C 373.415 2.375,373.200 2.543,373.200 3.172 M21.660 4.380 C 21.832 4.896,22.381 4.988,22.430 4.510 C 22.447 4.351,22.244 4.148,21.980 4.060 C 21.716 3.972,21.572 4.116,21.660 4.380 M23.232 4.667 C 23.214 5.143,22.975 5.624,22.700 5.735 C 22.308 5.893,22.311 5.944,22.713 5.968 C 23.320 6.006,23.761 5.040,23.469 4.313 C 23.356 4.031,23.249 4.190,23.232 4.667 M376.454 4.900 C 376.410 5.803,376.562 5.992,377.300 5.954 C 377.938 5.921,378.003 5.855,377.525 5.729 C 377.153 5.631,376.773 5.157,376.679 4.675 C 376.539 3.955,376.499 3.994,376.454 4.900 M381.200 7.949 C 381.200 8.924,381.704 9.289,382.584 8.951 C 383.509 8.596,383.169 7.425,382.096 7.272 C 381.423 7.176,381.200 7.344,381.200 7.949 M390.918 17.469 C 390.645 18.182,391.135 18.800,391.974 18.800 C 392.476 18.800,392.700 18.501,392.700 17.829 C 392.700 16.784,391.290 16.500,390.918 17.469 M5.600 22.772 C 5.600 22.977,5.195 23.222,4.700 23.318 C 3.928 23.466,3.957 23.499,4.900 23.546 C 5.635 23.582,6.000 23.401,6.000 23.000 C 6.000 22.670,5.910 22.400,5.800 22.400 C 5.690 22.400,5.600 22.567,5.600 22.772 M396.676 25.684 C 397.258 26.327,397.260 26.400,396.695 26.400 C 396.350 26.400,395.976 26.175,395.865 25.900 C 395.744 25.601,395.650 25.682,395.632 26.100 C 395.610 26.579,395.900 26.800,396.550 26.800 C 397.289 26.800,397.500 26.584,397.500 25.829 C 397.500 25.132,397.292 24.873,396.764 24.913 C 396.083 24.964,396.076 25.021,396.676 25.684 M0.854 35.500 C 0.825 35.995,0.620 36.400,0.400 36.400 C 0.180 36.400,0.000 36.670,0.000 37.000 C 0.000 37.763,0.755 37.784,1.044 37.029 C 1.165 36.715,1.184 36.040,1.086 35.529 L 0.909 34.600 0.854 35.500 M398.832 37.476 C 398.814 37.958,398.992 38.471,399.227 38.616 C 399.791 38.965,400.302 38.438,399.748 38.078 C 399.513 37.925,399.217 37.530,399.092 37.200 C 398.936 36.792,398.853 36.880,398.832 37.476 M305.549 55.100 C 305.048 55.739,305.063 55.751,305.721 55.233 C 306.374 54.721,306.678 54.892,308.921 57.033 L 311.400 59.400 309.013 56.900 C 306.366 54.129,306.327 54.109,305.549 55.100 M87.787 58.500 L 85.400 61.000 87.900 58.613 C 89.275 57.299,90.400 56.174,90.400 56.113 C 90.400 55.817,90.005 56.178,87.787 58.500 M101.200 63.000 C 102.617 64.430,103.867 65.600,103.977 65.600 C 104.087 65.600,103.017 64.430,101.600 63.000 C 100.183 61.570,98.933 60.400,98.823 60.400 C 98.713 60.400,99.783 61.570,101.200 63.000 M294.989 64.900 L 292.200 67.800 295.100 65.011 C 296.695 63.477,298.000 62.172,298.000 62.111 C 298.000 61.817,297.580 62.206,294.989 64.900 M106.400 67.710 C 106.400 67.771,107.795 69.166,109.500 70.810 L 112.600 73.800 109.610 70.700 C 106.833 67.821,106.400 67.417,106.400 67.710 M287.200 72.200 C 285.561 73.850,284.310 75.200,284.420 75.200 C 284.530 75.200,285.961 73.850,287.600 72.200 C 289.239 70.550,290.490 69.200,290.380 69.200 C 290.270 69.200,288.839 70.550,287.200 72.200 M321.800 69.455 C 326.035 73.529,328.415 75.586,326.200 73.260 C 324.880 71.873,323.260 70.363,322.600 69.905 C 321.940 69.446,321.580 69.244,321.800 69.455 M70.989 74.500 L 68.200 77.400 71.100 74.611 C 73.794 72.020,74.183 71.600,73.889 71.600 C 73.828 71.600,72.523 72.905,70.989 74.500 M118.200 79.200 C 119.506 80.520,120.665 81.600,120.775 81.600 C 120.885 81.600,119.906 80.520,118.600 79.200 C 117.294 77.880,116.135 76.800,116.025 76.800 C 115.915 76.800,116.894 77.880,118.200 79.200 M333.400 80.400 C 335.150 82.160,336.671 83.600,336.781 83.600 C 336.891 83.600,335.550 82.160,333.800 80.400 C 332.050 78.640,330.529 77.200,330.419 77.200 C 330.309 77.200,331.650 78.640,333.400 80.400 M278.187 80.900 L 275.800 83.400 278.300 81.013 C 279.675 79.699,280.800 78.574,280.800 78.513 C 280.800 78.217,280.405 78.578,278.187 80.900 M63.787 81.300 L 61.400 83.800 63.900 81.413 C 66.222 79.195,66.583 78.800,66.287 78.800 C 66.226 78.800,65.101 79.925,63.787 81.300 M343.000 89.600 C 344.083 90.700,345.060 91.600,345.170 91.600 C 345.280 91.600,344.483 90.700,343.400 89.600 C 342.317 88.500,341.340 87.600,341.230 87.600 C 341.120 87.600,341.917 88.500,343.000 89.600 M54.187 90.500 L 51.800 93.000 54.300 90.613 C 55.675 89.299,56.800 88.174,56.800 88.113 C 56.800 87.817,56.405 88.178,54.187 90.500 M262.058 96.300 L 258.942 99.400 261.971 96.620 C 263.637 95.091,265.171 93.696,265.380 93.520 C 265.589 93.344,265.628 93.200,265.467 93.200 C 265.306 93.200,263.772 94.595,262.058 96.300 M136.400 96.600 C 137.817 98.030,139.067 99.200,139.177 99.200 C 139.287 99.200,138.217 98.030,136.800 96.600 C 135.383 95.170,134.133 94.000,134.023 94.000 C 133.913 94.000,134.983 95.170,136.400 96.600 M51.000 102.800 C 52.306 104.120,53.465 105.200,53.575 105.200 C 53.685 105.200,52.706 104.120,51.400 102.800 C 50.094 101.480,48.935 100.400,48.825 100.400 C 48.715 100.400,49.694 101.480,51.000 102.800 M346.987 102.900 L 344.600 105.400 347.100 103.013 C 348.475 101.699,349.600 100.574,349.600 100.513 C 349.600 100.217,349.205 100.578,346.987 102.900 M143.800 103.600 C 145.106 104.920,146.265 106.000,146.375 106.000 C 146.485 106.000,145.506 104.920,144.200 103.600 C 142.894 102.280,141.735 101.200,141.625 101.200 C 141.515 101.200,142.494 102.280,143.800 103.600 M253.600 104.200 C 251.961 105.850,250.710 107.200,250.820 107.200 C 250.930 107.200,252.361 105.850,254.000 104.200 C 255.639 102.550,256.890 101.200,256.780 101.200 C 256.670 101.200,255.239 102.550,253.600 104.200 M58.400 109.800 C 59.817 111.230,61.067 112.400,61.177 112.400 C 61.287 112.400,60.217 111.230,58.800 109.800 C 57.383 108.370,56.133 107.200,56.023 107.200 C 55.913 107.200,56.983 108.370,58.400 109.800 M339.588 109.900 L 337.000 112.600 339.700 110.012 C 341.185 108.588,342.400 107.373,342.400 107.312 C 342.400 107.017,341.993 107.392,339.588 109.900 M153.400 112.800 C 154.706 114.120,155.865 115.200,155.975 115.200 C 156.085 115.200,155.106 114.120,153.800 112.800 C 152.494 111.480,151.335 110.400,151.225 110.400 C 151.115 110.400,152.094 111.480,153.400 112.800 M243.785 113.700 L 241.800 115.800 243.900 113.815 C 245.851 111.971,246.183 111.600,245.885 111.600 C 245.822 111.600,244.877 112.545,243.785 113.700 M163.983 122.900 C 164.964 123.945,165.819 124.800,165.883 124.800 C 166.184 124.800,165.866 124.441,164.100 122.783 L 162.200 121.000 163.983 122.900 M75.000 125.600 C 76.306 126.920,77.465 128.000,77.575 128.000 C 77.685 128.000,76.706 126.920,75.400 125.600 C 74.094 124.280,72.935 123.200,72.825 123.200 C 72.715 123.200,73.694 124.280,75.000 125.600 M321.387 127.300 L 319.000 129.800 321.500 127.413 C 322.875 126.099,324.000 124.974,324.000 124.913 C 324.000 124.617,323.605 124.978,321.387 127.300 M166.600 125.455 C 170.835 129.529,173.215 131.586,171.000 129.260 C 169.680 127.873,168.060 126.363,167.400 125.905 C 166.740 125.446,166.380 125.244,166.600 125.455 M226.589 130.011 C 223.260 133.375,224.483 133.241,198.252 133.113 C 176.325 133.005,175.241 132.965,174.342 132.235 C 173.210 131.316,175.177 133.231,184.348 141.975 C 188.169 145.619,192.753 150.009,194.533 151.731 C 199.478 156.515,198.947 156.524,204.048 151.577 C 212.576 143.305,221.248 135.109,223.800 132.908 C 226.602 130.491,229.525 127.600,229.166 127.600 C 229.061 127.600,227.901 128.685,226.589 130.011 M81.458 131.695 C 82.385 133.193,82.203 133.200,40.351 133.200 L 0.000 133.200 0.000 199.800 L 0.000 266.400 41.154 266.400 C 75.453 266.400,82.487 266.308,83.377 265.846 C 84.335 265.349,89.794 260.463,94.824 255.600 C 95.848 254.610,99.894 250.740,103.815 247.000 C 107.735 243.260,111.782 239.390,112.808 238.400 C 119.294 232.141,123.622 228.019,128.135 223.800 C 130.959 221.160,134.829 217.497,136.735 215.660 C 138.641 213.823,142.855 209.785,146.100 206.687 C 150.784 202.216,152.000 200.837,152.000 200.000 C 152.000 199.162,150.785 197.787,146.100 193.318 C 142.855 190.223,138.638 186.186,136.729 184.346 C 134.820 182.505,130.950 178.840,128.129 176.200 C 125.308 173.560,121.200 169.670,119.000 167.555 C 116.800 165.440,114.170 162.920,113.156 161.955 C 112.142 160.990,108.092 157.119,104.156 153.354 C 100.220 149.589,95.290 144.911,93.200 142.959 C 91.110 141.007,87.566 137.597,85.324 135.382 C 83.082 133.166,81.343 131.507,81.458 131.695 M311.989 136.524 C 309.458 138.986,305.680 142.598,303.594 144.552 C 299.997 147.918,288.013 159.319,283.992 163.200 C 279.201 167.823,273.442 173.316,269.989 176.554 C 265.892 180.397,253.587 192.151,249.144 196.464 C 245.667 199.840,245.667 200.160,249.144 203.536 C 253.587 207.849,265.892 219.603,269.989 223.446 C 273.496 226.736,279.531 232.491,283.989 236.800 C 287.392 240.088,301.686 253.784,302.776 254.800 C 303.366 255.350,306.125 257.937,308.906 260.548 C 311.688 263.160,314.443 265.545,315.028 265.848 C 315.912 266.307,323.161 266.400,358.046 266.400 L 400.000 266.400 400.000 199.800 L 400.000 133.200 358.931 133.200 C 323.760 133.200,317.772 133.117,317.227 132.624 C 316.661 132.112,316.084 132.541,311.989 136.524 M197.578 245.557 C 196.806 246.194,193.390 249.411,189.987 252.706 C 186.584 256.001,182.428 260.025,180.750 261.649 C 179.073 263.272,177.605 265.005,177.488 265.500 L 177.275 266.400 199.264 266.400 L 221.254 266.400 220.997 265.500 C 220.744 264.612,219.432 263.286,207.200 251.557 C 198.749 243.454,199.535 243.944,197.578 245.557 " stroke="none" fill="#eb2424" fill-rule="evenodd"></path></g></svg>