<svg id="svg" version="1.1" xmlns="http://www.w3.org/2000/svg" xmlns:xlink="http://www.w3.org/1999/xlink" width="400" height="400" viewBox="0, 0, 400,400"><g id="svgg"><path id="path0" d="M36.291 37.712 C 18.961 54.920,4.786 69.114,4.791 69.254 C 4.802 69.573,32.183 96.816,34.449 98.764 C 39.115 102.773,113.838 177.215,118.400 182.400 C 119.830 184.025,122.980 187.255,125.400 189.577 C 134.502 198.314,136.400 200.253,136.402 200.818 C 136.406 201.820,123.586 214.000,122.528 214.000 C 122.018 214.000,121.600 213.820,121.600 213.600 C 121.600 212.914,119.358 213.162,118.668 213.924 C 118.215 214.425,117.995 215.470,117.955 217.315 C 117.895 220.082,116.033 222.670,112.894 224.350 C 112.408 224.610,111.906 225.223,111.779 225.712 C 111.652 226.200,110.793 227.173,109.870 227.873 C 108.947 228.573,107.204 230.242,105.996 231.581 C 103.005 234.898,90.166 247.831,81.115 256.643 C 73.858 263.709,73.626 263.893,71.654 264.155 C 69.401 264.454,68.723 265.062,69.779 265.834 C 70.299 266.214,70.369 266.484,70.051 266.874 C 69.814 267.163,68.741 268.480,67.667 269.800 C 66.592 271.120,59.109 278.680,51.037 286.600 C 14.775 322.179,4.868 332.112,5.083 332.672 C 5.204 332.987,11.049 338.950,18.071 345.922 C 52.501 380.106,67.832 395.189,68.154 395.194 C 68.522 395.200,79.318 384.580,119.576 344.607 C 146.361 318.013,163.710 300.672,166.444 297.762 C 182.706 280.454,192.649 271.803,195.186 272.755 C 197.919 273.780,203.890 273.652,204.997 272.545 C 205.629 271.914,207.042 271.821,207.393 272.389 C 207.526 272.603,208.361 272.974,209.250 273.214 C 211.249 273.752,220.455 282.576,240.400 303.073 C 244.685 307.476,266.624 329.284,313.670 375.906 C 324.379 386.518,333.330 395.200,333.563 395.200 C 333.795 395.200,344.834 384.445,358.094 371.300 C 371.354 358.155,385.324 344.340,389.138 340.600 C 392.952 336.860,396.226 333.410,396.414 332.933 C 396.736 332.114,375.948 310.732,366.342 302.000 C 360.093 296.320,265.939 202.886,265.287 201.717 C 264.936 201.089,264.896 200.576,265.161 200.099 C 265.767 199.005,345.614 119.734,368.047 97.955 C 389.408 77.216,396.812 69.696,396.548 69.008 C 396.410 68.649,390.551 62.650,383.529 55.678 C 350.519 22.903,333.775 6.411,333.505 6.406 C 333.107 6.398,290.650 48.515,241.668 97.507 C 213.029 126.151,201.322 137.612,200.791 137.524 C 200.136 137.415,170.548 108.277,160.398 97.745 C 156.838 94.052,133.699 71.045,87.930 25.693 C 77.221 15.082,68.311 6.405,68.130 6.412 C 67.948 6.418,53.621 20.503,36.291 37.712 M69.116 20.226 C 70.115 20.926,91.840 42.389,125.974 76.400 C 165.221 115.505,200.294 150.000,200.807 150.000 C 201.422 150.000,222.470 129.389,259.069 92.948 C 305.245 46.970,332.156 20.366,332.921 19.939 C 333.478 19.628,333.932 19.764,334.921 20.538 C 337.118 22.259,382.668 67.749,383.179 68.733 C 383.808 69.945,387.965 65.685,338.039 114.995 C 331.131 121.818,315.444 137.390,303.179 149.600 C 290.914 161.810,274.284 178.340,266.224 186.333 L 251.568 200.866 271.284 220.414 C 282.128 231.166,307.197 256.036,326.994 275.681 C 346.790 295.326,367.633 315.995,373.311 321.611 L 383.634 331.821 383.015 333.211 C 382.674 333.975,380.869 336.040,379.004 337.800 C 377.138 339.560,366.217 350.315,354.734 361.700 C 343.251 373.085,333.726 382.400,333.567 382.400 C 333.237 382.400,310.518 359.973,276.431 326.000 C 240.530 290.219,201.297 251.600,200.847 251.600 C 200.625 251.600,197.408 254.615,193.698 258.300 C 189.988 261.985,175.632 276.160,161.796 289.800 C 147.960 303.440,126.249 324.950,113.550 337.600 C 79.528 371.490,70.150 380.767,68.998 381.673 L 67.964 382.486 63.961 378.543 C 41.394 356.316,19.002 333.839,18.543 332.956 C 17.978 331.866,17.997 331.840,22.693 327.231 C 27.490 322.523,78.751 271.682,124.760 226.001 L 150.120 200.822 130.360 181.230 C 119.492 170.454,94.850 146.004,75.600 126.895 C 56.350 107.787,35.505 87.117,29.279 80.963 C 18.167 69.981,17.967 69.755,18.485 68.756 C 18.776 68.197,25.670 61.128,33.807 53.048 C 41.943 44.968,52.846 34.137,58.035 28.979 C 68.043 19.030,67.745 19.266,69.116 20.226 M114.027 203.368 C 113.013 204.589,113.663 208.184,114.924 208.329 C 116.579 208.519,117.200 207.783,117.200 205.631 C 117.200 203.040,115.378 201.740,114.027 203.368 M123.467 203.067 C 123.133 203.400,123.115 206.914,123.443 207.767 C 123.784 208.656,125.729 208.563,126.586 207.616 C 128.420 205.589,125.379 201.154,123.467 203.067 M202.687 265.922 C 202.955 266.092,203.135 266.764,203.087 267.415 C 203.006 268.516,203.113 268.614,204.600 268.800 C 205.844 268.956,206.227 269.188,206.321 269.845 C 206.529 271.307,204.047 272.201,199.800 272.193 C 195.142 272.184,194.698 272.011,195.254 270.418 C 195.672 269.217,196.518 268.820,197.000 269.600 C 197.426 270.290,202.400 270.106,202.400 269.400 C 202.400 268.940,201.892 268.800,200.224 268.800 C 196.126 268.800,197.451 266.448,202.000 265.647 C 202.110 265.628,202.419 265.751,202.687 265.922 " stroke="none" fill="#100c09" fill-rule="evenodd"></path><path id="path1" d="M0.000 200.000 L 0.000 300.000 17.951 300.000 C 33.420 300.000,35.971 299.917,36.400 299.400 C 36.674 299.070,37.034 298.800,37.201 298.800 C 37.780 298.800,66.767 269.535,67.045 268.670 C 67.198 268.191,67.341 267.080,67.362 266.200 C 67.397 264.723,67.530 264.540,69.087 263.816 C 70.015 263.385,70.828 262.755,70.895 262.416 C 70.979 261.985,71.493 261.800,72.608 261.800 C 73.484 261.800,74.238 261.620,74.286 261.400 C 74.334 261.172,73.751 261.059,72.932 261.137 C 71.008 261.321,70.671 260.626,71.845 258.896 C 73.532 256.410,73.800 254.697,73.800 246.400 L 73.800 238.600 72.800 238.600 C 71.970 238.600,71.819 238.770,71.912 239.600 C 72.618 245.904,71.800 247.102,68.848 244.087 C 66.702 241.896,66.129 240.513,65.739 236.579 C 65.462 233.783,65.494 233.748,70.574 231.200 C 73.568 229.699,73.885 229.228,73.960 226.176 C 74.013 224.034,73.443 223.405,70.770 222.649 C 68.013 221.869,67.665 221.478,65.753 217.000 C 64.088 213.101,64.029 212.278,65.311 210.894 C 66.319 209.806,69.315 208.000,70.111 208.000 C 70.424 208.000,71.444 207.447,72.378 206.770 L 74.075 205.540 73.834 198.070 C 73.509 187.963,73.492 187.790,72.747 186.943 C 71.782 185.844,71.460 184.451,72.016 183.781 C 72.392 183.328,72.392 183.072,72.015 182.618 C 71.370 181.841,71.754 181.318,73.205 180.999 C 74.721 180.666,74.714 180.020,73.174 178.372 C 69.920 174.889,71.478 171.200,76.201 171.200 C 78.011 171.200,78.691 170.788,79.785 169.027 L 80.514 167.854 81.257 168.771 C 81.666 169.276,82.000 169.919,82.000 170.202 C 82.000 170.830,82.892 171.200,84.407 171.200 C 88.834 171.200,91.064 175.224,88.184 178.015 C 86.452 179.694,86.458 180.902,88.200 181.201 C 89.765 181.470,90.038 184.159,88.729 186.398 C 87.793 187.998,87.683 188.849,87.384 196.800 C 87.089 204.661,87.002 204.519,92.281 204.870 C 94.514 205.019,96.728 205.348,97.202 205.601 C 99.177 206.658,99.200 206.518,99.200 193.489 C 99.200 178.370,98.381 179.860,106.835 179.600 C 110.724 179.480,113.390 179.236,113.471 178.992 C 113.545 178.767,106.191 171.207,97.130 162.192 C 88.068 153.176,70.583 135.765,58.274 123.500 C 45.966 111.235,35.761 101.200,35.596 101.200 C 35.432 101.200,35.074 100.930,34.800 100.600 C 34.372 100.084,31.908 100.000,17.151 100.000 L 0.000 100.000 0.000 200.000 M165.089 100.817 C 165.206 101.267,168.624 104.912,172.684 108.917 C 176.744 112.923,184.644 120.745,190.241 126.300 C 195.837 131.855,200.574 136.400,200.767 136.400 C 201.560 136.400,236.243 101.923,236.609 100.772 C 236.850 100.013,236.242 100.000,200.864 100.000 L 164.875 100.000 165.089 100.817 M362.331 104.838 C 344.404 122.428,266.000 200.591,266.000 200.872 C 266.000 201.062,278.372 213.499,293.494 228.509 C 308.616 243.519,330.689 265.475,342.547 277.300 C 354.404 289.125,364.240 298.800,364.404 298.800 C 364.568 298.800,364.926 299.070,365.200 299.400 C 365.628 299.916,368.092 300.000,382.849 300.000 L 400.000 300.000 400.000 200.000 L 400.000 100.000 383.631 100.000 L 367.262 100.000 362.331 104.838 M73.590 182.970 C 72.495 184.065,74.137 184.400,80.600 184.400 C 87.038 184.400,88.483 184.111,87.677 182.987 C 87.320 182.488,74.087 182.473,73.590 182.970 M88.271 213.298 C 87.892 213.576,87.476 214.452,87.348 215.245 L 87.114 216.687 89.857 218.044 L 92.600 219.400 92.896 222.400 C 93.346 226.948,93.122 227.655,90.618 229.586 C 87.178 232.240,87.200 232.173,87.200 240.172 C 87.200 249.663,87.017 249.597,94.000 242.600 L 99.341 237.248 99.488 233.924 C 99.568 232.096,99.492 227.109,99.317 222.842 C 98.956 214.017,99.349 214.797,94.800 213.867 C 89.715 212.827,89.001 212.765,88.271 213.298 M101.600 230.363 C 101.600 232.928,101.657 233.110,102.400 232.916 C 103.095 232.734,103.200 232.370,103.200 230.153 C 103.200 227.867,103.116 227.600,102.400 227.600 C 101.677 227.600,101.600 227.867,101.600 230.363 M180.198 285.331 C 174.036 291.529,168.534 296.960,167.970 297.400 C 167.407 297.841,166.840 298.606,166.710 299.100 L 166.475 300.000 200.800 300.000 L 235.125 300.000 234.911 299.180 C 234.793 298.729,231.732 295.444,228.109 291.880 C 224.486 288.316,219.316 283.216,216.622 280.546 C 213.927 277.877,211.351 275.575,210.897 275.431 C 210.443 275.287,209.854 274.906,209.587 274.585 C 208.920 273.781,203.806 273.793,202.254 274.602 C 200.824 275.348,198.907 275.347,197.600 274.600 C 197.004 274.259,195.550 274.035,194.000 274.045 L 191.400 274.062 180.198 285.331 " stroke="none" fill="#f9c104" fill-rule="evenodd"></path><path id="path2" d="M0.000 50.000 L 0.000 100.000 17.216 100.000 C 32.596 100.000,34.377 99.935,33.916 99.391 C 33.366 98.741,9.786 75.132,6.408 71.849 C 3.664 69.183,3.487 69.526,11.900 61.206 C 16.025 57.127,30.260 43.037,43.532 29.895 C 56.805 16.753,67.860 6.000,68.099 6.000 C 68.615 6.000,72.824 10.126,119.926 56.800 C 139.796 76.490,157.797 94.276,159.927 96.324 L 163.800 100.048 200.723 100.030 C 232.262 100.015,237.767 99.928,238.472 99.434 C 238.926 99.116,254.171 84.132,272.349 66.135 C 337.916 1.223,333.047 6.000,333.647 6.000 C 333.828 6.000,336.746 8.745,340.130 12.100 C 343.515 15.455,351.935 23.781,358.842 30.602 C 365.749 37.423,377.118 48.654,384.107 55.559 C 391.096 62.465,396.913 68.513,397.035 68.998 C 397.267 69.922,396.255 70.981,375.942 91.056 C 371.904 95.046,368.373 98.691,368.097 99.156 L 367.593 100.000 383.797 100.000 L 400.000 100.000 400.000 50.000 L 400.000 0.000 200.000 0.000 L 0.000 0.000 0.000 50.000 M72.400 173.959 C 72.400 174.926,73.889 175.871,74.480 175.280 C 75.208 174.552,74.647 173.406,73.497 173.273 C 72.620 173.172,72.400 173.310,72.400 173.959 M86.800 174.400 C 86.800 175.236,86.970 175.610,87.300 175.500 C 87.575 175.408,87.800 174.913,87.800 174.400 C 87.800 173.887,87.575 173.392,87.300 173.300 C 86.970 173.190,86.800 173.564,86.800 174.400 M101.600 182.000 C 100.432 183.168,100.197 222.899,101.354 223.715 C 101.599 223.888,104.284 223.978,107.320 223.915 L 112.840 223.800 114.620 221.888 C 116.890 219.450,117.017 219.600,112.680 219.600 C 110.320 219.600,108.785 219.425,108.480 219.120 C 107.828 218.468,107.844 213.361,108.500 212.816 C 108.775 212.587,109.435 212.068,109.968 211.661 C 111.112 210.788,111.417 203.025,110.357 201.748 C 109.375 200.565,109.393 196.229,110.387 194.622 C 111.005 193.621,111.190 192.867,111.015 192.067 C 110.614 190.243,111.847 189.077,114.452 188.816 C 116.530 188.607,116.597 188.562,116.517 187.442 C 116.409 185.936,117.036 184.800,117.977 184.800 C 119.102 184.800,118.575 183.429,116.984 182.215 C 115.123 180.796,102.974 180.626,101.600 182.000 M131.443 197.433 C 131.309 197.781,131.196 198.546,131.191 199.133 C 131.186 199.720,130.830 200.650,130.400 201.200 C 129.588 202.239,129.327 204.951,129.947 205.927 C 130.267 206.433,135.400 201.621,135.400 200.815 C 135.400 200.504,132.111 196.800,131.835 196.800 C 131.753 196.800,131.576 197.085,131.443 197.433 M87.909 206.662 C 87.369 207.202,87.125 207.236,86.644 206.837 C 85.970 206.277,83.928 206.392,83.734 207.000 C 83.663 207.220,84.133 207.700,84.779 208.067 C 85.613 208.542,86.031 209.158,86.226 210.199 C 86.563 211.995,87.022 212.201,88.921 211.407 C 90.512 210.743,90.680 210.442,89.900 209.655 C 89.625 209.378,89.400 208.504,89.400 207.713 C 89.400 206.067,88.875 205.696,87.909 206.662 M92.001 206.764 C 91.477 207.119,91.502 207.357,92.201 208.656 C 92.640 209.474,93.000 210.695,93.000 211.369 C 93.000 212.745,97.755 213.833,99.054 212.755 C 99.865 212.082,99.735 208.799,98.852 207.651 C 98.038 206.592,93.183 205.964,92.001 206.764 M78.285 207.049 C 77.893 207.441,79.914 211.126,80.773 211.586 C 82.915 212.732,83.858 211.552,82.631 209.262 C 82.319 208.678,81.964 207.885,81.844 207.500 C 81.627 206.806,78.876 206.457,78.285 207.049 M75.443 207.833 C 75.309 208.181,75.200 208.969,75.200 209.584 C 75.200 210.199,74.930 210.926,74.600 211.200 C 73.875 211.802,73.800 213.601,74.500 213.599 C 76.313 213.593,77.534 212.082,76.980 210.529 C 76.680 209.688,76.427 208.595,76.418 208.100 C 76.397 207.064,75.801 206.900,75.443 207.833 M67.602 210.598 C 65.942 211.823,65.614 212.317,65.606 213.607 C 65.599 214.834,67.405 217.600,68.214 217.600 C 68.632 217.600,68.800 218.063,68.800 219.210 C 68.800 221.317,72.262 222.780,72.957 220.967 C 73.823 218.712,73.190 217.677,70.831 217.492 C 69.140 217.359,68.841 216.692,70.196 216.075 C 71.981 215.262,72.277 213.898,71.165 211.614 C 70.065 209.354,69.505 209.195,67.602 210.598 M88.522 219.326 C 88.118 219.981,88.346 222.053,88.896 222.715 C 89.384 223.304,87.686 225.115,85.800 226.016 C 85.360 226.226,84.730 226.560,84.400 226.759 C 83.039 227.577,79.494 229.200,79.063 229.202 C 78.808 229.204,78.060 229.492,77.400 229.842 C 76.740 230.192,75.480 230.701,74.600 230.971 C 68.094 232.973,65.959 235.004,67.203 238.007 C 67.807 239.466,67.313 239.537,71.484 237.388 C 73.418 236.391,75.900 235.311,77.000 234.988 C 78.854 234.442,80.958 233.566,82.400 232.739 C 82.730 232.549,83.450 232.194,84.000 231.949 C 88.056 230.145,89.181 229.499,90.502 228.216 C 92.417 226.356,92.604 224.122,90.971 222.608 C 90.105 221.806,90.013 221.523,90.390 220.819 C 91.058 219.570,89.260 218.133,88.522 219.326 M105.849 226.216 C 105.470 227.205,105.552 229.923,105.969 230.181 C 106.838 230.718,108.176 227.950,107.569 226.873 C 106.864 225.623,106.177 225.361,105.849 226.216 M68.876 241.500 C 68.985 242.820,69.138 243.016,70.151 243.132 C 71.233 243.255,71.285 243.195,71.019 242.134 C 70.382 239.595,68.676 239.090,68.876 241.500 M142.438 322.600 C 129.808 335.140,114.310 350.530,107.997 356.800 C 71.848 392.703,68.858 395.600,67.958 395.600 C 67.774 395.600,64.854 392.855,61.470 389.500 C 58.085 386.145,49.665 377.819,42.758 370.998 C 35.851 364.177,24.492 352.956,17.516 346.063 C 10.539 339.170,4.717 333.169,4.577 332.728 C 4.369 332.071,7.089 329.167,19.661 316.627 C 28.098 308.212,35.232 301.029,35.516 300.664 C 35.995 300.048,34.738 300.000,18.016 300.000 L 0.000 300.000 0.000 350.000 L 0.000 400.000 200.000 400.000 L 400.000 400.000 400.000 350.000 L 400.000 300.000 382.784 300.000 C 367.244 300.000,365.619 300.061,366.084 300.623 C 366.368 300.966,373.503 308.146,381.941 316.579 C 395.356 329.987,397.246 332.025,396.996 332.812 C 396.709 333.717,393.472 336.994,370.360 359.784 C 363.452 366.596,352.472 377.441,345.960 383.884 C 339.448 390.328,333.884 395.600,333.594 395.600 C 332.980 395.600,329.782 392.471,281.673 344.800 C 261.802 325.110,243.441 306.962,240.872 304.472 L 236.200 299.944 200.800 299.872 L 165.400 299.800 142.438 322.600 " stroke="none" fill="#c20c1b" fill-rule="evenodd"></path><path id="path3" d="M43.500 44.968 C 30.355 58.028,19.600 68.943,19.600 69.224 C 19.600 69.738,33.581 83.703,99.794 149.327 C 152.247 201.314,150.800 199.853,150.800 200.819 C 150.800 201.756,146.834 205.750,86.988 265.074 C 25.563 325.962,19.600 331.928,19.600 332.497 C 19.600 333.035,66.619 379.843,67.852 380.533 C 68.490 380.890,69.362 380.050,100.795 348.800 C 207.028 243.183,200.017 249.967,201.898 250.958 C 202.504 251.277,214.160 262.635,227.800 276.198 C 299.922 347.913,333.188 380.800,333.606 380.800 C 333.747 380.800,338.361 376.345,343.858 370.900 C 349.355 365.455,360.186 354.739,367.926 347.086 C 375.667 339.434,382.000 332.879,382.000 332.519 C 382.000 331.868,370.318 320.178,301.806 252.275 C 250.401 201.324,250.800 201.727,250.800 200.876 C 250.800 200.407,256.118 194.836,264.660 186.357 C 272.283 178.791,284.042 167.110,290.791 160.400 C 297.540 153.690,320.823 130.560,342.530 109.000 C 364.238 87.440,381.999 69.519,381.999 69.175 C 382.000 68.384,334.615 21.441,333.654 21.281 C 333.177 21.202,329.716 24.367,323.158 30.881 C 317.777 36.227,297.180 56.653,277.387 76.274 C 257.594 95.895,232.709 120.583,222.087 131.136 C 200.790 152.297,201.232 151.901,199.880 151.015 C 199.373 150.684,187.718 139.236,173.980 125.575 C 141.567 93.347,78.641 30.942,73.034 25.465 C 70.632 23.119,68.382 21.205,68.034 21.212 C 67.685 21.219,56.645 31.909,43.500 44.968 M75.883 192.650 C 75.727 192.806,75.600 195.523,75.600 198.687 L 75.600 204.441 77.900 204.380 C 81.665 204.281,81.404 204.737,81.365 198.305 L 81.330 192.600 78.748 192.484 C 77.328 192.420,76.039 192.495,75.883 192.650 M78.429 215.083 C 75.730 215.614,75.600 215.943,75.600 222.246 C 75.600 227.803,75.783 228.625,76.759 227.450 C 77.010 227.147,77.887 226.792,78.708 226.660 C 80.966 226.297,81.298 225.432,81.327 219.824 L 81.353 215.000 80.376 214.946 C 79.839 214.917,78.963 214.978,78.429 215.083 M80.036 236.557 C 79.782 236.863,78.776 237.233,77.801 237.379 C 75.577 237.712,75.521 237.952,75.682 246.400 L 75.800 252.600 78.305 252.719 C 81.385 252.866,81.136 253.603,81.282 243.900 C 81.400 235.974,81.251 235.093,80.036 236.557 " stroke="none" fill="#fbfbfb" fill-rule="evenodd"></path><path id="path4" d="M43.532 29.895 C 30.260 43.037,16.025 57.127,11.900 61.206 C 3.487 69.526,3.664 69.183,6.408 71.849 C 11.192 76.499,33.455 98.816,34.000 99.509 C 34.330 99.928,34.906 100.437,35.279 100.640 C 35.652 100.843,51.582 116.497,70.679 135.427 C 89.776 154.357,107.316 171.725,109.657 174.023 C 111.998 176.320,114.035 178.605,114.184 179.100 L 114.454 180.000 107.916 180.000 C 98.692 180.000,99.600 178.532,99.600 193.435 C 99.600 207.231,99.792 206.508,96.363 205.629 C 92.219 204.567,84.578 204.503,80.265 205.495 C 78.100 205.993,75.780 206.400,75.109 206.400 C 73.030 206.400,67.176 209.291,65.563 211.114 C 64.089 212.780,64.091 212.812,65.978 217.053 C 67.791 221.127,68.870 222.241,71.364 222.616 C 73.921 222.999,74.051 222.812,73.944 218.914 C 73.847 215.410,74.276 214.400,75.862 214.400 C 76.143 214.400,77.143 214.142,78.086 213.827 C 82.710 212.282,96.998 212.989,99.000 214.862 C 99.220 215.068,99.490 217.613,99.600 220.518 L 99.800 225.800 101.593 225.928 C 103.773 226.083,103.986 226.379,103.994 229.274 C 104.003 232.604,103.330 234.060,101.273 235.161 C 100.773 235.429,99.837 236.492,99.195 237.524 C 98.552 238.556,95.912 241.380,93.327 243.800 C 90.743 246.220,87.296 249.511,85.668 251.113 C 81.783 254.938,81.049 255.292,77.356 255.130 C 74.817 255.019,74.357 255.101,74.168 255.696 C 73.786 256.908,74.416 257.333,75.258 256.430 C 75.782 255.867,76.528 255.600,77.573 255.600 C 79.343 255.600,80.047 256.533,78.785 257.208 C 78.353 257.439,78.000 257.793,78.000 257.994 C 78.000 258.651,73.194 263.200,72.501 263.200 C 70.264 263.200,68.409 264.480,68.468 265.984 C 68.507 266.977,68.210 267.903,67.563 268.804 C 66.524 270.250,47.060 289.812,40.564 295.938 C 38.384 297.993,36.240 300.039,35.800 300.483 C 35.360 300.927,28.098 308.183,19.661 316.608 C 7.091 329.162,4.369 332.071,4.577 332.728 C 4.717 333.169,10.539 339.170,17.516 346.063 C 24.492 352.956,35.851 364.177,42.758 370.998 C 49.665 377.819,58.085 386.145,61.470 389.500 C 64.854 392.855,67.774 395.600,67.958 395.600 C 68.965 395.600,68.740 395.821,142.518 322.500 C 155.191 309.905,165.749 299.600,165.980 299.600 C 166.211 299.600,166.400 299.386,166.400 299.125 C 166.400 298.864,172.047 293.027,178.949 286.153 C 193.072 272.089,192.315 272.603,197.163 273.791 C 199.772 274.430,200.095 274.430,202.762 273.782 C 206.243 272.935,208.325 273.171,210.529 274.661 C 212.692 276.123,235.200 298.404,235.200 299.083 C 235.200 299.368,235.367 299.600,235.570 299.600 C 236.036 299.600,237.847 301.375,281.672 344.800 C 329.792 392.480,332.980 395.600,333.594 395.600 C 333.884 395.600,339.448 390.328,345.960 383.884 C 352.472 377.441,363.452 366.596,370.360 359.784 C 393.472 336.994,396.709 333.717,396.996 332.812 C 397.246 332.025,395.358 329.992,381.941 316.597 C 373.503 308.174,366.330 300.933,366.000 300.506 C 365.670 300.078,365.090 299.560,364.712 299.355 C 364.109 299.028,328.010 263.372,280.712 216.388 C 272.401 208.131,265.600 201.141,265.600 200.855 C 265.600 200.278,268.804 197.067,321.148 145.200 C 361.591 105.125,365.372 101.417,367.163 100.070 C 367.843 99.558,368.400 98.988,368.400 98.803 C 368.400 98.618,371.749 95.167,375.842 91.134 C 395.645 71.618,397.267 69.923,397.035 68.998 C 396.913 68.513,391.096 62.465,384.107 55.559 C 377.118 48.654,365.749 37.423,358.842 30.602 C 351.935 23.781,343.515 15.455,340.130 12.100 C 336.746 8.745,333.828 6.000,333.647 6.000 C 333.047 6.000,337.916 1.224,272.334 66.150 C 254.148 84.155,238.716 99.271,238.041 99.743 C 237.366 100.214,236.811 100.849,236.807 101.153 C 236.803 101.457,236.125 102.332,235.300 103.098 C 234.475 103.864,226.487 111.760,217.549 120.645 C 208.611 129.530,201.085 136.800,200.825 136.800 C 200.179 136.800,164.800 101.557,164.800 100.914 C 164.800 100.631,164.639 100.400,164.443 100.400 C 163.957 100.400,161.382 97.878,119.927 56.800 C 72.806 10.108,68.615 6.000,68.099 6.000 C 67.860 6.000,56.805 16.753,43.532 29.895 M87.930 25.693 C 133.699 71.045,156.838 94.052,160.398 97.745 C 170.548 108.277,200.136 137.415,200.791 137.524 C 201.322 137.612,213.029 126.151,241.668 97.507 C 290.650 48.515,333.107 6.398,333.505 6.406 C 333.775 6.411,350.519 22.903,383.529 55.678 C 390.551 62.650,396.410 68.649,396.548 69.008 C 396.812 69.696,389.408 77.216,368.047 97.955 C 345.614 119.734,265.767 199.005,265.161 200.099 C 264.896 200.576,264.936 201.089,265.287 201.717 C 265.939 202.886,360.093 296.320,366.342 302.000 C 375.948 310.732,396.736 332.114,396.414 332.933 C 396.226 333.410,392.952 336.860,389.138 340.600 C 385.324 344.340,371.354 358.155,358.094 371.300 C 344.834 384.445,333.795 395.200,333.563 395.200 C 333.330 395.200,324.379 386.518,313.670 375.906 C 266.624 329.284,244.685 307.476,240.400 303.073 C 220.455 282.576,211.249 273.752,209.250 273.214 C 208.361 272.974,207.526 272.603,207.393 272.389 C 207.042 271.821,205.629 271.914,204.997 272.545 C 203.890 273.652,197.919 273.780,195.186 272.755 C 192.649 271.803,182.706 280.454,166.444 297.762 C 163.710 300.672,146.361 318.013,119.576 344.607 C 79.318 384.580,68.522 395.200,68.154 395.194 C 67.832 395.189,52.501 380.106,18.071 345.922 C 11.049 338.950,5.204 332.987,5.083 332.672 C 4.868 332.112,14.775 322.179,51.037 286.600 C 59.109 278.680,66.592 271.120,67.667 269.800 C 68.741 268.480,69.814 267.163,70.051 266.874 C 70.369 266.484,70.299 266.214,69.779 265.834 C 68.723 265.062,69.401 264.454,71.654 264.155 C 73.626 263.893,73.858 263.709,81.115 256.643 C 90.166 247.831,103.005 234.898,105.996 231.581 C 107.204 230.242,108.947 228.573,109.870 227.873 C 110.793 227.173,111.652 226.200,111.779 225.712 C 111.906 225.223,112.408 224.610,112.894 224.350 C 116.033 222.670,117.895 220.082,117.955 217.315 C 117.995 215.470,118.215 214.425,118.668 213.924 C 119.358 213.162,121.600 212.914,121.600 213.600 C 121.600 213.820,122.018 214.000,122.528 214.000 C 123.586 214.000,136.406 201.820,136.402 200.818 C 136.400 200.253,134.502 198.314,125.400 189.577 C 122.980 187.255,119.830 184.025,118.400 182.400 C 113.838 177.215,39.115 102.773,34.449 98.764 C 32.183 96.816,4.802 69.573,4.791 69.254 C 4.777 68.889,67.734 6.426,68.130 6.412 C 68.311 6.405,77.221 15.082,87.930 25.693 M58.035 28.979 C 52.846 34.137,41.943 44.968,33.807 53.048 C 25.670 61.128,18.776 68.197,18.485 68.756 C 17.967 69.755,18.167 69.981,29.279 80.963 C 35.505 87.117,56.350 107.787,75.600 126.895 C 94.850 146.004,119.492 170.454,130.360 181.230 L 150.120 200.822 124.760 226.001 C 78.751 271.682,27.490 322.523,22.693 327.231 C 17.997 331.840,17.978 331.866,18.543 332.956 C 19.002 333.839,41.394 356.316,63.961 378.543 L 67.964 382.486 68.998 381.673 C 70.150 380.767,79.528 371.490,113.550 337.600 C 126.249 324.950,147.960 303.440,161.796 289.800 C 175.632 276.160,189.988 261.985,193.698 258.300 C 197.408 254.615,200.625 251.600,200.847 251.600 C 201.297 251.600,240.530 290.219,276.431 326.000 C 310.518 359.973,333.237 382.400,333.567 382.400 C 333.726 382.400,343.251 373.085,354.734 361.700 C 366.217 350.315,377.138 339.560,379.004 337.800 C 380.869 336.040,382.674 333.975,383.015 333.211 L 383.634 331.821 373.311 321.611 C 367.633 315.995,346.790 295.326,326.994 275.681 C 307.197 256.036,282.128 231.166,271.284 220.414 L 251.568 200.866 266.224 186.333 C 274.284 178.340,290.914 161.810,303.179 149.600 C 315.444 137.390,331.131 121.818,338.039 114.995 C 387.965 65.685,383.808 69.945,383.179 68.733 C 382.668 67.749,337.118 22.259,334.921 20.538 C 333.932 19.764,333.478 19.628,332.921 19.939 C 332.156 20.366,305.245 46.970,259.069 92.948 C 222.470 129.389,201.422 150.000,200.807 150.000 C 200.294 150.000,165.221 115.505,125.974 76.400 C 75.852 26.460,68.832 19.600,67.846 19.600 C 67.639 19.600,63.224 23.821,58.035 28.979 M73.301 24.700 C 75.976 27.285,83.410 34.620,89.822 41.000 C 141.966 92.891,199.443 149.893,200.055 150.323 C 201.165 151.101,198.737 153.470,300.412 52.400 C 327.837 25.138,333.087 20.000,333.519 20.000 C 333.927 20.000,350.242 35.966,373.831 59.450 C 384.795 70.366,384.248 68.727,378.737 74.161 C 374.124 78.710,290.651 161.522,265.068 186.931 L 251.041 200.861 271.021 220.682 C 361.121 310.066,382.800 331.757,382.800 332.529 C 382.800 333.293,338.477 377.836,334.900 380.666 L 333.600 381.695 332.300 380.691 C 331.585 380.139,323.980 372.716,315.400 364.195 C 192.993 242.635,201.681 251.200,200.780 251.200 C 200.484 251.200,196.635 254.755,192.226 259.100 C 181.992 269.186,92.195 358.278,79.379 371.061 C 74.052 376.374,69.298 380.934,68.814 381.193 C 67.706 381.785,69.344 383.259,51.255 365.400 C 24.076 338.566,19.229 333.655,18.991 332.708 C 18.786 331.889,23.736 326.830,58.640 292.186 C 80.576 270.414,110.241 240.949,124.562 226.709 L 150.600 200.818 130.600 180.958 C 19.592 70.726,18.744 69.876,18.977 68.948 C 19.102 68.451,25.898 61.420,34.079 53.323 C 42.261 45.225,53.180 34.415,58.345 29.300 C 63.509 24.185,67.893 20.000,68.086 20.000 C 68.280 20.000,70.626 22.115,73.301 24.700 M79.994 169.811 C 79.697 170.367,78.991 170.922,78.427 171.046 C 71.266 172.609,69.933 174.175,73.001 177.423 C 74.003 178.484,74.930 179.780,75.062 180.305 C 75.380 181.573,76.663 182.001,80.126 181.996 C 84.883 181.988,85.878 181.708,86.160 180.298 C 86.294 179.632,87.122 178.306,88.001 177.352 C 90.879 174.231,89.335 172.270,83.246 171.313 C 82.218 171.151,81.788 170.823,81.459 169.950 C 80.926 168.539,80.687 168.516,79.994 169.811 M74.734 174.142 C 74.812 174.551,74.697 175.063,74.480 175.280 C 73.889 175.871,72.400 174.926,72.400 173.959 C 72.400 172.867,74.524 173.033,74.734 174.142 M87.800 174.400 C 87.800 174.913,87.575 175.408,87.300 175.500 C 86.970 175.610,86.800 175.236,86.800 174.400 C 86.800 173.564,86.970 173.190,87.300 173.300 C 87.575 173.392,87.800 173.887,87.800 174.400 M116.984 182.215 C 118.575 183.429,119.102 184.800,117.977 184.800 C 117.036 184.800,116.409 185.936,116.517 187.442 C 116.597 188.562,116.530 188.607,114.452 188.816 C 111.847 189.077,110.614 190.243,111.015 192.067 C 111.190 192.867,111.005 193.621,110.387 194.622 C 109.393 196.229,109.375 200.565,110.357 201.748 C 111.417 203.025,111.112 210.788,109.968 211.661 C 109.435 212.068,108.775 212.587,108.500 212.816 C 107.844 213.361,107.828 218.468,108.480 219.120 C 108.785 219.425,110.320 219.600,112.680 219.600 C 117.017 219.600,116.890 219.450,114.620 221.888 L 112.840 223.800 107.320 223.915 C 104.284 223.978,101.599 223.888,101.354 223.715 C 100.197 222.899,100.432 183.168,101.600 182.000 C 102.974 180.626,115.123 180.796,116.984 182.215 M73.591 186.589 C 73.860 186.913,74.107 187.822,74.140 188.609 L 74.200 190.040 79.200 190.043 C 87.151 190.048,87.200 190.044,87.200 189.476 C 87.200 189.060,86.019 188.987,81.489 189.124 C 75.316 189.309,73.936 188.923,75.225 187.370 C 75.728 186.764,84.989 186.639,86.776 187.215 C 87.102 187.319,87.419 187.096,87.506 186.700 C 87.647 186.053,87.104 186.000,80.380 186.000 C 74.017 186.000,73.163 186.074,73.591 186.589 M115.600 196.594 C 115.600 197.624,114.646 198.599,114.018 198.211 C 113.431 197.848,113.496 195.703,114.100 195.492 C 114.968 195.189,115.600 195.653,115.600 196.594 M121.519 196.965 C 121.439 197.529,121.060 197.839,120.351 197.922 C 118.922 198.087,118.410 196.123,119.750 195.615 C 120.824 195.207,121.677 195.858,121.519 196.965 M126.800 196.800 C 126.800 197.894,125.913 198.641,125.164 198.178 C 124.617 197.840,124.726 195.692,125.300 195.492 C 126.221 195.171,126.800 195.676,126.800 196.800 M133.692 198.653 C 134.631 199.672,135.400 200.645,135.400 200.815 C 135.400 201.621,130.267 206.433,129.947 205.927 C 129.327 204.951,129.588 202.239,130.400 201.200 C 130.830 200.650,131.186 199.720,131.191 199.133 C 131.214 196.419,131.570 196.351,133.692 198.653 M116.720 203.280 C 117.402 203.962,117.332 207.392,116.624 207.980 C 115.144 209.209,113.808 208.342,113.678 206.068 C 113.513 203.177,115.133 201.693,116.720 203.280 M126.315 203.300 C 127.185 204.352,127.337 206.785,126.586 207.616 C 125.729 208.563,123.784 208.656,123.443 207.767 C 123.115 206.914,123.133 203.400,123.467 203.067 C 123.921 202.613,125.880 202.773,126.315 203.300 M89.400 207.713 C 89.400 208.504,89.625 209.378,89.900 209.655 C 90.680 210.442,90.512 210.743,88.921 211.407 C 87.022 212.201,86.563 211.995,86.226 210.199 C 86.031 209.158,85.613 208.542,84.779 208.067 C 84.133 207.700,83.663 207.220,83.734 207.000 C 83.928 206.392,85.970 206.277,86.644 206.837 C 87.125 207.236,87.369 207.202,87.909 206.662 C 88.875 205.696,89.400 206.067,89.400 207.713 M98.852 207.651 C 99.735 208.799,99.865 212.082,99.054 212.755 C 97.755 213.833,93.000 212.745,93.000 211.369 C 93.000 210.695,92.640 209.474,92.201 208.656 C 91.140 206.683,91.706 206.303,95.361 206.530 C 97.682 206.675,98.239 206.853,98.852 207.651 M81.844 207.500 C 81.964 207.885,82.319 208.678,82.631 209.262 C 83.858 211.552,82.915 212.732,80.773 211.586 C 79.914 211.126,77.893 207.441,78.285 207.049 C 78.876 206.457,81.627 206.806,81.844 207.500 M76.418 208.100 C 76.427 208.595,76.680 209.688,76.980 210.529 C 77.534 212.082,76.313 213.593,74.500 213.599 C 73.800 213.601,73.875 211.802,74.600 211.200 C 74.930 210.926,75.200 210.199,75.200 209.584 C 75.200 207.503,76.378 206.068,76.418 208.100 M78.000 209.424 C 78.000 210.004,77.827 210.340,77.600 210.200 C 77.380 210.064,77.200 209.603,77.200 209.176 C 77.200 208.749,77.380 208.400,77.600 208.400 C 77.820 208.400,78.000 208.861,78.000 209.424 M84.557 209.433 C 84.900 210.327,84.873 210.400,84.200 210.400 C 83.867 210.400,83.600 210.044,83.600 209.600 C 83.600 208.646,84.214 208.539,84.557 209.433 M71.165 211.614 C 72.277 213.898,71.981 215.262,70.196 216.075 C 68.841 216.692,69.140 217.359,70.831 217.492 C 73.190 217.677,73.823 218.712,72.957 220.967 C 72.262 222.780,68.800 221.317,68.800 219.210 C 68.800 218.063,68.632 217.600,68.214 217.600 C 66.761 217.600,65.052 213.483,65.931 212.098 C 67.654 209.384,69.975 209.169,71.165 211.614 M73.200 212.000 C 73.200 213.301,72.606 213.635,72.312 212.500 C 72.088 211.635,72.344 210.800,72.833 210.800 C 73.035 210.800,73.200 211.340,73.200 212.000 M87.067 217.867 C 86.920 218.013,86.800 219.355,86.800 220.848 C 86.800 223.801,86.967 223.549,83.510 225.795 C 81.782 226.917,77.138 228.973,75.416 229.379 C 71.910 230.204,65.595 234.002,65.603 235.281 C 65.628 239.439,68.905 245.415,70.996 245.115 C 71.854 244.992,72.114 241.722,71.424 239.730 C 71.174 239.010,71.352 238.741,72.461 238.166 C 74.676 237.017,82.484 234.000,83.244 234.000 C 83.634 234.000,84.075 233.802,84.225 233.559 C 84.375 233.317,85.132 232.853,85.908 232.529 C 87.893 231.700,92.794 227.703,92.832 226.883 C 92.933 224.686,92.693 220.970,92.399 220.198 C 91.873 218.814,87.870 217.063,87.067 217.867 M90.625 219.640 C 90.741 219.829,90.636 220.360,90.390 220.819 C 90.013 221.523,90.105 221.806,90.971 222.608 C 92.604 224.122,92.417 226.356,90.502 228.216 C 89.181 229.499,88.056 230.145,84.000 231.949 C 83.450 232.194,82.730 232.549,82.400 232.739 C 80.958 233.566,78.854 234.442,77.000 234.988 C 75.900 235.311,73.418 236.391,71.484 237.388 C 67.313 239.537,67.807 239.466,67.203 238.007 C 65.959 235.004,68.094 232.973,74.600 230.971 C 75.480 230.701,76.740 230.192,77.400 229.842 C 78.060 229.492,78.808 229.204,79.063 229.202 C 79.494 229.200,83.039 227.577,84.400 226.759 C 84.730 226.560,85.360 226.226,85.800 226.016 C 87.686 225.115,89.384 223.304,88.896 222.715 C 88.346 222.053,88.118 219.981,88.522 219.326 C 88.818 218.847,90.268 219.063,90.625 219.640 M107.569 226.873 C 108.085 227.788,108.054 228.000,107.239 229.146 C 106.138 230.692,105.600 230.450,105.600 228.409 C 105.600 225.503,106.431 224.855,107.569 226.873 M70.319 240.502 C 71.448 241.863,71.359 243.269,70.151 243.132 C 69.138 243.016,68.985 242.820,68.876 241.500 C 68.746 239.934,69.446 239.451,70.319 240.502 M200.333 266.073 C 196.966 266.970,196.893 268.800,200.224 268.800 C 201.892 268.800,202.400 268.940,202.400 269.400 C 202.400 270.106,197.426 270.290,197.000 269.600 C 196.525 268.832,195.675 269.209,195.272 270.366 C 194.792 271.743,194.980 272.016,196.367 271.954 C 197.044 271.923,197.159 271.844,196.700 271.724 C 194.636 271.185,196.100 270.400,199.171 270.400 C 201.457 270.400,202.510 270.232,202.943 269.800 C 203.601 269.142,205.422 268.988,205.775 269.560 C 205.898 269.758,205.233 270.381,204.299 270.944 C 202.403 272.088,202.920 272.360,205.060 271.345 C 207.047 270.402,206.807 269.076,204.600 268.800 C 203.113 268.614,203.006 268.516,203.087 267.415 C 203.135 266.764,202.955 266.092,202.687 265.922 C 202.130 265.568,202.262 265.560,200.333 266.073 M202.400 266.767 C 202.400 267.941,201.826 268.400,200.357 268.400 C 198.461 268.400,198.343 267.760,200.100 266.996 C 201.626 266.333,202.400 266.256,202.400 266.767 M198.700 272.289 C 199.415 272.378,200.585 272.378,201.300 272.289 C 202.015 272.201,201.430 272.128,200.000 272.128 C 198.570 272.128,197.985 272.201,198.700 272.289 " stroke="none" fill="#945454" fill-rule="evenodd"></path><path id="path5" d="M58.345 29.300 C 53.180 34.415,42.261 45.225,34.079 53.323 C 25.898 61.420,19.102 68.451,18.977 68.948 C 18.744 69.876,19.592 70.726,130.600 180.958 L 150.600 200.818 124.562 226.709 C 110.241 240.949,80.576 270.414,58.640 292.186 C 23.736 326.830,18.786 331.889,18.991 332.708 C 19.229 333.655,24.076 338.566,51.255 365.400 C 69.344 383.259,67.706 381.785,68.814 381.193 C 69.298 380.934,74.052 376.374,79.379 371.061 C 92.195 358.278,181.992 269.186,192.226 259.100 C 196.635 254.755,200.484 251.200,200.780 251.200 C 201.681 251.200,192.993 242.635,315.400 364.195 C 323.980 372.716,331.585 380.139,332.300 380.691 L 333.600 381.695 334.900 380.666 C 338.477 377.836,382.800 333.293,382.800 332.529 C 382.800 331.757,361.121 310.066,271.021 220.682 L 251.041 200.861 265.068 186.931 C 290.651 161.522,374.124 78.710,378.737 74.161 C 384.248 68.727,384.795 70.366,373.831 59.450 C 350.242 35.966,333.927 20.000,333.519 20.000 C 333.087 20.000,327.837 25.138,300.412 52.400 C 198.737 153.470,201.165 151.101,200.055 150.323 C 199.443 149.893,141.966 92.891,89.822 41.000 C 75.007 26.258,68.530 20.000,68.086 20.000 C 67.893 20.000,63.509 24.185,58.345 29.300 M73.034 25.465 C 78.641 30.942,141.567 93.347,173.980 125.575 C 187.718 139.236,199.373 150.684,199.880 151.015 C 201.232 151.901,200.790 152.297,222.087 131.136 C 232.709 120.583,257.594 95.895,277.387 76.274 C 297.180 56.653,317.777 36.227,323.158 30.881 C 329.716 24.367,333.177 21.202,333.654 21.281 C 334.615 21.441,382.000 68.384,381.999 69.175 C 381.999 69.519,364.238 87.440,342.530 109.000 C 320.823 130.560,297.540 153.690,290.791 160.400 C 284.042 167.110,272.283 178.791,264.660 186.357 C 256.118 194.836,250.800 200.407,250.800 200.876 C 250.800 201.727,250.401 201.324,301.806 252.275 C 370.318 320.178,382.000 331.868,382.000 332.519 C 382.000 332.879,375.667 339.434,367.926 347.086 C 360.186 354.739,349.355 365.455,343.858 370.900 C 338.361 376.345,333.747 380.800,333.606 380.800 C 333.188 380.800,299.922 347.913,227.800 276.198 C 214.160 262.635,202.504 251.277,201.898 250.958 C 200.017 249.967,207.028 243.183,100.795 348.800 C 69.362 380.050,68.490 380.890,67.852 380.533 C 66.619 379.843,19.600 333.035,19.600 332.497 C 19.600 331.928,25.563 325.962,86.988 265.074 C 146.834 205.750,150.800 201.756,150.800 200.819 C 150.800 199.853,152.247 201.314,99.794 149.327 C 33.581 83.703,19.600 69.738,19.600 69.224 C 19.600 68.487,67.276 21.227,68.034 21.212 C 68.382 21.205,70.632 23.119,73.034 25.465 M236.432 101.101 C 236.414 101.376,235.635 102.353,234.700 103.271 C 233.765 104.190,233.360 104.684,233.800 104.371 C 235.442 103.199,236.859 101.580,236.664 101.098 C 236.505 100.702,236.457 100.703,236.432 101.101 M360.600 106.116 C 357.960 108.801,356.330 110.548,356.978 109.998 C 358.563 108.654,365.600 101.628,365.600 101.390 C 365.600 101.044,365.433 101.202,360.600 106.116 M189.272 125.701 C 195.361 131.805,200.537 136.800,200.774 136.800 C 201.010 136.800,203.318 134.691,205.902 132.113 C 208.486 129.535,210.072 127.870,209.427 128.413 C 208.782 128.956,206.662 130.975,204.716 132.900 C 202.770 134.825,201.005 136.400,200.793 136.400 C 200.581 136.400,195.937 131.945,190.473 126.500 C 185.009 121.055,180.012 116.150,179.369 115.601 C 178.726 115.051,183.182 119.596,189.272 125.701 M68.200 133.379 C 75.240 140.394,88.336 153.435,97.303 162.359 C 106.269 171.282,113.545 178.767,113.471 178.992 C 113.390 179.236,110.741 179.480,106.887 179.600 C 102.362 179.740,100.283 179.955,99.919 180.319 C 99.345 180.894,98.732 206.091,99.300 205.739 C 99.465 205.636,99.600 200.084,99.600 193.399 C 99.600 178.538,98.693 180.000,107.916 180.000 L 114.454 180.000 114.176 179.126 C 114.024 178.645,106.147 170.590,96.672 161.226 C 87.198 151.862,74.389 139.160,68.209 133.000 C 62.029 126.840,56.619 121.535,56.186 121.212 C 55.754 120.888,61.160 126.364,68.200 133.379 M321.693 144.668 C 315.474 150.901,310.498 156.000,310.635 156.000 C 310.986 156.000,333.359 133.618,333.162 133.464 C 333.073 133.394,327.912 138.436,321.693 144.668 M287.500 178.549 C 275.455 190.497,265.600 200.511,265.600 200.803 C 265.600 201.095,265.645 201.251,265.700 201.151 C 265.755 201.050,275.699 191.030,287.799 178.884 C 299.898 166.738,309.708 156.806,309.599 156.813 C 309.489 156.820,299.545 166.602,287.500 178.549 M79.785 169.027 C 79.384 169.672,78.784 170.425,78.452 170.700 C 78.096 170.994,78.037 171.200,78.308 171.200 C 78.820 171.200,80.400 169.633,80.400 169.125 C 80.400 168.359,81.061 168.896,81.478 170.000 C 81.727 170.660,82.171 171.186,82.465 171.168 C 82.869 171.145,82.878 171.087,82.500 170.935 C 82.225 170.824,82.000 170.498,82.000 170.211 C 82.000 169.924,81.666 169.276,81.257 168.771 L 80.514 167.854 79.785 169.027 M73.544 172.030 C 73.025 172.487,72.851 172.731,73.158 172.571 C 73.464 172.412,74.454 172.050,75.358 171.768 C 76.958 171.267,76.968 171.253,75.744 171.227 C 75.012 171.211,74.095 171.546,73.544 172.030 M84.468 171.378 C 84.616 171.538,85.403 171.820,86.217 172.004 C 87.099 172.203,87.552 172.192,87.336 171.976 C 86.905 171.545,84.081 170.955,84.468 171.378 M71.518 176.236 C 71.761 176.696,72.509 177.660,73.180 178.379 C 74.714 180.020,74.720 180.666,73.205 180.999 C 71.754 181.318,71.370 181.841,72.015 182.618 C 72.392 183.072,72.392 183.328,72.016 183.781 C 71.460 184.451,71.782 185.844,72.747 186.943 C 73.488 187.786,73.503 187.940,73.835 197.925 C 74.051 204.434,74.004 205.333,73.408 205.991 C 72.569 206.918,74.178 206.801,79.800 205.526 C 81.780 205.076,84.514 204.735,85.876 204.767 L 88.352 204.826 87.732 203.584 C 87.221 202.560,87.156 201.347,87.359 196.671 C 87.702 188.750,87.805 187.977,88.729 186.398 C 90.038 184.159,89.765 181.470,88.200 181.201 C 86.458 180.902,86.452 179.694,88.184 178.015 C 88.963 177.260,89.600 176.412,89.600 176.130 C 89.600 175.196,86.407 179.064,86.160 180.298 C 85.665 182.776,75.684 182.782,75.062 180.305 C 74.930 179.780,73.980 178.462,72.949 177.376 C 71.918 176.289,71.274 175.776,71.518 176.236 M87.677 182.987 C 88.483 184.111,87.038 184.400,80.600 184.400 C 74.137 184.400,72.495 184.065,73.590 182.970 C 74.087 182.473,87.320 182.488,87.677 182.987 M87.506 186.700 C 87.419 187.096,87.102 187.319,86.776 187.215 C 84.989 186.639,75.728 186.764,75.225 187.370 C 73.936 188.923,75.316 189.309,81.489 189.124 C 86.019 188.987,87.200 189.060,87.200 189.476 C 87.200 190.044,87.151 190.048,79.200 190.043 L 74.200 190.040 74.140 188.609 C 74.107 187.822,73.860 186.913,73.591 186.589 C 73.163 186.074,74.017 186.000,80.380 186.000 C 87.104 186.000,87.647 186.053,87.506 186.700 M81.365 198.305 C 81.404 204.737,81.665 204.281,77.900 204.380 L 75.600 204.441 75.600 198.687 C 75.600 191.998,75.429 192.334,78.748 192.484 L 81.330 192.600 81.365 198.305 M114.100 195.492 C 113.496 195.703,113.431 197.848,114.018 198.211 C 114.646 198.599,115.600 197.624,115.600 196.594 C 115.600 195.653,114.968 195.189,114.100 195.492 M119.750 195.615 C 118.410 196.123,118.922 198.087,120.351 197.922 C 121.060 197.839,121.439 197.529,121.519 196.965 C 121.677 195.858,120.824 195.207,119.750 195.615 M125.300 195.492 C 124.726 195.692,124.617 197.840,125.164 198.178 C 125.913 198.641,126.800 197.894,126.800 196.800 C 126.800 195.676,126.221 195.171,125.300 195.492 M280.822 216.411 C 310.814 246.339,344.608 279.813,345.395 280.372 C 346.334 281.040,277.202 212.310,270.396 205.811 C 267.868 203.396,272.560 208.166,280.822 216.411 M92.500 205.076 C 92.885 205.176,93.515 205.176,93.900 205.076 C 94.285 204.975,93.970 204.893,93.200 204.893 C 92.430 204.893,92.115 204.975,92.500 205.076 M77.200 209.176 C 77.200 209.603,77.380 210.064,77.600 210.200 C 77.827 210.340,78.000 210.004,78.000 209.424 C 78.000 208.861,77.820 208.400,77.600 208.400 C 77.380 208.400,77.200 208.749,77.200 209.176 M83.600 209.600 C 83.600 210.044,83.867 210.400,84.200 210.400 C 84.873 210.400,84.900 210.327,84.557 209.433 C 84.214 208.539,83.600 208.646,83.600 209.600 M65.404 210.796 C 64.774 211.454,64.335 212.056,64.429 212.134 C 64.523 212.212,65.113 211.674,65.739 210.938 C 67.154 209.277,66.945 209.188,65.404 210.796 M72.298 211.300 C 72.067 211.988,72.416 213.200,72.847 213.200 C 73.041 213.200,73.200 212.660,73.200 212.000 C 73.200 210.803,72.618 210.351,72.298 211.300 M82.000 213.222 C 74.859 213.851,73.894 214.542,73.841 219.060 C 73.801 222.439,73.765 222.572,72.800 222.841 C 72.196 223.010,72.072 223.136,72.486 223.160 C 73.975 223.247,74.539 228.187,73.239 229.753 C 72.335 230.842,80.717 227.607,83.528 225.782 C 86.974 223.546,86.800 223.814,86.800 220.744 C 86.800 218.251,86.893 217.901,87.609 217.713 C 88.349 217.520,88.361 217.460,87.753 217.015 C 86.940 216.420,87.281 213.818,88.243 213.280 C 88.984 212.865,86.324 212.841,82.000 213.222 M81.327 219.824 C 81.298 225.432,80.966 226.297,78.708 226.660 C 77.887 226.792,77.010 227.147,76.759 227.450 C 75.783 228.625,75.600 227.803,75.600 222.246 C 75.600 215.517,76.127 214.712,80.376 214.946 L 81.353 215.000 81.327 219.824 M99.375 226.400 L 99.400 237.000 100.416 236.000 C 100.974 235.450,101.824 234.739,102.305 234.420 C 103.457 233.654,104.001 231.984,103.994 229.240 C 103.986 226.381,103.769 226.082,101.593 225.928 L 99.800 225.800 99.575 220.800 C 99.429 217.554,99.359 219.519,99.375 226.400 M103.200 230.153 C 103.200 232.370,103.095 232.734,102.400 232.916 C 101.657 233.110,101.600 232.928,101.600 230.363 C 101.600 227.867,101.677 227.600,102.400 227.600 C 103.116 227.600,103.200 227.867,103.200 230.153 M88.355 231.055 C 88.056 231.415,87.064 232.030,86.150 232.422 C 85.236 232.813,84.368 233.329,84.220 233.567 C 84.073 233.805,83.634 234.000,83.244 234.000 C 82.686 234.000,77.724 235.859,72.836 237.899 C 72.406 238.079,72.459 238.204,73.059 238.426 C 73.809 238.703,73.844 239.100,73.794 246.659 C 73.738 254.999,73.507 256.446,71.840 258.903 C 70.688 260.601,71.013 261.323,72.847 261.137 C 73.591 261.062,74.240 261.180,74.290 261.400 C 74.339 261.620,73.623 261.800,72.698 261.800 C 71.502 261.800,70.981 261.978,70.895 262.416 C 70.828 262.755,70.015 263.385,69.087 263.816 C 67.489 264.559,67.397 264.695,67.341 266.400 C 67.308 267.390,67.145 268.560,66.978 269.000 C 66.772 269.543,66.973 269.432,67.601 268.656 C 68.242 267.865,68.509 267.047,68.469 266.008 C 68.409 264.479,70.245 263.200,72.501 263.200 C 73.194 263.200,78.000 258.651,78.000 257.994 C 78.000 257.793,78.353 257.439,78.785 257.208 C 80.047 256.533,79.343 255.600,77.573 255.600 C 76.528 255.600,75.782 255.867,75.258 256.430 C 74.416 257.333,73.786 256.908,74.168 255.696 C 74.357 255.101,74.817 255.019,77.356 255.130 C 81.049 255.292,81.783 254.938,85.668 251.113 C 87.296 249.511,90.740 246.220,93.322 243.800 C 95.904 241.380,98.303 238.950,98.654 238.400 C 99.005 237.850,96.886 239.776,93.946 242.681 C 86.993 249.549,87.200 249.628,87.200 240.118 C 87.200 233.185,87.216 233.055,88.220 231.738 C 89.252 230.385,89.358 229.846,88.355 231.055 M81.282 243.900 C 81.136 253.603,81.385 252.866,78.305 252.719 L 75.800 252.600 75.682 246.400 C 75.521 237.952,75.577 237.712,77.801 237.379 C 78.776 237.233,79.782 236.863,80.036 236.557 C 81.251 235.093,81.400 235.974,81.282 243.900 M71.354 238.976 C 71.232 239.292,71.303 239.856,71.512 240.228 C 71.810 240.761,71.881 240.638,71.845 239.653 C 71.795 238.269,71.684 238.115,71.354 238.976 M72.093 242.800 C 72.093 243.570,72.175 243.885,72.276 243.500 C 72.376 243.115,72.376 242.485,72.276 242.100 C 72.175 241.715,72.093 242.030,72.093 242.800 M69.174 244.522 C 70.087 245.698,71.053 246.060,71.581 245.423 C 71.960 244.967,71.891 244.903,71.210 245.082 C 70.706 245.213,70.023 245.002,69.494 244.550 C 68.700 243.874,68.669 243.871,69.174 244.522 M200.100 266.996 C 198.343 267.760,198.461 268.400,200.357 268.400 C 201.408 268.400,201.993 268.194,202.157 267.767 C 202.740 266.249,202.245 266.064,200.100 266.996 M202.884 269.815 C 202.513 270.236,201.476 270.400,199.184 270.400 C 195.974 270.400,194.692 271.156,196.900 271.748 C 200.022 272.585,206.638 270.955,205.776 269.562 C 205.426 268.995,203.456 269.167,202.884 269.815 M55.241 281.023 C 49.214 287.069,44.354 292.072,44.441 292.141 C 44.528 292.210,49.595 287.257,55.700 281.133 C 61.805 275.010,66.665 270.007,66.500 270.015 C 66.335 270.024,61.268 274.977,55.241 281.023 M192.200 273.600 C 191.636 273.842,192.167 273.956,194.000 273.986 C 195.443 274.010,197.045 274.283,197.600 274.600 C 198.907 275.347,200.824 275.348,202.254 274.602 C 204.090 273.645,208.562 273.800,210.011 274.872 C 210.660 275.351,211.271 275.662,211.371 275.563 C 211.770 275.163,208.745 273.517,207.241 273.315 C 206.332 273.193,204.363 273.398,202.715 273.786 C 200.015 274.422,199.614 274.425,197.341 273.837 C 194.639 273.136,193.410 273.080,192.200 273.600 M178.661 286.500 C 172.247 292.935,167.526 297.750,168.169 297.200 C 170.027 295.611,190.834 274.800,190.565 274.800 C 190.431 274.800,185.074 280.065,178.661 286.500 M212.000 275.745 C 212.000 276.026,220.517 284.556,222.224 285.984 C 223.329 286.909,221.858 285.388,214.900 278.413 C 213.305 276.815,212.000 275.614,212.000 275.745 " stroke="none" fill="#9e8e89" fill-rule="evenodd"></path></g></svg>